<svg width="142" height="109" viewBox="0 0 142 109" fill="none" xmlns="http://www.w3.org/2000/svg">
<path d="M142 50.0124L138.224 48.1922L141.73 40.8512L138.374 39.2415L140.247 35.3153L132.695 31.6748L130.822 35.6011L116.347 28.6211L109.035 43.92L105.543 42.2351L98.4709 57.0075L94.8298 55.2474L89.2707 66.8758L85.7344 65.1609L83.9812 68.8464L80.2053 67.0262L78.2723 71.0578L74.7511 69.3729L73.0728 72.893L69.4317 71.133L67.4837 75.1946L60.2014 71.6745L58.4483 75.33L47.7796 70.1853L46.0864 73.7053L34.8932 68.3049L32.9603 72.3665L18.5006 65.4015L16.7624 69.057L9.57007 65.5971L7.89185 69.1172L4.11582 67.297L0.429688 75.0141L4.20572 76.8343L2.5275 80.3544L9.70487 83.8143L7.75695 87.876L14.9793 91.366L13.1662 95.1568L38.5493 107.387L40.3624 103.596L50.9712 108.711L52.9192 104.649L60.4711 108.289L62.1493 104.769L69.4317 108.274L71.1848 104.634L78.3472 108.079L80.2952 104.017L84.0562 105.837L85.7494 102.317L89.3905 104.077L91.3235 100.031L94.8298 101.731L96.5979 98.0451L100.374 99.8653L104.045 92.1783L107.581 93.8782L110.968 86.8229L114.639 88.598L118.325 80.8809L121.921 82.6109L127.48 70.9976L131.121 72.7426L142 50.0124Z" fill="#FFCD00"/>
<path d="M138.314 29.9146L134.672 28.1546L131.031 26.3945L134.657 18.8128L131.001 17.0527L134.627 9.471L130.986 7.726L132.799 3.93513L125.517 0.415039L123.704 4.20591L120.048 2.44586L116.422 10.0276L123.719 13.5477L120.093 21.1294L123.734 22.8744L120.108 30.4562L123.749 32.2162L127.405 33.9762L131.046 35.7363L132.994 31.6746L136.635 33.4347L138.314 29.9146Z" fill="#5F3002"/>
</svg>
