<svg width="1679" height="227" viewBox="0 0 1679 227" fill="none" xmlns="http://www.w3.org/2000/svg">
<path d="M-4 6.61157H90.1613C99.2195 6.61157 107.164 8.02835 114.006 10.8619C120.836 13.6955 126.04 17.1587 129.619 21.2517C133.198 25.3446 136.056 30.1721 138.205 35.7343C140.355 41.2965 141.706 46.1241 142.256 50.217C142.807 54.3099 143.095 58.4553 143.095 62.6532C143.095 74.1973 140.198 84.0099 134.391 92.0908C128.583 100.172 121.793 105.681 114.006 108.62V109.25C124.979 111.768 133.906 118.118 140.827 128.297C147.736 138.477 151.196 150.913 151.196 165.606C151.196 172.113 150.357 178.567 148.693 184.969C147.028 191.37 144.288 197.877 140.473 204.489C136.659 211.1 130.825 216.505 122.947 220.703C115.081 224.901 105.669 227 94.697 227H-4V6.61157ZM62.7505 90.3591H68.9511C78.809 90.3591 83.7248 85.2168 83.7248 74.932C83.7248 64.6472 78.7959 59.5048 68.9511 59.5048H62.7505V90.3591ZM62.7505 174.107H70.8519C81.9682 174.107 87.5395 168.545 87.5395 157.42C87.5395 146.506 81.9682 141.048 70.8519 141.048H62.7505V174.107Z" fill="#866AE1"/>
<path d="M304.465 217.515C291.907 223.838 277.763 227 262.032 227C246.301 227 232.157 223.838 219.598 217.515C207.04 211.192 196.907 202.626 189.199 191.817C181.491 181.007 175.605 168.925 171.554 155.557C167.504 142.203 165.472 128.179 165.472 113.487C165.472 98.7943 167.504 84.7839 171.554 71.4163C175.605 58.0618 181.491 45.9798 189.199 35.1572C196.907 24.3477 207.04 15.7814 219.598 9.45833C232.157 3.16152 246.301 0 262.032 0C277.763 0 291.907 3.16152 304.465 9.48457C317.024 15.8076 327.144 24.3739 334.865 35.1834C342.573 45.993 348.459 58.075 352.51 71.4426C356.56 84.797 358.592 98.8206 358.592 113.513C358.592 128.206 356.56 142.229 352.51 155.584C348.459 168.938 342.573 181.033 334.865 191.843C327.157 202.626 317.024 211.192 304.465 217.515ZM238.79 146.689C245.226 154.547 252.974 158.47 262.032 158.47C271.09 158.47 278.837 154.547 285.274 146.689C291.71 138.845 294.922 127.773 294.922 113.5C294.922 99.2272 291.71 88.1553 285.274 80.3106C278.837 72.4658 271.09 68.5303 262.032 68.5303C252.974 68.5303 245.226 72.4658 238.79 80.3106C232.353 88.1685 229.129 99.2272 229.129 113.5C229.142 127.773 232.353 138.845 238.79 146.689Z" fill="#866AE1"/>
<path d="M381.231 227V6.61157H443.931L488.03 110.194V6.61157H551.438V227H489.695L444.639 121.214V227H381.231Z" fill="#866AE1"/>
<path d="M620.325 227L679.682 6.61157H753.105L812.462 227H744.047L737.375 194.886H695.413L688.741 227H620.325ZM716.4 83.7475L704.72 139.789H728.08L716.4 83.7475Z" fill="#866AE1"/>
<path d="M825.82 227V6.61157H912.837C925.553 6.61157 936.473 9.02535 945.609 13.8529C954.746 18.6805 961.655 25.0822 966.348 33.0582C971.041 41.0341 974.41 49.0626 976.481 57.1435C978.539 65.2244 979.575 73.6726 979.575 82.4881C979.575 91.3037 978.539 99.8044 976.481 107.99C974.41 116.176 971.041 124.257 966.348 132.233C961.655 140.209 954.746 146.611 945.609 151.438C936.473 156.266 925.54 158.68 912.837 158.68H892.571V227H825.82ZM892.571 63.9125V101.379H899.964C910.609 101.379 915.931 95.0818 915.931 82.4881C915.931 70.1044 910.609 63.9125 899.964 63.9125H892.571Z" fill="#866AE1"/>
<path d="M1001.27 227V6.61157H1088.29C1101 6.61157 1111.92 9.02535 1121.06 13.8529C1130.2 18.6805 1137.1 25.0822 1141.8 33.0582C1146.48 41.0341 1149.86 49.0626 1151.93 57.1435C1153.99 65.2244 1155.02 73.6726 1155.02 82.4881C1155.02 91.3037 1153.99 99.8044 1151.93 107.99C1149.86 116.176 1146.49 124.257 1141.8 132.233C1137.1 140.209 1130.2 146.611 1121.06 151.438C1111.92 156.266 1100.99 158.68 1088.29 158.68H1068.02V227H1001.27ZM1068.02 63.9125V101.379H1075.41C1086.06 101.379 1091.38 95.0818 1091.38 82.4881C1091.38 70.1044 1086.06 63.9125 1075.41 63.9125H1068.02Z" fill="#866AE1"/>
<path d="M1176.72 227V6.61157H1293.53V70.5242H1243.47V89.0998H1288.52V141.993H1243.47V163.087H1293.53V227H1176.72Z" fill="#866AE1"/>
<path d="M1340.25 227V70.5242H1305.21V6.61157H1442.04V70.5242H1407V227H1340.25Z" fill="#866AE1"/>
<path d="M1458.73 227V6.61157H1525.48V227H1458.73Z" fill="#866AE1"/>
<path d="M1577.21 227V70.5242H1542.17V6.61157H1679V70.5242H1643.96V227H1577.21Z" fill="#866AE1"/>
</svg>
