<svg width="2456" height="678" viewBox="0 0 2456 678" fill="none" xmlns="http://www.w3.org/2000/svg">
<g clip-path="url(#clip0)">
<path d="M585.518 598.922L578.18 604.596L574.105 599.313L576.002 597.846L571.539 591.514L573.037 590.357L564.432 579.238L560.765 582.082L555.397 575.129L562.726 569.451L559.071 564.727L556.624 566.618L551.038 559.393L548.962 562.324L547.08 559.342L544.313 561.934L538.333 555.892L536.266 558.828L533.412 555.697L528.252 559.689L531.854 564.905L529.944 566.377L532.845 571.248L520.324 580.936L512.97 573.294L515.952 570.983L514.075 567.991L515.436 566.943L510.604 559.571L512.452 558.586L507.717 552.473L498.749 559.405L501.423 562.858L498.189 564.292L502.059 569.298L500.153 570.761L503.005 574.455L507.019 571.228L511.856 578.591L516.159 584.15L509.365 589.41L517.109 599.412L521.298 596.175L529.092 605.695L526.529 608.564L530.403 613.561L541.603 604.457L535.783 599.187L533.668 600.382L530.877 596.765L536.572 592.353L534.86 590.125L536.757 588.658L563.21 622.844L572.994 615.279L576.431 619.731L592.183 607.535L585.518 598.922Z" fill="#FFCD00"/>
<path d="M454.852 395.722L448.156 388.895C446.239 391.224 444.411 393.631 442.705 396.137L453.889 405.255L449.064 409.986L452.922 414.798L450.731 416.948L460.605 428.767L457.551 430.908L467.015 440.547L481.475 426.361L476.135 420.919L481.557 417.68L473.821 409.792L476.888 406.778L471.187 400.962L464.73 407.531L454.852 395.722Z" fill="#FFCD00"/>
<path d="M364.867 551.742L355.308 551.489C355.55 554.496 355.908 557.497 356.424 560.485L370.802 559.264L370.622 566.019L376.741 566.796L376.66 569.865L391.975 571.496L391.267 575.159L404.772 575.508L405.305 555.259L397.683 555.059L399.328 548.961L388.284 548.669L388.393 544.37L380.252 544.153L380.177 553.364L364.867 551.742Z" fill="#FFCD00"/>
<path d="M530.567 449.092L526.874 440.272C524.231 441.726 521.642 443.285 519.129 444.982L526.144 457.592L519.911 460.201L521.713 466.099L518.882 467.285L523.681 481.919L520.05 482.778L525.275 495.236L543.959 487.41L541.012 480.378L547.248 479.375L542.981 469.185L546.946 467.519L543.803 460.007L535.372 463.719L530.567 449.092Z" fill="#FFCD00"/>
<path d="M348.911 462.938L343.549 460.44C342.956 462.231 342.432 464.046 342 465.893L350.453 468.729L348.713 472.573L351.996 474.527L351.206 476.273L359.499 480.981L358.209 482.916L365.786 486.44L371 474.915L366.724 472.924L369.137 469.819L362.942 466.933L364.046 464.485L359.48 462.356L357.203 467.64L348.911 462.938Z" fill="#FFCD00"/>
<path d="M340.733 385.664L333.058 379.96C331.527 382.559 330.094 385.22 328.798 387.961L341.263 395.231L337.232 400.653L341.791 404.808L339.96 407.272L351.551 417.413L348.866 420.003L359.714 428.055L371.794 411.794L365.673 407.248L370.526 403.205L361.658 396.616L364.22 393.161L357.684 388.302L352.326 395.795L340.733 385.664Z" fill="#FFCD00"/>
<path d="M266.489 518.685L259.623 519.337C260.055 521.466 260.577 523.588 261.209 525.68L271.401 523.556L271.862 528.405L276.312 528.427L276.521 530.631L287.626 530.465L287.437 533.152L297.135 532.23L295.753 517.683L290.276 518.204L290.925 513.693L282.99 514.447L282.697 511.361L276.854 511.914L277.603 518.514L266.489 518.685Z" fill="#FFCD00"/>
<path d="M491.639 637.615L484.758 637.152C484.841 639.323 485.014 641.502 485.3 643.669L495.701 643.215L495.374 648.075L499.763 648.814L499.615 651.023L510.601 652.649L509.981 655.271L519.701 655.924L520.682 641.344L515.192 640.975L516.56 636.628L508.607 636.093L508.815 633.001L502.96 632.605L502.635 639.238L491.639 637.615Z" fill="#FFCD00"/>
<path d="M478.583 498.76L474.151 493.474C472.643 495.038 471.191 496.672 469.826 498.378L477.356 505.567L473.623 508.697L476.129 512.375L474.433 513.798L480.867 522.85L478.547 524.218L484.806 531.683L496.004 522.294L492.469 518.078L496.552 516.055L491.431 509.947L493.806 507.955L490.037 503.457L485.026 507.816L478.583 498.76Z" fill="#FFCD00"/>
<path d="M562.829 517.467L561.381 514.101C560.376 514.668 559.387 515.277 558.437 515.933L561.16 520.74L558.78 521.763L559.491 524.014L558.415 524.479L560.302 530.07L558.913 530.406L560.952 535.158L568.083 532.096L566.927 529.414L569.31 529.007L567.645 525.117L569.163 524.467L567.931 521.598L564.714 523.043L562.829 517.467Z" fill="#FFCD00"/>
<path d="M518.82 314.74L518.03 312.52C518.84 312.32 519.65 312.14 520.48 312L521.25 315.48L523.01 314.85L523.68 316.22L524.48 315.94L526.07 319.39L526.98 318.91L528.1 322.05L522.82 323.93L522.19 322.16L520.71 323.07L519.8 320.5L518.68 320.9L518 319L520.41 318.18L518.82 314.74Z" fill="#FFCD00"/>
<path d="M606.146 346.017L606.725 342.4C605.573 342.34 604.412 342.325 603.258 342.37L602.984 347.888L600.426 347.479L599.821 349.76L598.664 349.577L597.264 355.309L595.911 354.849L595.089 359.954L602.751 361.186L603.211 358.302L605.442 359.234L606.118 355.057L607.748 355.321L608.244 352.238L604.753 351.737L606.146 346.017Z" fill="#FFCD00"/>
<path d="M566.392 363.438L565.798 359.823C564.686 360.131 563.58 360.483 562.5 360.89L563.983 366.212L561.427 366.632L561.573 368.987L560.417 369.179L560.9 375.06L559.472 375.051L560.305 380.155L567.964 378.903L567.489 376.021L569.9 376.2L569.222 372.023L570.851 371.759L570.348 368.678L566.877 369.304L566.392 363.438Z" fill="#FFCD00"/>
<path d="M422.382 626.254L418.733 625.947C418.955 624.812 419.213 623.687 419.536 622.57L424.961 623.64L425.182 621.058L427.55 621.024L427.655 619.856L433.556 619.884L433.444 618.452L438.597 618.887L437.942 626.622L435.033 626.377L435.403 628.767L431.187 628.412L431.045 630.058L427.94 629.796L428.297 626.288L422.382 626.254Z" fill="#FFCD00"/>
<path d="M293.737 648.622L290.078 648.478C290.249 647.335 290.456 646.199 290.729 645.07L296.197 645.897L296.302 643.306L298.666 643.167L298.719 641.995L304.616 641.76L304.439 640.335L309.606 640.539L309.298 648.296L306.381 648.181L306.857 650.552L302.629 650.385L302.561 652.036L299.448 651.913L299.647 648.393L293.737 648.622Z" fill="#FFCD00"/>
<path d="M447.56 670.734L443.898 670.814C444 669.663 444.136 668.517 444.34 667.372L449.848 667.862L449.794 665.271L452.145 664.987L452.126 663.814L457.997 663.218L457.734 661.806L462.904 661.693L463.071 669.455L460.153 669.518L460.773 671.856L456.543 671.949L456.577 673.6L453.461 673.668L453.444 670.142L447.56 670.734Z" fill="#FFCD00"/>
<path d="M390.689 346.74L386.511 341.252C384.931 342.743 383.403 344.306 381.96 345.947L389.143 353.482L385.268 356.433L387.598 360.225L385.836 361.566L391.838 370.911L389.456 372.168L395.357 379.92L406.984 371.067L403.651 366.69L407.825 364.861L402.997 358.519L405.463 356.642L401.91 351.971L396.699 356.089L390.689 346.74Z" fill="#FFCD00"/>
<path d="M307.58 337.11L304.07 335.44C303.66 336.6 303.3 337.77 303 338.97L308.55 340.89L307.37 343.37L309.52 344.67L308.98 345.8L314.4 348.93L313.53 350.18L318.49 352.54L322.02 345.1L319.22 343.77L320.84 341.77L316.78 339.84L317.53 338.26L314.54 336.84L312.99 340.25L307.58 337.11Z" fill="#FFCD00"/>
<path d="M1155.21 572.011L1147.87 577.684L1143.8 572.402L1145.7 570.935L1141.23 564.603L1142.73 563.445L1134.13 552.327L1130.46 555.17L1125.09 548.218L1132.42 542.54L1128.76 537.815L1126.32 539.707L1120.73 532.482L1118.66 535.413L1116.77 532.431L1114.01 535.023L1108.03 528.98L1105.96 531.916L1103.11 528.786L1097.95 532.778L1101.55 537.994L1099.64 539.465L1102.54 544.337L1090.02 554.025L1082.66 546.382L1085.65 544.072L1083.77 541.08L1085.13 540.032L1080.3 532.66L1082.15 531.675L1077.41 525.562L1068.44 532.493L1071.12 535.947L1067.88 537.381L1071.75 542.387L1069.85 543.849L1072.7 547.543L1076.71 544.317L1081.55 551.68L1085.85 557.239L1079.06 562.498L1086.8 572.501L1090.99 569.264L1098.79 578.784L1096.22 581.653L1100.1 586.65L1111.3 577.545L1105.48 572.275L1103.36 573.471L1100.57 569.854L1106.27 565.442L1104.55 563.214L1106.45 561.746L1132.9 595.933L1142.69 588.368L1146.13 592.82L1161.88 580.624L1155.21 572.011Z" fill="#FFCD00"/>
<path d="M1066.55 330.058L1061.19 322.139C1058.88 324.086 1056.65 326.124 1054.52 328.283L1063.88 339.263L1058.29 343.049L1061.22 348.476L1058.68 350.198L1066.27 363.599L1062.88 365.156L1070.45 376.34L1087.23 364.984L1082.95 358.67L1088.87 356.458L1082.68 347.309L1086.24 344.894L1081.67 338.149L1074.14 343.45L1066.55 330.058Z" fill="#FFCD00"/>
<path d="M923.867 551.742L914.308 551.489C914.55 554.496 914.908 557.497 915.424 560.485L929.802 559.264L929.622 566.019L935.741 566.796L935.66 569.865L950.975 571.496L950.267 575.159L963.772 575.508L964.305 555.259L956.683 555.059L958.328 548.961L947.284 548.669L947.393 544.37L939.252 544.153L939.177 553.364L923.867 551.742Z" fill="#FFCD00"/>
<path d="M1139.66 369.52L1135.97 360.7C1133.32 362.154 1130.74 363.713 1128.22 365.41L1135.24 378.02L1129 380.628L1130.81 386.527L1127.98 387.713L1132.77 402.347L1129.14 403.206L1134.37 415.664L1153.05 407.838L1150.11 400.805L1156.34 399.803L1152.07 389.612L1156.04 387.947L1152.9 380.434L1144.47 384.147L1139.66 369.52Z" fill="#FFCD00"/>
<path d="M963.91 462.938L958.548 460.44C957.956 462.231 957.431 464.046 956.999 465.893L965.452 468.729L963.712 472.573L966.995 474.527L966.205 476.273L974.498 480.981L973.208 482.916L980.785 486.44L985.999 474.915L981.723 472.924L984.136 469.819L977.941 466.933L979.045 464.485L974.479 462.356L972.203 467.64L963.91 462.938Z" fill="#FFCD00"/>
<path d="M922.733 355.224L915.058 349.521C913.526 352.12 912.094 354.781 910.798 357.522L923.262 364.791L919.232 370.214L923.79 374.368L921.96 376.833L933.551 386.974L930.866 389.564L941.713 397.615L953.794 381.355L947.673 376.808L952.525 372.766L943.658 366.176L946.219 362.722L939.684 357.863L934.326 365.355L922.733 355.224Z" fill="#FFCD00"/>
<path d="M828.489 523.685L821.622 524.337C822.055 526.466 822.577 528.588 823.208 530.68L833.4 528.556L833.861 533.405L838.311 533.427L838.521 535.631L849.626 535.465L849.436 538.152L859.135 537.23L857.752 522.683L852.275 523.204L852.925 518.693L844.99 519.447L844.696 516.361L838.854 516.914L839.602 523.514L828.489 523.685Z" fill="#FFCD00"/>
<path d="M1066.64 622.175L1059.76 621.712C1059.84 623.883 1060.01 626.062 1060.3 628.228L1070.7 627.774L1070.37 632.634L1074.76 633.373L1074.61 635.582L1085.6 637.209L1084.98 639.83L1094.7 640.484L1095.68 625.903L1090.19 625.535L1091.56 621.188L1083.61 620.653L1083.82 617.56L1077.96 617.164L1077.64 623.798L1066.64 622.175Z" fill="#FFCD00"/>
<path d="M1064.77 462.073L1060.34 456.788C1058.83 458.351 1057.38 459.985 1056.01 461.692L1063.54 468.881L1059.81 472.011L1062.32 475.688L1060.62 477.111L1067.05 486.163L1064.73 487.531L1070.99 494.996L1082.19 485.607L1078.65 481.392L1082.74 479.368L1077.62 473.261L1079.99 471.269L1076.22 466.77L1071.21 471.13L1064.77 462.073Z" fill="#FFCD00"/>
<path d="M1169.83 457.026L1168.38 453.661C1167.38 454.228 1166.39 454.837 1165.44 455.492L1168.16 460.3L1165.78 461.323L1166.49 463.573L1165.41 464.039L1167.3 469.629L1165.91 469.966L1167.95 474.718L1175.08 471.656L1173.93 468.973L1176.31 468.566L1174.65 464.676L1176.16 464.027L1174.93 461.158L1171.71 462.603L1169.83 457.026Z" fill="#FFCD00"/>
<path d="M1131.82 246.74L1131.03 244.52C1131.84 244.32 1132.65 244.14 1133.48 244L1134.25 247.48L1136.01 246.85L1136.68 248.22L1137.48 247.94L1139.07 251.39L1139.98 250.91L1141.1 254.05L1135.82 255.93L1135.19 254.16L1133.71 255.07L1132.8 252.5L1131.68 252.9L1131 251L1133.41 250.18L1131.82 246.74Z" fill="#FFCD00"/>
<path d="M1221.15 270.578L1221.73 266.96C1220.57 266.901 1219.41 266.886 1218.26 266.931L1217.98 272.449L1215.43 272.039L1214.82 274.32L1213.66 274.137L1212.26 279.869L1210.91 279.41L1210.09 284.515L1217.75 285.747L1218.21 282.862L1220.44 283.795L1221.12 279.618L1222.75 279.882L1223.24 276.799L1219.75 276.297L1221.15 270.578Z" fill="#FFCD00"/>
<path d="M1180.39 324.438L1179.8 320.823C1178.69 321.131 1177.58 321.483 1176.5 321.89L1177.98 327.212L1175.43 327.632L1175.57 329.987L1174.42 330.179L1174.9 336.06L1173.47 336.051L1174.3 341.155L1181.96 339.903L1181.49 337.021L1183.9 337.2L1183.22 333.023L1184.85 332.759L1184.35 329.678L1180.88 330.304L1180.39 324.438Z" fill="#FFCD00"/>
<path d="M1008.6 638.948L1004.96 638.641C1005.18 637.506 1005.43 636.381 1005.76 635.265L1011.18 636.335L1011.4 633.752L1013.77 633.718L1013.88 632.55L1019.78 632.578L1019.67 631.147L1024.82 631.581L1024.16 639.317L1021.26 639.071L1021.62 641.462L1017.41 641.106L1017.27 642.752L1014.16 642.49L1014.52 638.982L1008.6 638.948Z" fill="#FFCD00"/>
<path d="M849.737 656.622L846.078 656.478C846.249 655.335 846.456 654.199 846.729 653.07L852.197 653.897L852.302 651.306L854.666 651.167L854.719 649.995L860.616 649.76L860.439 648.335L865.606 648.539L865.298 656.296L862.381 656.181L862.857 658.552L858.629 658.385L858.561 660.036L855.448 659.913L855.647 656.393L849.737 656.622Z" fill="#FFCD00"/>
<path d="M1045.9 671.513L1042.24 671.594C1042.34 670.442 1042.48 669.296 1042.68 668.151L1048.19 668.642L1048.14 666.05L1050.49 665.766L1050.47 664.593L1056.34 663.997L1056.08 662.586L1061.25 662.472L1061.42 670.234L1058.5 670.298L1059.12 672.635L1054.89 672.728L1054.92 674.38L1051.81 674.447L1051.79 670.922L1045.9 671.513Z" fill="#FFCD00"/>
<path d="M983.758 268.355L979.58 262.867C978 264.358 976.472 265.922 975.029 267.562L982.212 275.098L978.336 278.048L980.666 281.84L978.905 283.181L984.906 292.526L982.524 293.783L988.426 301.535L1000.05 292.682L996.719 288.305L1000.89 286.477L996.065 280.135L998.531 278.257L994.978 273.586L989.768 277.705L983.758 268.355Z" fill="#FFCD00"/>
<path d="M889.58 296.67L886.07 295C885.66 296.16 885.3 297.33 885 298.53L890.55 300.45L889.37 302.93L891.52 304.23L890.98 305.36L896.4 308.49L895.53 309.74L900.49 312.1L904.02 304.66L901.22 303.33L902.84 301.33L898.78 299.4L899.53 297.82L896.54 296.4L894.99 299.81L889.58 296.67Z" fill="#FFCD00"/>
<path d="M1733.21 530.011L1725.87 535.684L1721.8 530.402L1723.7 528.935L1719.23 522.603L1720.73 521.445L1712.13 510.327L1708.46 513.17L1703.09 506.218L1710.42 500.54L1706.76 495.815L1704.32 497.707L1698.73 490.482L1696.66 493.413L1694.77 490.431L1692.01 493.023L1686.03 486.98L1683.96 489.916L1681.11 486.786L1675.95 490.778L1679.55 495.994L1677.64 497.465L1680.54 502.337L1668.02 512.025L1660.66 504.382L1663.65 502.072L1661.77 499.08L1663.13 498.032L1658.3 490.66L1660.15 489.675L1655.41 483.562L1646.44 490.493L1649.12 493.947L1645.88 495.381L1649.75 500.387L1647.85 501.849L1650.7 505.543L1654.71 502.317L1659.55 509.68L1663.85 515.239L1657.06 520.498L1664.8 530.501L1668.99 527.264L1676.79 536.784L1674.22 539.653L1678.1 544.65L1689.3 535.545L1683.48 530.275L1681.36 531.471L1678.57 527.854L1684.27 523.442L1682.55 521.214L1684.45 519.746L1710.9 553.933L1720.69 546.368L1724.13 550.82L1739.88 538.624L1733.21 530.011Z" fill="#FFCD00"/>
<path d="M1672.05 201.221L1666.69 193.302C1664.39 195.249 1662.15 197.287 1660.03 199.446L1669.39 210.426L1663.79 214.212L1666.72 219.639L1664.18 221.361L1671.77 234.762L1668.38 236.319L1675.96 247.503L1692.73 236.147L1688.46 229.833L1694.37 227.621L1688.18 218.472L1691.74 216.057L1687.18 209.312L1679.64 214.613L1672.05 201.221Z" fill="#FFCD00"/>
<path d="M1499.87 554.742L1490.31 554.489C1490.55 557.496 1490.91 560.497 1491.42 563.485L1505.8 562.264L1505.62 569.019L1511.74 569.796L1511.66 572.865L1526.97 574.496L1526.27 578.159L1539.77 578.508L1540.3 558.259L1532.68 558.059L1534.33 551.961L1523.28 551.669L1523.39 547.37L1515.25 547.153L1515.18 556.364L1499.87 554.742Z" fill="#FFCD00"/>
<path d="M1730.66 303.52L1726.97 294.7C1724.32 296.154 1721.74 297.713 1719.22 299.41L1726.24 312.02L1720 314.628L1721.81 320.527L1718.98 321.713L1723.77 336.347L1720.14 337.206L1725.37 349.664L1744.05 341.838L1741.11 334.805L1747.34 333.803L1743.07 323.612L1747.04 321.947L1743.9 314.434L1735.47 318.147L1730.66 303.52Z" fill="#FFCD00"/>
<path d="M1524.91 419.498L1519.55 417C1518.96 418.791 1518.43 420.606 1518 422.453L1526.45 425.289L1524.71 429.133L1528 431.086L1527.21 432.833L1535.5 437.541L1534.21 439.475L1541.79 443L1547 431.474L1542.72 429.483L1545.14 426.378L1538.94 423.492L1540.05 421.044L1535.48 418.916L1533.2 424.2L1524.91 419.498Z" fill="#FFCD00"/>
<path d="M1471.73 293.224L1464.06 287.521C1462.53 290.12 1461.09 292.781 1459.8 295.522L1472.26 302.791L1468.23 308.214L1472.79 312.368L1470.96 314.833L1482.55 324.974L1479.87 327.564L1490.71 335.615L1502.79 319.355L1496.67 314.808L1501.53 310.766L1492.66 304.176L1495.22 300.722L1488.68 295.863L1483.33 303.355L1471.73 293.224Z" fill="#FFCD00"/>
<path d="M1384.49 516.685L1377.62 517.337C1378.06 519.466 1378.58 521.588 1379.21 523.68L1389.4 521.556L1389.86 526.405L1394.31 526.427L1394.52 528.631L1405.63 528.465L1405.44 531.152L1415.14 530.23L1413.75 515.683L1408.28 516.204L1408.93 511.693L1400.99 512.447L1400.7 509.361L1394.85 509.914L1395.6 516.514L1384.49 516.685Z" fill="#FFCD00"/>
<path d="M1643.64 598.175L1636.76 597.712C1636.84 599.883 1637.01 602.062 1637.3 604.228L1647.7 603.774L1647.37 608.634L1651.76 609.373L1651.61 611.582L1662.6 613.209L1661.98 615.83L1671.7 616.484L1672.68 601.903L1667.19 601.535L1668.56 597.188L1660.61 596.653L1660.82 593.56L1654.96 593.164L1654.64 599.798L1643.64 598.175Z" fill="#FFCD00"/>
<path d="M1643.77 392.073L1639.34 386.788C1637.83 388.351 1636.38 389.985 1635.01 391.692L1642.54 398.881L1638.81 402.011L1641.32 405.688L1639.62 407.111L1646.05 416.163L1643.73 417.531L1649.99 424.996L1661.19 415.607L1657.65 411.392L1661.74 409.368L1656.62 403.261L1658.99 401.269L1655.22 396.77L1650.21 401.13L1643.77 392.073Z" fill="#FFCD00"/>
<path d="M1781.83 413.026L1780.38 409.661C1779.38 410.228 1778.39 410.837 1777.44 411.492L1780.16 416.3L1777.78 417.323L1778.49 419.573L1777.41 420.039L1779.3 425.629L1777.91 425.966L1779.95 430.718L1787.08 427.656L1785.93 424.973L1788.31 424.566L1786.65 420.676L1788.16 420.027L1786.93 417.158L1783.71 418.603L1781.83 413.026Z" fill="#FFCD00"/>
<path d="M1771.82 165.74L1771.03 163.52C1771.84 163.32 1772.65 163.14 1773.48 163L1774.25 166.48L1776.01 165.85L1776.68 167.22L1777.48 166.94L1779.07 170.39L1779.98 169.91L1781.1 173.05L1775.82 174.93L1775.19 173.16L1773.71 174.07L1772.8 171.5L1771.68 171.9L1771 170L1773.41 169.18L1771.82 165.74Z" fill="#FFCD00"/>
<path d="M1839.15 272.578L1839.73 268.96C1838.57 268.901 1837.41 268.886 1836.26 268.931L1835.98 274.449L1833.43 274.039L1832.82 276.32L1831.66 276.137L1830.26 281.869L1828.91 281.41L1828.09 286.515L1835.75 287.747L1836.21 284.862L1838.44 285.795L1839.12 281.618L1840.75 281.882L1841.24 278.799L1837.75 278.297L1839.15 272.578Z" fill="#FFCD00"/>
<path d="M1789.39 265.438L1788.8 261.823C1787.69 262.131 1786.58 262.483 1785.5 262.89L1786.98 268.212L1784.43 268.632L1784.57 270.987L1783.42 271.179L1783.9 277.06L1782.47 277.051L1783.3 282.155L1790.96 280.903L1790.49 278.021L1792.9 278.2L1792.22 274.023L1793.85 273.759L1793.35 270.678L1789.88 271.304L1789.39 265.438Z" fill="#FFCD00"/>
<path d="M1577.6 663.948L1573.96 663.641C1574.18 662.506 1574.43 661.381 1574.76 660.265L1580.18 661.335L1580.4 658.752L1582.77 658.718L1582.88 657.55L1588.78 657.578L1588.67 656.147L1593.82 656.581L1593.16 664.317L1590.26 664.071L1590.62 666.462L1586.41 666.106L1586.27 667.752L1583.16 667.49L1583.52 663.982L1577.6 663.948Z" fill="#FFCD00"/>
<path d="M1436.74 663.622L1433.08 663.478C1433.25 662.335 1433.46 661.199 1433.73 660.07L1439.2 660.897L1439.3 658.306L1441.67 658.167L1441.72 656.995L1447.62 656.76L1447.44 655.335L1452.61 655.539L1452.3 663.296L1449.38 663.181L1449.86 665.552L1445.63 665.385L1445.56 667.036L1442.45 666.913L1442.65 663.393L1436.74 663.622Z" fill="#FFCD00"/>
<path d="M1653.9 675.513L1650.24 675.594C1650.34 674.442 1650.48 673.296 1650.68 672.151L1656.19 672.642L1656.14 670.05L1658.49 669.766L1658.47 668.593L1664.34 667.997L1664.08 666.586L1669.25 666.472L1669.42 674.234L1666.5 674.298L1667.12 676.635L1662.89 676.728L1662.92 678.38L1659.81 678.447L1659.79 674.922L1653.9 675.513Z" fill="#FFCD00"/>
<path d="M1561.76 148.355L1557.58 142.867C1556 144.358 1554.47 145.922 1553.03 147.562L1560.21 155.098L1556.34 158.048L1558.67 161.84L1556.91 163.181L1562.91 172.526L1560.53 173.783L1566.43 181.535L1578.05 172.682L1574.72 168.305L1578.89 166.477L1574.07 160.135L1576.53 158.257L1572.98 153.586L1567.77 157.705L1561.76 148.355Z" fill="#FFCD00"/>
<path d="M1445.58 208.671L1442.07 207.001C1441.66 208.161 1441.3 209.331 1441 210.531L1446.55 212.451L1445.37 214.931L1447.52 216.231L1446.98 217.361L1452.4 220.491L1451.53 221.741L1456.49 224.101L1460.02 216.661L1457.22 215.331L1458.84 213.331L1454.78 211.401L1455.53 209.821L1452.54 208.401L1450.99 211.811L1445.58 208.671Z" fill="#FFCD00"/>
<path d="M2310.21 445.011L2302.87 450.684L2298.8 445.402L2300.7 443.935L2296.23 437.603L2297.73 436.445L2289.13 425.327L2285.46 428.17L2280.09 421.218L2287.42 415.54L2283.76 410.815L2281.32 412.707L2275.73 405.482L2273.66 408.413L2271.77 405.431L2269.01 408.023L2263.03 401.98L2260.96 404.916L2258.11 401.786L2252.95 405.778L2256.55 410.994L2254.64 412.465L2257.54 417.337L2245.02 427.025L2237.66 419.382L2240.65 417.072L2238.77 414.08L2240.13 413.032L2235.3 405.66L2237.15 404.675L2232.41 398.562L2223.44 405.493L2226.12 408.947L2222.88 410.381L2226.75 415.387L2224.85 416.849L2227.7 420.543L2231.71 417.317L2236.55 424.68L2240.85 430.239L2234.06 435.498L2241.8 445.501L2245.99 442.264L2253.79 451.784L2251.22 454.653L2255.1 459.65L2266.3 450.545L2260.48 445.275L2258.36 446.471L2255.57 442.854L2261.27 438.442L2259.55 436.214L2261.45 434.746L2287.9 468.933L2297.69 461.368L2301.13 465.82L2316.88 453.624L2310.21 445.011Z" fill="#FFCD00"/>
<path d="M2307.05 68.221L2301.69 60.3019C2299.39 62.249 2297.15 64.2874 2295.03 66.4463L2304.39 77.4259L2298.79 81.2123L2301.72 86.6395L2299.18 88.3607L2306.77 101.762L2303.38 103.319L2310.96 114.503L2327.73 103.147L2323.46 96.8333L2329.37 94.6211L2323.18 85.4717L2326.74 83.0575L2322.18 76.312L2314.64 81.6134L2307.05 68.221Z" fill="#FFCD00"/>
<path d="M2063.87 564.742L2054.31 564.489C2054.55 567.496 2054.91 570.497 2055.42 573.485L2069.8 572.264L2069.62 579.019L2075.74 579.796L2075.66 582.865L2090.97 584.496L2090.27 588.159L2103.77 588.508L2104.3 568.259L2096.68 568.059L2098.33 561.961L2087.28 561.669L2087.39 557.37L2079.25 557.153L2079.18 566.364L2063.87 564.742Z" fill="#FFCD00"/>
<path d="M2338.66 194.52L2334.97 185.7C2332.32 187.154 2329.74 188.713 2327.22 190.41L2334.24 203.02L2328 205.628L2329.81 211.527L2326.98 212.713L2331.77 227.347L2328.14 228.206L2333.37 240.664L2352.05 232.838L2349.11 225.805L2355.34 224.803L2351.07 214.612L2355.04 212.947L2351.9 205.434L2343.47 209.147L2338.66 194.52Z" fill="#FFCD00"/>
<path d="M2084.91 366.498L2079.55 364C2078.96 365.791 2078.43 367.606 2078 369.453L2086.45 372.289L2084.71 376.133L2088 378.086L2087.21 379.833L2095.5 384.541L2094.21 386.475L2101.79 390L2107 378.474L2102.72 376.483L2105.14 373.378L2098.94 370.492L2100.05 368.044L2095.48 365.916L2093.2 371.2L2084.91 366.498Z" fill="#FFCD00"/>
<path d="M1936.73 277.223L1929.06 271.52C1927.53 274.119 1926.09 276.78 1924.8 279.521L1937.26 286.79L1933.23 292.213L1937.79 296.367L1935.96 298.832L1947.55 308.973L1944.87 311.563L1955.71 319.614L1967.79 303.354L1961.67 298.807L1966.53 294.765L1957.66 288.175L1960.22 284.721L1953.68 279.862L1948.33 287.354L1936.73 277.223Z" fill="#FFCD00"/>
<path d="M1918.49 530.685L1911.62 531.337C1912.06 533.466 1912.58 535.588 1913.21 537.68L1923.4 535.556L1923.86 540.405L1928.31 540.427L1928.52 542.631L1939.63 542.465L1939.44 545.152L1949.14 544.23L1947.75 529.683L1942.28 530.204L1942.93 525.693L1934.99 526.447L1934.7 523.361L1928.85 523.914L1929.6 530.514L1918.49 530.685Z" fill="#FFCD00"/>
<path d="M2226.64 619.175L2219.76 618.712C2219.84 620.883 2220.01 623.062 2220.3 625.228L2230.7 624.774L2230.37 629.634L2234.76 630.373L2234.61 632.582L2245.6 634.209L2244.98 636.83L2254.7 637.484L2255.68 622.903L2250.19 622.535L2251.56 618.188L2243.61 617.653L2243.82 614.56L2237.96 614.164L2237.64 620.798L2226.64 619.175Z" fill="#FFCD00"/>
<path d="M2184.77 252.073L2180.34 246.788C2178.83 248.351 2177.38 249.985 2176.01 251.692L2183.54 258.881L2179.81 262.011L2182.32 265.688L2180.62 267.111L2187.05 276.163L2184.73 277.531L2190.99 284.996L2202.19 275.607L2198.65 271.392L2202.74 269.368L2197.62 263.261L2199.99 261.269L2196.22 256.77L2191.21 261.13L2184.77 252.073Z" fill="#FFCD00"/>
<path d="M2380.83 373.026L2379.38 369.661C2378.38 370.228 2377.39 370.837 2376.44 371.492L2379.16 376.3L2376.78 377.323L2377.49 379.573L2376.41 380.039L2378.3 385.629L2376.91 385.966L2378.95 390.718L2386.08 387.656L2384.93 384.973L2387.31 384.566L2385.65 380.676L2387.16 380.027L2385.93 377.158L2382.71 378.603L2380.83 373.026Z" fill="#FFCD00"/>
<path d="M2419.82 82.74L2419.03 80.52C2419.84 80.32 2420.65 80.14 2421.48 80L2422.25 83.48L2424.01 82.85L2424.68 84.22L2425.48 83.94L2427.07 87.39L2427.98 86.91L2429.1 90.05L2423.82 91.93L2423.19 90.16L2421.71 91.07L2420.8 88.5L2419.68 88.9L2419 87L2421.41 86.18L2419.82 82.74Z" fill="#FFCD00"/>
<path d="M2454.15 255.578L2454.73 251.96C2453.57 251.901 2452.41 251.886 2451.26 251.931L2450.98 257.449L2448.43 257.039L2447.82 259.32L2446.66 259.137L2445.26 264.869L2443.91 264.41L2443.09 269.515L2450.75 270.747L2451.21 267.862L2453.44 268.795L2454.12 264.618L2455.75 264.882L2456.24 261.799L2452.75 261.297L2454.15 255.578Z" fill="#FFCD00"/>
<path d="M2423.39 167.437L2422.8 163.822C2421.69 164.13 2420.58 164.482 2419.5 164.889L2420.98 170.211L2418.43 170.631L2418.57 172.986L2417.42 173.178L2417.9 179.059L2416.47 179.05L2417.3 184.154L2424.96 182.902L2424.49 180.02L2426.9 180.199L2426.22 176.022L2427.85 175.758L2427.35 172.677L2423.88 173.303L2423.39 167.437Z" fill="#FFCD00"/>
<path d="M2172.6 672.948L2168.95 672.641C2169.18 671.506 2169.43 670.381 2169.76 669.265L2175.18 670.335L2175.4 667.752L2177.77 667.718L2177.88 666.55L2183.78 666.578L2183.67 665.147L2188.82 665.581L2188.16 673.317L2185.26 673.071L2185.62 675.462L2181.41 675.106L2181.27 676.752L2178.16 676.49L2178.52 672.982L2172.6 672.948Z" fill="#FFCD00"/>
<path d="M2036.74 671.622L2033.08 671.478C2033.25 670.335 2033.46 669.199 2033.73 668.07L2039.2 668.897L2039.3 666.306L2041.67 666.167L2041.72 664.995L2047.62 664.76L2047.44 663.335L2052.61 663.539L2052.3 671.296L2049.38 671.181L2049.86 673.552L2045.63 673.385L2045.56 675.036L2042.45 674.913L2042.65 671.393L2036.74 671.622Z" fill="#FFCD00"/>
<path d="M2265.9 675.515L2262.24 675.596C2262.34 674.444 2262.48 673.298 2262.68 672.153L2268.19 672.644L2268.14 670.052L2270.49 669.768L2270.47 668.595L2276.34 667.999L2276.08 666.588L2281.25 666.474L2281.42 674.236L2278.5 674.3L2279.12 676.637L2274.89 676.73L2274.92 678.382L2271.81 678.449L2271.79 674.924L2265.9 675.515Z" fill="#FFCD00"/>
<path d="M2160.76 44.3552L2156.58 38.8669C2155 40.3581 2153.47 41.9216 2152.03 43.5621L2159.21 51.0976L2155.34 54.0484L2157.67 57.84L2155.91 59.1812L2161.91 68.5262L2159.52 69.7833L2165.43 77.5347L2177.05 68.6825L2173.72 64.3053L2177.89 62.4766L2173.07 56.1345L2175.53 54.2568L2171.98 49.5861L2166.77 53.7047L2160.76 44.3552Z" fill="#FFCD00"/>
<path d="M2004.58 143.671L2001.07 142.001C2000.66 143.161 2000.3 144.331 2000 145.531L2005.55 147.451L2004.37 149.931L2006.52 151.231L2005.98 152.361L2011.4 155.491L2010.53 156.741L2015.49 159.101L2019.02 151.661L2016.22 150.331L2017.84 148.331L2013.78 146.401L2014.53 144.821L2011.54 143.401L2009.99 146.811L2004.58 143.671Z" fill="#FFCD00"/>
</g>
<defs>
<clipPath id="clip0">
<rect width="2456" height="678" fill="white"/>
</clipPath>
</defs>
</svg>
