<svg width="28" height="80" viewBox="0 0 28 80" fill="none" xmlns="http://www.w3.org/2000/svg">
<path d="M12.7597 18.4702L12.0397 22.3002C13.2697 22.4002 14.4997 22.4502 15.7397 22.4302L16.1797 16.5602L18.8897 17.0702L19.5997 14.6502L20.8297 14.8802L22.4797 8.82016L23.9097 9.34016L24.9297 3.92016L16.7997 2.41016L16.2197 5.47016L13.8797 4.40016L13.0497 8.83016L11.3297 8.51016L10.7197 11.7802L14.4197 12.4102L12.7597 18.4702Z" fill="#866AE1"/>
<path d="M10.38 18.2502L10.85 22.1202C12.05 21.8402 13.24 21.5202 14.41 21.1302L13.06 15.4002L15.79 15.0702L15.74 12.5502L16.98 12.4002L16.72 6.12021L18.24 6.19022L17.57 0.720215L9.36 1.72021L9.76 4.80021L7.2 4.50021L7.75 8.98021L6 9.19021L6.4 12.4902L10.12 11.9702L10.38 18.2502Z" fill="#866AE1"/>
<path d="M11.9398 18.89L13.5598 22.44C14.6198 21.81 15.6598 21.15 16.6598 20.42L13.6398 15.36L16.1498 14.22L15.3398 11.84L16.4798 11.32L14.3398 5.41L15.8098 5.02L13.5198 0L5.99977 3.43L7.28977 6.26L4.75977 6.74L6.62977 10.84L5.02977 11.57L6.40977 14.59L9.79977 12.97L11.9398 18.89Z" fill="#866AE1"/>
<path d="M15.7298 60.77L16.4498 56.94C15.2198 56.84 13.9898 56.79 12.7498 56.81L12.3098 62.68L9.59982 62.17L8.89982 64.58L7.66982 64.35L6.01982 70.41L4.58982 69.89L3.56982 75.3L11.6898 76.83L12.2698 73.77L14.6198 74.83L15.4498 70.4L17.1698 70.72L17.7798 67.45L14.0798 66.82L15.7298 60.77Z" fill="#866AE1"/>
<path d="M18.11 60.9896L17.64 57.1196C16.44 57.3996 15.25 57.7196 14.08 58.1096L15.43 63.8396L12.7 64.1696L12.75 66.6896L11.51 66.8396L11.77 73.1196L10.25 73.0496L10.92 78.5196L19.13 77.5196L18.75 74.4296L21.31 74.7296L20.76 70.2496L22.5 70.0396L22.1 66.7396L18.38 67.2596L18.11 60.9896Z" fill="#866AE1"/>
<path d="M16.5496 60.3498L14.9296 56.7998C13.8696 57.4298 12.8296 58.0898 11.8296 58.8198L14.8496 63.8798L12.3396 65.0198L13.1496 67.3998L12.0096 67.9198L14.1496 73.8298L12.6796 74.2198L14.9596 79.2298L22.4796 75.7998L21.1896 72.9698L23.7196 72.4798L21.8496 68.3798L23.4496 67.6498L22.0696 64.6298L18.6796 66.2498L16.5496 60.3498Z" fill="#866AE1"/>
<path d="M23.7298 56.7999H27.2898V22.4399H23.7298V19.3999H3.80977V23.1299H0.00976562V57.1199H2.93977V60.4199H23.7298V56.7999Z" fill="#866AE1"/>
</svg>
