<svg width="1165" height="749" viewBox="0 0 1165 749" fill="none" xmlns="http://www.w3.org/2000/svg">
<g style="mix-blend-mode:screen">
<path d="M5.5 111.783C8.53757 111.783 11 109.002 11 105.572C11 102.143 8.53757 99.3623 5.5 99.3623C2.46243 99.3623 0 102.143 0 105.572C0 109.002 2.46243 111.783 5.5 111.783Z" fill="#FFCC00"/>
<path d="M111.5 725.42C114.538 725.42 117 722.64 117 719.21C117 715.78 114.538 713 111.5 713C108.462 713 106 715.78 106 719.21C106 722.64 108.462 725.42 111.5 725.42Z" fill="#FFCC00"/>
<path d="M259.5 621.42C262.538 621.42 265 618.64 265 615.21C265 611.78 262.538 609 259.5 609C256.462 609 254 611.78 254 615.21C254 618.64 256.462 621.42 259.5 621.42Z" fill="#FFCC00"/>
<path d="M670.5 748.42C673.538 748.42 676 745.64 676 742.21C676 738.78 673.538 736 670.5 736C667.462 736 665 738.78 665 742.21C665 745.64 667.462 748.42 670.5 748.42Z" fill="#FFCC00"/>
<path d="M633.5 377.124C636.538 377.124 639 374.344 639 370.914C639 367.484 636.538 364.704 633.5 364.704C630.462 364.704 628 367.484 628 370.914C628 374.344 630.462 377.124 633.5 377.124Z" fill="#FFCC00"/>
<path d="M495.5 219.049C498.538 219.049 501 216.269 501 212.839C501 209.409 498.538 206.629 495.5 206.629C492.462 206.629 490 209.409 490 212.839C490 216.269 492.462 219.049 495.5 219.049Z" fill="#FFCC00"/>
<path d="M50.5 470.841C53.5376 470.841 56 468.061 56 464.631C56 461.201 53.5376 458.421 50.5 458.421C47.4624 458.421 45 461.201 45 464.631C45 468.061 47.4624 470.841 50.5 470.841Z" fill="#FFCC00"/>
<path d="M125.5 233.727C127.433 233.727 129 231.958 129 229.775C129 227.593 127.433 225.823 125.5 225.823C123.567 225.823 122 227.593 122 229.775C122 231.958 123.567 233.727 125.5 233.727Z" fill="#FFCC00"/>
<path d="M1022.5 70.0044C1024.43 70.0044 1026 68.2351 1026 66.0525C1026 63.8699 1024.43 62.1006 1022.5 62.1006C1020.57 62.1006 1019 63.8699 1019 66.0525C1019 68.2351 1020.57 70.0044 1022.5 70.0044Z" fill="#FFCC00"/>
<path d="M1154.5 694.58C1156.43 694.58 1158 692.81 1158 690.628C1158 688.445 1156.43 686.676 1154.5 686.676C1152.57 686.676 1151 688.445 1151 690.628C1151 692.81 1152.57 694.58 1154.5 694.58Z" fill="#FFCC00"/>
<path d="M1025.5 628.917C1027.43 628.917 1029 627.148 1029 624.966C1029 622.783 1027.43 621.014 1025.5 621.014C1023.57 621.014 1022 622.783 1022 624.966C1022 627.148 1023.57 628.917 1025.5 628.917Z" fill="#FFCC00"/>
<path d="M1161.5 285.666C1163.43 285.666 1165 283.896 1165 281.714C1165 279.531 1163.43 277.762 1161.5 277.762C1159.57 277.762 1158 279.531 1158 281.714C1158 283.896 1159.57 285.666 1161.5 285.666Z" fill="#FFCC00"/>
<path d="M271.5 12.4203C274.538 12.4203 277 9.6399 277 6.21013C277 2.78037 274.538 0 271.5 0C268.462 0 266 2.78037 266 6.21013C266 9.6399 268.462 12.4203 271.5 12.4203Z" fill="#FFCC00"/>
<path d="M773.5 24.8402C776.538 24.8402 779 22.0598 779 18.6301C779 15.2003 776.538 12.4199 773.5 12.4199C770.462 12.4199 768 15.2003 768 18.6301C768 22.0598 770.462 24.8402 773.5 24.8402Z" fill="#FFCC00"/>
</g>
</svg>
