<?xml version="1.0" encoding="utf-8"?>
<!-- Generator: Adobe Illustrator 24.1.1, SVG Export Plug-In . SVG Version: 6.00 Build 0)  -->
<svg version="1.1" id="Слой_1" xmlns="http://www.w3.org/2000/svg" xmlns:xlink="http://www.w3.org/1999/xlink" x="0px" y="0px"
	 viewBox="0 0 48 48" style="enable-background:new 0 0 48 48;" xml:space="preserve">
<style type="text/css">
	.st0{fill:#8F40FF;}
	.st1{fill:#9B00FF;}
</style>
<path class="st0" d="M41.01,17.79c-1.64,0.52-3.49,0.78-5.56,0.78c-2.07,0-3.93-0.26-5.56-0.78c-1.64-0.52-2.95-1.22-3.94-2.11
	c-0.99-0.89-1.75-1.87-2.27-2.96c-0.52-1.09-0.79-2.23-0.79-3.44c0-1.2,0.26-2.35,0.79-3.44c0.52-1.09,1.28-2.07,2.27-2.96
	C26.93,2,28.24,1.3,29.88,0.78C31.52,0.26,33.37,0,35.44,0c2.07,0,3.93,0.26,5.56,0.78C42.64,1.3,43.96,2,44.95,2.89
	c0.99,0.89,1.75,1.87,2.27,2.96c0.52,1.09,0.78,2.23,0.78,3.44c0,1.2-0.26,2.35-0.78,3.44c-0.52,1.09-1.28,2.07-2.27,2.96
	C43.96,16.57,42.64,17.28,41.01,17.79z M31.32,13.03c1.12,0.89,2.5,1.33,4.13,1.33s3-0.44,4.13-1.33c1.12-0.89,1.69-2.13,1.69-3.74
	s-0.56-2.85-1.69-3.74c-1.12-0.89-2.5-1.33-4.13-1.33s-3,0.44-4.13,1.33c-1.12,0.89-1.69,2.13-1.69,3.74S30.19,12.14,31.32,13.03z"
	/>
<path class="st0" d="M18.13,47.19c-1.64,0.52-3.49,0.78-5.56,0.78c-2.07,0-3.93-0.26-5.56-0.78c-1.64-0.52-2.95-1.22-3.94-2.11
	c-0.99-0.89-1.75-1.87-2.27-2.96C0.26,41.04,0,39.89,0,38.69c0-1.2,0.26-2.35,0.79-3.44c0.52-1.09,1.28-2.07,2.27-2.96
	C4.05,31.4,5.36,30.7,7,30.18c1.64-0.52,3.49-0.78,5.56-0.78c2.07,0,3.93,0.26,5.56,0.78c1.64,0.52,2.95,1.22,3.94,2.11
	c0.99,0.89,1.75,1.87,2.27,2.96c0.52,1.09,0.78,2.23,0.78,3.44c0,1.2-0.26,2.35-0.78,3.44c-0.52,1.09-1.28,2.07-2.27,2.96
	C21.08,45.97,19.76,46.68,18.13,47.19z M8.44,42.43c1.12,0.89,2.5,1.33,4.13,1.33s3-0.44,4.13-1.33c1.12-0.89,1.69-2.13,1.69-3.74
	s-0.56-2.85-1.69-3.74c-1.12-0.89-2.5-1.33-4.13-1.33s-3,0.44-4.13,1.33c-1.12,0.89-1.69,2.13-1.69,3.74S7.31,41.54,8.44,42.43z"/>
<path class="st1" d="M69.77,79.48c-1.97,0.82-4.19,1.23-6.68,1.23c-2.49,0-4.71-0.41-6.68-1.23c-1.97-0.82-3.54-1.93-4.73-3.34
	c-1.19-1.4-2.1-2.97-2.73-4.69c-0.63-1.72-0.94-3.54-0.94-5.44c0-1.91,0.31-3.72,0.94-5.44c0.63-1.72,1.54-3.28,2.73-4.69
	c1.19-1.4,2.77-2.52,4.73-3.34c1.97-0.82,4.19-1.23,6.68-1.23c2.49,0,4.71,0.41,6.68,1.23c1.97,0.82,3.54,1.93,4.73,3.34
	c1.19,1.4,2.1,2.97,2.73,4.69c0.63,1.72,0.94,3.54,0.94,5.44c0,1.91-0.31,3.72-0.94,5.44c-0.63,1.72-1.54,3.28-2.73,4.69
	C73.31,77.54,71.73,78.65,69.77,79.48z M58.14,71.93c1.35,1.4,3,2.11,4.95,2.11c1.95,0,3.6-0.7,4.95-2.11
	c1.35-1.4,2.03-3.38,2.03-5.92c0-2.54-0.68-4.52-2.03-5.92c-1.35-1.4-3-2.11-4.95-2.11c-1.95,0-3.6,0.7-4.95,2.11
	c-1.35,1.4-2.03,3.38-2.03,5.92C56.11,68.55,56.79,70.52,58.14,71.93z"/>
<path d="M118.93,2.84c-2.06,0.87-4.39,1.3-6.99,1.3c-2.6,0-4.93-0.43-6.99-1.3c-2.06-0.87-3.71-2.04-4.96-3.53
	c-1.25-1.48-2.2-3.14-2.86-4.96c-0.66-1.82-0.99-3.74-0.99-5.75c0-2.02,0.33-3.93,0.99-5.75c0.66-1.82,1.61-3.47,2.86-4.96
	c1.25-1.48,2.9-2.66,4.96-3.53c2.06-0.87,4.39-1.3,6.99-1.3c2.6,0,4.94,0.43,6.99,1.3c2.06,0.87,3.71,2.04,4.96,3.53
	c1.25,1.48,2.2,3.14,2.86,4.96c0.66,1.82,0.99,3.74,0.99,5.75c0,2.02-0.33,3.93-0.99,5.75c-0.66,1.82-1.61,3.47-2.86,4.96
	C122.64,0.79,120.98,1.97,118.93,2.84z M106.75-5.14c1.41,1.48,3.14,2.23,5.19,2.23s3.77-0.74,5.19-2.23
	c1.41-1.48,2.12-3.57,2.12-6.26s-0.71-4.77-2.12-6.26c-1.41-1.48-3.14-2.23-5.19-2.23s-3.77,0.74-5.19,2.23
	c-1.41,1.48-2.12,3.57-2.12,6.26S105.33-6.63,106.75-5.14z"/>
<path class="st1" d="M171.54,46.81h-8.5l-5.34,17.93l-5.34-17.93h-0.11c-0.08-0.25-0.17-0.49-0.28-0.72
	c-0.45-0.98-1.03-1.74-1.74-2.29s-1.37-0.96-1.97-1.24c-0.6-0.28-1.21-0.49-1.83-0.63v-0.08c1.29-0.45,2.37-1.21,3.25-2.29
	c0.88-1.08,1.32-2.36,1.32-3.84c0-0.56-0.04-1.11-0.13-1.66s-0.31-1.19-0.67-1.93c-0.36-0.74-0.84-1.39-1.43-1.93
	c-0.59-0.55-1.45-1.01-2.58-1.39c-1.13-0.38-2.46-0.57-3.97-0.57H128v29.4h14.24l-2.8,18.57h8.16l2.26-17.05l5.12,17.05h5.47
	l5.12-17.05l2.26,17.05h8.16L171.54,46.81z M136.23,34.12h3.44c1.32,0,2.27,0.27,2.88,0.82c0.6,0.55,0.9,1.25,0.9,2.12
	c0,1.85-1.26,2.77-3.78,2.77h-3.44V34.12z M136.23,51.76v-6.05h3.78c2.94,0,4.41,0.98,4.41,2.94c0,2.07-1.47,3.11-4.41,3.11H136.23z
	"/>
<g>
	<path class="st0" d="M0,0h14.24c1.51,0,2.83,0.19,3.97,0.57c1.13,0.38,2,0.84,2.58,1.39c0.59,0.55,1.06,1.19,1.43,1.93
		c0.36,0.74,0.59,1.39,0.67,1.93s0.13,1.1,0.13,1.66c0,1.48-0.44,2.77-1.32,3.84c-0.88,1.08-1.97,1.84-3.25,2.29v0.08
		c0.62,0.14,1.22,0.35,1.83,0.63c0.6,0.28,1.26,0.69,1.97,1.24s1.29,1.31,1.74,2.29c0.45,0.98,0.67,2.1,0.67,3.36
		c0,2.27-0.8,4.2-2.42,5.8s-4.01,2.39-7.2,2.39H0V0z M8.23,11.59h3.44c2.52,0,3.78-0.92,3.78-2.77c0-0.87-0.3-1.57-0.9-2.12
		c-0.6-0.55-1.56-0.82-2.88-0.82H8.23V11.59z M8.23,23.52h3.78c2.94,0,4.41-1.04,4.41-3.11c0-1.96-1.47-2.94-4.41-2.94H8.23V23.52z"
		/>
</g>
<g>
	<path class="st0" d="M24.15,48.01l2.89-29.99h5.55l3.48,18.29l3.48-18.29h5.55l2.88,29.99h-5.32l-1.47-17.39l-3.34,17.39h-3.57
		l-3.34-17.39l-1.47,17.39H24.15z"/>
</g>
</svg>
