<svg width="111" height="1674" viewBox="0 0 111 1674" fill="none" xmlns="http://www.w3.org/2000/svg">
<path fill-rule="evenodd" clip-rule="evenodd" d="M110.5 0L81 46L110.5 93L81 139L110.5 186L81 232L110.5 279L81 325L110.5 372L81 418L110.5 465L81 511L110.5 558L81 604L110.5 651L81 697L110.5 744L81 790L110.5 837H29L0 790L29 744L0 697L29 651L0 604L29 558L0 511L29 465L0 418L29 372L0 325L29 279L0 232L29 186L0 139L29 93L0 46L29 0H110.5Z" fill="#866AE1"/>
<path fill-rule="evenodd" clip-rule="evenodd" d="M110.5 837L81 883L110.5 930L81 976L110.5 1023L81 1069L110.5 1116L81 1162L110.5 1209L81 1255L110.5 1302L81 1348L110.5 1395L81 1441L110.5 1488L81 1534L110.5 1581L81 1627L110.5 1674H29L0 1627L29 1581L0 1534L29 1488L0 1441L29 1395L0 1348L29 1302L0 1255L29 1209L0 1162L29 1116L0 1069L29 1023L0 976L29 930L0 883L29 837H110.5Z" fill="#866AE1"/>
</svg>
