<svg width="114" height="1723" viewBox="0 0 114 1723" fill="none" xmlns="http://www.w3.org/2000/svg">
<path fill-rule="evenodd" clip-rule="evenodd" d="M29.722 861L1.18 922.6L29.81 972.03L0 1052.83L29.81 1122.23L0 1175.46L29.81 1240.11L0 1287.64L29.81 1357.03L0 1411.64L29.81 1471.08L1.18 1526.24L29.81 1608L0 1667.92L29.81 1722.43H113.49L83.68 1667.92L113.49 1608L84.86 1526.24L113.49 1471.08L83.68 1411.64L113.49 1357.03L83.68 1287.64L113.49 1240.11L83.68 1175.46L113.49 1122.23L83.68 1052.83L113.49 972.03L84.86 922.6L113.402 861H29.722Z" fill="#866AE1"/>
<path fill-rule="evenodd" clip-rule="evenodd" d="M29.722 0L1.18 61.6L29.81 111.03L0 191.83L29.81 261.23L0 314.46L29.81 379.11L0 426.64L29.81 496.03L0 550.64L29.81 610.08L1.18 665.24L29.81 747L0 806.92L29.81 861.43H113.49L83.68 806.92L113.49 747L84.86 665.24L113.49 610.08L83.68 550.64L113.49 496.03L83.68 426.64L113.49 379.11L83.68 314.46L113.49 261.23L83.68 191.83L113.49 111.03L84.86 61.6L113.402 0H29.722Z" fill="#866AE1"/>
</svg>
