<svg width="111" height="1394" viewBox="0 0 111 1394" fill="none" xmlns="http://www.w3.org/2000/svg">
<path fill-rule="evenodd" clip-rule="evenodd" d="M28.301 0L0 67.4706L29 138.111L0 207.248L29 277.889H110.5L81 207.248L110.5 138.111L81 67.4706L109.789 0H28.301ZM110.5 277.889L81 347.026L110.5 417.667L81 486.804L110.5 557.444L81 626.582L110.407 697H109.789L81 764.471L110.5 835.111L81 904.248L110.5 974.889H29L0 904.248L29 835.111L0 764.471L28.301 697H28.9088L0 626.582L29 557.444L0 486.804L29 417.667L0 347.026L29 277.889H110.5ZM110.5 974.889L81 1044.03L110.5 1114.67L81 1183.8L110.5 1254.44L81 1323.58L110.407 1394H28.9088L0 1323.58L29 1254.44L0 1183.8L29 1114.67L0 1044.03L29 974.889H110.5Z" fill="#866AE1"/>
</svg>
