<svg width="166" height="2091" viewBox="0 0 166 2091" fill="none" xmlns="http://www.w3.org/2000/svg">
<path fill-rule="evenodd" clip-rule="evenodd" d="M42.452 0L0 101.207L43.5 207.168L0 310.873L43.5 416.833L0 520.539L43.5 626.5L0 730.205L43.5 836.165L0 939.871L43.3638 1045.5H42.452L0 1146.71L43.5 1252.67L0 1356.37L43.5 1462.33L0 1566.04L43.5 1672L0 1775.71L43.5 1881.67L0 1985.37L43.3638 2091H165.611L121.5 1985.37L165.75 1881.67L121.5 1775.71L165.75 1672L121.5 1566.04L165.75 1462.33L121.5 1356.37L165.75 1252.67L121.5 1146.71L164.684 1045.5H165.611L121.5 939.871L165.75 836.165L121.5 730.205L165.75 626.5L121.5 520.539L165.75 416.833L121.5 310.873L165.75 207.168L121.5 101.207L164.684 0H42.452Z" fill="#866AE1"/>
</svg>
