<svg width="518" height="384" viewBox="0 0 518 384" fill="none" xmlns="http://www.w3.org/2000/svg">
<g clip-path="url(#clip0)">
<path d="M177.41 112.09H189.53V120.81H186.39L185.94 130.91H183.47V149.28H189.53V160.76H177.41V168.57H181.45V180.5L185.94 179.13L185.49 183.72L190.43 183.26L191.78 194.28L196.26 192.9L196.71 198.41H205.24L205.69 190.15H208.83L209.73 182.8H230.41L231.91 196.57H226.97L226.52 201.17H224.28L223.38 212.65L220.69 212.19V222.29H235.5V216.59L239.99 217.7V209.43H243.13V203.34L236.39 203.46L237.29 191.98V182.8H248.51V166.27H241.59L241.14 150.2L246.08 149.28V141.02L227.23 141.47L229.03 151.58L232.17 152.04V158H222.74V161.68H219.6V105.2H203.44V97.8496H177.41V112.09Z" fill="#FFCD00"/>
<path d="M109.3 153.33H121.42V162.05H118.28L117.83 172.15H115.36V190.52H121.42V202H109.3V209.81H113.34V221.74L117.83 220.37L117.38 224.96L122.32 224.5L123.66 235.52L128.15 234.14L128.6 239.65H137.13L137.58 231.39H140.72L141.62 224.04H162.3L163.8 237.82H158.86L158.41 242.41H156.17L155.27 253.89L152.58 253.43V263.53H167.39V257.83L171.87 258.94V250.67H175.02V244.58L168.28 244.7L169.18 233.22V224.04H180.4V207.51H173.48L173.03 191.44L177.97 190.52V182.26L159.12 182.72L160.92 192.82L164.06 193.28V199.25H154.63V202.92H151.49V146.44H135.33V139.09H109.3V153.33Z" fill="#FFCD00"/>
<path d="M121.68 120.29H133.8V129.01H130.66L130.21 139.12H127.74V157.48H133.8V168.96H121.68V176.77H125.72V188.71L130.21 187.33L129.76 191.92L134.7 191.46L136.04 202.48L140.53 201.1L140.98 206.61H149.51L149.95 198.35H153.1L153.99 191H174.68L176.17 204.78H171.24L170.79 209.37H168.54L167.65 220.85L164.95 220.39V230.49H179.76V224.79L184.25 225.9V217.63H187.39V211.54L180.66 211.66L181.56 200.19V191H192.78V174.47H185.86L185.41 158.4L190.35 157.48V149.22L171.5 149.68L173.29 159.78L176.43 160.24V166.21H167.01V169.88H163.87V113.4H147.71V106.06H121.68V120.29Z" fill="#FFCD00"/>
<path d="M151.18 112.09H163.29V120.81H160.15L159.7 130.91H157.23V149.28H163.29V160.76H151.18V168.57H155.21V180.5L159.7 179.13L159.25 183.72L164.19 183.26L165.54 194.28L170.03 192.9L170.47 198.41H179L179.45 190.15H182.59L183.49 182.8H204.17L205.67 196.57H200.73L200.28 201.17H198.04L197.14 212.65L194.45 212.19V222.29H209.26V216.59L213.75 217.7V209.43H216.89V203.34L210.16 203.46L211.05 191.98V182.8H222.27V166.27H215.36L214.91 150.2L219.84 149.28V141.02L200.99 141.47L202.79 151.58L205.93 152.04V158H196.51V161.68H193.36V105.2H177.21V97.8496H151.18V112.09Z" fill="#FFCD00"/>
<path d="M269.22 116.37H281.33V125.09H278.19L277.74 135.19H275.27V153.56H281.33V165.04H269.22V172.84H273.25V184.78L277.74 183.4L277.29 188L282.23 187.54L283.58 198.56L288.07 197.18L288.51 202.69H297.04L297.49 194.42H300.63L301.53 187.08H322.21L323.71 200.85H318.77L318.32 205.44H316.08L315.18 216.92L312.49 216.46V226.57H327.3V220.86L331.79 221.97V213.71H334.93V207.62L328.2 207.74L329.09 196.26V187.08H340.31V170.55H333.4L332.95 154.48L337.88 153.56V145.29L319.03 145.75L320.83 155.85L323.97 156.31V162.28H314.55V165.96H311.4V109.48H295.25V102.13H269.22V116.37Z" fill="#FFCD00"/>
<path d="M365.64 126.63H377.75V135.35H374.61L374.16 145.45H371.7V163.82H377.75V175.3H365.64V183.11H369.68V195.04L374.16 193.67L373.72 198.26L378.65 197.8L380 208.82L384.49 207.44L384.94 212.95H393.46L393.91 204.69H397.05L397.95 197.34H418.63L420.13 211.12H415.19L414.74 215.71H412.5L411.6 227.19L408.91 226.73V236.83H423.72V231.13L428.21 232.24V223.97H431.35V217.88L424.62 218L425.52 206.52V197.34H436.74V180.81H429.82L429.37 164.74L434.3 163.82V155.56L415.45 156.02L417.25 166.12L420.39 166.58V172.55H410.97V176.22H407.83V119.74H391.67V112.39H365.64V126.63Z" fill="#FFCD00"/>
<path d="M375.04 116.45H387.16V125.17H384.02L383.57 135.27H381.1V153.64H387.16V165.12H375.04V172.92H379.08V184.86L383.57 183.49L383.12 188.08L388.06 187.62L389.4 198.64L393.89 197.26L394.34 202.77H402.87L403.31 194.51H406.46L407.35 187.16H428.04L429.53 200.93H424.6L424.15 205.53H421.9L421.01 217L418.31 216.55V226.65H433.12V220.95L437.61 222.06V213.79H440.75V207.7L434.02 207.82L434.92 196.34V187.16H446.14V170.63H439.22L438.77 154.56L443.71 153.64V145.37L424.86 145.83L426.65 155.94L429.79 156.39V162.36H420.37V166.04H417.23V109.56H401.07V102.21H375.04V116.45Z" fill="#FFCD00"/>
<path d="M32.3198 120.29H44.4298V129.01H41.2898L40.8398 139.12H38.3698V157.48H44.4298V168.96H32.3198V176.77H36.3598V188.71L40.8398 187.33L40.3898 191.92L45.3298 191.46L46.6798 202.48L51.1698 201.1L51.6098 206.61H60.1398L60.5898 198.35H63.7298L64.6298 191H85.3098L86.8098 204.78H81.8698L81.4198 209.37H79.1798L78.2798 220.85L75.5898 220.39V230.49H90.3998V224.79L94.8898 225.9V217.63H98.0298V211.54L91.2998 211.66L92.1898 200.19V191H103.41V174.47H96.4998L96.0498 158.4L100.98 157.48V149.22L82.1298 149.68L83.9298 159.78L87.0698 160.24V166.21H77.6498V169.88H74.4998V113.4H58.3498V106.06H32.3198V120.29Z" fill="#FFCD00"/>
<path d="M131.02 188.08H118.9V179.35H122.05L122.49 169.25H124.96V150.89H118.9V139.41H131.02V131.6H126.98V119.66L122.49 121.04L122.94 116.45L118.01 116.91L116.66 105.89L112.17 107.26L111.72 101.75H103.2L102.75 110.02H99.5999L98.7099 117.37H78.0199L76.5299 103.59H81.4699L81.9099 98.9999H84.1599L85.0599 87.5199L87.7499 87.9799V77.8799H72.9399V83.5799L68.4499 82.4699V90.7299H65.3099V96.8199L72.0399 96.6999L71.1399 108.18V117.37H59.9199V133.9H66.8399L67.2899 149.97L62.3499 150.89V159.15L81.1999 158.69L79.4099 148.59L76.2699 148.13V142.16H85.6899V138.49H88.8299V194.97H104.99V202.31H131.02V188.08Z" fill="#FFCD00"/>
<path d="M300.79 203.46H288.68V194.74H291.82L292.27 184.64H294.73V166.27H288.68V154.79H300.79V146.98H296.75V135.05L292.27 136.42L292.71 131.83L287.78 132.29L286.43 121.27L281.94 122.65L281.49 117.14H272.97L272.52 125.4H269.38L268.48 132.75H247.8L246.3 118.98H251.24L251.69 114.38H253.93L254.83 102.9L257.52 103.36V93.2598H242.71V98.9598L238.22 97.8498V106.12H235.08V112.21L241.81 112.09L240.91 123.57V132.75H229.69V149.28H236.61L237.06 165.35L232.13 166.27V174.53L250.98 174.08L249.18 163.97L246.04 163.51V157.55H255.46V153.87H258.6V210.35H274.76V217.7H300.79V203.46Z" fill="#FFCD00"/>
<path d="M213.8 135.37V146.36C217.25 145.99 220.69 145.49 224.1 144.8L222.27 128.31H230.03L230.74 121.25H234.27L235.68 103.6L239.92 104.31V88.7803H216.63V97.5403L209.57 95.8303V108.54H204.63V117.9L215.22 117.71L213.8 135.37Z" fill="#FFCD00"/>
<path d="M196.58 156.12V167.11C200.03 166.74 203.47 166.24 206.88 165.55L205.05 149.06H212.81L213.52 142H217.05L218.46 124.35L222.7 125.06V109.53H199.4V118.29L192.34 116.58V129.29H187.4V138.65L197.99 138.46L196.58 156.12Z" fill="#FFCD00"/>
<path d="M380.6 135.37V146.36C377.15 145.99 373.71 145.49 370.3 144.8L372.13 128.31H364.37L363.66 121.25H360.13L358.72 103.6L354.48 104.31V88.7803H377.77V97.5403L384.83 95.8303V108.54H389.77V117.9L379.18 117.71L380.6 135.37Z" fill="#FFCD00"/>
<path d="M458.25 146.39V157.38C454.8 157.01 451.36 156.51 447.95 155.82L449.78 139.33H442.02L441.31 132.27H437.78L436.37 114.62L432.13 115.33V99.7998H455.42V108.56L462.48 106.85V119.56H467.42V128.92L456.83 128.73L458.25 146.39Z" fill="#FFCD00"/>
<path d="M295.76 51.5197V62.5097C292.31 62.1397 288.87 61.6397 285.46 60.9497L287.29 44.4597H279.53L278.82 37.3997H275.29L273.88 19.7497L269.64 20.4597V4.92969H292.93V13.6897L299.99 11.9797V24.6997H304.93V34.0597L294.34 33.8697L295.76 51.5197Z" fill="#FFCD00"/>
<path d="M508.35 146.39V157.38C504.9 157.01 501.46 156.51 498.05 155.82L499.88 139.33H492.12L491.41 132.27H487.88L486.47 114.62L482.23 115.33V99.7998H505.52V108.56L512.58 106.85V119.56H517.52V128.92L506.93 128.73L508.35 146.39Z" fill="#FFCD00"/>
<path d="M145.75 130.19V141.18C149.2 140.81 152.64 140.31 156.05 139.62L154.22 123.13H161.98L162.69 116.07H166.22L167.63 98.4196L171.87 99.1296V83.5996H148.58V92.3596L141.52 90.6496V103.36H136.58V112.72L147.17 112.53L145.75 130.19Z" fill="#FFCD00"/>
<path d="M102.83 130.19V141.18C106.28 140.81 109.72 140.31 113.13 139.62L111.3 123.13H119.06L119.77 116.07H123.3L124.71 98.4196L128.95 99.1296V83.5996H105.66V92.3596L98.6002 90.6496V103.36H93.6602V112.72L104.25 112.53L102.83 130.19Z" fill="#FFCD00"/>
<path d="M210.74 51.5197V62.5097C214.19 62.1397 217.63 61.6397 221.04 60.9497L219.21 44.4597H226.97L227.68 37.3997H231.21L232.62 19.7497L236.86 20.4597V4.92969H213.57V13.6897L206.51 11.9797V24.6997H201.57V34.0597L212.16 33.8697L210.74 51.5197Z" fill="#FFCD00"/>
<path d="M307.24 135.78L307.13 143.71C309.62 143.48 312.1 143.15 314.57 142.69L313.41 130.78L319.01 130.85L319.59 125.77L322.13 125.8L323.32 113.09L326.37 113.64L326.52 102.44L309.72 102.22L309.64 108.54L304.57 107.24L304.45 116.4L300.89 116.35L300.8 123.1L308.44 123.07L307.24 135.78Z" fill="#FFCD00"/>
<path d="M3.43 124.38L3.37 128.59C4.69 128.47 6.01 128.29 7.32 128.05L6.7 121.72L9.67 121.76L9.98 119.06L11.33 119.08L11.96 112.33L13.58 112.62L13.66 106.67L4.74 106.55L4.7 109.91L2 109.22L1.94 114.09L0.05 114.06L0 117.65L4.06 117.63L3.43 124.38Z" fill="#FFCD00"/>
<path d="M290.7 229.1L290.76 233.31C289.44 233.19 288.12 233.01 286.81 232.77L287.43 226.44L284.46 226.48L284.15 223.78L282.8 223.8L282.17 217.05L280.55 217.34L280.47 211.39L289.39 211.27L289.43 214.63L292.12 213.94L292.18 218.81L294.07 218.78L294.12 222.37L290.06 222.35L290.7 229.1Z" fill="#FFCD00"/>
<path d="M256.43 266.27L256.49 270.48C255.17 270.36 253.85 270.18 252.54 269.94L253.16 263.61L250.19 263.65L249.88 260.95L248.53 260.97L247.9 254.22L246.28 254.51L246.2 248.56L255.12 248.44L255.16 251.8L257.85 251.11L257.91 255.98L259.8 255.95L259.85 259.54L255.79 259.52L256.43 266.27Z" fill="#FFCD00"/>
<path d="M352.22 316.11L352.26 318.89C351.39 318.81 350.52 318.69 349.65 318.53L350.06 314.35L348.1 314.38L347.9 312.6L347.01 312.61L346.59 308.15L345.52 308.34L345.47 304.41L351.36 304.33L351.39 306.55L353.17 306.1L353.21 309.31L354.46 309.29L354.49 311.66L351.81 311.65L352.22 316.11Z" fill="#FFCD00"/>
<path d="M243.33 20.3202L243.39 24.5302C242.07 24.4102 240.75 24.2302 239.44 23.9902L240.06 17.6602L237.09 17.7002L236.78 15.0002L235.43 15.0202L234.8 8.27024L233.18 8.56024L233.1 2.61023L242.02 2.49023L242.06 5.85023L244.75 5.16023L244.81 10.0302L246.7 10.0002L246.75 13.5902L242.69 13.5702L243.33 20.3202Z" fill="#FFCD00"/>
<path d="M249.6 25.8896L249.66 30.0996C248.34 29.9796 247.02 29.7996 245.71 29.5596L246.33 23.2296L243.36 23.2696L243.05 20.5696L241.7 20.5896L241.07 13.8396L239.45 14.1296L239.37 8.17957L248.29 8.05957L248.33 11.4196L251.02 10.7296L251.08 15.5996L252.97 15.5696L253.02 19.1596L248.96 19.1396L249.6 25.8896Z" fill="#FFCD00"/>
<path d="M256.65 17.83L256.71 22.04C255.39 21.92 254.07 21.74 252.76 21.5L253.38 15.17L250.41 15.21L250.1 12.51L248.75 12.53L248.12 5.78L246.5 6.07L246.42 0.12L255.34 0L255.38 3.36L258.07 2.67L258.13 7.54L260.02 7.51L260.07 11.1L256.01 11.08L256.65 17.83Z" fill="#FFCD00"/>
<path d="M263.26 25.8896L263.32 30.0996C262 29.9796 260.68 29.7996 259.37 29.5596L259.99 23.2296L257.02 23.2696L256.71 20.5696L255.36 20.5896L254.73 13.8396L253.11 14.1296L253.03 8.17957L261.95 8.05957L261.99 11.4196L264.68 10.7296L264.74 15.5996L266.63 15.5696L266.68 19.1596L262.62 19.1396L263.26 25.8896Z" fill="#FFCD00"/>
<path d="M270.09 17.83L270.15 22.04C268.83 21.92 267.51 21.74 266.2 21.5L266.82 15.17L263.85 15.21L263.54 12.51L262.19 12.53L261.56 5.78L259.94 6.07L259.86 0.12L268.78 0L268.82 3.36L271.51 2.67L271.57 7.54L273.46 7.51L273.51 11.1L269.45 11.08L270.09 17.83Z" fill="#FFCD00"/>
<path d="M264.4 21.6503L264.46 25.8603C263.14 25.7403 261.82 25.5603 260.51 25.3203L261.13 18.9903L258.16 19.0303L257.85 16.3303L256.5 16.3503L255.87 9.60031L254.25 9.89031L254.17 3.94031L263.09 3.82031L263.13 7.18031L265.82 6.49031L265.88 11.3603L267.77 11.3303L267.82 14.9203L263.76 14.9003L264.4 21.6503Z" fill="#FFCD00"/>
<path d="M420.83 379.21L420.89 383.42C419.57 383.3 418.25 383.12 416.94 382.88L417.56 376.55L414.59 376.59L414.28 373.89L412.93 373.91L412.3 367.16L410.68 367.45L410.6 361.5L419.52 361.38L419.56 364.74L422.25 364.05L422.31 368.92L424.2 368.89L424.25 372.48L420.19 372.46L420.83 379.21Z" fill="#FFCD00"/>
<path d="M25.9 130.39L25.79 138.32C28.28 138.09 30.76 137.76 33.23 137.3L32.07 125.39L37.67 125.46L38.25 120.38L40.79 120.41L41.98 107.7L45.03 108.25L45.18 97.0501L28.38 96.8301L28.3 103.15L23.23 101.85L23.11 111.01L19.55 110.96L19.46 117.71L27.1 117.68L25.9 130.39Z" fill="#FFCD00"/>
<path d="M95.3602 318.2L94.5902 320.87C93.7802 320.54 92.9802 320.18 92.2002 319.77L93.8002 315.89L91.9102 315.35L92.2302 313.59L91.3702 313.34L92.2602 308.95L91.1802 308.83L92.2602 305.06L97.9202 306.69L97.3102 308.82L99.1402 308.9L98.2502 311.99L99.4502 312.33L98.8002 314.6L96.2402 313.82L95.3602 318.2Z" fill="#FFCD00"/>
<path d="M227.892 71.6163V78.3235C229.972 78.0977 232.046 77.7926 234.102 77.3714L232.998 67.3077H237.676L238.105 62.999H240.233L241.083 52.2272L243.639 52.6605V43.1826H229.598V48.5288L225.342 47.4852V55.2421H222.364V60.9545L228.748 60.8385L227.892 71.6163Z" fill="#FFCD00"/>
<path d="M328.449 71.6163V78.3235C326.369 78.0977 324.295 77.7926 322.239 77.3714L323.343 67.3077H318.664L318.236 62.999H316.108L315.258 52.2272L312.702 52.6605V43.1826H326.743V48.5288L330.999 47.4852V55.2421H333.977V60.9545L327.593 60.8385L328.449 71.6163Z" fill="#FFCD00"/>
<path d="M277.302 20.4435V27.1506C275.222 26.9248 273.148 26.6197 271.092 26.1986L272.196 16.1348H267.517L267.089 11.8261H264.961L264.111 1.05436L261.555 1.48767V-7.99023H275.596V-2.64404L279.852 -3.68764V4.07533H282.83V9.78771L276.446 9.67175L277.302 20.4435Z" fill="#FFCD00"/>
<path d="M266.747 26.4337V33.1409C264.667 32.9151 262.593 32.6099 260.537 32.1888L261.641 22.125H256.962L256.534 17.8163H254.406L253.556 7.0446L251 7.47791V-2H265.041V3.3462L269.297 2.30259V10.0656H272.275V15.7779L265.891 15.662L266.747 26.4337Z" fill="#FFCD00"/>
<path d="M251.747 26.4337V33.1409C249.667 32.9151 247.593 32.6099 245.537 32.1888L246.641 22.125H241.962L241.534 17.8163H239.406L238.556 7.0446L236 7.47791V-2H250.041V3.3462L254.297 2.30259V10.0656H257.275V15.7779L250.891 15.662L251.747 26.4337Z" fill="#FFCD00"/>
<path d="M241.747 30.4337V37.1409C239.667 36.9151 237.593 36.6099 235.537 36.1888L236.641 26.125H231.962L231.534 21.8163H229.406L228.556 11.0446L226 11.4779V2H240.041V7.3462L244.297 6.30259V14.0656H247.275V19.7779L240.891 19.662L241.747 30.4337Z" fill="#FFCD00"/>
<path d="M265.504 35.3197V42C263.06 41.7751 260.623 41.4712 258.207 41.0518L259.504 31.0283H254.006L253.503 26.7369H251.003L250.004 16.0083L247 16.4399V7H263.499V12.3248L268.5 11.2853V19.0172H272V24.7067L264.498 24.5912L265.504 35.3197Z" fill="#FFCD00"/>
<path d="M405.465 78.3409V85.0481C403.386 84.8223 401.312 84.5172 399.256 84.0961L400.359 74.0323H395.681L395.253 69.7236H393.125L392.275 58.9518L389.719 59.3851V49.9072H403.759V55.2534L408.016 54.2098V61.9667H410.994V67.6791L404.609 67.5631L405.465 78.3409Z" fill="#FFCD00"/>
<path d="M160.993 68.4552V75.1624C163.072 74.9365 165.146 74.6314 167.202 74.2103L166.099 64.1465H170.777L171.205 59.8378H173.333L174.183 49.0661L176.739 49.4994V40.0215H162.699V45.3677L158.442 44.3241V52.0809H155.464V57.7933L161.849 57.6774L160.993 68.4552Z" fill="#FFCD00"/>
<path d="M226.047 20.4435V27.1506C228.127 26.9248 230.201 26.6197 232.256 26.1986L231.153 16.1348H235.831L236.259 11.8261H238.387L239.237 1.05436L241.794 1.48767V-7.99023H227.753V-2.64404L223.497 -3.68764V4.07533H220.519V9.78771L226.903 9.67175L226.047 20.4435Z" fill="#FFCD00"/>
<path d="M284.224 71.8654L284.157 76.705C285.659 76.5647 287.154 76.3633 288.643 76.0825L287.943 68.8139L291.319 68.8566L291.669 65.7563L293.2 65.7746L293.918 58.0177L295.756 58.3534L295.847 51.5181L285.719 51.3838L285.671 55.2409L282.614 54.4475L282.542 60.0378L280.396 60.0073L280.341 64.1268L284.947 64.1085L284.224 71.8654Z" fill="#FFCD00"/>
<path d="M101.068 64.9089L101.032 67.4783C101.827 67.4051 102.623 67.2952 103.413 67.1487L103.039 63.2855L104.83 63.31L105.017 61.6622L105.83 61.6744L106.21 57.5549L107.187 57.7318L107.235 54.1006L101.858 54.0273L101.833 56.0779L100.206 55.6568L100.17 58.629L99.0301 58.6107L99 60.8016L101.448 60.7894L101.068 64.9089Z" fill="#FFCD00"/>
<path d="M274.253 128.819L274.289 131.388C273.493 131.315 272.697 131.205 271.908 131.059L272.281 127.196L270.491 127.22L270.304 125.572L269.49 125.585L269.11 121.465L268.134 121.642L268.085 118.011L273.463 117.938L273.487 119.988L275.109 119.567L275.145 122.539L276.284 122.521L276.315 124.712L273.867 124.7L274.253 128.819Z" fill="#FFCD00"/>
<path d="M253.592 151.503L253.628 154.072C252.832 153.999 252.037 153.889 251.247 153.742L251.621 149.879L249.83 149.904L249.643 148.256L248.829 148.268L248.45 144.149L247.473 144.326L247.425 140.694L252.802 140.621L252.826 142.672L254.448 142.251L254.484 145.223L255.624 145.204L255.654 147.395L253.206 147.383L253.592 151.503Z" fill="#FFCD00"/>
<path d="M311.341 181.921L311.365 183.617C310.84 183.569 310.316 183.495 309.791 183.398L310.039 180.847L308.857 180.865L308.736 179.779L308.2 179.785L307.947 177.063L307.302 177.179L307.271 174.78L310.822 174.731L310.84 176.086L311.914 175.812L311.938 177.771L312.691 177.759L312.709 179.205L311.094 179.199L311.341 181.921Z" fill="#FFCD00"/>
<path d="M245.696 1.40112L245.732 3.97047C244.936 3.89724 244.14 3.78738 243.35 3.64091L243.724 -0.222267L241.934 -0.197855L241.747 -1.84566L240.933 -1.83345L240.553 -5.95295L239.577 -5.77597L239.528 -9.40723L244.906 -9.48047L244.93 -7.42987L246.552 -7.85098L246.588 -4.87883L247.727 -4.89714L247.757 -2.70617L245.31 -2.71838L245.696 1.40112Z" fill="#FFCD00"/>
<path d="M249.474 4.80054L249.51 7.36989C248.714 7.29665 247.919 7.1868 247.129 7.04033L247.503 3.17715L245.712 3.20156L245.525 1.55376L244.711 1.56596L244.332 -2.55354L243.355 -2.37655L243.307 -6.00782L248.684 -6.08105L248.708 -4.03046L250.33 -4.45156L250.366 -1.47942L251.506 -1.49773L251.536 0.693239L249.088 0.681033L249.474 4.80054Z" fill="#FFCD00"/>
<path d="M253.726 -0.118408L253.762 2.45094C252.966 2.37771 252.17 2.26785 251.381 2.12138L251.755 -1.7418L249.964 -1.71739L249.777 -3.36519L248.963 -3.35298L248.583 -7.47248L247.607 -7.2955L247.559 -10.9268L252.936 -11L252.96 -8.9494L254.582 -9.37051L254.618 -6.39836L255.758 -6.41667L255.788 -4.22571L253.34 -4.23791L253.726 -0.118408Z" fill="#FFCD00"/>
<path d="M257.709 4.80054L257.745 7.36989C256.949 7.29665 256.153 7.1868 255.364 7.04033L255.737 3.17715L253.947 3.20156L253.76 1.55376L252.946 1.56596L252.566 -2.55354L251.59 -2.37655L251.542 -6.00782L256.919 -6.08105L256.943 -4.03046L258.565 -4.45156L258.601 -1.47942L259.74 -1.49773L259.771 0.693239L257.323 0.681033L257.709 4.80054Z" fill="#FFCD00"/>
<path d="M261.827 -0.118408L261.863 2.45094C261.067 2.37771 260.272 2.26785 259.482 2.12138L259.856 -1.7418L258.065 -1.71739L257.878 -3.36519L257.064 -3.35298L256.685 -7.47248L255.708 -7.2955L255.66 -10.9268L261.037 -11L261.061 -8.9494L262.683 -9.37051L262.719 -6.39836L263.859 -6.41667L263.889 -4.22571L261.441 -4.23791L261.827 -0.118408Z" fill="#FFCD00"/>
<path d="M258.397 2.21362L258.433 4.78297C257.638 4.70974 256.842 4.59988 256.052 4.45341L256.426 0.590234L254.635 0.614646L254.449 -1.03316L253.635 -1.02095L253.255 -5.14045L252.278 -4.96347L252.23 -8.59473L257.608 -8.66797L257.632 -6.61737L259.253 -7.03848L259.29 -4.06633L260.429 -4.08464L260.459 -1.89367L258.011 -1.90588L258.397 2.21362Z" fill="#FFCD00"/>
</g>
<defs>
<clipPath id="clip0">
<rect width="517.53" height="383.42" fill="white"/>
</clipPath>
</defs>
</svg>
