<svg width="59" height="47" viewBox="0 0 59 47" fill="none" xmlns="http://www.w3.org/2000/svg">
<path d="M53.8817 27.5831L51.7617 12.7939L4.62268 19.5512L6.74267 34.3403L53.8817 27.5831Z" fill="#FFCD00"/>
<path d="M52.2748 32.4219L50.1548 17.6328L7.52969 23.743L9.64968 38.5321L52.2748 32.4219Z" fill="#FFCD00"/>
<path d="M49.6548 30.2353L46.9956 11.6846L4.37051 17.7948L7.02972 36.3456L49.6548 30.2353Z" fill="#FFCD00"/>
<path d="M51.5518 27.4081L48.8926 8.85742L6.26749 14.9676L8.92669 33.5184L51.5518 27.4081Z" fill="#FFCD00"/>
<path d="M48.938 25.2236L46.2788 6.67285L8.16766 12.136L10.8269 30.6867L48.938 25.2236Z" fill="#FFCD00"/>
<path d="M43.4893 21.1357L40.8301 2.58496L12.2517 6.68161L14.9109 25.2323L43.4893 21.1357Z" fill="#FFCD00"/>
<path d="M16.4344 3.51612L18.123 15.2959L37.4261 12.5288L35.7375 0.749075L16.4344 3.51612Z" fill="#FFCD00"/>
<path d="M20.8578 34.3452L22.5464 46.125L41.8494 43.3579L40.1608 31.5782L20.8578 34.3452Z" fill="#FFCD00"/>
<path d="M16.0575 32.9946L17.7461 44.7744L46.3245 40.6778L44.6359 28.8979L16.0575 32.9946Z" fill="#FFCD00"/>
<path d="M13.4383 30.812L15.127 42.5918L48.2193 37.8481L46.5307 26.0682L13.4383 30.812Z" fill="#FFCD00"/>
<path d="M2.57616 22.8955L3.90576 32.1709L42.0169 26.7077L40.6873 17.4324L2.57616 22.8955Z" fill="#FFCD00"/>
<path d="M0.104296 25.2888L0.82373 30.3076L38.9349 24.8445L38.2154 19.8257L0.104296 25.2888Z" fill="#FFCD00"/>
<path d="M10.9257 31.1651L12.3276 40.9453L50.4388 35.4822L49.0368 25.7019L10.9257 31.1651Z" fill="#FFCD00"/>
<path d="M46.0772 23.0742L43.418 4.52344L10.3256 9.26715L12.9848 27.8179L46.0772 23.0742Z" fill="#FFCD00"/>
<path d="M58.0727 21.1076L57.6768 18.3457L51.6582 19.2085L52.0541 21.9703L58.0727 21.1076Z" fill="black"/>
<path d="M17.6971 23.0271L18.4165 28.0459L56.5277 22.5827L55.8082 17.5639L17.6971 23.0271Z" fill="#FFCD00"/>
</svg>
