<svg width="1032" height="339" viewBox="0 0 1032 339" fill="none" xmlns="http://www.w3.org/2000/svg">
<path d="M218.392 241.733L216.269 243.428L215.09 241.85L215.639 241.411L214.348 239.519L214.781 239.173L212.292 235.85L211.231 236.7L209.679 234.623L211.799 232.926L210.741 231.514L210.034 232.079L208.418 229.92L207.817 230.796L207.273 229.905L206.472 230.679L204.742 228.874L204.144 229.751L203.319 228.815L201.826 230.008L202.868 231.567L202.315 232.007L203.155 233.463L199.533 236.358L197.405 234.074L198.268 233.383L197.725 232.489L198.119 232.176L196.721 229.973L197.256 229.679L195.886 227.852L193.292 229.923L194.065 230.955L193.13 231.384L194.249 232.88L193.698 233.317L194.523 234.421L195.684 233.457L197.083 235.657L198.328 237.318L196.363 238.89L198.603 241.879L199.815 240.912L202.069 243.757L201.328 244.614L202.449 246.107L205.688 243.387L204.005 241.812L203.393 242.169L202.585 241.088L204.233 239.77L203.738 239.104L204.287 238.665L211.938 248.882L214.769 246.621L215.763 247.951L220.32 244.307L218.392 241.733Z" fill="#FFCD00"/>
<path d="M180.594 181.008L178.657 178.968C178.102 179.664 177.573 180.384 177.08 181.133L180.315 183.857L178.919 185.271L180.035 186.709L179.401 187.352L182.258 190.884L181.374 191.524L184.112 194.404L188.295 190.165L186.75 188.538L188.319 187.57L186.081 185.213L186.968 184.312L185.319 182.574L183.451 184.538L180.594 181.008Z" fill="#FFCD00"/>
<path d="M154.563 227.634L151.798 227.558C151.868 228.457 151.972 229.354 152.121 230.247L156.28 229.882L156.228 231.9L157.998 232.133L157.975 233.05L162.405 233.537L162.2 234.632L166.107 234.736L166.261 228.685L164.056 228.625L164.532 226.803L161.337 226.716L161.369 225.431L159.014 225.366L158.992 228.119L154.563 227.634Z" fill="#FFCD00"/>
<path d="M202.496 196.958L201.428 194.322C200.663 194.756 199.914 195.222 199.187 195.729L201.217 199.498L199.414 200.277L199.935 202.04L199.116 202.394L200.504 206.768L199.454 207.024L200.965 210.747L206.37 208.409L205.518 206.307L207.321 206.007L206.087 202.962L207.234 202.464L206.325 200.219L203.886 201.329L202.496 196.958Z" fill="#FFCD00"/>
<path d="M149.948 201.096L148.396 200.35C148.225 200.885 148.073 201.427 147.948 201.979L150.394 202.827L149.89 203.975L150.84 204.559L150.612 205.081L153.01 206.488L152.637 207.066L154.829 208.119L156.337 204.675L155.1 204.08L155.798 203.152L154.006 202.29L154.326 201.558L153.005 200.922L152.346 202.501L149.948 201.096Z" fill="#FFCD00"/>
<path d="M147.582 178.003L145.362 176.299C144.919 177.075 144.505 177.871 144.13 178.69L147.735 180.862L146.569 182.483L147.888 183.724L147.359 184.461L150.712 187.491L149.935 188.265L153.073 190.671L156.567 185.812L154.797 184.453L156.2 183.245L153.635 181.276L154.376 180.244L152.486 178.792L150.936 181.031L147.582 178.003Z" fill="#FFCD00"/>
<path d="M126.105 217.755L124.119 217.949C124.244 218.586 124.395 219.22 124.578 219.845L127.526 219.21L127.659 220.659L128.947 220.666L129.007 221.325L132.22 221.275L132.165 222.078L134.97 221.803L134.57 217.455L132.986 217.611L133.174 216.263L130.878 216.488L130.794 215.566L129.103 215.731L129.32 217.703L126.105 217.755Z" fill="#FFCD00"/>
<path d="M191.235 253.296L189.244 253.158C189.269 253.807 189.319 254.458 189.401 255.105L192.41 254.97L192.316 256.422L193.585 256.643L193.542 257.303L196.72 257.789L196.541 258.572L199.353 258.768L199.636 254.41L198.048 254.3L198.444 253.001L196.144 252.841L196.204 251.917L194.51 251.799L194.416 253.781L191.235 253.296Z" fill="#FFCD00"/>
<path d="M187.458 211.801L186.177 210.221C185.74 210.688 185.32 211.177 184.925 211.687L187.104 213.835L186.024 214.77L186.749 215.869L186.258 216.295L188.119 219L187.448 219.408L189.259 221.639L192.498 218.833L191.475 217.574L192.656 216.969L191.175 215.144L191.862 214.549L190.772 213.204L189.322 214.507L187.458 211.801Z" fill="#FFCD00"/>
<path d="M211.829 217.391L211.41 216.385C211.119 216.554 210.833 216.736 210.558 216.932L211.346 218.369L210.658 218.675L210.863 219.347L210.552 219.486L211.098 221.157L210.696 221.257L211.286 222.677L213.349 221.762L213.014 220.961L213.704 220.839L213.222 219.677L213.661 219.483L213.305 218.625L212.374 219.057L211.829 217.391Z" fill="#FFCD00"/>
<path d="M199.098 156.808L198.869 156.145C199.104 156.085 199.338 156.031 199.578 155.989L199.801 157.029L200.31 156.841L200.504 157.25L200.735 157.167L201.195 158.198L201.458 158.054L201.782 158.993L200.255 159.554L200.073 159.025L199.644 159.297L199.381 158.529L199.057 158.649L198.861 158.081L199.558 157.836L199.098 156.808Z" fill="#FFCD00"/>
<path d="M224.359 166.155L224.527 165.074C224.193 165.056 223.857 165.052 223.524 165.065L223.444 166.714L222.705 166.592L222.53 167.273L222.195 167.219L221.79 168.932L221.398 168.794L221.161 170.32L223.377 170.688L223.51 169.826L224.155 170.105L224.351 168.857L224.822 168.935L224.966 168.014L223.956 167.864L224.359 166.155Z" fill="#FFCD00"/>
<path d="M212.859 171.361L212.688 170.281C212.366 170.373 212.046 170.478 211.733 170.6L212.162 172.191L211.423 172.316L211.466 173.02L211.131 173.077L211.271 174.835L210.858 174.832L211.098 176.357L213.314 175.983L213.177 175.122L213.874 175.175L213.678 173.927L214.149 173.848L214.004 172.927L213 173.115L212.859 171.361Z" fill="#FFCD00"/>
<path d="M171.201 249.902L170.146 249.81C170.21 249.471 170.284 249.134 170.378 248.801L171.947 249.121L172.011 248.349L172.696 248.339L172.727 247.99L174.434 247.998L174.401 247.57L175.892 247.7L175.702 250.012L174.861 249.938L174.968 250.653L173.748 250.547L173.707 251.038L172.809 250.96L172.912 249.912L171.201 249.902Z" fill="#FFCD00"/>
<path d="M133.988 256.586L132.929 256.542C132.979 256.201 133.038 255.861 133.118 255.524L134.699 255.771L134.729 254.997L135.413 254.955L135.429 254.605L137.134 254.535L137.083 254.109L138.578 254.17L138.489 256.488L137.645 256.454L137.783 257.162L136.56 257.112L136.54 257.606L135.639 257.569L135.697 256.517L133.988 256.586Z" fill="#FFCD00"/>
<path d="M178.484 263.194L177.425 263.218C177.454 262.873 177.494 262.531 177.553 262.189L179.146 262.335L179.13 261.561L179.811 261.476L179.805 261.126L181.504 260.947L181.427 260.526L182.923 260.492L182.971 262.811L182.127 262.83L182.306 263.529L181.083 263.557L181.093 264.05L180.191 264.07L180.186 263.017L178.484 263.194Z" fill="#FFCD00"/>
<path d="M162.033 166.371L160.824 164.731C160.367 165.177 159.925 165.644 159.508 166.134L161.586 168.386L160.465 169.268L161.139 170.401L160.629 170.802L162.365 173.595L161.676 173.97L163.383 176.287L166.747 173.641L165.782 172.333L166.99 171.787L165.593 169.891L166.307 169.33L165.279 167.934L163.772 169.165L162.033 166.371Z" fill="#FFCD00"/>
<path d="M137.992 163.493L136.977 162.994C136.858 163.341 136.754 163.69 136.667 164.049L138.272 164.623L137.931 165.364L138.553 165.752L138.397 166.09L139.965 167.026L139.713 167.399L141.148 168.104L142.169 165.881L141.359 165.483L141.828 164.886L140.653 164.309L140.87 163.837L140.005 163.413L139.557 164.432L137.992 163.493Z" fill="#FFCD00"/>
<path d="M937.918 200.629L935.795 202.325L934.616 200.746L935.165 200.308L933.874 198.415L934.307 198.07L931.818 194.747L930.757 195.597L929.204 193.519L931.325 191.822L930.267 190.41L929.559 190.975L927.943 188.816L927.343 189.692L926.799 188.801L925.998 189.576L924.268 187.77L923.67 188.647L922.845 187.712L921.352 188.905L922.394 190.464L921.841 190.903L922.681 192.359L919.059 195.254L916.931 192.97L917.794 192.28L917.251 191.386L917.645 191.073L916.247 188.87L916.782 188.575L915.412 186.748L912.818 188.82L913.591 189.852L912.656 190.28L913.775 191.776L913.224 192.213L914.049 193.317L915.21 192.353L916.609 194.554L917.854 196.215L915.889 197.787L918.129 200.776L919.34 199.808L921.595 202.653L920.854 203.511L921.974 205.004L925.214 202.283L923.531 200.708L922.919 201.066L922.111 199.985L923.759 198.666L923.264 198L923.812 197.562L931.464 207.778L934.295 205.517L935.289 206.848L939.846 203.203L937.918 200.629Z" fill="#FFCD00"/>
<path d="M912.872 43.4537L910.935 41.4136C910.38 42.1098 909.852 42.8288 909.358 43.5779L912.593 46.3027L911.198 47.7164L912.314 49.1544L911.68 49.797L914.536 53.3289L913.653 53.9688L916.39 56.8494L920.573 52.6101L919.029 50.9837L920.597 50.0157L918.359 47.6586L919.246 46.7577L917.597 45.0198L915.729 46.9829L912.872 43.4537Z" fill="#FFCD00"/>
<path d="M832.124 239.285L829.359 239.21C829.429 240.108 829.532 241.005 829.681 241.898L833.841 241.533L833.789 243.552L835.559 243.784L835.535 244.701L839.965 245.189L839.761 246.283L843.667 246.388L843.821 240.336L841.617 240.277L842.093 238.454L838.898 238.367L838.929 237.082L836.574 237.017L836.553 239.77L832.124 239.285Z" fill="#FFCD00"/>
<path d="M959.106 9.89902L958.037 7.26316C957.273 7.69786 956.524 8.1636 955.797 8.6707L957.826 12.4391L956.023 13.2187L956.544 14.9813L955.725 15.3359L957.113 19.7092L956.063 19.9658L957.575 23.6887L962.979 21.35L962.127 19.2484L963.931 18.9488L962.697 15.9034L963.843 15.4058L962.934 13.1607L960.496 14.2701L959.106 9.89902Z" fill="#FFCD00"/>
<path d="M877.654 154.893L876.103 154.146C875.931 154.682 875.78 155.224 875.655 155.776L878.1 156.624L877.597 157.772L878.546 158.356L878.318 158.878L880.716 160.285L880.343 160.863L882.535 161.916L884.043 158.472L882.807 157.877L883.504 156.949L881.712 156.087L882.032 155.355L880.711 154.719L880.053 156.298L877.654 154.893Z" fill="#FFCD00"/>
<path d="M807.359 119.773L805.139 118.068C804.696 118.845 804.282 119.64 803.907 120.459L807.512 122.632L806.346 124.252L807.665 125.494L807.136 126.23L810.488 129.261L809.712 130.035L812.85 132.441L816.344 127.582L814.573 126.223L815.977 125.015L813.412 123.046L814.153 122.013L812.263 120.561L810.713 122.8L807.359 119.773Z" fill="#FFCD00"/>
<path d="M805.585 195.067L803.598 195.262C803.724 195.898 803.875 196.533 804.057 197.158L807.005 196.523L807.139 197.972L808.426 197.978L808.487 198.637L811.699 198.588L811.644 199.391L814.45 199.115L814.05 194.768L812.465 194.923L812.653 193.575L810.358 193.801L810.273 192.879L808.583 193.044L808.8 195.016L805.585 195.067Z" fill="#FFCD00"/>
<path d="M918.578 237.007L916.587 236.869C916.611 237.518 916.661 238.169 916.744 238.816L919.752 238.68L919.658 240.133L920.927 240.354L920.884 241.014L924.063 241.5L923.883 242.283L926.695 242.479L926.979 238.121L925.391 238.011L925.786 236.712L923.486 236.552L923.546 235.628L921.852 235.51L921.758 237.492L918.578 237.007Z" fill="#FFCD00"/>
<path d="M935.775 161.488L934.493 159.908C934.057 160.376 933.636 160.864 933.242 161.374L935.42 163.522L934.34 164.458L935.065 165.557L934.574 165.982L936.436 168.687L935.764 169.096L937.575 171.327L940.814 168.521L939.792 167.261L940.973 166.657L939.491 164.831L940.178 164.236L939.088 162.892L937.639 164.194L935.775 161.488Z" fill="#FFCD00"/>
<path d="M984.586 165.176L984.168 164.17C983.877 164.339 983.591 164.521 983.316 164.717L984.104 166.154L983.415 166.46L983.621 167.132L983.31 167.271L983.855 168.942L983.454 169.043L984.044 170.463L986.106 169.548L985.772 168.746L986.461 168.624L985.98 167.462L986.419 167.268L986.062 166.41L985.132 166.842L984.586 165.176Z" fill="#FFCD00"/>
<path d="M973.384 118.732L973.156 118.068C973.39 118.009 973.625 117.955 973.865 117.913L974.087 118.953L974.596 118.765L974.79 119.174L975.022 119.091L975.482 120.122L975.745 119.978L976.069 120.916L974.542 121.478L974.359 120.949L973.931 121.221L973.668 120.453L973.344 120.573L973.147 120.005L973.844 119.76L973.384 118.732Z" fill="#FFCD00"/>
<path d="M1018.55 144.46L1018.71 143.379C1018.38 143.361 1018.05 143.356 1017.71 143.37L1017.63 145.019L1016.89 144.896L1016.72 145.578L1016.38 145.523L1015.98 147.236L1015.59 147.099L1015.35 148.625L1017.57 148.993L1017.7 148.131L1018.34 148.409L1018.54 147.161L1019.01 147.24L1019.15 146.319L1018.14 146.169L1018.55 144.46Z" fill="#FFCD00"/>
<path d="M1010.01 108.798L1009.83 107.718C1009.51 107.81 1009.19 107.915 1008.88 108.037L1009.31 109.627L1008.57 109.752L1008.61 110.456L1008.28 110.514L1008.42 112.271L1008 112.269L1008.24 113.794L1010.46 113.419L1010.32 112.558L1011.02 112.612L1010.82 111.364L1011.3 111.285L1011.15 110.364L1010.15 110.551L1010.01 108.798Z" fill="#FFCD00"/>
<path d="M903.738 287.315L902.682 287.223C902.746 286.884 902.821 286.548 902.914 286.214L904.484 286.534L904.547 285.762L905.232 285.752L905.263 285.403L906.97 285.411L906.937 284.983L908.428 285.113L908.239 287.425L907.397 287.352L907.504 288.066L906.284 287.96L906.243 288.452L905.345 288.373L905.448 287.325L903.738 287.315Z" fill="#FFCD00"/>
<path d="M847.301 324.978L846.243 324.935C846.292 324.593 846.352 324.254 846.431 323.916L848.013 324.164L848.043 323.389L848.727 323.348L848.742 322.998L850.448 322.927L850.397 322.501L851.892 322.562L851.802 324.881L850.959 324.846L851.096 325.555L849.873 325.505L849.854 325.998L848.953 325.961L849.011 324.909L847.301 324.978Z" fill="#FFCD00"/>
<path d="M936.52 311.734L935.461 311.758C935.49 311.413 935.53 311.071 935.588 310.729L937.182 310.875L937.166 310.101L937.846 310.016L937.841 309.666L939.539 309.487L939.463 309.066L940.958 309.032L941.007 311.351L940.163 311.37L940.342 312.069L939.118 312.097L939.128 312.59L938.227 312.61L938.222 311.557L936.52 311.734Z" fill="#FFCD00"/>
<path d="M854.024 39.9748L852.816 38.3346C852.358 38.7803 851.917 39.2475 851.499 39.7378L853.577 41.9897L852.456 42.8715L853.13 44.0046L852.62 44.4054L854.356 47.198L853.667 47.5737L855.374 49.8902L858.738 47.2447L857.774 45.9367L858.981 45.3902L857.584 43.4949L858.298 42.9338L857.27 41.538L855.763 42.7688L854.024 39.9748Z" fill="#FFCD00"/>
<path d="M783.647 25.6778L782.632 25.1787C782.513 25.5254 782.409 25.875 782.322 26.2336L783.928 26.8074L783.586 27.5485L784.208 27.937L784.052 28.2747L785.62 29.2101L785.368 29.5836L786.803 30.2889L787.824 28.0655L787.014 27.6681L787.483 27.0704L786.308 26.4936L786.525 26.0214L785.66 25.5971L785.212 26.6161L783.647 25.6778Z" fill="#FFCD00"/>
<path d="M725.097 216.597L722.975 218.293L721.796 216.714L722.345 216.275L721.054 214.383L721.487 214.037L718.998 210.715L717.937 211.564L716.384 209.487L718.504 207.79L717.447 206.378L716.739 206.943L715.123 204.784L714.523 205.66L713.978 204.769L713.178 205.543L711.448 203.738L710.85 204.615L710.024 203.68L708.532 204.873L709.574 206.431L709.021 206.871L709.86 208.327L706.238 211.222L704.111 208.938L704.974 208.248L704.431 207.354L704.824 207.04L703.427 204.837L703.961 204.543L702.591 202.716L699.997 204.788L700.771 205.82L699.835 206.248L700.955 207.744L700.403 208.181L701.228 209.285L702.39 208.321L703.789 210.521L705.033 212.183L703.068 213.754L705.308 216.743L706.52 215.776L708.775 218.621L708.033 219.479L709.154 220.972L712.394 218.251L710.71 216.676L710.098 217.033L709.291 215.952L710.939 214.634L710.443 213.968L710.992 213.53L718.644 223.746L721.474 221.485L722.469 222.816L727.025 219.171L725.097 216.597Z" fill="#FFCD00"/>
<path d="M662.006 76.0036L660.069 73.9634C659.514 74.6596 658.985 75.3787 658.492 76.1277L661.727 78.8525L660.331 80.2662L661.447 81.7043L660.814 82.3468L663.67 85.8787L662.786 86.5186L665.524 89.3992L669.707 85.1599L668.162 83.5335L669.731 82.5655L667.493 80.2084L668.38 79.3075L666.731 77.5696L664.863 79.5327L662.006 76.0036Z" fill="#FFCD00"/>
<path d="M599.686 228.846L596.921 228.77C596.991 229.669 597.095 230.566 597.244 231.459L601.403 231.094L601.351 233.112L603.121 233.345L603.098 234.262L607.528 234.749L607.323 235.844L611.23 235.948L611.384 229.897L609.179 229.837L609.655 228.015L606.46 227.928L606.492 226.643L604.137 226.578L604.115 229.331L599.686 228.846Z" fill="#FFCD00"/>
<path d="M699.917 25.8668L698.848 23.2309C698.084 23.6656 697.335 24.1314 696.608 24.6385L698.637 28.4068L696.834 29.1865L697.355 30.9491L696.536 31.3036L697.924 35.6769L696.874 35.9335L698.386 39.6565L703.79 37.3178L702.938 35.2162L704.742 34.9166L703.508 31.8712L704.654 31.3736L703.745 29.1285L701.307 30.2379L699.917 25.8668Z" fill="#FFCD00"/>
<path d="M638.677 165.333L637.125 164.587C636.954 165.122 636.802 165.665 636.677 166.216L639.123 167.064L638.619 168.213L639.569 168.796L639.341 169.318L641.739 170.725L641.366 171.303L643.558 172.357L645.066 168.912L643.829 168.317L644.527 167.39L642.735 166.527L643.055 165.796L641.734 165.159L641.075 166.738L638.677 165.333Z" fill="#FFCD00"/>
<path d="M582.055 128.37L579.835 126.666C579.392 127.443 578.977 128.238 578.602 129.057L582.208 131.229L581.042 132.85L582.361 134.091L581.831 134.828L585.184 137.858L584.408 138.632L587.545 141.039L591.04 136.179L589.269 134.821L590.673 133.613L588.108 131.643L588.849 130.611L586.958 129.159L585.408 131.398L582.055 128.37Z" fill="#FFCD00"/>
<path d="M574.336 195.068L572.349 195.263C572.475 195.899 572.625 196.533 572.808 197.159L575.756 196.524L575.89 197.973L577.177 197.979L577.238 198.638L580.45 198.589L580.395 199.392L583.201 199.116L582.801 194.769L581.216 194.924L581.404 193.576L579.109 193.802L579.024 192.88L577.334 193.045L577.55 195.017L574.336 195.068Z" fill="#FFCD00"/>
<path d="M671.872 232.095L669.882 231.957C669.906 232.605 669.956 233.257 670.039 233.904L673.047 233.768L672.953 235.221L674.222 235.442L674.179 236.102L677.357 236.588L677.178 237.371L679.99 237.567L680.274 233.209L678.686 233.099L679.081 231.8L676.781 231.64L676.841 230.716L675.147 230.598L675.053 232.58L671.872 232.095Z" fill="#FFCD00"/>
<path d="M691.447 176.228L690.165 174.649C689.728 175.116 689.308 175.604 688.914 176.114L691.092 178.263L690.012 179.198L690.737 180.297L690.246 180.722L692.108 183.427L691.436 183.836L693.247 186.067L696.486 183.261L695.464 182.001L696.645 181.397L695.163 179.572L695.85 178.976L694.76 177.632L693.311 178.935L691.447 176.228Z" fill="#FFCD00"/>
<path d="M718.857 184.828L718.438 183.822C718.147 183.992 717.861 184.174 717.587 184.37L718.374 185.806L717.686 186.112L717.891 186.785L717.58 186.924L718.126 188.594L717.724 188.695L718.314 190.115L720.377 189.2L720.043 188.398L720.732 188.277L720.25 187.114L720.689 186.92L720.333 186.063L719.402 186.495L718.857 184.828Z" fill="#FFCD00"/>
<path d="M715.978 154.965L715.75 154.302C715.984 154.242 716.218 154.188 716.458 154.146L716.681 155.186L717.19 154.998L717.384 155.408L717.615 155.324L718.075 156.355L718.339 156.211L718.663 157.15L717.135 157.712L716.953 157.183L716.525 157.455L716.262 156.687L715.938 156.806L715.741 156.238L716.438 155.993L715.978 154.965Z" fill="#FFCD00"/>
<path d="M746.874 161.042L747.042 159.961C746.708 159.943 746.373 159.938 746.039 159.952L745.959 161.601L745.22 161.478L745.045 162.16L744.71 162.105L744.305 163.818L743.914 163.681L743.676 165.207L745.892 165.575L746.025 164.713L746.671 164.991L746.866 163.743L747.338 163.822L747.481 162.901L746.471 162.751L746.874 161.042Z" fill="#FFCD00"/>
<path d="M744.277 124.152L744.105 123.072C743.783 123.164 743.463 123.269 743.151 123.391L743.58 124.982L742.841 125.107L742.883 125.811L742.548 125.868L742.688 127.626L742.275 127.623L742.516 129.148L744.731 128.774L744.594 127.913L745.292 127.966L745.095 126.718L745.567 126.639L745.421 125.718L744.417 125.906L744.277 124.152Z" fill="#FFCD00"/>
<path d="M667.138 268.278L666.083 268.186C666.147 267.847 666.221 267.51 666.315 267.177L667.884 267.497L667.948 266.725L668.633 266.715L668.664 266.366L670.371 266.374L670.338 265.946L671.829 266.076L671.639 268.388L670.798 268.314L670.905 269.029L669.685 268.923L669.644 269.414L668.746 269.336L668.849 268.288L667.138 268.278Z" fill="#FFCD00"/>
<path d="M630.914 305.941L629.855 305.898C629.905 305.556 629.965 305.217 630.044 304.879L631.625 305.126L631.656 304.352L632.34 304.311L632.355 303.961L634.061 303.89L634.01 303.464L635.504 303.525L635.415 305.843L634.571 305.809L634.709 306.518L633.486 306.468L633.466 306.961L632.566 306.924L632.623 305.872L630.914 305.941Z" fill="#FFCD00"/>
<path d="M694.571 276.729L693.512 276.753C693.541 276.409 693.58 276.066 693.639 275.724L695.233 275.871L695.217 275.096L695.897 275.011L695.892 274.661L697.59 274.483L697.514 274.061L699.009 274.027L699.058 276.346L698.213 276.365L698.393 277.064L697.169 277.092L697.179 277.585L696.278 277.605L696.273 276.552L694.571 276.729Z" fill="#FFCD00"/>
<path d="M612.669 70.6818L611.461 69.0417C611.004 69.4873 610.562 69.9545 610.144 70.4448L612.222 72.6967L611.101 73.5785L611.775 74.7116L611.265 75.1124L613.001 77.9051L612.312 78.2808L614.019 80.5972L617.383 77.9518L616.419 76.6437L617.626 76.0972L616.229 74.2019L616.943 73.6408L615.915 72.245L614.408 73.4758L612.669 70.6818Z" fill="#FFCD00"/>
<path d="M541.698 36.7325L540.683 36.2334C540.564 36.5801 540.46 36.9297 540.373 37.2883L541.978 37.8621L541.637 38.6032L542.259 38.9917L542.103 39.3294L543.671 40.2648L543.419 40.6383L544.854 41.3436L545.875 39.1202L545.065 38.7227L545.534 38.1251L544.359 37.5483L544.576 37.0761L543.711 36.6518L543.263 37.6708L541.698 36.7325Z" fill="#FFCD00"/>
<path d="M465.314 225.195L463.191 226.89L462.012 225.312L462.561 224.873L461.27 222.981L461.703 222.635L459.214 219.312L458.153 220.162L456.6 218.084L458.721 216.388L457.663 214.976L456.955 215.541L455.339 213.382L454.739 214.258L454.195 213.367L453.394 214.141L451.664 212.335L451.066 213.213L450.241 212.277L448.748 213.47L449.79 215.029L449.237 215.469L450.077 216.925L446.455 219.82L444.327 217.536L445.19 216.845L444.647 215.951L445.041 215.638L443.643 213.435L444.177 213.141L442.808 211.314L440.214 213.385L440.987 214.417L440.052 214.846L441.171 216.342L440.62 216.779L441.445 217.883L442.606 216.919L444.005 219.119L445.25 220.78L443.284 222.352L445.525 225.341L446.736 224.374L448.991 227.219L448.25 228.076L449.37 229.569L452.61 226.849L450.927 225.274L450.315 225.631L449.507 224.55L451.155 223.232L450.66 222.566L451.208 222.127L458.86 232.344L461.691 230.083L462.685 231.413L467.242 227.769L465.314 225.195Z" fill="#FFCD00"/>
<path d="M405.195 103.639L403.258 101.599C402.703 102.295 402.174 103.014 401.681 103.763L404.916 106.488L403.52 107.902L404.636 109.34L404.003 109.983L406.859 113.514L405.975 114.154L408.713 117.035L412.896 112.796L411.351 111.169L412.92 110.201L410.682 107.844L411.569 106.943L409.92 105.205L408.052 107.168L405.195 103.639Z" fill="#FFCD00"/>
<path d="M357.737 236.215L354.971 236.14C355.041 237.038 355.145 237.935 355.294 238.828L359.453 238.463L359.402 240.482L361.171 240.714L361.148 241.631L365.578 242.118L365.374 243.213L369.28 243.317L369.434 237.266L367.229 237.206L367.705 235.384L364.511 235.297L364.542 234.012L362.187 233.947L362.165 236.7L357.737 236.215Z" fill="#FFCD00"/>
<path d="M440.728 81.7525L439.66 79.1167C438.895 79.5514 438.146 80.0171 437.419 80.5242L439.448 84.2926L437.645 85.0722L438.167 86.8348L437.348 87.1894L438.736 91.5627L437.686 91.8193L439.197 95.5422L444.602 93.2035L443.75 91.1019L445.553 90.8023L444.319 87.757L445.466 87.2593L444.557 85.0142L442.118 86.1236L440.728 81.7525Z" fill="#FFCD00"/>
<path d="M380.082 165.333L378.531 164.587C378.359 165.122 378.208 165.665 378.083 166.216L380.528 167.064L380.025 168.213L380.974 168.796L380.746 169.318L383.145 170.725L382.772 171.303L384.963 172.357L386.472 168.912L385.235 168.317L385.933 167.39L384.141 166.527L384.46 165.796L383.139 165.159L382.481 166.738L380.082 165.333Z" fill="#FFCD00"/>
<path d="M411.442 154.164L409.222 152.46C408.779 153.237 408.364 154.032 407.99 154.851L411.595 157.023L410.429 158.644L411.748 159.885L411.218 160.622L414.571 163.652L413.795 164.426L416.933 166.832L420.427 161.973L418.656 160.615L420.06 159.406L417.495 157.437L418.236 156.405L416.346 154.953L414.796 157.192L411.442 154.164Z" fill="#FFCD00"/>
<path d="M373.999 215.948L372.013 216.143C372.138 216.779 372.289 217.413 372.472 218.039L375.42 217.404L375.553 218.853L376.841 218.859L376.901 219.518L380.114 219.468L380.059 220.271L382.864 219.996L382.464 215.648L380.88 215.804L381.068 214.456L378.772 214.682L378.688 213.759L376.997 213.925L377.214 215.897L373.999 215.948Z" fill="#FFCD00"/>
<path d="M394.255 232.095L392.264 231.957C392.288 232.605 392.338 233.257 392.421 233.904L395.43 233.768L395.335 235.221L396.605 235.442L396.562 236.102L399.74 236.588L399.56 237.371L402.372 237.566L402.656 233.209L401.068 233.099L401.464 231.8L399.163 231.64L399.223 230.716L397.53 230.598L397.436 232.58L394.255 232.095Z" fill="#FFCD00"/>
<path d="M437.609 173.771L436.327 172.192C435.891 172.659 435.47 173.147 435.076 173.657L437.254 175.806L436.174 176.741L436.899 177.84L436.408 178.265L438.27 180.97L437.598 181.379L439.409 183.61L442.648 180.804L441.626 179.544L442.807 178.94L441.325 177.114L442.012 176.519L440.922 175.175L439.473 176.478L437.609 173.771Z" fill="#FFCD00"/>
<path d="M470.964 159.648L470.546 158.643C470.255 158.812 469.969 158.994 469.694 159.19L470.482 160.627L469.793 160.932L469.999 161.605L469.688 161.744L470.233 163.415L469.832 163.515L470.421 164.935L472.484 164.02L472.15 163.219L472.839 163.097L472.358 161.934L472.797 161.74L472.44 160.883L471.51 161.315L470.964 159.648Z" fill="#FFCD00"/>
<path d="M456.79 148.21L456.562 147.547C456.796 147.487 457.03 147.433 457.27 147.392L457.493 148.432L458.002 148.243L458.196 148.653L458.427 148.569L458.887 149.6L459.151 149.457L459.475 150.395L457.947 150.957L457.765 150.428L457.337 150.7L457.074 149.932L456.75 150.051L456.553 149.483L457.25 149.238L456.79 148.21Z" fill="#FFCD00"/>
<path d="M489.469 156.743L489.637 155.662C489.303 155.644 488.967 155.64 488.634 155.653L488.554 157.302L487.814 157.18L487.639 157.861L487.305 157.807L486.9 159.52L486.508 159.382L486.27 160.908L488.487 161.276L488.62 160.414L489.265 160.693L489.461 159.444L489.932 159.523L490.076 158.602L489.066 158.452L489.469 156.743Z" fill="#FFCD00"/>
<path d="M486.278 119.238L486.107 118.158C485.785 118.25 485.465 118.355 485.152 118.477L485.581 120.068L484.842 120.193L484.884 120.897L484.55 120.954L484.69 122.711L484.276 122.709L484.517 124.234L486.733 123.86L486.596 122.999L487.293 123.052L487.097 121.804L487.568 121.725L487.423 120.804L486.419 120.992L486.278 119.238Z" fill="#FFCD00"/>
<path d="M425.189 253.538L424.133 253.446C424.198 253.107 424.272 252.771 424.366 252.438L425.935 252.757L425.999 251.986L426.684 251.975L426.714 251.626L428.421 251.635L428.389 251.207L429.879 251.337L429.69 253.648L428.849 253.575L428.956 254.289L427.736 254.183L427.695 254.675L426.797 254.597L426.9 253.549L425.189 253.538Z" fill="#FFCD00"/>
<path d="M372.319 305.941L371.261 305.898C371.31 305.556 371.37 305.217 371.449 304.879L373.031 305.126L373.061 304.352L373.745 304.311L373.76 303.961L375.466 303.89L375.415 303.464L376.91 303.525L376.82 305.843L375.977 305.809L376.114 306.518L374.891 306.468L374.872 306.961L373.971 306.924L374.029 305.872L372.319 305.941Z" fill="#FFCD00"/>
<path d="M427.059 268.745L426 268.769C426.029 268.425 426.069 268.083 426.128 267.741L427.721 267.887L427.705 267.113L428.385 267.028L428.38 266.677L430.078 266.499L430.002 266.077L431.498 266.044L431.546 268.363L430.702 268.382L430.881 269.081L429.657 269.108L429.667 269.602L428.766 269.622L428.761 268.569L427.059 268.745Z" fill="#FFCD00"/>
<path d="M365.37 110.6L364.161 108.96C363.704 109.405 363.262 109.872 362.845 110.363L364.923 112.615L363.802 113.496L364.476 114.63L363.966 115.03L365.702 117.823L365.013 118.199L366.72 120.515L370.084 117.87L369.119 116.562L370.327 116.015L368.93 114.12L369.644 113.559L368.616 112.163L367.109 113.394L365.37 110.6Z" fill="#FFCD00"/>
<path d="M320.555 105.516L319.54 105.017C319.421 105.363 319.317 105.713 319.23 106.072L320.836 106.645L320.495 107.386L321.116 107.775L320.96 108.113L322.528 109.048L322.276 109.421L323.711 110.127L324.732 107.903L323.922 107.506L324.391 106.908L323.217 106.331L323.434 105.859L322.569 105.435L322.12 106.454L320.555 105.516Z" fill="#FFCD00"/>
</svg>
