<svg width="2980" height="530" viewBox="0 0 2980 530" fill="none" xmlns="http://www.w3.org/2000/svg">
<path d="M359.36 357.2L358.59 359.87C357.78 359.54 356.98 359.18 356.2 358.77L357.8 354.89L355.91 354.35L356.23 352.59L355.37 352.34L356.26 347.95L355.18 347.83L356.26 344.06L361.92 345.69L361.31 347.82L363.14 347.9L362.25 350.99L363.45 351.33L362.8 353.6L360.24 352.82L359.36 357.2Z" fill="#FFCD00"/>
<path d="M276.26 440.45L274.15 433.02L285.22 429.87L284.21 426.32L273.14 429.47L271.03 422.04L298.56 414.22L300.67 421.65L290.94 424.42L291.95 427.97L301.68 425.2L303.79 432.63L276.26 440.45Z" fill="#FFCD00"/>
<path d="M344.03 421.68L341.92 414.25L352.99 411.1L351.98 407.55L340.91 410.7L338.8 403.27L366.33 395.45L368.44 402.88L358.71 405.65L359.72 409.2L369.45 406.43L371.56 413.86L344.03 421.68Z" fill="#FFCD00"/>
<path d="M334.4 470.03L332.43 469.98L332.5 467.05L331.56 467.03L331.49 469.96L329.52 469.91L329.7 462.62L331.67 462.67L331.61 465.25L332.55 465.27L332.61 462.69L334.58 462.74L334.4 470.03Z" fill="#FFCD00"/>
<path d="M207.88 173.69L205.91 173.64L205.98 170.71L205.04 170.69L204.97 173.62L203 173.57L203.18 166.28L205.15 166.33L205.09 168.91L206.03 168.93L206.09 166.35L208.06 166.4L207.88 173.69Z" fill="#FFCD00"/>
<path d="M299.9 364.03L303.12 368.9L288.98 378.25L293.7 385.39L307.84 376.04L311.06 380.91L274.92 404.8L271.7 399.93L289.58 388.11L284.86 380.97L266.98 392.79L263.76 387.92L299.9 364.03Z" fill="#FFCD00"/>
<path d="M275.1 181.26L278.32 186.13L264.18 195.48L268.9 202.62L283.04 193.27L286.26 198.14L250.12 222.03L246.9 217.16L264.78 205.34L260.06 198.2L242.18 210.02L238.96 205.15L275.1 181.26Z" fill="#FFCD00"/>
<path d="M375.95 295.18L379.17 300.05L365.03 309.4L369.75 316.54L383.89 307.19L387.11 312.06L350.97 335.95L347.75 331.08L365.63 319.26L360.91 312.12L343.03 323.94L339.81 319.07L375.95 295.18Z" fill="#FFCD00"/>
<path d="M308.07 454.07L309.6 454.79L307.51 459.24L309.76 460.29L311.85 455.84L313.38 456.56L308.05 467.93L306.52 467.21L309.16 461.58L306.91 460.53L304.27 466.16L302.74 465.44L308.07 454.07Z" fill="#FFCD00"/>
<path d="M129.56 224.57L131.09 223.84L133.22 228.27L135.46 227.19L133.33 222.76L134.86 222.03L140.3 233.35L138.77 234.08L136.08 228.48L133.84 229.56L136.53 235.16L135 235.89L129.56 224.57Z" fill="#FFCD00"/>
<path d="M0 468.79V397.64H22.35C30.71 397.64 36.9 399.48 40.92 403.17C45.01 406.95 47.05 411.83 47.05 417.82C47.05 426.73 42.63 431.55 33.78 432.29C38.82 433.03 42.51 434.69 44.86 437.27C47.21 439.85 48.39 443.57 48.39 448.42C48.39 454.53 46.41 459.45 42.45 463.17C38.52 466.92 33.34 468.79 26.92 468.79H0V468.79ZM19.22 425.28H20.51C22.81 425.28 24.63 424.74 25.97 423.67C27.31 422.59 27.97 421.09 27.97 419.15C27.97 415.03 25.71 412.97 21.2 412.97C20.98 412.97 20.72 412.98 20.39 412.99C20.07 413.01 19.68 413.03 19.21 413.06V425.28H19.22ZM19.22 453.35C19.59 453.38 19.91 453.4 20.19 453.42C20.47 453.44 20.7 453.44 20.88 453.44C23.28 453.44 25.19 452.81 26.62 451.55C28.05 450.29 28.76 448.6 28.76 446.48C28.76 444.36 28.05 442.7 26.62 441.5C25.19 440.3 23.23 439.7 20.74 439.7H19.22V453.35Z" fill="#FFCD00"/>
<path d="M108.62 433.44C108.62 444.28 106.15 453.1 101.2 459.89C96.2798 466.65 89.8798 470.03 81.9798 470.03C74.9798 470.03 68.9698 467.43 63.9598 462.24C57.6598 455.67 54.5098 445.8 54.5098 432.65C54.5098 420.05 57.7998 410.42 64.3698 403.76C69.2498 398.81 75.0498 396.34 81.7398 396.34C89.9398 396.34 96.4698 399.69 101.33 406.39C106.19 413.09 108.62 422.1 108.62 433.44ZM88.6598 433.58C88.6598 420.71 86.3898 414.27 81.8398 414.27C79.5698 414.27 77.7498 415.96 76.3998 419.34C75.0798 422.47 74.4198 427.08 74.4198 433.16C74.4198 439.15 75.0398 443.8 76.2898 447.1C77.5298 450.4 79.2598 452.05 81.4698 452.05C83.7398 452.05 85.4898 450.42 86.7198 447.17C88.0198 443.92 88.6598 439.38 88.6598 433.58Z" fill="#FFCD00"/>
<path d="M169.12 433.44C169.12 444.28 166.65 453.1 161.7 459.89C156.78 466.65 150.38 470.03 142.48 470.03C135.48 470.03 129.47 467.43 124.46 462.24C118.16 455.67 115.01 445.8 115.01 432.65C115.01 420.05 118.3 410.42 124.87 403.76C129.75 398.81 135.55 396.34 142.24 396.34C150.44 396.34 156.97 399.69 161.83 406.39C166.7 413.09 169.12 422.1 169.12 433.44ZM149.17 433.58C149.17 420.71 146.9 414.27 142.35 414.27C140.08 414.27 138.26 415.96 136.91 419.34C135.59 422.47 134.93 427.08 134.93 433.16C134.93 439.15 135.55 443.8 136.8 447.1C138.04 450.4 139.77 452.05 141.98 452.05C144.25 452.05 146 450.42 147.23 447.17C148.52 443.92 149.17 439.38 149.17 433.58Z" fill="#FFCD00"/>
<path d="M250.55 468.79H230.46L229.03 436.35L228.43 423.4C228.21 425.89 227.97 428.26 227.69 430.52C227.41 432.78 227.08 434.97 226.68 437.09L220.64 468.79H204.97L199.81 437.04C199.5 435.2 199.09 432.03 198.57 427.55C198.51 426.87 198.37 425.49 198.16 423.4L197.7 436.53L195.99 468.79H175.53L183.82 397.64H207.74L211.75 421.6C212.09 423.57 212.39 425.7 212.65 428.01C212.91 430.32 213.15 432.82 213.36 435.52C213.76 431 214.31 426.96 215.02 423.4L219.9 397.64H243.63L250.55 468.79Z" fill="#FFCD00"/>
<path d="M254.89 345.101L266.58 326.05C267.1 332.43 269.24 336.76 272.98 339.06C274.39 339.93 275.78 340.26 277.12 340.06C278.47 339.86 279.49 339.201 280.18 338.071C281.18 336.451 281.18 334.27 280.19 331.53L278.8 327.81C277.84 325.38 277.14 323.12 276.69 321.03C276.24 318.94 276.06 316.951 276.13 315.071C276.2 313.191 276.52 311.391 277.06 309.671C277.61 307.951 278.39 306.27 279.4 304.62C281.14 301.79 283.61 299.231 286.81 296.951C288.35 295.911 289.92 295.06 291.51 294.4C293.11 293.74 294.75 293.301 296.44 293.071C301.14 292.351 305.67 293.331 310.04 296.011C313.94 298.401 317.24 301.85 319.92 306.34L308.55 324.881C308.48 321.991 307.97 319.43 306.99 317.19C306.01 314.95 304.71 313.331 303.06 312.321C301.8 311.551 300.54 311.28 299.28 311.52C298.01 311.71 297.07 312.31 296.46 313.3C295.46 314.92 295.59 317.22 296.83 320.18L298.24 323.701C300.17 328.311 301.08 332.381 300.96 335.91C300.87 339.46 299.75 342.99 297.6 346.5C293.94 352.47 289.1 356.281 283.08 357.921C277.06 359.561 271.26 358.67 265.69 355.25C261.85 352.88 258.24 349.501 254.89 345.101Z" fill="#FFCD00"/>
<path d="M243.78 320.39L241.85 329.54C239.42 326.89 237.07 325.33 234.78 324.85C232.31 324.33 230.12 324.78 228.19 326.19C226.28 327.51 225.03 329.56 224.45 332.32C223.94 334.76 224.05 336.96 224.8 338.94C225.17 339.99 225.86 341.39 226.86 343.14C227.86 344.89 229.17 347.02 230.81 349.53C233.81 354.21 235.71 358.11 236.49 361.23C237.3 364.26 237.28 367.75 236.45 371.72C235.32 377.1 232.86 381.22 229.09 384.06C225.34 386.82 221.09 387.7 216.34 386.7C212.34 385.86 209.16 384.04 206.8 381.25L208.76 371.96C211.58 375.1 214.36 376.95 217.1 377.53C219.66 378.07 221.83 377.64 223.63 376.25C225.43 374.86 226.64 372.7 227.25 369.78C227.78 367.25 227.7 364.87 227.02 362.62C226.65 361.54 226.09 360.27 225.33 358.8C224.57 357.34 223.59 355.68 222.38 353.82C220.5 350.97 218.97 348.49 217.78 346.35C216.6 344.22 215.77 342.39 215.31 340.88C214.42 337.93 214.41 334.44 215.25 330.41C216.4 324.97 218.72 320.95 222.21 318.36C225.74 315.74 229.92 314.94 234.73 315.96C238.07 316.69 241.08 318.16 243.78 320.39Z" fill="#FFCD00"/>
<path d="M195.44 210.31L200.8 217.98C197.21 217.94 194.46 218.59 192.55 219.92C190.48 221.36 189.31 223.27 189.02 225.65C188.68 227.95 189.32 230.26 190.94 232.58C192.37 234.62 194.05 236.04 196.01 236.85C197.03 237.3 198.52 237.75 200.48 238.22C202.44 238.69 204.89 239.18 207.84 239.71C213.31 240.72 217.45 242.01 220.26 243.57C223.02 245.05 225.56 247.46 227.88 250.78C231.03 255.29 232.35 259.89 231.85 264.59C231.29 269.21 229.03 272.91 225.05 275.69C221.7 278.03 218.2 279.11 214.55 278.92L209.11 271.14C213.33 271.23 216.59 270.47 218.88 268.87C221.02 267.37 222.2 265.49 222.41 263.23C222.62 260.96 221.88 258.61 220.17 256.16C218.69 254.04 216.9 252.47 214.79 251.43C213.75 250.96 212.43 250.5 210.85 250.05C209.26 249.6 207.38 249.19 205.2 248.8C201.84 248.23 198.97 247.64 196.61 247.04C194.24 246.44 192.35 245.8 190.93 245.11C188.17 243.74 185.62 241.36 183.26 237.99C180.08 233.43 178.73 228.99 179.24 224.67C179.75 220.3 182.02 216.71 186.05 213.9C188.83 211.95 191.96 210.75 195.44 210.31Z" fill="#FFCD00"/>
<path d="M313.14 449.01H309.74C310.4 448.12 310.73 447.19 310.73 446.22C310.73 445.89 310.67 445.59 310.56 445.31C310.45 445.03 310.29 444.79 310.09 444.58C309.89 444.37 309.66 444.21 309.39 444.09C309.12 443.97 308.83 443.91 308.53 443.91C307.59 443.91 306.48 444.76 305.19 446.45C304.66 447.13 304.16 447.7 303.71 448.16C303.25 448.62 302.82 448.96 302.42 449.2C301.62 449.69 300.62 449.94 299.4 449.94C297.64 449.94 296.23 449.43 295.17 448.4C294.12 447.39 293.59 446.03 293.59 444.32C293.59 443.27 293.9 442.21 294.52 441.13H298.03C297.25 442.18 296.85 443.17 296.85 444.11C296.85 445.77 297.67 446.6 299.3 446.6C299.91 446.6 300.43 446.45 300.88 446.14C301.1 446 301.35 445.78 301.63 445.48C301.91 445.18 302.23 444.8 302.59 444.36C303.78 442.83 304.78 441.79 305.59 441.25C306.43 440.72 307.43 440.45 308.61 440.45C310.19 440.45 311.49 440.94 312.5 441.91C313.5 442.9 314 444.18 314 445.76C313.99 446.88 313.71 447.96 313.14 449.01Z" fill="#FFCD00"/>
<path d="M341.72 470.03C342.538 470.03 343.2 469.368 343.2 468.55C343.2 467.733 342.538 467.07 341.72 467.07C340.903 467.07 340.24 467.733 340.24 468.55C340.24 469.368 340.903 470.03 341.72 470.03Z" fill="#FFCD00"/>
<path d="M116.5 118.45C117.317 118.45 117.98 117.788 117.98 116.97C117.98 116.153 117.317 115.49 116.5 115.49C115.682 115.49 115.02 116.153 115.02 116.97C115.02 117.788 115.682 118.45 116.5 118.45Z" fill="#FFCD00"/>
<path d="M421.74 434.64C422.557 434.64 423.22 433.977 423.22 433.16C423.22 432.342 422.557 431.68 421.74 431.68C420.922 431.68 420.26 432.342 420.26 433.16C420.26 433.977 420.922 434.64 421.74 434.64Z" fill="#FFCD00"/>
<path d="M594.77 97.3604C595.587 97.3604 596.25 96.6978 596.25 95.8804C596.25 95.063 595.587 94.4004 594.77 94.4004C593.953 94.4004 593.29 95.063 593.29 95.8804C593.29 96.6978 593.953 97.3604 594.77 97.3604Z" fill="#FFCD00"/>
<path d="M468.07 2.96C468.887 2.96 469.55 2.29738 469.55 1.48C469.55 0.662619 468.887 0 468.07 0C467.252 0 466.59 0.662619 466.59 1.48C466.59 2.29738 467.252 2.96 468.07 2.96Z" fill="#FFCD00"/>
<path d="M420.25 48.3604C421.067 48.3604 421.73 47.6978 421.73 46.8804C421.73 46.063 421.067 45.4004 420.25 45.4004C419.432 45.4004 418.77 46.063 418.77 46.8804C418.77 47.6978 419.432 48.3604 420.25 48.3604Z" fill="#FFCD00"/>
<path d="M75.9097 292.83C76.7271 292.83 77.3897 292.168 77.3897 291.35C77.3897 290.533 76.7271 289.87 75.9097 289.87C75.0923 289.87 74.4297 290.533 74.4297 291.35C74.4297 292.168 75.0923 292.83 75.9097 292.83Z" fill="#FFCD00"/>
<path d="M319.92 503.15C320.738 503.15 321.4 502.488 321.4 501.67C321.4 500.853 320.738 500.19 319.92 500.19C319.103 500.19 318.44 500.853 318.44 501.67C318.44 502.488 319.103 503.15 319.92 503.15Z" fill="#FFCD00"/>
<path d="M353.7 528.63C354.517 528.63 355.18 527.967 355.18 527.15C355.18 526.333 354.517 525.67 353.7 525.67C352.882 525.67 352.22 526.333 352.22 527.15C352.22 527.967 352.882 528.63 353.7 528.63Z" fill="#FFCD00"/>
<path d="M406.39 516.63C407.208 516.63 407.87 515.967 407.87 515.15C407.87 514.333 407.208 513.67 406.39 513.67C405.573 513.67 404.91 514.333 404.91 515.15C404.91 515.967 405.573 516.63 406.39 516.63Z" fill="#FFCD00"/>
<path d="M955.36 357.2L954.59 359.87C953.78 359.54 952.98 359.18 952.2 358.77L953.8 354.89L951.91 354.35L952.23 352.59L951.37 352.34L952.26 347.95L951.18 347.83L952.26 344.06L957.92 345.69L957.31 347.82L959.14 347.9L958.25 350.99L959.45 351.33L958.8 353.6L956.24 352.82L955.36 357.2Z" fill="#FFCD00"/>
<path d="M892.23 429.23L890.12 421.8L901.19 418.65L900.18 415.1L889.11 418.25L887 410.82L914.53 403L916.64 410.43L906.91 413.2L907.92 416.75L917.65 413.98L919.76 421.41L892.23 429.23Z" fill="#FFCD00"/>
<path d="M956.23 409.23L954.12 401.8L965.19 398.65L964.18 395.1L953.11 398.25L951 390.82L978.53 383L980.64 390.43L970.91 393.2L971.92 396.75L981.65 393.98L983.76 401.41L956.23 409.23Z" fill="#FFCD00"/>
<path d="M932.88 488.41L930.91 488.36L930.98 485.43L930.04 485.41L929.97 488.34L928 488.29L928.18 481L930.15 481.05L930.09 483.63L931.03 483.65L931.09 481.07L933.06 481.12L932.88 488.41Z" fill="#FFCD00"/>
<path d="M803.88 160.41L801.91 160.36L801.98 157.43L801.04 157.41L800.97 160.34L799 160.29L799.18 153L801.15 153.05L801.09 155.63L802.03 155.65L802.09 153.07L804.06 153.12L803.88 160.41Z" fill="#FFCD00"/>
<path d="M915.14 347L918.36 351.87L904.22 361.22L908.94 368.36L923.08 359.01L926.3 363.88L890.16 387.77L886.94 382.9L904.82 371.08L900.1 363.94L882.22 375.76L879 370.89L915.14 347Z" fill="#FFCD00"/>
<path d="M885.14 160L888.36 164.87L874.22 174.22L878.94 181.36L893.08 172.01L896.3 176.88L860.16 200.77L856.94 195.9L874.82 184.08L870.1 176.94L852.22 188.76L849 183.89L885.14 160Z" fill="#FFCD00"/>
<path d="M991.14 276L994.36 280.87L980.22 290.22L984.94 297.36L999.08 288.01L1002.3 292.88L966.16 316.77L962.94 311.9L980.82 300.08L976.1 292.94L958.22 304.76L955 299.89L991.14 276Z" fill="#FFCD00"/>
<path d="M911.33 467L912.86 467.72L910.77 472.17L913.02 473.22L915.11 468.77L916.64 469.49L911.31 480.86L909.78 480.14L912.42 474.51L910.17 473.46L907.53 479.09L906 478.37L911.33 467Z" fill="#FFCD00"/>
<path d="M718 213.54L719.53 212.81L721.66 217.24L723.9 216.16L721.77 211.73L723.3 211L728.74 222.32L727.21 223.05L724.52 217.45L722.28 218.53L724.97 224.13L723.44 224.86L718 213.54Z" fill="#FFCD00"/>
<path d="M596 468.79V397.64H618.35C626.71 397.64 632.9 399.48 636.92 403.17C641.01 406.95 643.05 411.83 643.05 417.82C643.05 426.73 638.63 431.55 629.78 432.29C634.82 433.03 638.51 434.69 640.86 437.27C643.21 439.85 644.39 443.57 644.39 448.42C644.39 454.53 642.41 459.45 638.45 463.17C634.52 466.92 629.34 468.79 622.92 468.79H596V468.79ZM615.22 425.28H616.51C618.81 425.28 620.63 424.74 621.97 423.67C623.31 422.59 623.97 421.09 623.97 419.15C623.97 415.03 621.71 412.97 617.2 412.97C616.98 412.97 616.72 412.98 616.39 412.99C616.07 413.01 615.68 413.03 615.21 413.06V425.28H615.22ZM615.22 453.35C615.59 453.38 615.91 453.4 616.19 453.42C616.47 453.44 616.7 453.44 616.88 453.44C619.28 453.44 621.19 452.81 622.62 451.55C624.05 450.29 624.76 448.6 624.76 446.48C624.76 444.36 624.05 442.7 622.62 441.5C621.19 440.3 619.23 439.7 616.74 439.7H615.22V453.35Z" fill="#FFCD00"/>
<path d="M704.62 433.44C704.62 444.28 702.15 453.1 697.2 459.89C692.28 466.65 685.88 470.03 677.98 470.03C670.98 470.03 664.97 467.43 659.96 462.24C653.66 455.67 650.51 445.8 650.51 432.65C650.51 420.05 653.8 410.42 660.37 403.76C665.25 398.81 671.05 396.34 677.74 396.34C685.94 396.34 692.47 399.69 697.33 406.39C702.19 413.09 704.62 422.1 704.62 433.44ZM684.66 433.58C684.66 420.71 682.39 414.27 677.84 414.27C675.57 414.27 673.75 415.96 672.4 419.34C671.08 422.47 670.42 427.08 670.42 433.16C670.42 439.15 671.04 443.8 672.29 447.1C673.53 450.4 675.26 452.05 677.47 452.05C679.74 452.05 681.49 450.42 682.72 447.17C684.02 443.92 684.66 439.38 684.66 433.58Z" fill="#FFCD00"/>
<path d="M765.12 433.44C765.12 444.28 762.65 453.1 757.7 459.89C752.78 466.65 746.38 470.03 738.48 470.03C731.48 470.03 725.47 467.43 720.46 462.24C714.16 455.67 711.01 445.8 711.01 432.65C711.01 420.05 714.3 410.42 720.87 403.76C725.75 398.81 731.55 396.34 738.24 396.34C746.44 396.34 752.97 399.69 757.83 406.39C762.7 413.09 765.12 422.1 765.12 433.44ZM745.17 433.58C745.17 420.71 742.9 414.27 738.35 414.27C736.08 414.27 734.26 415.96 732.91 419.34C731.59 422.47 730.93 427.08 730.93 433.16C730.93 439.15 731.55 443.8 732.8 447.1C734.04 450.4 735.77 452.05 737.98 452.05C740.25 452.05 742 450.42 743.23 447.17C744.52 443.92 745.17 439.38 745.17 433.58Z" fill="#FFCD00"/>
<path d="M846.55 468.79H826.46L825.03 436.35L824.43 423.4C824.21 425.89 823.97 428.26 823.69 430.52C823.41 432.78 823.08 434.97 822.68 437.09L816.64 468.79H800.97L795.81 437.04C795.5 435.2 795.09 432.03 794.57 427.55C794.51 426.87 794.37 425.49 794.16 423.4L793.7 436.53L791.99 468.79H771.53L779.82 397.64H803.74L807.75 421.6C808.09 423.57 808.39 425.7 808.65 428.01C808.91 430.32 809.15 432.82 809.36 435.52C809.76 431 810.31 426.96 811.02 423.4L815.9 397.64H839.63L846.55 468.79Z" fill="#FFCD00"/>
<path d="M870 318.259L881.69 299.209C882.21 305.589 884.35 309.919 888.09 312.219C889.5 313.089 890.89 313.419 892.23 313.219C893.58 313.019 894.6 312.359 895.29 311.229C896.29 309.609 896.29 307.429 895.3 304.689L893.91 300.969C892.95 298.539 892.25 296.279 891.8 294.189C891.35 292.099 891.17 290.109 891.24 288.229C891.31 286.349 891.63 284.549 892.17 282.829C892.72 281.109 893.5 279.429 894.51 277.779C896.25 274.949 898.72 272.389 901.92 270.109C903.46 269.069 905.03 268.219 906.62 267.559C908.22 266.899 909.86 266.459 911.55 266.229C916.25 265.509 920.78 266.489 925.15 269.169C929.05 271.559 932.35 275.009 935.03 279.499L923.66 298.039C923.59 295.149 923.08 292.589 922.1 290.349C921.12 288.109 919.82 286.489 918.17 285.479C916.91 284.709 915.65 284.439 914.39 284.679C913.12 284.869 912.18 285.469 911.57 286.459C910.57 288.079 910.7 290.379 911.94 293.339L913.35 296.859C915.28 301.469 916.19 305.539 916.07 309.069C915.98 312.619 914.86 316.149 912.71 319.659C909.05 325.629 904.21 329.439 898.19 331.079C892.17 332.719 886.37 331.829 880.8 328.409C876.96 326.039 873.35 322.659 870 318.259Z" fill="#FFCD00"/>
<path d="M846.98 285.859L845.05 295.009C842.62 292.359 840.27 290.799 837.98 290.319C835.51 289.799 833.32 290.249 831.39 291.659C829.48 292.979 828.23 295.029 827.65 297.789C827.14 300.229 827.25 302.429 828 304.409C828.37 305.459 829.06 306.859 830.06 308.609C831.06 310.359 832.37 312.489 834.01 314.999C837.01 319.679 838.91 323.579 839.69 326.699C840.5 329.729 840.48 333.219 839.65 337.189C838.52 342.569 836.06 346.689 832.29 349.529C828.54 352.289 824.29 353.169 819.54 352.169C815.54 351.329 812.36 349.509 810 346.719L811.96 337.429C814.78 340.569 817.56 342.419 820.3 342.999C822.86 343.539 825.03 343.109 826.83 341.719C828.63 340.329 829.84 338.169 830.45 335.249C830.98 332.719 830.9 330.339 830.22 328.089C829.85 327.009 829.29 325.739 828.53 324.269C827.77 322.809 826.79 321.149 825.58 319.289C823.7 316.439 822.17 313.959 820.98 311.819C819.8 309.689 818.97 307.859 818.51 306.349C817.62 303.399 817.61 299.909 818.45 295.879C819.6 290.439 821.92 286.419 825.41 283.829C828.94 281.209 833.12 280.409 837.93 281.429C841.27 282.159 844.28 283.629 846.98 285.859Z" fill="#FFCD00"/>
<path d="M772.305 193L777.665 200.67C774.075 200.63 771.325 201.28 769.415 202.61C767.345 204.05 766.175 205.96 765.885 208.34C765.545 210.64 766.185 212.95 767.805 215.27C769.235 217.31 770.915 218.73 772.875 219.54C773.895 219.99 775.385 220.44 777.345 220.91C779.305 221.38 781.755 221.87 784.705 222.4C790.175 223.41 794.315 224.7 797.125 226.26C799.885 227.74 802.425 230.15 804.745 233.47C807.895 237.98 809.215 242.58 808.715 247.28C808.155 251.9 805.895 255.6 801.915 258.38C798.565 260.72 795.065 261.8 791.415 261.61L785.975 253.83C790.195 253.92 793.455 253.16 795.745 251.56C797.885 250.06 799.065 248.18 799.275 245.92C799.485 243.65 798.745 241.3 797.035 238.85C795.555 236.73 793.765 235.16 791.655 234.12C790.615 233.65 789.295 233.19 787.715 232.74C786.125 232.29 784.245 231.88 782.065 231.49C778.705 230.92 775.835 230.33 773.475 229.73C771.105 229.13 769.215 228.49 767.795 227.8C765.035 226.43 762.485 224.05 760.125 220.68C756.945 216.12 755.595 211.68 756.105 207.36C756.615 202.99 758.885 199.4 762.915 196.59C765.695 194.64 768.825 193.44 772.305 193Z" fill="#FFCD00"/>
<path d="M927.55 449.56H924.15C924.81 448.67 925.14 447.74 925.14 446.77C925.14 446.44 925.08 446.14 924.97 445.86C924.86 445.58 924.7 445.34 924.5 445.13C924.3 444.92 924.07 444.76 923.8 444.64C923.53 444.52 923.24 444.46 922.94 444.46C922 444.46 920.89 445.31 919.6 447C919.07 447.68 918.57 448.25 918.12 448.71C917.66 449.17 917.23 449.51 916.83 449.75C916.03 450.24 915.03 450.49 913.81 450.49C912.05 450.49 910.64 449.98 909.58 448.95C908.53 447.94 908 446.58 908 444.87C908 443.82 908.31 442.76 908.93 441.68H912.44C911.66 442.73 911.26 443.72 911.26 444.66C911.26 446.32 912.08 447.15 913.71 447.15C914.32 447.15 914.84 447 915.29 446.69C915.51 446.55 915.76 446.33 916.04 446.03C916.32 445.73 916.64 445.35 917 444.91C918.19 443.38 919.19 442.34 920 441.8C920.84 441.27 921.84 441 923.02 441C924.6 441 925.9 441.49 926.91 442.46C927.91 443.45 928.41 444.73 928.41 446.31C928.4 447.43 928.12 448.51 927.55 449.56Z" fill="#FFCD00"/>
<path d="M946.48 475.96C947.297 475.96 947.96 475.297 947.96 474.48C947.96 473.663 947.297 473 946.48 473C945.663 473 945 473.663 945 474.48C945 475.297 945.663 475.96 946.48 475.96Z" fill="#FFCD00"/>
<path d="M704.48 109.96C705.297 109.96 705.96 109.297 705.96 108.48C705.96 107.663 705.297 107 704.48 107C703.663 107 703 107.663 703 108.48C703 109.297 703.663 109.96 704.48 109.96Z" fill="#FFCD00"/>
<path d="M1022.48 434.96C1023.3 434.96 1023.96 434.297 1023.96 433.48C1023.96 432.663 1023.3 432 1022.48 432C1021.66 432 1021 432.663 1021 433.48C1021 434.297 1021.66 434.96 1022.48 434.96Z" fill="#FFCD00"/>
<path d="M1185.48 81.96C1186.3 81.96 1186.96 81.2974 1186.96 80.48C1186.96 79.6626 1186.3 79 1185.48 79C1184.66 79 1184 79.6626 1184 80.48C1184 81.2974 1184.66 81.96 1185.48 81.96Z" fill="#FFCD00"/>
<path d="M1064.07 2.96C1064.89 2.96 1065.55 2.29738 1065.55 1.48C1065.55 0.662619 1064.89 0 1064.07 0C1063.25 0 1062.59 0.662619 1062.59 1.48C1062.59 2.29738 1063.25 2.96 1064.07 2.96Z" fill="#FFCD00"/>
<path d="M1026.48 38.96C1027.3 38.96 1027.96 38.2974 1027.96 37.48C1027.96 36.6626 1027.3 36 1026.48 36C1025.66 36 1025 36.6626 1025 37.48C1025 38.2974 1025.66 38.96 1026.48 38.96Z" fill="#FFCD00"/>
<path d="M665.48 283.96C666.297 283.96 666.96 283.297 666.96 282.48C666.96 281.663 666.297 281 665.48 281C664.663 281 664 281.663 664 282.48C664 283.297 664.663 283.96 665.48 283.96Z" fill="#FFCD00"/>
<path d="M915.48 516.96C916.297 516.96 916.96 516.297 916.96 515.48C916.96 514.663 916.297 514 915.48 514C914.663 514 914 514.663 914 515.48C914 516.297 914.663 516.96 915.48 516.96Z" fill="#FFCD00"/>
<path d="M944.48 517.96C945.297 517.96 945.96 517.297 945.96 516.48C945.96 515.663 945.297 515 944.48 515C943.663 515 943 515.663 943 516.48C943 517.297 943.663 517.96 944.48 517.96Z" fill="#FFCD00"/>
<path d="M1005.48 518.96C1006.3 518.96 1006.96 518.297 1006.96 517.48C1006.96 516.663 1006.3 516 1005.48 516C1004.66 516 1004 516.663 1004 517.48C1004 518.297 1004.66 518.96 1005.48 518.96Z" fill="#FFCD00"/>
<path d="M1551.36 357.2L1550.59 359.87C1549.78 359.54 1548.98 359.18 1548.2 358.77L1549.8 354.89L1547.91 354.35L1548.23 352.59L1547.37 352.34L1548.26 347.95L1547.18 347.83L1548.26 344.06L1553.92 345.69L1553.31 347.82L1555.14 347.9L1554.25 350.99L1555.45 351.33L1554.8 353.6L1552.24 352.82L1551.36 357.2Z" fill="#FFCD00"/>
<path d="M1468.26 440.45L1466.15 433.02L1477.22 429.87L1476.21 426.32L1465.14 429.47L1463.03 422.04L1490.56 414.22L1492.67 421.65L1482.94 424.42L1483.95 427.97L1493.68 425.2L1495.79 432.63L1468.26 440.45Z" fill="#FFCD00"/>
<path d="M1536.03 421.68L1533.92 414.25L1544.99 411.1L1543.98 407.55L1532.91 410.7L1530.8 403.27L1558.33 395.45L1560.44 402.88L1550.71 405.65L1551.72 409.2L1561.45 406.43L1563.56 413.86L1536.03 421.68Z" fill="#FFCD00"/>
<path d="M1531.88 498.41L1529.91 498.36L1529.98 495.43L1529.04 495.41L1528.97 498.34L1527 498.29L1527.18 491L1529.15 491.05L1529.09 493.63L1530.03 493.65L1530.09 491.07L1532.06 491.12L1531.88 498.41Z" fill="#FFCD00"/>
<path d="M1399.88 144.41L1397.91 144.36L1397.98 141.43L1397.04 141.41L1396.97 144.34L1395 144.29L1395.18 137L1397.15 137.05L1397.09 139.63L1398.03 139.65L1398.09 137.07L1400.06 137.12L1399.88 144.41Z" fill="#FFCD00"/>
<path d="M1526.14 332L1529.36 336.87L1515.22 346.22L1519.94 353.36L1534.08 344.01L1537.3 348.88L1501.16 372.77L1497.94 367.9L1515.82 356.08L1511.1 348.94L1493.22 360.76L1490 355.89L1526.14 332Z" fill="#FFCD00"/>
<path d="M1509.14 136L1512.36 140.87L1498.22 150.22L1502.94 157.36L1517.08 148.01L1520.3 152.88L1484.16 176.77L1480.94 171.9L1498.82 160.08L1494.1 152.94L1476.22 164.76L1473 159.89L1509.14 136Z" fill="#FFCD00"/>
<path d="M1606.14 259L1609.36 263.87L1595.22 273.22L1599.94 280.36L1614.08 271.01L1617.3 275.88L1581.16 299.77L1577.94 294.9L1595.82 283.08L1591.1 275.94L1573.22 287.76L1570 282.89L1606.14 259Z" fill="#FFCD00"/>
<path d="M1510.33 477L1511.86 477.72L1509.77 482.17L1512.02 483.22L1514.11 478.77L1515.64 479.49L1510.31 490.86L1508.78 490.14L1511.42 484.51L1509.17 483.46L1506.53 489.09L1505 488.37L1510.33 477Z" fill="#FFCD00"/>
<path d="M1309 198.54L1310.53 197.81L1312.66 202.24L1314.9 201.16L1312.77 196.73L1314.3 196L1319.74 207.32L1318.21 208.05L1315.52 202.45L1313.28 203.53L1315.97 209.13L1314.44 209.86L1309 198.54Z" fill="#FFCD00"/>
<path d="M1192 468.79V397.64H1214.35C1222.71 397.64 1228.9 399.48 1232.92 403.17C1237.01 406.95 1239.05 411.83 1239.05 417.82C1239.05 426.73 1234.63 431.55 1225.78 432.29C1230.82 433.03 1234.51 434.69 1236.86 437.27C1239.21 439.85 1240.39 443.57 1240.39 448.42C1240.39 454.53 1238.41 459.45 1234.45 463.17C1230.52 466.92 1225.34 468.79 1218.92 468.79H1192V468.79ZM1211.22 425.28H1212.51C1214.81 425.28 1216.63 424.74 1217.97 423.67C1219.31 422.59 1219.97 421.09 1219.97 419.15C1219.97 415.03 1217.71 412.97 1213.2 412.97C1212.98 412.97 1212.72 412.98 1212.39 412.99C1212.07 413.01 1211.68 413.03 1211.21 413.06V425.28H1211.22ZM1211.22 453.35C1211.59 453.38 1211.91 453.4 1212.19 453.42C1212.47 453.44 1212.7 453.44 1212.88 453.44C1215.28 453.44 1217.19 452.81 1218.62 451.55C1220.05 450.29 1220.76 448.6 1220.76 446.48C1220.76 444.36 1220.05 442.7 1218.62 441.5C1217.19 440.3 1215.23 439.7 1212.74 439.7H1211.22V453.35Z" fill="#FFCD00"/>
<path d="M1300.62 433.44C1300.62 444.28 1298.15 453.1 1293.2 459.89C1288.28 466.65 1281.88 470.03 1273.98 470.03C1266.98 470.03 1260.97 467.43 1255.96 462.24C1249.66 455.67 1246.51 445.8 1246.51 432.65C1246.51 420.05 1249.8 410.42 1256.37 403.76C1261.25 398.81 1267.05 396.34 1273.74 396.34C1281.94 396.34 1288.47 399.69 1293.33 406.39C1298.19 413.09 1300.62 422.1 1300.62 433.44ZM1280.66 433.58C1280.66 420.71 1278.39 414.27 1273.84 414.27C1271.57 414.27 1269.75 415.96 1268.4 419.34C1267.08 422.47 1266.42 427.08 1266.42 433.16C1266.42 439.15 1267.04 443.8 1268.29 447.1C1269.53 450.4 1271.26 452.05 1273.47 452.05C1275.74 452.05 1277.49 450.42 1278.72 447.17C1280.02 443.92 1280.66 439.38 1280.66 433.58Z" fill="#FFCD00"/>
<path d="M1361.12 433.44C1361.12 444.28 1358.65 453.1 1353.7 459.89C1348.78 466.65 1342.38 470.03 1334.48 470.03C1327.48 470.03 1321.47 467.43 1316.46 462.24C1310.16 455.67 1307.01 445.8 1307.01 432.65C1307.01 420.05 1310.3 410.42 1316.87 403.76C1321.75 398.81 1327.55 396.34 1334.24 396.34C1342.44 396.34 1348.97 399.69 1353.83 406.39C1358.7 413.09 1361.12 422.1 1361.12 433.44ZM1341.17 433.58C1341.17 420.71 1338.9 414.27 1334.35 414.27C1332.08 414.27 1330.26 415.96 1328.91 419.34C1327.59 422.47 1326.93 427.08 1326.93 433.16C1326.93 439.15 1327.55 443.8 1328.8 447.1C1330.04 450.4 1331.77 452.05 1333.98 452.05C1336.25 452.05 1338 450.42 1339.23 447.17C1340.52 443.92 1341.17 439.38 1341.17 433.58Z" fill="#FFCD00"/>
<path d="M1442.55 468.79H1422.46L1421.03 436.35L1420.43 423.4C1420.21 425.89 1419.97 428.26 1419.69 430.52C1419.41 432.78 1419.08 434.97 1418.68 437.09L1412.64 468.79H1396.97L1391.81 437.04C1391.5 435.2 1391.09 432.03 1390.57 427.55C1390.51 426.87 1390.37 425.49 1390.16 423.4L1389.7 436.53L1387.99 468.79H1367.53L1375.82 397.64H1399.74L1403.75 421.6C1404.09 423.57 1404.39 425.7 1404.65 428.01C1404.91 430.32 1405.15 432.82 1405.36 435.52C1405.76 431 1406.31 426.96 1407.02 423.4L1411.9 397.64H1435.63L1442.55 468.79Z" fill="#FFCD00"/>
<path d="M1483 279.259L1494.69 260.209C1495.21 266.589 1497.35 270.919 1501.09 273.219C1502.5 274.089 1503.89 274.419 1505.23 274.219C1506.58 274.019 1507.6 273.359 1508.29 272.229C1509.29 270.609 1509.29 268.429 1508.3 265.689L1506.91 261.969C1505.95 259.539 1505.25 257.279 1504.8 255.189C1504.35 253.099 1504.17 251.109 1504.24 249.229C1504.31 247.349 1504.63 245.549 1505.17 243.829C1505.72 242.109 1506.5 240.429 1507.51 238.779C1509.25 235.949 1511.72 233.389 1514.92 231.109C1516.46 230.069 1518.03 229.219 1519.62 228.559C1521.22 227.899 1522.86 227.459 1524.55 227.229C1529.25 226.509 1533.78 227.489 1538.15 230.169C1542.05 232.559 1545.35 236.009 1548.03 240.499L1536.66 259.039C1536.59 256.149 1536.08 253.589 1535.1 251.349C1534.12 249.109 1532.82 247.489 1531.17 246.479C1529.91 245.709 1528.65 245.439 1527.39 245.679C1526.12 245.869 1525.18 246.469 1524.57 247.459C1523.57 249.079 1523.7 251.379 1524.94 254.339L1526.35 257.859C1528.28 262.469 1529.19 266.539 1529.07 270.069C1528.98 273.619 1527.86 277.149 1525.71 280.659C1522.05 286.629 1517.21 290.439 1511.19 292.079C1505.17 293.719 1499.37 292.829 1493.8 289.409C1489.96 287.039 1486.35 283.659 1483 279.259Z" fill="#FFCD00"/>
<path d="M1449.98 249.859L1448.05 259.009C1445.62 256.359 1443.27 254.799 1440.98 254.319C1438.51 253.799 1436.32 254.249 1434.39 255.659C1432.48 256.979 1431.23 259.029 1430.65 261.789C1430.14 264.229 1430.25 266.429 1431 268.409C1431.37 269.459 1432.06 270.859 1433.06 272.609C1434.06 274.359 1435.37 276.489 1437.01 278.999C1440.01 283.679 1441.91 287.579 1442.69 290.699C1443.5 293.729 1443.48 297.219 1442.65 301.189C1441.52 306.569 1439.06 310.689 1435.29 313.529C1431.54 316.289 1427.29 317.169 1422.54 316.169C1418.54 315.329 1415.36 313.509 1413 310.719L1414.96 301.429C1417.78 304.569 1420.56 306.419 1423.3 306.999C1425.86 307.539 1428.03 307.109 1429.83 305.719C1431.63 304.329 1432.84 302.169 1433.45 299.249C1433.98 296.719 1433.9 294.339 1433.22 292.089C1432.85 291.009 1432.29 289.739 1431.53 288.269C1430.77 286.809 1429.79 285.149 1428.58 283.289C1426.7 280.439 1425.17 277.959 1423.98 275.819C1422.8 273.689 1421.97 271.859 1421.51 270.349C1420.62 267.399 1420.61 263.909 1421.45 259.879C1422.6 254.439 1424.92 250.419 1428.41 247.829C1431.94 245.209 1436.12 244.409 1440.93 245.429C1444.27 246.159 1447.28 247.629 1449.98 249.859Z" fill="#FFCD00"/>
<path d="M1343.3 168L1348.66 175.67C1345.07 175.63 1342.32 176.28 1340.41 177.61C1338.34 179.05 1337.17 180.96 1336.88 183.34C1336.54 185.64 1337.18 187.95 1338.8 190.27C1340.23 192.31 1341.91 193.73 1343.87 194.54C1344.89 194.99 1346.38 195.44 1348.34 195.91C1350.3 196.38 1352.75 196.87 1355.7 197.4C1361.17 198.41 1365.31 199.7 1368.12 201.26C1370.88 202.74 1373.42 205.15 1375.74 208.47C1378.89 212.98 1380.21 217.58 1379.71 222.28C1379.15 226.9 1376.89 230.6 1372.91 233.38C1369.56 235.72 1366.06 236.8 1362.41 236.61L1356.97 228.83C1361.19 228.92 1364.45 228.16 1366.74 226.56C1368.88 225.06 1370.06 223.18 1370.27 220.92C1370.48 218.65 1369.74 216.3 1368.03 213.85C1366.55 211.73 1364.76 210.16 1362.65 209.12C1361.61 208.65 1360.29 208.19 1358.71 207.74C1357.12 207.29 1355.24 206.88 1353.06 206.49C1349.7 205.92 1346.83 205.33 1344.47 204.73C1342.1 204.13 1340.21 203.49 1338.79 202.8C1336.03 201.43 1333.48 199.05 1331.12 195.68C1327.94 191.12 1326.59 186.68 1327.1 182.36C1327.61 177.99 1329.88 174.4 1333.91 171.59C1336.69 169.64 1339.82 168.44 1343.3 168Z" fill="#FFCD00"/>
<path d="M1538.55 447.56H1535.15C1535.81 446.67 1536.14 445.74 1536.14 444.77C1536.14 444.44 1536.08 444.14 1535.97 443.86C1535.86 443.58 1535.7 443.34 1535.5 443.13C1535.3 442.92 1535.07 442.76 1534.8 442.64C1534.53 442.52 1534.24 442.46 1533.94 442.46C1533 442.46 1531.89 443.31 1530.6 445C1530.07 445.68 1529.57 446.25 1529.12 446.71C1528.66 447.17 1528.23 447.51 1527.83 447.75C1527.03 448.24 1526.03 448.49 1524.81 448.49C1523.05 448.49 1521.64 447.98 1520.58 446.95C1519.53 445.94 1519 444.58 1519 442.87C1519 441.82 1519.31 440.76 1519.93 439.68H1523.44C1522.66 440.73 1522.26 441.72 1522.26 442.66C1522.26 444.32 1523.08 445.15 1524.71 445.15C1525.32 445.15 1525.84 445 1526.29 444.69C1526.51 444.55 1526.76 444.33 1527.04 444.03C1527.32 443.73 1527.64 443.35 1528 442.91C1529.19 441.38 1530.19 440.34 1531 439.8C1531.84 439.27 1532.84 439 1534.02 439C1535.6 439 1536.9 439.49 1537.91 440.46C1538.91 441.45 1539.41 442.73 1539.41 444.31C1539.4 445.43 1539.12 446.51 1538.55 447.56Z" fill="#FFCD00"/>
<path d="M1551.48 481.96C1552.3 481.96 1552.96 481.297 1552.96 480.48C1552.96 479.663 1552.3 479 1551.48 479C1550.66 479 1550 479.663 1550 480.48C1550 481.297 1550.66 481.96 1551.48 481.96Z" fill="#FFCD00"/>
<path d="M1294.48 99.96C1295.3 99.96 1295.96 99.2974 1295.96 98.48C1295.96 97.6626 1295.3 97 1294.48 97C1293.66 97 1293 97.6626 1293 98.48C1293 99.2974 1293.66 99.96 1294.48 99.96Z" fill="#FFCD00"/>
<path d="M1625.48 433.96C1626.3 433.96 1626.96 433.297 1626.96 432.48C1626.96 431.663 1626.3 431 1625.48 431C1624.66 431 1624 431.663 1624 432.48C1624 433.297 1624.66 433.96 1625.48 433.96Z" fill="#FFCD00"/>
<path d="M1777.48 69.96C1778.3 69.96 1778.96 69.2974 1778.96 68.48C1778.96 67.6626 1778.3 67 1777.48 67C1776.66 67 1776 67.6626 1776 68.48C1776 69.2974 1776.66 69.96 1777.48 69.96Z" fill="#FFCD00"/>
<path d="M1660.07 2.96C1660.89 2.96 1661.55 2.29738 1661.55 1.48C1661.55 0.662619 1660.89 0 1660.07 0C1659.25 0 1658.59 0.662619 1658.59 1.48C1658.59 2.29738 1659.25 2.96 1660.07 2.96Z" fill="#FFCD00"/>
<path d="M1630.48 27.96C1631.3 27.96 1631.96 27.2974 1631.96 26.48C1631.96 25.6626 1631.3 25 1630.48 25C1629.66 25 1629 25.6626 1629 26.48C1629 27.2974 1629.66 27.96 1630.48 27.96Z" fill="#FFCD00"/>
<path d="M1255.48 274.96C1256.3 274.96 1256.96 274.297 1256.96 273.48C1256.96 272.663 1256.3 272 1255.48 272C1254.66 272 1254 272.663 1254 273.48C1254 274.297 1254.66 274.96 1255.48 274.96Z" fill="#FFCD00"/>
<path d="M1511.48 520.96C1512.3 520.96 1512.96 520.297 1512.96 519.48C1512.96 518.663 1512.3 518 1511.48 518C1510.66 518 1510 518.663 1510 519.48C1510 520.297 1510.66 520.96 1511.48 520.96Z" fill="#FFCD00"/>
<path d="M1545.7 528.63C1546.52 528.63 1547.18 527.967 1547.18 527.15C1547.18 526.333 1546.52 525.67 1545.7 525.67C1544.88 525.67 1544.22 526.333 1544.22 527.15C1544.22 527.967 1544.88 528.63 1545.7 528.63Z" fill="#FFCD00"/>
<path d="M1608.48 520.96C1609.3 520.96 1609.96 520.297 1609.96 519.48C1609.96 518.663 1609.3 518 1608.48 518C1607.66 518 1607 518.663 1607 519.48C1607 520.297 1607.66 520.96 1608.48 520.96Z" fill="#FFCD00"/>
<path d="M2147.36 357.2L2146.59 359.87C2145.78 359.54 2144.98 359.18 2144.2 358.77L2145.8 354.89L2143.91 354.35L2144.23 352.59L2143.37 352.34L2144.26 347.95L2143.18 347.83L2144.26 344.06L2149.92 345.69L2149.31 347.82L2151.14 347.9L2150.25 350.99L2151.45 351.33L2150.8 353.6L2148.24 352.82L2147.36 357.2Z" fill="#FFCD00"/>
<path d="M2098.23 431.23L2096.12 423.8L2107.19 420.65L2106.18 417.1L2095.11 420.25L2093 412.82L2120.53 405L2122.64 412.43L2112.91 415.2L2113.92 418.75L2123.65 415.98L2125.76 423.41L2098.23 431.23Z" fill="#FFCD00"/>
<path d="M2160.23 405.23L2158.12 397.8L2169.19 394.65L2168.18 391.1L2157.11 394.25L2155 386.82L2182.53 379L2184.64 386.43L2174.91 389.2L2175.92 392.75L2185.65 389.98L2187.76 397.41L2160.23 405.23Z" fill="#FFCD00"/>
<path d="M2130.88 517.41L2128.91 517.36L2128.98 514.43L2128.04 514.41L2127.97 517.34L2126 517.29L2126.18 510L2128.15 510.05L2128.09 512.63L2129.03 512.65L2129.09 510.07L2131.06 510.12L2130.88 517.41Z" fill="#FFCD00"/>
<path d="M1996.88 127.41L1994.91 127.36L1994.98 124.43L1994.04 124.41L1993.97 127.34L1992 127.29L1992.18 120L1994.15 120.05L1994.09 122.63L1995.03 122.65L1995.09 120.07L1997.06 120.12L1996.88 127.41Z" fill="#FFCD00"/>
<path d="M2144.14 304L2147.36 308.87L2133.22 318.22L2137.94 325.36L2152.08 316.01L2155.3 320.88L2119.16 344.77L2115.94 339.9L2133.82 328.08L2129.1 320.94L2111.22 332.76L2108 327.89L2144.14 304Z" fill="#FFCD00"/>
<path d="M2144.14 104L2147.36 108.87L2133.22 118.22L2137.94 125.36L2152.08 116.01L2155.3 120.88L2119.16 144.77L2115.94 139.9L2133.82 128.08L2129.1 120.94L2111.22 132.76L2108 127.89L2144.14 104Z" fill="#FFCD00"/>
<path d="M2231.14 226L2234.36 230.87L2220.22 240.22L2224.94 247.36L2239.08 238.01L2242.3 242.88L2206.16 266.77L2202.94 261.9L2220.82 250.08L2216.1 242.94L2198.22 254.76L2195 249.89L2231.14 226Z" fill="#FFCD00"/>
<path d="M2098.33 492L2099.86 492.72L2097.77 497.17L2100.02 498.22L2102.11 493.77L2103.64 494.49L2098.31 505.86L2096.78 505.14L2099.42 499.51L2097.17 498.46L2094.53 504.09L2093 503.37L2098.33 492Z" fill="#FFCD00"/>
<path d="M1895 180.54L1896.53 179.81L1898.66 184.24L1900.9 183.16L1898.77 178.73L1900.3 178L1905.74 189.32L1904.21 190.05L1901.52 184.45L1899.28 185.53L1901.97 191.13L1900.44 191.86L1895 180.54Z" fill="#FFCD00"/>
<path d="M1788 468.79V397.64H1810.35C1818.71 397.64 1824.9 399.48 1828.92 403.17C1833.01 406.95 1835.05 411.83 1835.05 417.82C1835.05 426.73 1830.63 431.55 1821.78 432.29C1826.82 433.03 1830.51 434.69 1832.86 437.27C1835.21 439.85 1836.39 443.57 1836.39 448.42C1836.39 454.53 1834.41 459.45 1830.45 463.17C1826.52 466.92 1821.34 468.79 1814.92 468.79H1788V468.79ZM1807.22 425.28H1808.51C1810.81 425.28 1812.63 424.74 1813.97 423.67C1815.31 422.59 1815.97 421.09 1815.97 419.15C1815.97 415.03 1813.71 412.97 1809.2 412.97C1808.98 412.97 1808.72 412.98 1808.39 412.99C1808.07 413.01 1807.68 413.03 1807.21 413.06V425.28H1807.22ZM1807.22 453.35C1807.59 453.38 1807.91 453.4 1808.19 453.42C1808.47 453.44 1808.7 453.44 1808.88 453.44C1811.28 453.44 1813.19 452.81 1814.62 451.55C1816.05 450.29 1816.76 448.6 1816.76 446.48C1816.76 444.36 1816.05 442.7 1814.62 441.5C1813.19 440.3 1811.23 439.7 1808.74 439.7H1807.22V453.35Z" fill="#FFCD00"/>
<path d="M1896.62 433.44C1896.62 444.28 1894.15 453.1 1889.2 459.89C1884.28 466.65 1877.88 470.03 1869.98 470.03C1862.98 470.03 1856.97 467.43 1851.96 462.24C1845.66 455.67 1842.51 445.8 1842.51 432.65C1842.51 420.05 1845.8 410.42 1852.37 403.76C1857.25 398.81 1863.05 396.34 1869.74 396.34C1877.94 396.34 1884.47 399.69 1889.33 406.39C1894.19 413.09 1896.62 422.1 1896.62 433.44ZM1876.66 433.58C1876.66 420.71 1874.39 414.27 1869.84 414.27C1867.57 414.27 1865.75 415.96 1864.4 419.34C1863.08 422.47 1862.42 427.08 1862.42 433.16C1862.42 439.15 1863.04 443.8 1864.29 447.1C1865.53 450.4 1867.26 452.05 1869.47 452.05C1871.74 452.05 1873.49 450.42 1874.72 447.17C1876.02 443.92 1876.66 439.38 1876.66 433.58Z" fill="#FFCD00"/>
<path d="M1957.12 433.44C1957.12 444.28 1954.65 453.1 1949.7 459.89C1944.78 466.65 1938.38 470.03 1930.48 470.03C1923.48 470.03 1917.47 467.43 1912.46 462.24C1906.16 455.67 1903.01 445.8 1903.01 432.65C1903.01 420.05 1906.3 410.42 1912.87 403.76C1917.75 398.81 1923.55 396.34 1930.24 396.34C1938.44 396.34 1944.97 399.69 1949.83 406.39C1954.7 413.09 1957.12 422.1 1957.12 433.44ZM1937.17 433.58C1937.17 420.71 1934.9 414.27 1930.35 414.27C1928.08 414.27 1926.26 415.96 1924.91 419.34C1923.59 422.47 1922.93 427.08 1922.93 433.16C1922.93 439.15 1923.55 443.8 1924.8 447.1C1926.04 450.4 1927.77 452.05 1929.98 452.05C1932.25 452.05 1934 450.42 1935.23 447.17C1936.52 443.92 1937.17 439.38 1937.17 433.58Z" fill="#FFCD00"/>
<path d="M2038.55 468.79H2018.46L2017.03 436.35L2016.43 423.4C2016.21 425.89 2015.97 428.26 2015.69 430.52C2015.41 432.78 2015.08 434.97 2014.68 437.09L2008.64 468.79H1992.97L1987.81 437.04C1987.5 435.2 1987.09 432.03 1986.57 427.55C1986.51 426.87 1986.37 425.49 1986.16 423.4L1985.7 436.53L1983.99 468.79H1963.53L1971.82 397.64H1995.74L1999.75 421.6C2000.09 423.57 2000.39 425.7 2000.65 428.01C2000.91 430.32 2001.15 432.82 2001.36 435.52C2001.76 431 2002.31 426.96 2003.02 423.4L2007.9 397.64H2031.63L2038.55 468.79Z" fill="#FFCD00"/>
<path d="M2108 235.259L2119.69 216.209C2120.21 222.589 2122.35 226.919 2126.09 229.219C2127.5 230.089 2128.89 230.419 2130.23 230.219C2131.58 230.019 2132.6 229.359 2133.29 228.229C2134.29 226.609 2134.29 224.429 2133.3 221.689L2131.91 217.969C2130.95 215.539 2130.25 213.279 2129.8 211.189C2129.35 209.099 2129.17 207.109 2129.24 205.229C2129.31 203.349 2129.63 201.549 2130.17 199.829C2130.72 198.109 2131.5 196.429 2132.51 194.779C2134.25 191.949 2136.72 189.389 2139.92 187.109C2141.46 186.069 2143.03 185.219 2144.62 184.559C2146.22 183.899 2147.86 183.459 2149.55 183.229C2154.25 182.509 2158.78 183.489 2163.15 186.169C2167.05 188.559 2170.35 192.009 2173.03 196.499L2161.66 215.039C2161.59 212.149 2161.08 209.589 2160.1 207.349C2159.12 205.109 2157.82 203.489 2156.17 202.479C2154.91 201.709 2153.65 201.439 2152.39 201.679C2151.12 201.869 2150.18 202.469 2149.57 203.459C2148.57 205.079 2148.7 207.379 2149.94 210.339L2151.35 213.859C2153.28 218.469 2154.19 222.539 2154.07 226.069C2153.98 229.619 2152.86 233.149 2150.71 236.659C2147.05 242.629 2142.21 246.439 2136.19 248.079C2130.17 249.719 2124.37 248.829 2118.8 245.409C2114.96 243.039 2111.35 239.659 2108 235.259Z" fill="#FFCD00"/>
<path d="M2058.98 196.859L2057.05 206.009C2054.62 203.359 2052.27 201.799 2049.98 201.319C2047.51 200.799 2045.32 201.249 2043.39 202.659C2041.48 203.979 2040.23 206.029 2039.65 208.789C2039.14 211.229 2039.25 213.429 2040 215.409C2040.37 216.459 2041.06 217.859 2042.06 219.609C2043.06 221.359 2044.37 223.489 2046.01 225.999C2049.01 230.679 2050.91 234.579 2051.69 237.699C2052.5 240.729 2052.48 244.219 2051.65 248.189C2050.52 253.569 2048.06 257.689 2044.29 260.529C2040.54 263.289 2036.29 264.169 2031.54 263.169C2027.54 262.329 2024.36 260.509 2022 257.719L2023.96 248.429C2026.78 251.569 2029.56 253.419 2032.3 253.999C2034.86 254.539 2037.03 254.109 2038.83 252.719C2040.63 251.329 2041.84 249.169 2042.45 246.249C2042.98 243.719 2042.9 241.339 2042.22 239.089C2041.85 238.009 2041.29 236.739 2040.53 235.269C2039.77 233.809 2038.79 232.149 2037.58 230.289C2035.7 227.439 2034.17 224.959 2032.98 222.819C2031.8 220.689 2030.97 218.859 2030.51 217.349C2029.62 214.399 2029.61 210.909 2030.45 206.879C2031.6 201.439 2033.92 197.419 2037.41 194.829C2040.94 192.209 2045.12 191.409 2049.93 192.429C2053.27 193.159 2056.28 194.629 2058.98 196.859Z" fill="#FFCD00"/>
<path d="M1911.3 133L1916.66 140.67C1913.07 140.63 1910.32 141.28 1908.41 142.61C1906.34 144.05 1905.17 145.96 1904.88 148.34C1904.54 150.64 1905.18 152.95 1906.8 155.27C1908.23 157.31 1909.91 158.73 1911.87 159.54C1912.89 159.99 1914.38 160.44 1916.34 160.91C1918.3 161.38 1920.75 161.87 1923.7 162.4C1929.17 163.41 1933.31 164.7 1936.12 166.26C1938.88 167.74 1941.42 170.15 1943.74 173.47C1946.89 177.98 1948.21 182.58 1947.71 187.28C1947.15 191.9 1944.89 195.6 1940.91 198.38C1937.56 200.72 1934.06 201.8 1930.41 201.61L1924.97 193.83C1929.19 193.92 1932.45 193.16 1934.74 191.56C1936.88 190.06 1938.06 188.18 1938.27 185.92C1938.48 183.65 1937.74 181.3 1936.03 178.85C1934.55 176.73 1932.76 175.16 1930.65 174.12C1929.61 173.65 1928.29 173.19 1926.71 172.74C1925.12 172.29 1923.24 171.88 1921.06 171.49C1917.7 170.92 1914.83 170.33 1912.47 169.73C1910.1 169.13 1908.21 168.49 1906.79 167.8C1904.03 166.43 1901.48 164.05 1899.12 160.68C1895.94 156.12 1894.59 151.68 1895.1 147.36C1895.61 142.99 1897.88 139.4 1901.91 136.59C1904.69 134.64 1907.82 133.44 1911.3 133Z" fill="#FFCD00"/>
<path d="M2166.55 449.56H2163.15C2163.81 448.67 2164.14 447.74 2164.14 446.77C2164.14 446.44 2164.08 446.14 2163.97 445.86C2163.86 445.58 2163.7 445.34 2163.5 445.13C2163.3 444.92 2163.07 444.76 2162.8 444.64C2162.53 444.52 2162.24 444.46 2161.94 444.46C2161 444.46 2159.89 445.31 2158.6 447C2158.07 447.68 2157.57 448.25 2157.12 448.71C2156.66 449.17 2156.23 449.51 2155.83 449.75C2155.03 450.24 2154.03 450.49 2152.81 450.49C2151.05 450.49 2149.64 449.98 2148.58 448.95C2147.53 447.94 2147 446.58 2147 444.87C2147 443.82 2147.31 442.76 2147.93 441.68H2151.44C2150.66 442.73 2150.26 443.72 2150.26 444.66C2150.26 446.32 2151.08 447.15 2152.71 447.15C2153.32 447.15 2153.84 447 2154.29 446.69C2154.51 446.55 2154.76 446.33 2155.04 446.03C2155.32 445.73 2155.64 445.35 2156 444.91C2157.19 443.38 2158.19 442.34 2159 441.8C2159.84 441.27 2160.84 441 2162.02 441C2163.6 441 2164.9 441.49 2165.91 442.46C2166.91 443.45 2167.41 444.73 2167.41 446.31C2167.4 447.43 2167.12 448.51 2166.55 449.56Z" fill="#FFCD00"/>
<path d="M2157.48 488.96C2158.3 488.96 2158.96 488.297 2158.96 487.48C2158.96 486.663 2158.3 486 2157.48 486C2156.66 486 2156 486.663 2156 487.48C2156 488.297 2156.66 488.96 2157.48 488.96Z" fill="#FFCD00"/>
<path d="M1881.48 85.96C1882.3 85.96 1882.96 85.2974 1882.96 84.48C1882.96 83.6626 1882.3 83 1881.48 83C1880.66 83 1880 83.6626 1880 84.48C1880 85.2974 1880.66 85.96 1881.48 85.96Z" fill="#FFCD00"/>
<path d="M2236.48 434.96C2237.3 434.96 2237.96 434.297 2237.96 433.48C2237.96 432.663 2237.3 432 2236.48 432C2235.66 432 2235 432.663 2235 433.48C2235 434.297 2235.66 434.96 2236.48 434.96Z" fill="#FFCD00"/>
<path d="M2356.48 31.96C2357.3 31.96 2357.96 31.2974 2357.96 30.48C2357.96 29.6626 2357.3 29 2356.48 29C2355.66 29 2355 29.6626 2355 30.48C2355 31.2974 2355.66 31.96 2356.48 31.96Z" fill="#FFCD00"/>
<path d="M2256.07 2.96C2256.89 2.96 2257.55 2.29738 2257.55 1.48C2257.55 0.662619 2256.89 0 2256.07 0C2255.25 0 2254.59 0.662619 2254.59 1.48C2254.59 2.29738 2255.25 2.96 2256.07 2.96Z" fill="#FFCD00"/>
<path d="M2243.48 14.96C2244.3 14.96 2244.96 14.2974 2244.96 13.48C2244.96 12.6626 2244.3 12 2243.48 12C2242.66 12 2242 12.6626 2242 13.48C2242 14.2974 2242.66 14.96 2243.48 14.96Z" fill="#FFCD00"/>
<path d="M1845.48 261.96C1846.3 261.96 1846.96 261.297 1846.96 260.48C1846.96 259.663 1846.3 259 1845.48 259C1844.66 259 1844 259.663 1844 260.48C1844 261.297 1844.66 261.96 1845.48 261.96Z" fill="#FFCD00"/>
<path d="M2113.48 524.96C2114.3 524.96 2114.96 524.297 2114.96 523.48C2114.96 522.663 2114.3 522 2113.48 522C2112.66 522 2112 522.663 2112 523.48C2112 524.297 2112.66 524.96 2113.48 524.96Z" fill="#FFCD00"/>
<path d="M2141.7 528.63C2142.52 528.63 2143.18 527.967 2143.18 527.15C2143.18 526.333 2142.52 525.67 2141.7 525.67C2140.88 525.67 2140.22 526.333 2140.22 527.15C2140.22 527.967 2140.88 528.63 2141.7 528.63Z" fill="#FFCD00"/>
<path d="M2212.48 524.96C2213.3 524.96 2213.96 524.297 2213.96 523.48C2213.96 522.663 2213.3 522 2212.48 522C2211.66 522 2211 522.663 2211 523.48C2211 524.297 2211.66 524.96 2212.48 524.96Z" fill="#FFCD00"/>
<path d="M2743.36 357.2L2742.59 359.87C2741.78 359.54 2740.98 359.18 2740.2 358.77L2741.8 354.89L2739.91 354.35L2740.23 352.59L2739.37 352.34L2740.26 347.95L2739.18 347.83L2740.26 344.06L2745.92 345.69L2745.31 347.82L2747.14 347.9L2746.25 350.99L2747.45 351.33L2746.8 353.6L2744.24 352.82L2743.36 357.2Z" fill="#FFCD00"/>
<path d="M2723.23 432.23L2721.12 424.8L2732.19 421.65L2731.18 418.1L2720.11 421.25L2718 413.82L2745.53 406L2747.64 413.43L2737.91 416.2L2738.92 419.75L2748.65 416.98L2750.76 424.41L2723.23 432.23Z" fill="#FFCD00"/>
<path d="M2795.23 409.23L2793.12 401.8L2804.19 398.65L2803.18 395.1L2792.11 398.25L2790 390.82L2817.53 383L2819.64 390.43L2809.91 393.2L2810.92 396.75L2820.65 393.98L2822.76 401.41L2795.23 409.23Z" fill="#FFCD00"/>
<path d="M2728.88 528.41L2726.91 528.36L2726.98 525.43L2726.04 525.41L2725.97 528.34L2724 528.29L2724.18 521L2726.15 521.05L2726.09 523.63L2727.03 523.65L2727.09 521.07L2729.06 521.12L2728.88 528.41Z" fill="#FFCD00"/>
<path d="M2592.88 105.41L2590.91 105.36L2590.98 102.43L2590.04 102.41L2589.97 105.34L2588 105.29L2588.18 98L2590.15 98.05L2590.09 100.63L2591.03 100.65L2591.09 98.07L2593.06 98.12L2592.88 105.41Z" fill="#FFCD00"/>
<path d="M2759.14 275L2762.36 279.87L2748.22 289.22L2752.94 296.36L2767.08 287.01L2770.3 291.88L2734.16 315.77L2730.94 310.9L2748.82 299.08L2744.1 291.94L2726.22 303.76L2723 298.89L2759.14 275Z" fill="#FFCD00"/>
<path d="M2775.14 72L2778.36 76.87L2764.22 86.22L2768.94 93.36L2783.08 84.01L2786.3 88.88L2750.16 112.77L2746.94 107.9L2764.82 96.08L2760.1 88.94L2742.22 100.76L2739 95.89L2775.14 72Z" fill="#FFCD00"/>
<path d="M2870.14 193L2873.36 197.87L2859.22 207.22L2863.94 214.36L2878.08 205.01L2881.3 209.88L2845.16 233.77L2841.94 228.9L2859.82 217.08L2855.1 209.94L2837.22 221.76L2834 216.89L2870.14 193Z" fill="#FFCD00"/>
<path d="M2689.33 509L2690.86 509.72L2688.77 514.17L2691.02 515.22L2693.11 510.77L2694.64 511.49L2689.31 522.86L2687.78 522.14L2690.42 516.51L2688.17 515.46L2685.53 521.09L2684 520.37L2689.33 509Z" fill="#FFCD00"/>
<path d="M2480 158.54L2481.53 157.81L2483.66 162.24L2485.9 161.16L2483.77 156.73L2485.3 156L2490.74 167.32L2489.21 168.05L2486.52 162.45L2484.28 163.53L2486.97 169.13L2485.44 169.86L2480 158.54Z" fill="#FFCD00"/>
<path d="M2384 468.79V397.64H2406.35C2414.71 397.64 2420.9 399.48 2424.92 403.17C2429.01 406.95 2431.05 411.83 2431.05 417.82C2431.05 426.73 2426.63 431.55 2417.78 432.29C2422.82 433.03 2426.51 434.69 2428.86 437.27C2431.21 439.85 2432.39 443.57 2432.39 448.42C2432.39 454.53 2430.41 459.45 2426.45 463.17C2422.52 466.92 2417.34 468.79 2410.92 468.79H2384V468.79ZM2403.22 425.28H2404.51C2406.81 425.28 2408.63 424.74 2409.97 423.67C2411.31 422.59 2411.97 421.09 2411.97 419.15C2411.97 415.03 2409.71 412.97 2405.2 412.97C2404.98 412.97 2404.72 412.98 2404.39 412.99C2404.07 413.01 2403.68 413.03 2403.21 413.06V425.28H2403.22ZM2403.22 453.35C2403.59 453.38 2403.91 453.4 2404.19 453.42C2404.47 453.44 2404.7 453.44 2404.88 453.44C2407.28 453.44 2409.19 452.81 2410.62 451.55C2412.05 450.29 2412.76 448.6 2412.76 446.48C2412.76 444.36 2412.05 442.7 2410.62 441.5C2409.19 440.3 2407.23 439.7 2404.74 439.7H2403.22V453.35Z" fill="#FFCD00"/>
<path d="M2492.62 433.44C2492.62 444.28 2490.15 453.1 2485.2 459.89C2480.28 466.65 2473.88 470.03 2465.98 470.03C2458.98 470.03 2452.97 467.43 2447.96 462.24C2441.66 455.67 2438.51 445.8 2438.51 432.65C2438.51 420.05 2441.8 410.42 2448.37 403.76C2453.25 398.81 2459.05 396.34 2465.74 396.34C2473.94 396.34 2480.47 399.69 2485.33 406.39C2490.19 413.09 2492.62 422.1 2492.62 433.44ZM2472.66 433.58C2472.66 420.71 2470.39 414.27 2465.84 414.27C2463.57 414.27 2461.75 415.96 2460.4 419.34C2459.08 422.47 2458.42 427.08 2458.42 433.16C2458.42 439.15 2459.04 443.8 2460.29 447.1C2461.53 450.4 2463.26 452.05 2465.47 452.05C2467.74 452.05 2469.49 450.42 2470.72 447.17C2472.02 443.92 2472.66 439.38 2472.66 433.58Z" fill="#FFCD00"/>
<path d="M2553.12 433.44C2553.12 444.28 2550.65 453.1 2545.7 459.89C2540.78 466.65 2534.38 470.03 2526.48 470.03C2519.48 470.03 2513.47 467.43 2508.46 462.24C2502.16 455.67 2499.01 445.8 2499.01 432.65C2499.01 420.05 2502.3 410.42 2508.87 403.76C2513.75 398.81 2519.55 396.34 2526.24 396.34C2534.44 396.34 2540.97 399.69 2545.83 406.39C2550.7 413.09 2553.12 422.1 2553.12 433.44ZM2533.17 433.58C2533.17 420.71 2530.9 414.27 2526.35 414.27C2524.08 414.27 2522.26 415.96 2520.91 419.34C2519.59 422.47 2518.93 427.08 2518.93 433.16C2518.93 439.15 2519.55 443.8 2520.8 447.1C2522.04 450.4 2523.77 452.05 2525.98 452.05C2528.25 452.05 2530 450.42 2531.23 447.17C2532.52 443.92 2533.17 439.38 2533.17 433.58Z" fill="#FFCD00"/>
<path d="M2634.55 468.79H2614.46L2613.03 436.35L2612.43 423.4C2612.21 425.89 2611.97 428.26 2611.69 430.52C2611.41 432.78 2611.08 434.97 2610.68 437.09L2604.64 468.79H2588.97L2583.81 437.04C2583.5 435.2 2583.09 432.03 2582.57 427.55C2582.51 426.87 2582.37 425.49 2582.16 423.4L2581.7 436.53L2579.99 468.79H2559.53L2567.82 397.64H2591.74L2595.75 421.6C2596.09 423.57 2596.39 425.7 2596.65 428.01C2596.91 430.32 2597.15 432.82 2597.36 435.52C2597.76 431 2598.31 426.96 2599.02 423.4L2603.9 397.64H2627.63L2634.55 468.79Z" fill="#FFCD00"/>
<path d="M2734 193.259L2745.69 174.209C2746.21 180.589 2748.35 184.919 2752.09 187.219C2753.5 188.089 2754.89 188.419 2756.23 188.219C2757.58 188.019 2758.6 187.359 2759.29 186.229C2760.29 184.609 2760.29 182.429 2759.3 179.689L2757.91 175.969C2756.95 173.539 2756.25 171.279 2755.8 169.189C2755.35 167.099 2755.17 165.109 2755.24 163.229C2755.31 161.349 2755.63 159.549 2756.17 157.829C2756.72 156.109 2757.5 154.429 2758.51 152.779C2760.25 149.949 2762.72 147.389 2765.92 145.109C2767.46 144.069 2769.03 143.219 2770.62 142.559C2772.22 141.899 2773.86 141.459 2775.55 141.229C2780.25 140.509 2784.78 141.489 2789.15 144.169C2793.05 146.559 2796.35 150.009 2799.03 154.499L2787.66 173.039C2787.59 170.149 2787.08 167.589 2786.1 165.349C2785.12 163.109 2783.82 161.489 2782.17 160.479C2780.91 159.709 2779.65 159.439 2778.39 159.679C2777.12 159.869 2776.18 160.469 2775.57 161.459C2774.57 163.079 2774.7 165.379 2775.94 168.339L2777.35 171.859C2779.28 176.469 2780.19 180.539 2780.07 184.069C2779.98 187.619 2778.86 191.149 2776.71 194.659C2773.05 200.629 2768.21 204.439 2762.19 206.079C2756.17 207.719 2750.37 206.829 2744.8 203.409C2740.96 201.039 2737.35 197.659 2734 193.259Z" fill="#FFCD00"/>
<path d="M2663.98 150.859L2662.05 160.009C2659.62 157.359 2657.27 155.799 2654.98 155.319C2652.51 154.799 2650.32 155.249 2648.39 156.659C2646.48 157.979 2645.23 160.029 2644.65 162.789C2644.14 165.229 2644.25 167.429 2645 169.409C2645.37 170.459 2646.06 171.859 2647.06 173.609C2648.06 175.359 2649.37 177.489 2651.01 179.999C2654.01 184.679 2655.91 188.579 2656.69 191.699C2657.5 194.729 2657.48 198.219 2656.65 202.189C2655.52 207.569 2653.06 211.689 2649.29 214.529C2645.54 217.289 2641.29 218.169 2636.54 217.169C2632.54 216.329 2629.36 214.509 2627 211.719L2628.96 202.429C2631.78 205.569 2634.56 207.419 2637.3 207.999C2639.86 208.539 2642.03 208.109 2643.83 206.719C2645.63 205.329 2646.84 203.169 2647.45 200.249C2647.98 197.719 2647.9 195.339 2647.22 193.089C2646.85 192.009 2646.29 190.739 2645.53 189.269C2644.77 187.809 2643.79 186.149 2642.58 184.289C2640.7 181.439 2639.17 178.959 2637.98 176.819C2636.8 174.689 2635.97 172.859 2635.51 171.349C2634.62 168.399 2634.61 164.909 2635.45 160.879C2636.6 155.439 2638.92 151.419 2642.41 148.829C2645.94 146.209 2650.12 145.409 2654.93 146.429C2658.27 147.159 2661.28 148.629 2663.98 150.859Z" fill="#FFCD00"/>
<path d="M2489.3 94L2494.66 101.67C2491.07 101.63 2488.32 102.28 2486.41 103.61C2484.34 105.05 2483.17 106.96 2482.88 109.34C2482.54 111.64 2483.18 113.95 2484.8 116.27C2486.23 118.31 2487.91 119.73 2489.87 120.54C2490.89 120.99 2492.38 121.44 2494.34 121.91C2496.3 122.38 2498.75 122.87 2501.7 123.4C2507.17 124.41 2511.31 125.7 2514.12 127.26C2516.88 128.74 2519.42 131.15 2521.74 134.47C2524.89 138.98 2526.21 143.58 2525.71 148.28C2525.15 152.9 2522.89 156.6 2518.91 159.38C2515.56 161.72 2512.06 162.8 2508.41 162.61L2502.97 154.83C2507.19 154.92 2510.45 154.16 2512.74 152.56C2514.88 151.06 2516.06 149.18 2516.27 146.92C2516.48 144.65 2515.74 142.3 2514.03 139.85C2512.55 137.73 2510.76 136.16 2508.65 135.12C2507.61 134.65 2506.29 134.19 2504.71 133.74C2503.12 133.29 2501.24 132.88 2499.06 132.49C2495.7 131.92 2492.83 131.33 2490.47 130.73C2488.1 130.13 2486.21 129.49 2484.79 128.8C2482.03 127.43 2479.48 125.05 2477.12 121.68C2473.94 117.12 2472.59 112.68 2473.1 108.36C2473.61 103.99 2475.88 100.4 2479.91 97.59C2482.69 95.64 2485.82 94.44 2489.3 94Z" fill="#FFCD00"/>
<path d="M2791.55 453.56H2788.15C2788.81 452.67 2789.14 451.74 2789.14 450.77C2789.14 450.44 2789.08 450.14 2788.97 449.86C2788.86 449.58 2788.7 449.34 2788.5 449.13C2788.3 448.92 2788.07 448.76 2787.8 448.64C2787.53 448.52 2787.24 448.46 2786.94 448.46C2786 448.46 2784.89 449.31 2783.6 451C2783.07 451.68 2782.57 452.25 2782.12 452.71C2781.66 453.17 2781.23 453.51 2780.83 453.75C2780.03 454.24 2779.03 454.49 2777.81 454.49C2776.05 454.49 2774.64 453.98 2773.58 452.95C2772.53 451.94 2772 450.58 2772 448.87C2772 447.82 2772.31 446.76 2772.93 445.68H2776.44C2775.66 446.73 2775.26 447.72 2775.26 448.66C2775.26 450.32 2776.08 451.15 2777.71 451.15C2778.32 451.15 2778.84 451 2779.29 450.69C2779.51 450.55 2779.76 450.33 2780.04 450.03C2780.32 449.73 2780.64 449.35 2781 448.91C2782.19 447.38 2783.19 446.34 2784 445.8C2784.84 445.27 2785.84 445 2787.02 445C2788.6 445 2789.9 445.49 2790.91 446.46C2791.91 447.45 2792.41 448.73 2792.41 450.31C2792.4 451.43 2792.12 452.51 2791.55 453.56Z" fill="#FFCD00"/>
<path d="M2764.48 495.96C2765.3 495.96 2765.96 495.297 2765.96 494.48C2765.96 493.663 2765.3 493 2764.48 493C2763.66 493 2763 493.663 2763 494.48C2763 495.297 2763.66 495.96 2764.48 495.96Z" fill="#FFCD00"/>
<path d="M2466.48 73.96C2467.3 73.96 2467.96 73.2974 2467.96 72.48C2467.96 71.6626 2467.3 71 2466.48 71C2465.66 71 2465 71.6626 2465 72.48C2465 73.2974 2465.66 73.96 2466.48 73.96Z" fill="#FFCD00"/>
<path d="M2849.48 436.96C2850.3 436.96 2850.96 436.297 2850.96 435.48C2850.96 434.663 2850.3 434 2849.48 434C2848.66 434 2848 434.663 2848 435.48C2848 436.297 2848.66 436.96 2849.48 436.96Z" fill="#FFCD00"/>
<path d="M2942.48 15.96C2943.3 15.96 2943.96 15.2974 2943.96 14.48C2943.96 13.6626 2943.3 13 2942.48 13C2941.66 13 2941 13.6626 2941 14.48C2941 15.2974 2941.66 15.96 2942.48 15.96Z" fill="#FFCD00"/>
<path d="M2852.07 2.96C2852.89 2.96 2853.55 2.29738 2853.55 1.48C2853.55 0.662619 2852.89 0 2852.07 0C2851.25 0 2850.59 0.662619 2850.59 1.48C2850.59 2.29738 2851.25 2.96 2852.07 2.96Z" fill="#FFCD00"/>
<path d="M2845.48 8.96C2846.3 8.96 2846.96 8.29738 2846.96 7.48C2846.96 6.66262 2846.3 6 2845.48 6C2844.66 6 2844 6.66262 2844 7.48C2844 8.29738 2844.66 8.96 2845.48 8.96Z" fill="#FFCD00"/>
<path d="M2430.48 240.96C2431.3 240.96 2431.96 240.297 2431.96 239.48C2431.96 238.663 2431.3 238 2430.48 238C2429.66 238 2429 238.663 2429 239.48C2429 240.297 2429.66 240.96 2430.48 240.96Z" fill="#FFCD00"/>
<path d="M2710.48 528.96C2711.3 528.96 2711.96 528.297 2711.96 527.48C2711.96 526.663 2711.3 526 2710.48 526C2709.66 526 2709 526.663 2709 527.48C2709 528.297 2709.66 528.96 2710.48 528.96Z" fill="#FFCD00"/>
<path d="M2737.7 528.63C2738.52 528.63 2739.18 527.967 2739.18 527.15C2739.18 526.333 2738.52 525.67 2737.7 525.67C2736.88 525.67 2736.22 526.333 2736.22 527.15C2736.22 527.967 2736.88 528.63 2737.7 528.63Z" fill="#FFCD00"/>
<path d="M2816.48 528.96C2817.3 528.96 2817.96 528.297 2817.96 527.48C2817.96 526.663 2817.3 526 2816.48 526C2815.66 526 2815 526.663 2815 527.48C2815 528.297 2815.66 528.96 2816.48 528.96Z" fill="#FFCD00"/>
</svg>
