<svg width="1736" height="552" viewBox="0 0 1736 552" fill="none" xmlns="http://www.w3.org/2000/svg">
<path d="M367.373 393.618L363.802 396.379L361.819 393.809L362.742 393.095L360.571 390.014L361.3 389.45L357.112 384.04L355.328 385.424L352.716 382.041L356.282 379.278L354.503 376.979L353.313 377.899L350.595 374.383L349.584 375.81L348.669 374.358L347.322 375.62L344.412 372.68L343.406 374.108L342.018 372.585L339.507 374.528L341.26 377.065L340.33 377.782L341.742 380.152L335.649 384.866L332.07 381.147L333.521 380.023L332.608 378.567L333.271 378.057L330.919 374.47L331.818 373.991L329.514 371.016L325.151 374.389L326.451 376.07L324.878 376.767L326.761 379.203L325.834 379.915L327.222 381.712L329.175 380.142L331.528 383.725L333.622 386.431L330.316 388.99L334.085 393.857L336.123 392.282L339.915 396.914L338.668 398.31L340.554 400.742L346.004 396.312L343.172 393.747L342.142 394.329L340.784 392.569L343.556 390.422L342.723 389.338L343.646 388.624L356.517 405.259L361.279 401.578L362.951 403.744L370.616 397.81L367.373 393.618Z" fill="#FFCD00"/>
<path d="M303.79 294.74L300.532 291.418C299.599 292.551 298.709 293.722 297.879 294.942L303.321 299.379L300.974 301.681L302.851 304.022L301.785 305.069L306.589 310.82L305.103 311.862L309.709 316.552L316.745 309.649L314.146 307.001L316.785 305.425L313.02 301.587L314.513 300.12L311.739 297.29L308.597 300.486L303.79 294.74Z" fill="#FFCD00"/>
<path d="M260.002 370.661L255.351 370.538C255.469 372.001 255.643 373.461 255.894 374.915L262.89 374.321L262.803 377.608L265.78 377.986L265.741 379.479L273.193 380.273L272.849 382.056L279.421 382.226L279.68 372.372L275.971 372.275L276.772 369.308L271.397 369.165L271.45 367.074L267.489 366.968L267.452 371.45L260.002 370.661Z" fill="#FFCD00"/>
<path d="M340.633 320.71L338.836 316.418C337.55 317.126 336.29 317.884 335.068 318.71L338.481 324.846L335.448 326.116L336.325 328.986L334.947 329.563L337.282 336.684L335.516 337.102L338.058 343.164L347.15 339.356L345.716 335.934L348.75 335.446L346.674 330.487L348.603 329.677L347.074 326.021L342.972 327.828L340.633 320.71Z" fill="#FFCD00"/>
<path d="M252.238 327.448L249.629 326.232C249.341 327.104 249.085 327.987 248.875 328.886L252.989 330.266L252.142 332.136L253.739 333.087L253.355 333.937L257.39 336.228L256.763 337.169L260.45 338.884L262.987 333.276L260.906 332.307L262.08 330.796L259.066 329.392L259.603 328.2L257.381 327.165L256.273 329.736L252.238 327.448Z" fill="#FFCD00"/>
<path d="M248.259 289.846L244.524 287.07C243.779 288.335 243.082 289.63 242.451 290.964L248.516 294.501L246.555 297.14L248.773 299.161L247.883 300.36L253.523 305.295L252.216 306.555L257.495 310.473L263.373 302.561L260.395 300.349L262.756 298.382L258.441 295.175L259.687 293.494L256.507 291.13L253.9 294.775L248.259 289.846Z" fill="#FFCD00"/>
<path d="M212.131 354.575L208.79 354.892C209 355.928 209.254 356.961 209.561 357.979L214.521 356.945L214.745 359.305L216.911 359.315L217.013 360.388L222.416 360.307L222.324 361.615L227.044 361.166L226.371 354.087L223.706 354.341L224.022 352.146L220.16 352.513L220.018 351.011L217.175 351.28L217.539 354.491L212.131 354.575Z" fill="#FFCD00"/>
<path d="M321.691 412.447L318.342 412.222C318.383 413.278 318.467 414.339 318.606 415.393L323.667 415.172L323.508 417.537L325.644 417.897L325.572 418.972L330.918 419.763L330.616 421.038L335.346 421.357L335.823 414.262L333.152 414.082L333.818 411.967L329.948 411.707L330.049 410.202L327.2 410.009L327.042 413.237L321.691 412.447Z" fill="#FFCD00"/>
<path d="M315.337 344.879L313.181 342.307C312.447 343.068 311.74 343.863 311.076 344.693L314.74 348.192L312.924 349.715L314.144 351.504L313.318 352.196L316.449 356.601L315.32 357.267L318.366 360.9L323.815 356.331L322.094 354.279L324.081 353.295L321.589 350.323L322.745 349.354L320.911 347.165L318.473 349.286L315.337 344.879Z" fill="#FFCD00"/>
<path d="M356.332 353.982L355.628 352.344C355.138 352.62 354.657 352.916 354.195 353.236L355.52 355.575L354.362 356.073L354.708 357.168L354.184 357.394L355.102 360.115L354.427 360.279L355.419 362.591L358.889 361.101L358.326 359.795L359.486 359.597L358.676 357.705L359.414 357.389L358.815 355.992L357.25 356.696L356.332 353.982Z" fill="#FFCD00"/>
<path d="M334.917 255.333L334.533 254.253C334.927 254.156 335.321 254.068 335.725 254L336.1 255.693L336.956 255.387L337.282 256.053L337.672 255.917L338.445 257.596L338.888 257.362L339.433 258.89L336.864 259.805L336.557 258.944L335.837 259.387L335.394 258.136L334.849 258.331L334.518 257.406L335.691 257.007L334.917 255.333Z" fill="#FFCD00"/>
<path d="M377.411 270.553L377.693 268.793C377.132 268.764 376.567 268.757 376.005 268.778L375.872 271.464L374.627 271.264L374.333 272.374L373.77 272.285L373.089 275.074L372.43 274.851L372.03 277.335L375.759 277.935L375.983 276.531L377.068 276.985L377.397 274.952L378.19 275.08L378.431 273.58L376.733 273.336L377.411 270.553Z" fill="#FFCD00"/>
<path d="M358.066 279.03L357.777 277.27C357.236 277.42 356.697 277.592 356.172 277.79L356.893 280.38L355.65 280.584L355.721 281.73L355.158 281.823L355.394 284.685L354.698 284.681L355.104 287.164L358.831 286.555L358.599 285.152L359.773 285.24L359.443 283.207L360.236 283.079L359.991 281.579L358.302 281.884L358.066 279.03Z" fill="#FFCD00"/>
<path d="M287.99 406.918L286.214 406.768C286.322 406.216 286.447 405.669 286.605 405.126L289.245 405.646L289.352 404.389L290.504 404.373L290.556 403.805L293.427 403.818L293.372 403.122L295.88 403.333L295.561 407.097L294.146 406.978L294.326 408.141L292.274 407.968L292.205 408.769L290.694 408.641L290.868 406.935L287.99 406.918Z" fill="#FFCD00"/>
<path d="M225.39 417.803L223.609 417.733C223.693 417.176 223.793 416.624 223.927 416.074L226.587 416.476L226.638 415.216L227.789 415.148L227.814 414.578L230.684 414.463L230.598 413.77L233.112 413.869L232.962 417.644L231.543 417.588L231.774 418.742L229.717 418.661L229.684 419.464L228.169 419.404L228.266 417.691L225.39 417.803Z" fill="#FFCD00"/>
<path d="M300.241 428.562L298.46 428.602C298.509 428.041 298.575 427.483 298.675 426.926L301.355 427.165L301.328 425.904L302.473 425.766L302.463 425.195L305.32 424.905L305.192 424.218L307.708 424.163L307.789 427.94L306.369 427.971L306.671 429.108L304.613 429.154L304.629 429.957L303.113 429.99L303.105 428.275L300.241 428.562Z" fill="#FFCD00"/>
<path d="M272.568 270.904L270.535 268.234C269.766 268.959 269.022 269.72 268.32 270.518L271.815 274.185L269.93 275.621L271.063 277.466L270.206 278.119L273.127 282.666L271.967 283.278L274.839 287.05L280.497 282.742L278.875 280.612L280.906 279.722L278.556 276.636L279.757 275.723L278.028 273.45L275.492 275.454L272.568 270.904Z" fill="#FFCD00"/>
<path d="M232.126 266.219L230.418 265.406C230.219 265.971 230.044 266.54 229.898 267.124L232.598 268.058L232.024 269.265L233.07 269.898L232.807 270.448L235.445 271.971L235.022 272.579L237.435 273.727L239.153 270.107L237.79 269.46L238.579 268.486L236.603 267.547L236.968 266.778L235.513 266.088L234.759 267.747L232.126 266.219Z" fill="#FFCD00"/>
<path d="M1577.74 326.688L1574.17 329.449L1572.18 326.878L1573.11 326.164L1570.94 323.083L1571.66 322.52L1567.48 317.109L1565.69 318.493L1563.08 315.11L1566.65 312.347L1564.87 310.048L1563.68 310.968L1560.96 307.453L1559.95 308.879L1559.03 307.428L1557.69 308.689L1554.78 305.749L1553.77 307.178L1552.38 305.654L1549.87 307.597L1551.62 310.135L1550.69 310.851L1552.11 313.221L1546.01 317.936L1542.43 314.217L1543.89 313.092L1542.97 311.637L1543.63 311.127L1541.28 307.54L1542.18 307.06L1539.88 304.085L1535.51 307.458L1536.82 309.139L1535.24 309.837L1537.13 312.272L1536.2 312.984L1537.59 314.782L1539.54 313.212L1541.89 316.795L1543.99 319.5L1540.68 322.059L1544.45 326.926L1546.49 325.351L1550.28 329.984L1549.03 331.38L1550.92 333.811L1556.37 329.381L1553.54 326.817L1552.51 327.398L1551.15 325.638L1553.92 323.491L1553.09 322.407L1554.01 321.693L1566.88 338.328L1571.64 334.647L1573.32 336.813L1580.98 330.879L1577.74 326.688Z" fill="#FFCD00"/>
<path d="M1535.61 70.7573L1532.35 67.4353C1531.42 68.5689 1530.53 69.7398 1529.7 70.9594L1535.14 75.3963L1532.79 77.6982L1534.67 80.0399L1533.6 81.0861L1538.41 86.8372L1536.92 87.8792L1541.53 92.5698L1548.56 85.6668L1545.96 83.0185L1548.6 81.4422L1544.84 77.6041L1546.33 76.1372L1543.56 73.3073L1540.41 76.5039L1535.61 70.7573Z" fill="#FFCD00"/>
<path d="M1399.77 389.633L1395.12 389.51C1395.24 390.974 1395.41 392.434 1395.67 393.888L1402.66 393.294L1402.58 396.581L1405.55 396.959L1405.51 398.452L1412.97 399.246L1412.62 401.028L1419.19 401.198L1419.45 391.345L1415.74 391.247L1416.54 388.28L1411.17 388.138L1411.22 386.046L1407.26 385.94L1407.22 390.423L1399.77 389.633Z" fill="#FFCD00"/>
<path d="M1613.38 16.1195L1611.58 11.8275C1610.3 12.5353 1609.04 13.2937 1607.81 14.1194L1611.23 20.2555L1608.19 21.525L1609.07 24.3951L1607.69 24.9724L1610.03 32.0935L1608.26 32.5114L1610.8 38.5735L1619.9 34.7653L1618.46 31.3432L1621.5 30.8554L1619.42 25.8966L1621.35 25.0862L1619.82 21.4306L1615.72 23.237L1613.38 16.1195Z" fill="#FFCD00"/>
<path d="M1476.36 252.216L1473.75 251C1473.47 251.871 1473.21 252.755 1473 253.653L1477.11 255.033L1476.27 256.904L1477.86 257.854L1477.48 258.704L1481.52 260.995L1480.89 261.937L1484.57 263.652L1487.11 258.043L1485.03 257.075L1486.21 255.564L1483.19 254.159L1483.73 252.968L1481.51 251.932L1480.4 254.503L1476.36 252.216Z" fill="#FFCD00"/>
<path d="M1358.12 195.028L1354.38 192.253C1353.64 193.518 1352.94 194.812 1352.31 196.146L1358.37 199.684L1356.41 202.322L1358.63 204.344L1357.74 205.543L1363.38 210.478L1362.07 211.738L1367.35 215.656L1373.23 207.744L1370.25 205.531L1372.61 203.564L1368.3 200.358L1369.54 198.677L1366.36 196.312L1363.76 199.958L1358.12 195.028Z" fill="#FFCD00"/>
<path d="M1355.13 317.632L1351.79 317.949C1352 318.986 1352.25 320.018 1352.56 321.036L1357.52 320.003L1357.75 322.362L1359.91 322.373L1360.01 323.445L1365.42 323.365L1365.32 324.672L1370.04 324.224L1369.37 317.145L1366.71 317.398L1367.02 315.203L1363.16 315.57L1363.02 314.069L1360.17 314.338L1360.54 317.549L1355.13 317.632Z" fill="#FFCD00"/>
<path d="M1545.2 385.925L1541.86 385.699C1541.9 386.756 1541.98 387.816 1542.12 388.87L1547.18 388.649L1547.02 391.014L1549.16 391.374L1549.08 392.449L1554.43 393.24L1554.13 394.516L1558.86 394.834L1559.34 387.739L1556.67 387.56L1557.33 385.445L1553.46 385.184L1553.56 383.679L1550.71 383.487L1550.55 386.715L1545.2 385.925Z" fill="#FFCD00"/>
<path d="M1574.13 262.955L1571.98 260.383C1571.24 261.144 1570.54 261.939 1569.87 262.769L1573.54 266.268L1571.72 267.791L1572.94 269.58L1572.11 270.273L1575.24 274.678L1574.12 275.343L1577.16 278.976L1582.61 274.407L1580.89 272.356L1582.88 271.371L1580.39 268.399L1581.54 267.43L1579.71 265.241L1577.27 267.362L1574.13 262.955Z" fill="#FFCD00"/>
<path d="M1656.24 268.96L1655.54 267.322C1655.05 267.598 1654.57 267.894 1654.11 268.213L1655.43 270.552L1654.27 271.05L1654.62 272.145L1654.09 272.372L1655.01 275.092L1654.34 275.256L1655.33 277.568L1658.8 276.078L1658.24 274.773L1659.4 274.575L1658.59 272.682L1659.32 272.366L1658.73 270.97L1657.16 271.673L1656.24 268.96Z" fill="#FFCD00"/>
<path d="M1637.4 193.333L1637.01 192.253C1637.41 192.156 1637.8 192.068 1638.21 192L1638.58 193.693L1639.44 193.387L1639.76 194.053L1640.15 193.917L1640.93 195.596L1641.37 195.362L1641.92 196.89L1639.35 197.805L1639.04 196.944L1638.32 197.387L1637.88 196.136L1637.33 196.331L1637 195.406L1638.17 195.007L1637.4 193.333Z" fill="#FFCD00"/>
<path d="M1713.37 235.227L1713.65 233.467C1713.09 233.438 1712.53 233.43 1711.96 233.452L1711.83 236.137L1710.59 235.938L1710.29 237.048L1709.73 236.959L1709.05 239.748L1708.39 239.525L1707.99 242.009L1711.72 242.608L1711.94 241.205L1713.03 241.658L1713.36 239.626L1714.15 239.754L1714.39 238.254L1712.69 238.01L1713.37 235.227Z" fill="#FFCD00"/>
<path d="M1699 177.16L1698.71 175.4C1698.17 175.55 1697.63 175.722 1697.11 175.92L1697.83 178.51L1696.59 178.714L1696.66 179.86L1696.1 179.953L1696.33 182.815L1695.63 182.811L1696.04 185.294L1699.77 184.685L1699.54 183.282L1700.71 183.37L1700.38 181.337L1701.17 181.209L1700.93 179.709L1699.24 180.014L1699 177.16Z" fill="#FFCD00"/>
<path d="M1520.24 467.841L1518.46 467.691C1518.57 467.139 1518.7 466.592 1518.86 466.048L1521.5 466.569L1521.6 465.312L1522.76 465.296L1522.81 464.728L1525.68 464.741L1525.62 464.045L1528.13 464.256L1527.81 468.02L1526.4 467.901L1526.58 469.064L1524.53 468.891L1524.46 469.692L1522.95 469.564L1523.12 467.857L1520.24 467.841Z" fill="#FFCD00"/>
<path d="M1425.31 529.169L1423.52 529.099C1423.61 528.543 1423.71 527.99 1423.84 527.44L1426.5 527.843L1426.55 526.582L1427.7 526.514L1427.73 525.944L1430.6 525.83L1430.51 525.136L1433.03 525.235L1432.88 529.01L1431.46 528.954L1431.69 530.108L1429.63 530.027L1429.6 530.83L1428.08 530.77L1428.18 529.057L1425.31 529.169Z" fill="#FFCD00"/>
<path d="M1575.39 507.602L1573.6 507.642C1573.65 507.081 1573.72 506.523 1573.82 505.967L1576.5 506.205L1576.47 504.944L1577.62 504.806L1577.61 504.235L1580.47 503.945L1580.34 503.258L1582.85 503.203L1582.93 506.98L1581.51 507.011L1581.82 508.148L1579.76 508.194L1579.77 508.997L1578.26 509.03L1578.25 507.315L1575.39 507.602Z" fill="#FFCD00"/>
<path d="M1436.61 65.0929L1434.58 62.4222C1433.81 63.1479 1433.07 63.9086 1432.37 64.707L1435.86 68.3738L1433.98 69.8096L1435.11 71.6547L1434.25 72.3073L1437.17 76.8547L1436.01 77.4664L1438.89 81.2383L1444.54 76.9307L1442.92 74.8008L1444.95 73.9109L1442.6 70.8248L1443.8 69.9111L1442.07 67.6383L1439.54 69.6424L1436.61 65.0929Z" fill="#FFCD00"/>
<path d="M1318.23 41.8126L1316.52 41C1316.32 41.5645 1316.15 42.1338 1316 42.7177L1318.7 43.652L1318.13 44.8588L1319.17 45.4914L1318.91 46.0413L1321.55 47.5643L1321.12 48.1726L1323.54 49.321L1325.26 45.7006L1323.89 45.0534L1324.68 44.0802L1322.71 43.1411L1323.07 42.3722L1321.62 41.6813L1320.86 43.3406L1318.23 41.8126Z" fill="#FFCD00"/>
<path d="M1219.74 352.688L1216.17 355.449L1214.18 352.878L1215.11 352.164L1212.94 349.083L1213.66 348.52L1209.48 343.109L1207.69 344.493L1205.08 341.11L1208.65 338.347L1206.87 336.048L1205.68 336.968L1202.96 333.453L1201.95 334.879L1201.03 333.428L1199.69 334.689L1196.78 331.749L1195.77 333.178L1194.38 331.654L1191.87 333.597L1193.62 336.135L1192.69 336.851L1194.11 339.221L1188.01 343.936L1184.43 340.217L1185.89 339.092L1184.97 337.637L1185.63 337.127L1183.28 333.54L1184.18 333.06L1181.88 330.085L1177.51 333.458L1178.82 335.139L1177.24 335.837L1179.13 338.272L1178.2 338.984L1179.59 340.782L1181.54 339.212L1183.89 342.795L1185.99 345.5L1182.68 348.059L1186.45 352.926L1188.49 351.351L1192.28 355.984L1191.03 357.38L1192.92 359.811L1198.37 355.381L1195.54 352.817L1194.51 353.398L1193.15 351.638L1195.92 349.491L1195.09 348.407L1196.01 347.693L1208.88 364.328L1213.64 360.647L1215.32 362.813L1222.98 356.879L1219.74 352.688Z" fill="#FFCD00"/>
<path d="M1113.61 123.757L1110.35 120.435C1109.42 121.569 1108.53 122.74 1107.7 123.959L1113.14 128.396L1110.79 130.698L1112.67 133.04L1111.6 134.086L1116.41 139.837L1114.92 140.879L1119.53 145.57L1126.56 138.667L1123.96 136.019L1126.6 134.442L1122.84 130.604L1124.33 129.137L1121.56 126.307L1118.41 129.504L1113.61 123.757Z" fill="#FFCD00"/>
<path d="M1008.77 372.633L1004.12 372.51C1004.24 373.974 1004.41 375.434 1004.67 376.888L1011.66 376.294L1011.58 379.581L1014.55 379.959L1014.51 381.452L1021.97 382.246L1021.62 384.028L1028.19 384.198L1028.45 374.345L1024.74 374.247L1025.54 371.28L1020.17 371.138L1020.22 369.046L1016.26 368.94L1016.22 373.423L1008.77 372.633Z" fill="#FFCD00"/>
<path d="M1177.38 42.1195L1175.58 37.8275C1174.3 38.5353 1173.04 39.2937 1171.81 40.1194L1175.23 46.2555L1172.19 47.525L1173.07 50.3951L1171.69 50.9724L1174.03 58.0935L1172.26 58.5114L1174.8 64.5735L1183.9 60.7653L1182.46 57.3432L1185.5 56.8554L1183.42 51.8966L1185.35 51.0862L1183.82 47.4306L1179.72 49.237L1177.38 42.1195Z" fill="#FFCD00"/>
<path d="M1074.36 269.216L1071.75 268C1071.47 268.871 1071.21 269.755 1071 270.653L1075.11 272.033L1074.27 273.904L1075.86 274.854L1075.48 275.704L1079.52 277.995L1078.89 278.937L1082.57 280.652L1085.11 275.043L1083.03 274.075L1084.21 272.564L1081.19 271.159L1081.73 269.968L1079.51 268.932L1078.4 271.503L1074.36 269.216Z" fill="#FFCD00"/>
<path d="M979.116 209.028L975.381 206.253C974.636 207.518 973.939 208.812 973.308 210.146L979.373 213.684L977.412 216.322L979.63 218.344L978.74 219.543L984.38 224.478L983.073 225.738L988.352 229.656L994.23 221.744L991.252 219.531L993.613 217.564L989.298 214.358L990.544 212.677L987.364 210.312L984.757 213.958L979.116 209.028Z" fill="#FFCD00"/>
<path d="M966.131 317.632L962.79 317.949C963 318.986 963.254 320.018 963.561 321.036L968.521 320.003L968.745 322.362L970.911 322.373L971.013 323.445L976.416 323.365L976.324 324.672L981.044 324.224L980.371 317.145L977.706 317.398L978.022 315.203L974.16 315.57L974.018 314.069L971.175 314.338L971.539 317.549L966.131 317.632Z" fill="#FFCD00"/>
<path d="M1130.2 377.925L1126.86 377.699C1126.9 378.756 1126.98 379.816 1127.12 380.87L1132.18 380.649L1132.02 383.014L1134.16 383.374L1134.08 384.449L1139.43 385.24L1139.13 386.516L1143.86 386.834L1144.34 379.739L1141.67 379.56L1142.33 377.445L1138.46 377.184L1138.56 375.679L1135.71 375.487L1135.55 378.715L1130.2 377.925Z" fill="#FFCD00"/>
<path d="M1163.13 286.955L1160.97 284.383C1160.24 285.144 1159.53 285.939 1158.87 286.769L1162.53 290.268L1160.72 291.791L1161.94 293.58L1161.11 294.273L1164.24 298.678L1163.11 299.343L1166.16 302.976L1171.61 298.407L1169.89 296.356L1171.88 295.371L1169.38 292.399L1170.54 291.43L1168.71 289.241L1166.27 291.362L1163.13 286.955Z" fill="#FFCD00"/>
<path d="M1209.24 300.96L1208.54 299.322C1208.05 299.598 1207.57 299.894 1207.1 300.213L1208.43 302.552L1207.27 303.05L1207.62 304.145L1207.09 304.372L1208.01 307.092L1207.34 307.256L1208.33 309.568L1211.8 308.078L1211.24 306.773L1212.39 306.575L1211.58 304.682L1212.32 304.366L1211.72 302.97L1210.16 303.673L1209.24 300.96Z" fill="#FFCD00"/>
<path d="M1204.4 252.333L1204.01 251.253C1204.41 251.156 1204.8 251.068 1205.2 251L1205.58 252.693L1206.44 252.387L1206.76 253.053L1207.15 252.917L1207.92 254.596L1208.37 254.362L1208.91 255.89L1206.34 256.805L1206.04 255.944L1205.32 256.387L1204.87 255.136L1204.33 255.331L1204 254.406L1205.17 254.007L1204.4 252.333Z" fill="#FFCD00"/>
<path d="M1256.37 262.228L1256.65 260.468C1256.09 260.439 1255.53 260.431 1254.96 260.453L1254.83 263.138L1253.59 262.939L1253.29 264.049L1252.73 263.96L1252.05 266.749L1251.39 266.526L1250.99 269.01L1254.72 269.609L1254.94 268.206L1256.03 268.659L1256.36 266.627L1257.15 266.755L1257.39 265.255L1255.69 265.011L1256.37 262.228Z" fill="#FFCD00"/>
<path d="M1252 202.16L1251.71 200.4C1251.17 200.55 1250.63 200.722 1250.11 200.92L1250.83 203.51L1249.59 203.714L1249.66 204.86L1249.09 204.953L1249.33 207.815L1248.63 207.811L1249.04 210.294L1252.77 209.685L1252.54 208.282L1253.71 208.37L1253.38 206.337L1254.17 206.209L1253.93 204.709L1252.24 205.014L1252 202.16Z" fill="#FFCD00"/>
<path d="M1122.24 436.841L1120.46 436.691C1120.57 436.139 1120.7 435.592 1120.86 435.048L1123.5 435.569L1123.6 434.312L1124.76 434.296L1124.81 433.728L1127.68 433.741L1127.62 433.045L1130.13 433.256L1129.81 437.02L1128.4 436.901L1128.58 438.064L1126.53 437.891L1126.46 438.692L1124.95 438.564L1125.12 436.857L1122.24 436.841Z" fill="#FFCD00"/>
<path d="M1061.31 498.169L1059.52 498.099C1059.61 497.543 1059.71 496.99 1059.84 496.44L1062.5 496.843L1062.55 495.582L1063.7 495.514L1063.73 494.944L1066.6 494.83L1066.51 494.136L1069.03 494.235L1068.88 498.01L1067.46 497.954L1067.69 499.108L1065.63 499.027L1065.6 499.83L1064.08 499.77L1064.18 498.057L1061.31 498.169Z" fill="#FFCD00"/>
<path d="M1168.39 450.602L1166.6 450.642C1166.65 450.081 1166.72 449.523 1166.82 448.967L1169.5 449.205L1169.47 447.944L1170.62 447.806L1170.61 447.235L1173.47 446.945L1173.34 446.258L1175.85 446.203L1175.93 449.98L1174.51 450.011L1174.82 451.148L1172.76 451.194L1172.77 451.997L1171.26 452.03L1171.25 450.315L1168.39 450.602Z" fill="#FFCD00"/>
<path d="M1030.61 115.093L1028.58 112.422C1027.81 113.148 1027.07 113.909 1026.37 114.707L1029.86 118.374L1027.98 119.81L1029.11 121.655L1028.25 122.307L1031.17 126.855L1030.01 127.466L1032.89 131.238L1038.54 126.931L1036.92 124.801L1038.95 123.911L1036.6 120.825L1037.8 119.911L1036.07 117.638L1033.54 119.642L1030.61 115.093Z" fill="#FFCD00"/>
<path d="M911.229 59.8126L909.521 59C909.321 59.5645 909.146 60.1338 909 60.7177L911.701 61.652L911.127 62.8588L912.173 63.4914L911.91 64.0413L914.547 65.5643L914.124 66.1726L916.538 67.321L918.255 63.7006L916.893 63.0534L917.681 62.0802L915.706 61.1411L916.071 60.3722L914.616 59.6813L913.861 61.3406L911.229 59.8126Z" fill="#FFCD00"/>
<path d="M782.737 366.689L779.166 369.45L777.183 366.879L778.106 366.165L775.935 363.084L776.663 362.521L772.476 357.11L770.692 358.494L768.08 355.111L771.646 352.348L769.867 350.049L768.677 350.969L765.958 347.454L764.948 348.88L764.033 347.429L762.686 348.69L759.776 345.75L758.77 347.179L757.381 345.655L754.871 347.598L756.623 350.136L755.694 350.852L757.106 353.222L751.013 357.937L747.434 354.218L748.885 353.093L747.972 351.638L748.634 351.128L746.283 347.54L747.182 347.061L744.878 344.086L740.514 347.459L741.815 349.14L740.242 349.838L742.125 352.273L741.197 352.985L742.585 354.783L744.539 353.213L746.892 356.796L748.986 359.501L745.68 362.06L749.448 366.927L751.487 365.352L755.279 369.985L754.032 371.381L755.918 373.812L761.367 369.382L758.535 366.818L757.506 367.399L756.148 365.639L758.919 363.492L758.086 362.408L759.009 361.694L771.881 378.329L776.642 374.648L778.315 376.814L785.98 370.88L782.737 366.689Z" fill="#FFCD00"/>
<path d="M681.606 168.757L678.348 165.435C677.415 166.569 676.526 167.74 675.696 168.959L681.138 173.396L678.79 175.698L680.667 178.04L679.601 179.086L684.406 184.837L682.919 185.879L687.525 190.57L694.561 183.667L691.963 181.019L694.601 179.442L690.837 175.604L692.329 174.137L689.555 171.307L686.413 174.504L681.606 168.757Z" fill="#FFCD00"/>
<path d="M601.774 384.633L597.122 384.51C597.24 385.974 597.414 387.434 597.666 388.888L604.662 388.294L604.575 391.581L607.552 391.959L607.513 393.452L614.965 394.246L614.621 396.028L621.192 396.198L621.451 386.345L617.742 386.247L618.543 383.28L613.169 383.138L613.222 381.046L609.261 380.94L609.224 385.423L601.774 384.633Z" fill="#FFCD00"/>
<path d="M741.38 133.119L739.582 128.827C738.296 129.535 737.036 130.294 735.814 131.119L739.227 137.255L736.194 138.525L737.071 141.395L735.694 141.972L738.028 149.093L736.262 149.511L738.804 155.573L747.896 151.765L746.462 148.343L749.497 147.855L747.42 142.897L749.35 142.086L747.82 138.431L743.718 140.237L741.38 133.119Z" fill="#FFCD00"/>
<path d="M639.362 269.216L636.753 268C636.465 268.871 636.209 269.755 635.999 270.653L640.113 272.033L639.266 273.904L640.863 274.854L640.479 275.704L644.514 277.995L643.887 278.937L647.574 280.652L650.111 275.043L648.03 274.075L649.204 272.564L646.19 271.159L646.727 269.968L644.505 268.932L643.397 271.503L639.362 269.216Z" fill="#FFCD00"/>
<path d="M692.115 251.028L688.38 248.253C687.635 249.518 686.938 250.812 686.308 252.146L692.373 255.684L690.412 258.322L692.63 260.344L691.739 261.543L697.379 266.478L696.073 267.738L701.351 271.656L707.23 263.744L704.251 261.531L706.612 259.564L702.298 256.358L703.544 254.677L700.364 252.312L697.756 255.958L692.115 251.028Z" fill="#FFCD00"/>
<path d="M629.131 351.632L625.789 351.949C626 352.986 626.254 354.018 626.561 355.036L631.52 354.003L631.745 356.362L633.91 356.373L634.012 357.445L639.416 357.365L639.324 358.672L644.043 358.224L643.37 351.145L640.705 351.398L641.021 349.203L637.16 349.57L637.017 348.069L634.174 348.338L634.538 351.549L629.131 351.632Z" fill="#FFCD00"/>
<path d="M663.203 377.925L659.854 377.699C659.895 378.756 659.979 379.816 660.119 380.87L665.18 380.649L665.021 383.014L667.156 383.374L667.084 384.449L672.43 385.24L672.128 386.516L676.858 386.834L677.335 379.739L674.664 379.56L675.33 377.445L671.46 377.184L671.561 375.679L668.712 375.487L668.554 378.715L663.203 377.925Z" fill="#FFCD00"/>
<path d="M736.132 282.955L733.976 280.383C733.242 281.144 732.535 281.939 731.871 282.769L735.535 286.268L733.719 287.791L734.938 289.58L734.113 290.273L737.244 294.678L736.115 295.343L739.161 298.976L744.61 294.407L742.889 292.356L744.876 291.371L742.384 288.399L743.54 287.43L741.706 285.241L739.268 287.362L736.132 282.955Z" fill="#FFCD00"/>
<path d="M792.242 259.96L791.537 258.322C791.048 258.598 790.567 258.894 790.105 259.213L791.43 261.552L790.272 262.05L790.617 263.145L790.094 263.372L791.012 266.092L790.336 266.256L791.328 268.568L794.799 267.078L794.236 265.773L795.396 265.575L794.586 263.682L795.324 263.366L794.725 261.97L793.159 262.673L792.242 259.96Z" fill="#FFCD00"/>
<path d="M768.398 241.333L768.014 240.253C768.408 240.156 768.802 240.068 769.206 240L769.581 241.693L770.437 241.387L770.763 242.053L771.153 241.917L771.926 243.596L772.369 243.362L772.914 244.89L770.345 245.805L770.038 244.944L769.318 245.387L768.875 244.136L768.33 244.331L767.999 243.406L769.172 243.007L768.398 241.333Z" fill="#FFCD00"/>
<path d="M823.37 255.227L823.652 253.467C823.091 253.438 822.526 253.43 821.965 253.452L821.831 256.137L820.587 255.938L820.292 257.048L819.729 256.959L819.048 259.748L818.39 259.525L817.99 262.009L821.718 262.608L821.942 261.205L823.027 261.658L823.357 259.626L824.149 259.754L824.391 258.254L822.692 258.01L823.37 255.227Z" fill="#FFCD00"/>
<path d="M818.003 194.16L817.714 192.4C817.173 192.55 816.635 192.722 816.109 192.92L816.831 195.51L815.587 195.714L815.659 196.86L815.096 196.953L815.331 199.815L814.636 199.811L815.041 202.294L818.768 201.685L818.537 200.282L819.71 200.37L819.38 198.337L820.173 198.209L819.928 196.709L818.239 197.014L818.003 194.16Z" fill="#FFCD00"/>
<path d="M715.24 412.841L713.464 412.691C713.572 412.139 713.697 411.592 713.855 411.048L716.495 411.569L716.602 410.312L717.754 410.296L717.806 409.728L720.677 409.741L720.622 409.045L723.13 409.256L722.811 413.02L721.396 412.901L721.576 414.064L719.524 413.891L719.455 414.692L717.944 414.564L718.118 412.857L715.24 412.841Z" fill="#FFCD00"/>
<path d="M626.305 498.169L624.524 498.099C624.607 497.543 624.708 496.99 624.841 496.44L627.502 496.843L627.553 495.582L628.703 495.514L628.729 494.944L631.598 494.83L631.512 494.136L634.027 494.235L633.877 498.01L632.457 497.954L632.689 499.108L630.632 499.027L630.599 499.83L629.084 499.77L629.18 498.057L626.305 498.169Z" fill="#FFCD00"/>
<path d="M718.386 437.602L716.604 437.642C716.653 437.081 716.72 436.523 716.819 435.967L719.499 436.205L719.473 434.944L720.617 434.806L720.608 434.235L723.465 433.945L723.337 433.258L725.852 433.203L725.934 436.98L724.514 437.011L724.816 438.148L722.757 438.194L722.774 438.997L721.258 439.03L721.249 437.315L718.386 437.602Z" fill="#FFCD00"/>
<path d="M614.614 180.093L612.582 177.422C611.813 178.148 611.069 178.909 610.367 179.707L613.862 183.374L611.976 184.81L613.11 186.655L612.253 187.307L615.173 191.855L614.014 192.466L616.886 196.238L622.544 191.931L620.922 189.801L622.953 188.911L620.603 185.825L621.804 184.911L620.075 182.638L617.539 184.642L614.614 180.093Z" fill="#FFCD00"/>
<path d="M539.229 171.813L537.521 171C537.321 171.564 537.146 172.134 537 172.718L539.701 173.652L539.127 174.859L540.173 175.491L539.91 176.041L542.547 177.564L542.124 178.173L544.538 179.321L546.255 175.701L544.893 175.053L545.681 174.08L543.706 173.141L544.071 172.372L542.616 171.681L541.861 173.341L539.229 171.813Z" fill="#FFCD00"/>
</svg>
