<svg width="1445" height="255" viewBox="0 0 1445 255" fill="none" xmlns="http://www.w3.org/2000/svg">
<g clip-path="url(#clip0)">
<path d="M88.9501 177.48L85.6801 170.97L76.1301 175.76L71.7301 167L70.5801 143.8L78.2601 139.95L87.7201 158.8L90.1901 157.56L94.6601 166.47L92.1901 167.71L95.4601 174.22L88.9501 177.48ZM81.6201 161.85L76.8801 152.4L77.6001 163.86L81.6201 161.85Z" fill="#FFC700"/>
<path d="M288.52 93.73L283.43 104.51L284.29 104.91L283.41 106.78L282.55 106.38L281.63 108.33L280.45 107.77L281.37 105.82L277.37 103.93L288.52 93.73ZM280.41 103.08L282.26 103.95L284.43 99.36L280.41 103.08Z" fill="#FFC700"/>
<path d="M206.25 80.1499L208.02 89.1599L208.74 89.0199L209.05 90.5799L208.33 90.7199L208.65 92.3499L207.66 92.5399L207.34 90.9099L204 91.5799L206.25 80.1499ZM205.49 89.6599L207.04 89.3599L206.29 85.5199L205.49 89.6599Z" fill="#FFC700"/>
<path d="M239.83 162.2L229.77 194.44L233.74 195.68L232 201.27L228.03 200.03L226.22 205.85L220.74 204.14L222.55 198.32L203.98 192.53L239.83 162.2ZM215.71 190.06L224.3 192.74L228.58 179.01L215.71 190.06Z" fill="#FFC700"/>
<path d="M138.59 221.45L137.07 215.71L127.14 218.34L125.83 213.42L130.26 198.05L137.54 196.12L141.03 209.28L143.49 208.63L144.82 213.66L142.36 214.31L143.88 220.05L138.59 221.45ZM135.73 210.68L133.51 202.31L130.84 211.98L135.73 210.68Z" fill="#FFC700"/>
<path d="M189.64 169.85L189.68 166.94L184.64 166.86L184.68 164.36L188.82 157.69L192.52 157.75L192.42 164.43L193.67 164.45L193.63 167L192.38 166.98L192.34 169.9L189.64 169.85ZM189.72 164.38L189.78 160.13L187.23 164.34L189.72 164.38Z" fill="#FFC700"/>
<path d="M184.68 57.8501L179.51 76.7501L181.84 77.3901L180.94 80.6701L178.61 80.0301L177.68 83.4401L174.47 82.5601L175.4 79.1501L164.51 76.1701L184.68 57.8501ZM171.26 74.4901L176.29 75.8701L178.49 67.8201L171.26 74.4901Z" fill="#FFC700"/>
<path d="M239.94 250.93L244.07 246.66L236.68 239.52L240.22 235.86L255.67 231.7L261.09 236.93L251.63 246.72L253.46 248.49L249.85 252.23L248.02 250.46L243.89 254.73L239.94 250.93ZM247.68 242.92L253.7 236.69L244.04 239.41L247.68 242.92Z" fill="#FFC700"/>
<path d="M96.5301 123.01C96.0601 122.59 95.8301 121.99 95.8301 121.22C95.8301 120.45 96.0601 119.84 96.5301 119.41C97.0001 118.98 97.5501 118.77 98.1801 118.77C98.8101 118.77 99.3601 118.98 99.8301 119.41C100.3 119.84 100.53 120.44 100.53 121.22C100.53 122 100.3 122.6 99.8301 123.01C99.3601 123.43 98.8101 123.64 98.1801 123.64C97.5401 123.64 96.9901 123.42 96.5301 123.01Z" fill="#FFC700"/>
<path d="M157.7 47.24C157.23 46.82 157 46.22 157 45.45C157 44.67 157.23 44.07 157.7 43.64C158.17 43.21 158.72 43 159.35 43C159.98 43 160.53 43.21 161 43.64C161.47 44.07 161.7 44.67 161.7 45.45C161.7 46.23 161.47 46.83 161 47.24C160.53 47.66 159.98 47.87 159.35 47.87C158.72 47.87 158.17 47.66 157.7 47.24Z" fill="#FFC700"/>
<path d="M208.87 137.1C208.6 136.77 208.46 136.37 208.46 135.91C208.46 135.45 208.6 135.05 208.87 134.72C209.14 134.39 209.47 134.22 209.86 134.22C210.25 134.22 210.57 134.39 210.85 134.72C211.13 135.05 211.26 135.45 211.26 135.91C211.26 136.37 211.12 136.77 210.85 137.1C210.58 137.43 210.25 137.6 209.86 137.6C209.47 137.6 209.14 137.43 208.87 137.1Z" fill="#FFC700"/>
<path d="M227.22 57.1C226.95 56.77 226.81 56.37 226.81 55.91C226.81 55.45 226.95 55.05 227.22 54.72C227.49 54.39 227.82 54.22 228.21 54.22C228.6 54.22 228.92 54.39 229.2 54.72C229.48 55.05 229.61 55.45 229.61 55.91C229.61 56.37 229.47 56.77 229.2 57.1C228.93 57.43 228.6 57.6 228.21 57.6C227.82 57.6 227.5 57.43 227.22 57.1Z" fill="#FFC700"/>
<path d="M96.0298 240.47C95.6898 240.16 95.5098 239.72 95.5098 239.15C95.5098 238.58 95.6798 238.13 96.0298 237.82C96.3698 237.51 96.7798 237.35 97.2398 237.35C97.6998 237.35 98.1098 237.51 98.4598 237.82C98.7998 238.13 98.9698 238.58 98.9698 239.15C98.9698 239.72 98.7998 240.16 98.4598 240.47C98.1198 240.78 97.7098 240.93 97.2398 240.93C96.7698 240.93 96.3698 240.78 96.0298 240.47Z" fill="#FFC700"/>
<path d="M259.8 177.88C259.46 177.57 259.28 177.13 259.28 176.56C259.28 175.99 259.45 175.54 259.8 175.23C260.14 174.92 260.55 174.76 261.01 174.76C261.47 174.76 261.88 174.92 262.23 175.23C262.57 175.54 262.74 175.99 262.74 176.56C262.74 177.13 262.57 177.57 262.23 177.88C261.89 178.19 261.48 178.34 261.01 178.34C260.54 178.34 260.14 178.19 259.8 177.88Z" fill="#FFC700"/>
<path d="M0.27 75.86C0.09 75.64 0 75.38 0 75.09C0 74.79 0.09 74.54 0.27 74.32C0.45 74.1 0.66 74 0.91 74C1.16 74 1.37 74.11 1.55 74.32C1.73 74.53 1.82 74.79 1.82 75.09C1.82 75.39 1.73 75.64 1.55 75.86C1.37 76.07 1.16 76.18 0.91 76.18C0.66 76.18 0.45 76.07 0.27 75.86Z" fill="#FFC700"/>
<path d="M34.2801 215.98C34.0101 215.65 33.8701 215.25 33.8701 214.79C33.8701 214.33 34.0101 213.93 34.2801 213.6C34.5501 213.27 34.8801 213.1 35.2701 213.1C35.6601 213.1 35.9801 213.27 36.2601 213.6C36.5401 213.93 36.6701 214.33 36.6701 214.79C36.6701 215.25 36.5301 215.65 36.2601 215.98C35.9901 216.31 35.6601 216.48 35.2701 216.48C34.8801 216.48 34.5601 216.31 34.2801 215.98Z" fill="#FFC700"/>
</g>
<path d="M375.37 161.53L372.1 155.02L362.55 159.81L358.15 151.05L357 127.85L364.68 124L374.14 142.85L376.61 141.61L381.08 150.52L378.61 151.76L381.88 158.27L375.37 161.53ZM368.04 145.9L363.3 136.45L364.02 147.91L368.04 145.9Z" fill="#FFC700"/>
<path d="M575.15 85L570.06 95.78L570.92 96.18L570.04 98.05L569.18 97.65L568.26 99.6L567.08 99.04L568 97.09L564 95.2L575.15 85ZM567.04 94.35L568.89 95.22L571.06 90.63L567.04 94.35Z" fill="#FFC700"/>
<path d="M499.25 71L501.02 80.01L501.74 79.87L502.05 81.43L501.33 81.57L501.65 83.2L500.66 83.39L500.34 81.76L497 82.43L499.25 71ZM498.49 80.51L500.04 80.21L499.29 76.37L498.49 80.51Z" fill="#FFC700"/>
<path d="M533.85 153L523.79 185.24L527.76 186.48L526.02 192.07L522.05 190.83L520.24 196.65L514.76 194.94L516.57 189.12L498 183.33L533.85 153ZM509.73 180.86L518.32 183.54L522.6 169.81L509.73 180.86Z" fill="#FFC700"/>
<path d="M429.76 206.33L428.24 200.59L418.31 203.22L417 198.3L421.43 182.93L428.71 181L432.2 194.16L434.66 193.51L435.99 198.54L433.53 199.19L435.05 204.93L429.76 206.33ZM426.9 195.56L424.68 187.19L422.01 196.86L426.9 195.56Z" fill="#FFC700"/>
<path d="M481 161.16L481.04 158.25L476 158.17L476.04 155.67L480.18 149L483.88 149.06L483.78 155.74L485.03 155.76L484.99 158.31L483.74 158.29L483.7 161.21L481 161.16ZM481.08 155.69L481.14 151.44L478.59 155.65L481.08 155.69Z" fill="#FFC700"/>
<path d="M476.17 52L471 70.9L473.33 71.54L472.43 74.82L470.1 74.18L469.17 77.59L465.96 76.71L466.89 73.3L456 70.32L476.17 52ZM462.75 68.64L467.78 70.02L469.98 61.97L462.75 68.64Z" fill="#FFC700"/>
<path d="M534.26 236.23L538.39 231.96L531 224.82L534.54 221.16L549.99 217L555.41 222.23L545.95 232.02L547.78 233.79L544.17 237.53L542.34 235.76L538.21 240.03L534.26 236.23ZM542 228.22L548.02 221.99L538.36 224.71L542 228.22Z" fill="#FFC700"/>
<path d="M390.7 115.24C390.23 114.82 390 114.22 390 113.45C390 112.68 390.23 112.07 390.7 111.64C391.17 111.21 391.72 111 392.35 111C392.98 111 393.53 111.21 394 111.64C394.47 112.07 394.7 112.67 394.7 113.45C394.7 114.23 394.47 114.83 394 115.24C393.53 115.66 392.98 115.87 392.35 115.87C391.71 115.87 391.16 115.65 390.7 115.24Z" fill="#FFC700"/>
<path d="M499.41 130.88C499.14 130.55 499 130.15 499 129.69C499 129.23 499.14 128.83 499.41 128.5C499.68 128.17 500.01 128 500.4 128C500.79 128 501.11 128.17 501.39 128.5C501.67 128.83 501.8 129.23 501.8 129.69C501.8 130.15 501.66 130.55 501.39 130.88C501.12 131.21 500.79 131.38 500.4 131.38C500.01 131.38 499.68 131.21 499.41 130.88Z" fill="#FFC700"/>
<path d="M520.41 52.88C520.14 52.55 520 52.15 520 51.69C520 51.23 520.14 50.83 520.41 50.5C520.68 50.17 521.01 50 521.4 50C521.79 50 522.11 50.17 522.39 50.5C522.67 50.83 522.8 51.23 522.8 51.69C522.8 52.15 522.66 52.55 522.39 52.88C522.12 53.21 521.79 53.38 521.4 53.38C521.01 53.38 520.69 53.21 520.41 52.88Z" fill="#FFC700"/>
<path d="M390.52 220.12C390.18 219.81 390 219.37 390 218.8C390 218.23 390.17 217.78 390.52 217.47C390.86 217.16 391.27 217 391.73 217C392.19 217 392.6 217.16 392.95 217.47C393.29 217.78 393.46 218.23 393.46 218.8C393.46 219.37 393.29 219.81 392.95 220.12C392.61 220.43 392.2 220.58 391.73 220.58C391.26 220.58 390.86 220.43 390.52 220.12Z" fill="#FFC700"/>
<path d="M552.52 174.12C552.18 173.81 552 173.37 552 172.8C552 172.23 552.17 171.78 552.52 171.47C552.86 171.16 553.27 171 553.73 171C554.19 171 554.6 171.16 554.95 171.47C555.29 171.78 555.46 172.23 555.46 172.8C555.46 173.37 555.29 173.81 554.95 174.12C554.61 174.43 554.2 174.58 553.73 174.58C553.26 174.58 552.86 174.43 552.52 174.12Z" fill="#FFC700"/>
<path d="M291.27 67.86C291.09 67.64 291 67.38 291 67.09C291 66.79 291.09 66.54 291.27 66.32C291.45 66.1 291.66 66 291.91 66C292.16 66 292.37 66.11 292.55 66.32C292.73 66.53 292.82 66.79 292.82 67.09C292.82 67.39 292.73 67.64 292.55 67.86C292.37 68.07 292.16 68.18 291.91 68.18C291.66 68.18 291.45 68.07 291.27 67.86Z" fill="#FFC700"/>
<path d="M329.41 200.88C329.14 200.55 329 200.15 329 199.69C329 199.23 329.14 198.83 329.41 198.5C329.68 198.17 330.01 198 330.4 198C330.79 198 331.11 198.17 331.39 198.5C331.67 198.83 331.8 199.23 331.8 199.69C331.8 200.15 331.66 200.55 331.39 200.88C331.12 201.21 330.79 201.38 330.4 201.38C330.01 201.38 329.69 201.21 329.41 200.88Z" fill="#FFC700"/>
<path d="M450.7 42.24C450.23 41.82 450 41.22 450 40.45C450 39.67 450.23 39.07 450.7 38.64C451.17 38.21 451.72 38 452.35 38C452.98 38 453.53 38.21 454 38.64C454.47 39.07 454.7 39.67 454.7 40.45C454.7 41.23 454.47 41.83 454 42.24C453.53 42.66 452.98 42.87 452.35 42.87C451.72 42.87 451.17 42.66 450.7 42.24Z" fill="#FFC700"/>
<path d="M667.37 142.53L664.1 136.02L654.55 140.81L650.15 132.05L649 108.85L656.68 105L666.14 123.85L668.61 122.61L673.08 131.52L670.61 132.76L673.88 139.27L667.37 142.53ZM660.04 126.9L655.3 117.45L656.02 128.91L660.04 126.9Z" fill="#FFC700"/>
<path d="M865.15 77L860.06 87.78L860.92 88.18L860.04 90.05L859.18 89.65L858.26 91.6L857.08 91.04L858 89.09L854 87.2L865.15 77ZM857.04 86.35L858.89 87.22L861.06 82.63L857.04 86.35Z" fill="#FFC700"/>
<path d="M793.25 65L795.02 74.01L795.74 73.87L796.05 75.43L795.33 75.57L795.65 77.2L794.66 77.39L794.34 75.76L791 76.43L793.25 65ZM792.49 74.51L794.04 74.21L793.29 70.37L792.49 74.51Z" fill="#FFC700"/>
<path d="M828.85 144L818.79 176.24L822.76 177.48L821.02 183.07L817.05 181.83L815.24 187.65L809.76 185.94L811.57 180.12L793 174.33L828.85 144ZM804.73 171.86L813.32 174.54L817.6 160.81L804.73 171.86Z" fill="#FFC700"/>
<path d="M715.76 193.33L714.24 187.59L704.31 190.22L703 185.3L707.43 169.93L714.71 168L718.2 181.16L720.66 180.51L721.99 185.54L719.53 186.19L721.05 191.93L715.76 193.33ZM712.9 182.56L710.68 174.19L708.01 183.86L712.9 182.56Z" fill="#FFC700"/>
<path d="M773 150.16L773.04 147.25L768 147.17L768.04 144.67L772.18 138L775.88 138.06L775.78 144.74L777.03 144.76L776.99 147.31L775.74 147.29L775.7 150.21L773 150.16ZM773.08 144.69L773.14 140.44L770.59 144.65L773.08 144.69Z" fill="#FFC700"/>
<path d="M763.17 45L758 63.9L760.33 64.54L759.43 67.82L757.1 67.18L756.17 70.59L752.96 69.71L753.89 66.3L743 63.32L763.17 45ZM749.75 61.64L754.78 63.02L756.98 54.97L749.75 61.64Z" fill="#FFC700"/>
<path d="M826.26 226.23L830.39 221.96L823 214.82L826.54 211.16L841.99 207L847.41 212.23L837.95 222.02L839.78 223.79L836.17 227.53L834.34 225.76L830.21 230.03L826.26 226.23ZM834 218.22L840.02 211.99L830.36 214.71L834 218.22Z" fill="#FFC700"/>
<path d="M680.7 104.24C680.23 103.82 680 103.22 680 102.45C680 101.68 680.23 101.07 680.7 100.64C681.17 100.21 681.72 100 682.35 100C682.98 100 683.53 100.21 684 100.64C684.47 101.07 684.7 101.67 684.7 102.45C684.7 103.23 684.47 103.83 684 104.24C683.53 104.66 682.98 104.87 682.35 104.87C681.71 104.87 681.16 104.65 680.7 104.24Z" fill="#FFC700"/>
<path d="M792.41 126.88C792.14 126.55 792 126.15 792 125.69C792 125.23 792.14 124.83 792.41 124.5C792.68 124.17 793.01 124 793.4 124C793.79 124 794.11 124.17 794.39 124.5C794.67 124.83 794.8 125.23 794.8 125.69C794.8 126.15 794.66 126.55 794.39 126.88C794.12 127.21 793.79 127.38 793.4 127.38C793.01 127.38 792.68 127.21 792.41 126.88Z" fill="#FFC700"/>
<path d="M814.41 47.88C814.14 47.55 814 47.15 814 46.69C814 46.23 814.14 45.83 814.41 45.5C814.68 45.17 815.01 45 815.4 45C815.79 45 816.11 45.17 816.39 45.5C816.67 45.83 816.8 46.23 816.8 46.69C816.8 47.15 816.66 47.55 816.39 47.88C816.12 48.21 815.79 48.38 815.4 48.38C815.01 48.38 814.69 48.21 814.41 47.88Z" fill="#FFC700"/>
<path d="M685.52 208.12C685.18 207.81 685 207.37 685 206.8C685 206.23 685.17 205.78 685.52 205.47C685.86 205.16 686.27 205 686.73 205C687.19 205 687.6 205.16 687.95 205.47C688.29 205.78 688.46 206.23 688.46 206.8C688.46 207.37 688.29 207.81 687.95 208.12C687.61 208.43 687.2 208.58 686.73 208.58C686.26 208.58 685.86 208.43 685.52 208.12Z" fill="#FFC700"/>
<path d="M844.52 167.12C844.18 166.81 844 166.37 844 165.8C844 165.23 844.17 164.78 844.52 164.47C844.86 164.16 845.27 164 845.73 164C846.19 164 846.6 164.16 846.95 164.47C847.29 164.78 847.46 165.23 847.46 165.8C847.46 166.37 847.29 166.81 846.95 167.12C846.61 167.43 846.2 167.58 845.73 167.58C845.26 167.58 844.86 167.43 844.52 167.12Z" fill="#FFC700"/>
<path d="M583.27 61.86C583.09 61.64 583 61.38 583 61.09C583 60.79 583.09 60.54 583.27 60.32C583.45 60.1 583.66 60 583.91 60C584.16 60 584.37 60.11 584.55 60.32C584.73 60.53 584.82 60.79 584.82 61.09C584.82 61.39 584.73 61.64 584.55 61.86C584.37 62.07 584.16 62.18 583.91 62.18C583.66 62.18 583.45 62.07 583.27 61.86Z" fill="#FFC700"/>
<path d="M617.41 186.88C617.14 186.55 617 186.15 617 185.69C617 185.23 617.14 184.83 617.41 184.5C617.68 184.17 618.01 184 618.4 184C618.79 184 619.11 184.17 619.39 184.5C619.67 184.83 619.8 185.23 619.8 185.69C619.8 186.15 619.66 186.55 619.39 186.88C619.12 187.21 618.79 187.38 618.4 187.38C618.01 187.38 617.69 187.21 617.41 186.88Z" fill="#FFC700"/>
<path d="M732.7 35.24C732.23 34.82 732 34.22 732 33.45C732 32.67 732.23 32.07 732.7 31.64C733.17 31.21 733.72 31 734.35 31C734.98 31 735.53 31.21 736 31.64C736.47 32.07 736.7 32.67 736.7 33.45C736.7 34.23 736.47 34.83 736 35.24C735.53 35.66 734.98 35.87 734.35 35.87C733.72 35.87 733.17 35.66 732.7 35.24Z" fill="#FFC700"/>
<g clip-path="url(#clip1)">
<path d="M952.37 128.53L949.1 122.02L939.55 126.81L935.15 118.05L934 94.85L941.68 91L951.14 109.85L953.61 108.61L958.08 117.52L955.61 118.76L958.88 125.27L952.37 128.53ZM945.04 112.9L940.3 103.45L941.02 114.91L945.04 112.9Z" fill="#FFC700"/>
<path d="M1156.15 67L1151.06 77.78L1151.92 78.18L1151.04 80.05L1150.18 79.65L1149.26 81.6L1148.08 81.04L1149 79.09L1145 77.2L1156.15 67ZM1148.04 76.35L1149.89 77.22L1152.06 72.63L1148.04 76.35Z" fill="#FFC700"/>
<path d="M1086.25 55L1088.02 64.01L1088.74 63.87L1089.05 65.43L1088.33 65.57L1088.65 67.2L1087.66 67.39L1087.34 65.76L1084 66.43L1086.25 55ZM1085.49 64.51L1087.04 64.21L1086.29 60.37L1085.49 64.51Z" fill="#FFC700"/>
<path d="M1125.85 129L1115.79 161.24L1119.76 162.48L1118.02 168.07L1114.05 166.83L1112.24 172.65L1106.76 170.94L1108.57 165.12L1090 159.33L1125.85 129ZM1101.73 156.86L1110.32 159.54L1114.6 145.81L1101.73 156.86Z" fill="#FFC700"/>
<path d="M1004.76 180.33L1003.24 174.59L993.31 177.22L992 172.3L996.43 156.93L1003.71 155L1007.2 168.16L1009.66 167.51L1010.99 172.54L1008.53 173.19L1010.05 178.93L1004.76 180.33ZM1001.9 169.56L999.68 161.19L997.01 170.86L1001.9 169.56Z" fill="#FFC700"/>
<path d="M1067 135.16L1067.04 132.25L1062 132.17L1062.04 129.67L1066.18 123L1069.88 123.06L1069.78 129.74L1071.03 129.76L1070.99 132.31L1069.74 132.29L1069.7 135.21L1067 135.16ZM1067.08 129.69L1067.14 125.44L1064.59 129.65L1067.08 129.69Z" fill="#FFC700"/>
<path d="M1121.26 207.23L1125.39 202.96L1118 195.82L1121.54 192.16L1136.99 188L1142.41 193.23L1132.95 203.02L1134.78 204.79L1131.17 208.53L1129.34 206.76L1125.21 211.03L1121.26 207.23ZM1129 199.22L1135.02 192.99L1125.36 195.71L1129 199.22Z" fill="#FFC700"/>
<path d="M980.7 77.24C980.23 76.82 980 76.22 980 75.45C980 74.68 980.23 74.07 980.7 73.64C981.17 73.21 981.72 73 982.35 73C982.98 73 983.53 73.21 984 73.64C984.47 74.07 984.7 74.67 984.7 75.45C984.7 76.23 984.47 76.83 984 77.24C983.53 77.66 982.98 77.87 982.35 77.87C981.71 77.87 981.16 77.65 980.7 77.24Z" fill="#FFC700"/>
<path d="M1083.41 114.88C1083.14 114.55 1083 114.15 1083 113.69C1083 113.23 1083.14 112.83 1083.41 112.5C1083.68 112.17 1084.01 112 1084.4 112C1084.79 112 1085.11 112.17 1085.39 112.5C1085.67 112.83 1085.8 113.23 1085.8 113.69C1085.8 114.15 1085.66 114.55 1085.39 114.88C1085.12 115.21 1084.79 115.38 1084.4 115.38C1084.01 115.38 1083.68 115.21 1083.41 114.88Z" fill="#FFC700"/>
<path d="M982.52 185.12C982.18 184.81 982 184.37 982 183.8C982 183.23 982.17 182.78 982.52 182.47C982.86 182.16 983.27 182 983.73 182C984.19 182 984.6 182.16 984.95 182.47C985.29 182.78 985.46 183.23 985.46 183.8C985.46 184.37 985.29 184.81 984.95 185.12C984.61 185.43 984.2 185.58 983.73 185.58C983.26 185.58 982.86 185.43 982.52 185.12Z" fill="#FFC700"/>
<path d="M1139.52 160.12C1139.18 159.81 1139 159.37 1139 158.8C1139 158.23 1139.17 157.78 1139.52 157.47C1139.86 157.16 1140.27 157 1140.73 157C1141.19 157 1141.6 157.16 1141.95 157.47C1142.29 157.78 1142.46 158.23 1142.46 158.8C1142.46 159.37 1142.29 159.81 1141.95 160.12C1141.61 160.43 1141.2 160.58 1140.73 160.58C1140.26 160.58 1139.86 160.43 1139.52 160.12Z" fill="#FFC700"/>
<path d="M878.27 48.86C878.09 48.64 878 48.38 878 48.09C878 47.79 878.09 47.54 878.27 47.32C878.45 47.1 878.66 47 878.91 47C879.16 47 879.37 47.11 879.55 47.32C879.73 47.53 879.82 47.79 879.82 48.09C879.82 48.39 879.73 48.64 879.55 48.86C879.37 49.07 879.16 49.18 878.91 49.18C878.66 49.18 878.45 49.07 878.27 48.86Z" fill="#FFC700"/>
<path d="M918.41 161.88C918.14 161.55 918 161.15 918 160.69C918 160.23 918.14 159.83 918.41 159.5C918.68 159.17 919.01 159 919.4 159C919.79 159 920.11 159.17 920.39 159.5C920.67 159.83 920.8 160.23 920.8 160.69C920.8 161.15 920.66 161.55 920.39 161.88C920.12 162.21 919.79 162.38 919.4 162.38C919.01 162.38 918.69 162.21 918.41 161.88Z" fill="#FFC700"/>
</g>
<path d="M1111.41 33.88C1111.14 33.55 1111 33.15 1111 32.69C1111 32.23 1111.14 31.83 1111.41 31.5C1111.68 31.17 1112.01 31 1112.4 31C1112.79 31 1113.11 31.17 1113.39 31.5C1113.67 31.83 1113.8 32.23 1113.8 32.69C1113.8 33.15 1113.66 33.55 1113.39 33.88C1113.12 34.21 1112.79 34.38 1112.4 34.38C1112.01 34.38 1111.69 34.21 1111.41 33.88Z" fill="#FFC700"/>
<path d="M1022.7 27.24C1022.23 26.82 1022 26.22 1022 25.45C1022 24.67 1022.23 24.07 1022.7 23.64C1023.17 23.21 1023.72 23 1024.35 23C1024.98 23 1025.53 23.21 1026 23.64C1026.47 24.07 1026.7 24.67 1026.7 25.45C1026.7 26.23 1026.47 26.83 1026 27.24C1025.53 27.66 1024.98 27.87 1024.35 27.87C1023.72 27.87 1023.17 27.66 1022.7 27.24Z" fill="#FFC700"/>
<path d="M1057.17 37L1052 55.9L1054.33 56.54L1053.43 59.82L1051.1 59.18L1050.17 62.59L1046.96 61.71L1047.89 58.3L1037 55.32L1057.17 37ZM1043.75 53.64L1048.78 55.02L1050.98 46.97L1043.75 53.64Z" fill="#FFC700"/>
<path d="M1245.37 112.53L1242.1 106.02L1232.55 110.81L1228.15 102.05L1227 78.85L1234.68 75L1244.14 93.85L1246.61 92.61L1251.08 101.52L1248.61 102.76L1251.88 109.27L1245.37 112.53ZM1238.04 96.9L1233.3 87.45L1234.02 98.91L1238.04 96.9Z" fill="#FFC700"/>
<path d="M1442.15 54L1437.06 64.78L1437.92 65.18L1437.04 67.05L1436.18 66.65L1435.26 68.6L1434.08 68.04L1435 66.09L1431 64.2L1442.15 54ZM1434.04 63.35L1435.89 64.22L1438.06 59.63L1434.04 63.35Z" fill="#FFC700"/>
<path d="M1376.25 46L1378.02 55.01L1378.74 54.87L1379.05 56.43L1378.33 56.57L1378.65 58.2L1377.66 58.39L1377.34 56.76L1374 57.43L1376.25 46ZM1375.49 55.51L1377.04 55.21L1376.29 51.37L1375.49 55.51Z" fill="#FFC700"/>
<path d="M1418.85 113L1408.79 145.24L1412.76 146.48L1411.02 152.07L1407.05 150.83L1405.24 156.65L1399.76 154.94L1401.57 149.12L1383 143.33L1418.85 113ZM1394.73 140.86L1403.32 143.54L1407.6 129.81L1394.73 140.86Z" fill="#FFC700"/>
<path d="M1289.76 163.33L1288.24 157.59L1278.31 160.22L1277 155.3L1281.43 139.93L1288.71 138L1292.2 151.16L1294.66 150.51L1295.99 155.54L1293.53 156.19L1295.05 161.93L1289.76 163.33ZM1286.9 152.56L1284.68 144.19L1282.01 153.86L1286.9 152.56Z" fill="#FFC700"/>
<path d="M1353 125.16L1353.04 122.25L1348 122.17L1348.04 119.67L1352.18 113L1355.88 113.06L1355.78 119.74L1357.03 119.76L1356.99 122.31L1355.74 122.29L1355.7 125.21L1353 125.16ZM1353.08 119.69L1353.14 115.44L1350.59 119.65L1353.08 119.69Z" fill="#FFC700"/>
<path d="M1410.26 195.23L1414.39 190.96L1407 183.82L1410.54 180.16L1425.99 176L1431.41 181.23L1421.95 191.02L1423.78 192.79L1420.17 196.53L1418.34 194.76L1414.21 199.03L1410.26 195.23ZM1418 187.22L1424.02 180.99L1414.36 183.71L1418 187.22Z" fill="#FFC700"/>
<path d="M1275.7 65.24C1275.23 64.82 1275 64.22 1275 63.45C1275 62.68 1275.23 62.07 1275.7 61.64C1276.17 61.21 1276.72 61 1277.35 61C1277.98 61 1278.53 61.21 1279 61.64C1279.47 62.07 1279.7 62.67 1279.7 63.45C1279.7 64.23 1279.47 64.83 1279 65.24C1278.53 65.66 1277.98 65.87 1277.35 65.87C1276.71 65.87 1276.16 65.65 1275.7 65.24Z" fill="#FFC700"/>
<path d="M1364.87 137.1C1364.6 136.77 1364.46 136.37 1364.46 135.91C1364.46 135.45 1364.6 135.05 1364.87 134.72C1365.14 134.39 1365.47 134.22 1365.86 134.22C1366.25 134.22 1366.57 134.39 1366.85 134.72C1367.13 135.05 1367.26 135.45 1367.26 135.91C1367.26 136.37 1367.12 136.77 1366.85 137.1C1366.58 137.43 1366.25 137.6 1365.86 137.6C1365.47 137.6 1365.14 137.43 1364.87 137.1Z" fill="#FFC700"/>
<path d="M1275.52 171.12C1275.18 170.81 1275 170.37 1275 169.8C1275 169.23 1275.17 168.78 1275.52 168.47C1275.86 168.16 1276.27 168 1276.73 168C1277.19 168 1277.6 168.16 1277.95 168.47C1278.29 168.78 1278.46 169.23 1278.46 169.8C1278.46 170.37 1278.29 170.81 1277.95 171.12C1277.61 171.43 1277.2 171.58 1276.73 171.58C1276.26 171.58 1275.86 171.43 1275.52 171.12Z" fill="#FFC700"/>
<path d="M1434.52 146.12C1434.18 145.81 1434 145.37 1434 144.8C1434 144.23 1434.17 143.78 1434.52 143.47C1434.86 143.16 1435.27 143 1435.73 143C1436.19 143 1436.6 143.16 1436.95 143.47C1437.29 143.78 1437.46 144.23 1437.46 144.8C1437.46 145.37 1437.29 145.81 1436.95 146.12C1436.61 146.43 1436.2 146.58 1435.73 146.58C1435.26 146.58 1434.86 146.43 1434.52 146.12Z" fill="#FFC700"/>
<path d="M1216.41 144.88C1216.14 144.55 1216 144.15 1216 143.69C1216 143.23 1216.14 142.83 1216.41 142.5C1216.68 142.17 1217.01 142 1217.4 142C1217.79 142 1218.11 142.17 1218.39 142.5C1218.67 142.83 1218.8 143.23 1218.8 143.69C1218.8 144.15 1218.66 144.55 1218.39 144.88C1218.12 145.21 1217.79 145.38 1217.4 145.38C1217.01 145.38 1216.69 145.21 1216.41 144.88Z" fill="#FFC700"/>
<path d="M1390.41 34.88C1390.14 34.55 1390 34.15 1390 33.69C1390 33.23 1390.14 32.83 1390.41 32.5C1390.68 32.17 1391.01 32 1391.4 32C1391.79 32 1392.11 32.17 1392.39 32.5C1392.67 32.83 1392.8 33.23 1392.8 33.69C1392.8 34.15 1392.66 34.55 1392.39 34.88C1392.12 35.21 1391.79 35.38 1391.4 35.38C1391.01 35.38 1390.69 35.21 1390.41 34.88Z" fill="#FFC700"/>
<path d="M1178.27 29.86C1178.09 29.64 1178 29.38 1178 29.09C1178 28.79 1178.09 28.54 1178.27 28.32C1178.45 28.1 1178.66 28 1178.91 28C1179.16 28 1179.37 28.11 1179.55 28.32C1179.73 28.53 1179.82 28.79 1179.82 29.09C1179.82 29.39 1179.73 29.64 1179.55 29.86C1179.37 30.07 1179.16 30.18 1178.91 30.18C1178.66 30.18 1178.45 30.07 1178.27 29.86Z" fill="#FFC700"/>
<path d="M1313.7 4.24C1313.23 3.82 1313 3.22 1313 2.45C1313 1.67 1313.23 1.07 1313.7 0.64C1314.17 0.21 1314.72 0 1315.35 0C1315.98 0 1316.53 0.21 1317 0.64C1317.47 1.07 1317.7 1.67 1317.7 2.45C1317.7 3.23 1317.47 3.83 1317 4.24C1316.53 4.66 1315.98 4.87 1315.35 4.87C1314.72 4.87 1314.17 4.66 1313.7 4.24Z" fill="#FFC700"/>
<path d="M1353.17 8L1348 26.9L1350.33 27.54L1349.43 30.82L1347.1 30.18L1346.17 33.59L1342.96 32.71L1343.89 29.3L1333 26.32L1353.17 8ZM1339.75 24.64L1344.78 26.02L1346.98 17.97L1339.75 24.64Z" fill="#FFC700"/>
<defs>
<clipPath id="clip0">
<rect width="288.52" height="211.74" fill="white" transform="translate(0 43)"/>
</clipPath>
<clipPath id="clip1">
<rect width="288.52" height="211.74" fill="white" transform="translate(867 43)"/>
</clipPath>
</defs>
</svg>
