<?xml version="1.0" encoding="utf-8"?>
<!-- Generator: Adobe Illustrator 24.0.1, SVG Export Plug-In . SVG Version: 6.00 Build 0)  -->
<svg version="1.1" id="Слой_1" xmlns="http://www.w3.org/2000/svg" xmlns:xlink="http://www.w3.org/1999/xlink" x="0px" y="0px"
	 viewBox="0 0 1445 255" style="enable-background:new 0 0 1445 255;" xml:space="preserve">
<style type="text/css">
	.st0{clip-path:url(#SVGID_2_);}
	.st1{fill:#8768E1;}
	.st2{fill:#FFC700;}
</style>
<g>
	<defs>
		<rect id="SVGID_1_" y="45" width="289" height="210"/>
	</defs>
	<clipPath id="SVGID_2_">
		<use xlink:href="#SVGID_1_"  style="overflow:visible;"/>
	</clipPath>
	<g class="st0">
		<path class="st1" d="M87.1,180.6l-12.5-24.8l-3.1,1.5l-4.8-9.4l10.1-5l17.3,34.2L87.1,180.6z"/>
		<path class="st1" d="M281.3,109.1l5.6-11.7l-1.4-0.7l1.6-1.6l2,0.9l-6.5,13.6L281.3,109.1z"/>
		<path class="st1" d="M208.1,94.7l-1.9-9.8l-1.2,0.2l0.3-1.7l1.7-0.3l2.3,11.4L208.1,94.7z"/>
		<path class="st1" d="M216.6,204.2l11-35l-6.5-2l4.9-4.7l9.2,2.8l-12.8,40.7L216.6,204.2z"/>
		<path class="st1" d="M137,224l-4.9-18.4l-3.4,0.9l-1.5-5.5l9.1-2.4l6.4,23.9L137,224z"/>
		<path class="st1" d="M189.7,171.7l0.1-9.4l-1.7,0l0-2.8l4.6,0.1l-0.2,12.1L189.7,171.7z"/>
		<path class="st1" d="M172.4,83.6l5.7-20.5l-3.8-1l2.8-2.8l5.4,1.5l-6.6,23.9L172.4,83.6z"/>
		<path class="st1" d="M239.8,250.9l13.3-13.7l-2.5-2.4l4-4.1l6.8,6.5L244,255L239.8,250.9z"/>
		<path class="st1" d="M97.2,124.9c-0.5-0.4-0.7-1-0.7-1.8c0-0.8,0.2-1.4,0.7-1.8c0.5-0.4,1-0.6,1.7-0.6c0.6,0,1.2,0.2,1.7,0.6
			c0.5,0.4,0.7,1,0.7,1.8s-0.2,1.4-0.7,1.8c-0.5,0.4-1,0.6-1.7,0.6C98.3,125.6,97.7,125.4,97.2,124.9z"/>
		<path class="st1" d="M158.8,49.2c-0.5-0.4-0.7-1-0.7-1.8c0-0.8,0.2-1.4,0.7-1.8c0.5-0.4,1-0.6,1.7-0.6c0.6,0,1.2,0.2,1.7,0.6
			c0.5,0.4,0.7,1,0.7,1.8s-0.2,1.4-0.7,1.8c-0.5,0.4-1,0.6-1.7,0.6C159.9,49.9,159.3,49.7,158.8,49.2z"/>
		<path class="st1" d="M210.4,139c-0.3-0.3-0.4-0.7-0.4-1.2c0-0.5,0.1-0.9,0.4-1.2c0.3-0.3,0.6-0.5,1-0.5c0.4,0,0.7,0.2,1,0.5
			c0.3,0.3,0.4,0.7,0.4,1.2c0,0.5-0.1,0.9-0.4,1.2c-0.3,0.3-0.6,0.5-1,0.5C211,139.5,210.7,139.3,210.4,139z"/>
		<path class="st1" d="M228.9,59.1c-0.3-0.3-0.4-0.7-0.4-1.2c0-0.5,0.1-0.9,0.4-1.2s0.6-0.5,1-0.5c0.4,0,0.7,0.2,1,0.5
			s0.4,0.7,0.4,1.2c0,0.5-0.1,0.9-0.4,1.2s-0.6,0.5-1,0.5C229.5,59.6,229.2,59.4,228.9,59.1z"/>
		<path class="st1" d="M96.7,242.3c-0.3-0.3-0.5-0.7-0.5-1.3c0-0.6,0.2-1,0.5-1.3c0.3-0.3,0.8-0.5,1.2-0.5c0.5,0,0.9,0.2,1.2,0.5
			c0.3,0.3,0.5,0.8,0.5,1.3c0,0.6-0.2,1-0.5,1.3c-0.3,0.3-0.8,0.5-1.2,0.5C97.5,242.8,97.1,242.6,96.7,242.3z"/>
		<path class="st1" d="M261.7,179.8c-0.3-0.3-0.5-0.8-0.5-1.3c0-0.6,0.2-1,0.5-1.3c0.3-0.3,0.8-0.5,1.2-0.5c0.5,0,0.9,0.2,1.2,0.5
			c0.3,0.3,0.5,0.8,0.5,1.3c0,0.6-0.2,1-0.5,1.3c-0.3,0.3-0.8,0.5-1.2,0.5C262.4,180.2,262,180.1,261.7,179.8z"/>
		<path class="st1" d="M0.3,77.8C0.1,77.6,0,77.4,0,77.1c0-0.3,0.1-0.5,0.3-0.8C0.5,76.1,0.7,76,0.9,76s0.5,0.1,0.6,0.3
			s0.3,0.5,0.3,0.8c0,0.3-0.1,0.5-0.3,0.8c-0.2,0.2-0.4,0.3-0.6,0.3S0.5,78,0.3,77.8z"/>
		<path class="st1" d="M34.5,217.8c-0.3-0.3-0.4-0.7-0.4-1.2c0-0.5,0.1-0.9,0.4-1.2c0.3-0.3,0.6-0.5,1-0.5c0.4,0,0.7,0.2,1,0.5
			c0.3,0.3,0.4,0.7,0.4,1.2c0,0.5-0.1,0.9-0.4,1.2s-0.6,0.5-1,0.5C35.1,218.3,34.8,218.2,34.5,217.8z"/>
	</g>
</g>
<path class="st1" d="M363.4,158.7l-12.5-24.8l-3.1,1.5L343,126l10.1-5l17.3,34.2L363.4,158.7z"/>
<path class="st1" d="M568,95.9l5.6-11.7l-1.4-0.7l1.6-1.6l2,0.9l-6.5,13.6L568,95.9z"/>
<path class="st1" d="M494.1,83.6l-1.9-9.8L491,74l0.3-1.7l1.7-0.3l2.3,11.4L494.1,83.6z"/>
<path class="st1" d="M510,185.7l11-35l-6.5-2l4.9-4.7l9.2,2.8l-12.8,40.7L510,185.7z"/>
<path class="st1" d="M420.8,206.4l-4.9-18.4l-3.4,0.9l-1.5-5.5l9.1-2.4l6.4,23.9L420.8,206.4z"/>
<path class="st1" d="M477.6,162.2l0.1-9.4l-1.7,0l0-2.8l4.6,0.1l-0.2,12.1L477.6,162.2z"/>
<path class="st1" d="M464,71.4l5.7-20.5l-3.8-1l2.8-2.8l5.4,1.5l-6.6,23.9L464,71.4z"/>
<path class="st1" d="M536,239.2l13.3-13.7l-2.5-2.4l4-4.1l6.8,6.5l-17.3,17.8L536,239.2z"/>
<path class="st1" d="M381.7,106.2c-0.5-0.4-0.7-1-0.7-1.8c0-0.8,0.2-1.4,0.7-1.8c0.5-0.4,1-0.6,1.7-0.6c0.6,0,1.2,0.2,1.7,0.6
	c0.5,0.4,0.7,1,0.7,1.8s-0.2,1.4-0.7,1.8c-0.5,0.4-1,0.6-1.7,0.6C382.7,106.9,382.2,106.6,381.7,106.2z"/>
<path class="st1" d="M497.4,128.9c-0.3-0.3-0.4-0.7-0.4-1.2c0-0.5,0.1-0.9,0.4-1.2c0.3-0.3,0.6-0.5,1-0.5s0.7,0.2,1,0.5
	c0.3,0.3,0.4,0.7,0.4,1.2c0,0.5-0.1,0.9-0.4,1.2c-0.3,0.3-0.6,0.5-1,0.5S497.7,129.2,497.4,128.9z"/>
<path class="st1" d="M521.4,52.9c-0.3-0.3-0.4-0.7-0.4-1.2c0-0.5,0.1-0.9,0.4-1.2c0.3-0.3,0.6-0.5,1-0.5c0.4,0,0.7,0.2,1,0.5
	c0.3,0.3,0.4,0.7,0.4,1.2c0,0.5-0.1,0.9-0.4,1.2c-0.3,0.3-0.6,0.5-1,0.5C522,53.4,521.7,53.2,521.4,52.9z"/>
<path class="st1" d="M387.5,234.1c-0.3-0.3-0.5-0.7-0.5-1.3c0-0.6,0.2-1,0.5-1.3c0.3-0.3,0.8-0.5,1.2-0.5c0.5,0,0.9,0.2,1.2,0.5
	c0.3,0.3,0.5,0.8,0.5,1.3c0,0.6-0.2,1-0.5,1.3c-0.3,0.3-0.8,0.5-1.2,0.5C388.3,234.6,387.9,234.4,387.5,234.1z"/>
<path class="st1" d="M555.5,171.1c-0.3-0.3-0.5-0.7-0.5-1.3c0-0.6,0.2-1,0.5-1.3c0.3-0.3,0.8-0.5,1.2-0.5c0.5,0,0.9,0.2,1.2,0.5
	c0.3,0.3,0.5,0.8,0.5,1.3c0,0.6-0.2,1-0.5,1.3c-0.3,0.3-0.8,0.5-1.2,0.5C556.3,171.6,555.9,171.4,555.5,171.1z"/>
<path class="st2" d="M292.3,68.8c-0.2-0.2-0.3-0.5-0.3-0.8c0-0.3,0.1-0.5,0.3-0.8c0.2-0.2,0.4-0.3,0.6-0.3c0.3,0,0.5,0.1,0.6,0.3
	c0.2,0.2,0.3,0.5,0.3,0.8c0,0.3-0.1,0.5-0.3,0.8c-0.2,0.2-0.4,0.3-0.6,0.3C292.7,69.2,292.5,69.1,292.3,68.8z"/>
<path class="st1" d="M320.4,206.9c-0.3-0.3-0.4-0.7-0.4-1.2c0-0.5,0.1-0.9,0.4-1.2c0.3-0.3,0.6-0.5,1-0.5s0.7,0.2,1,0.5
	c0.3,0.3,0.4,0.7,0.4,1.2c0,0.5-0.1,0.9-0.4,1.2c-0.3,0.3-0.6,0.5-1,0.5S320.7,207.2,320.4,206.9z"/>
<path class="st1" d="M442.7,36.2c-0.5-0.4-0.7-1-0.7-1.8c0-0.8,0.2-1.4,0.7-1.8c0.5-0.4,1-0.6,1.7-0.6c0.6,0,1.2,0.2,1.7,0.6
	c0.5,0.4,0.7,1,0.7,1.8s-0.2,1.4-0.7,1.8c-0.5,0.4-1,0.6-1.7,0.6C443.7,36.9,443.2,36.7,442.7,36.2z"/>
<path class="st1" d="M639.4,135.7l-12.5-24.8l-3.1,1.5L619,103l10.1-5l17.3,34.2L639.4,135.7z"/>
<path class="st1" d="M855,80.9l5.6-11.7l-1.4-0.7l1.6-1.6l2,0.9l-6.5,13.6L855,80.9z"/>
<path class="st1" d="M780.1,72.6l-1.9-9.8L777,63l0.3-1.7l1.7-0.3l2.3,11.4L780.1,72.6z"/>
<path class="st1" d="M803,167.7l11-35l-6.5-2l4.9-4.7l9.2,2.8l-12.8,40.7L803,167.7z"/>
<path class="st1" d="M705.8,192.4l-4.9-18.4l-3.4,0.9l-1.5-5.5l9.1-2.4l6.4,23.9L705.8,192.4z"/>
<path class="st1" d="M766.6,152.2l0.1-9.4l-1.7,0l0-2.8l4.6,0.1l-0.2,12.1L766.6,152.2z"/>
<path class="st1" d="M837,225.2l13.3-13.7l-2.5-2.4l4-4.1l6.8,6.5l-17.3,17.8L837,225.2z"/>
<path class="st1" d="M667.7,93.2c-0.5-0.4-0.7-1-0.7-1.8c0-0.8,0.2-1.4,0.7-1.8c0.5-0.4,1-0.6,1.7-0.6c0.6,0,1.2,0.2,1.7,0.6
	c0.5,0.4,0.7,1,0.7,1.8c0,0.8-0.2,1.4-0.7,1.8c-0.5,0.4-1,0.6-1.7,0.6C668.7,93.9,668.2,93.6,667.7,93.2z"/>
<path class="st1" d="M784.4,119.9c-0.3-0.3-0.4-0.7-0.4-1.2c0-0.5,0.1-0.9,0.4-1.2c0.3-0.3,0.6-0.5,1-0.5c0.4,0,0.7,0.2,1,0.5
	c0.3,0.3,0.4,0.7,0.4,1.2c0,0.5-0.1,0.9-0.4,1.2c-0.3,0.3-0.6,0.5-1,0.5C785,120.4,784.7,120.2,784.4,119.9z"/>
<path class="st1" d="M679.5,223.1c-0.3-0.3-0.5-0.7-0.5-1.3c0-0.6,0.2-1,0.5-1.3c0.3-0.3,0.8-0.5,1.2-0.5c0.5,0,0.9,0.2,1.2,0.5
	c0.3,0.3,0.5,0.8,0.5,1.3c0,0.6-0.2,1-0.5,1.3c-0.3,0.3-0.8,0.5-1.2,0.5C680.3,223.6,679.9,223.4,679.5,223.1z"/>
<path class="st1" d="M850.5,163.1c-0.3-0.3-0.5-0.7-0.5-1.3c0-0.6,0.2-1,0.5-1.3c0.3-0.3,0.8-0.5,1.2-0.5c0.5,0,0.9,0.2,1.2,0.5
	c0.3,0.3,0.5,0.8,0.5,1.3c0,0.6-0.2,1-0.5,1.3c-0.3,0.3-0.8,0.5-1.2,0.5C851.3,163.6,850.9,163.4,850.5,163.1z"/>
<path class="st1" d="M584.3,60.8c-0.2-0.2-0.3-0.5-0.3-0.8c0-0.3,0.1-0.5,0.3-0.8c0.2-0.2,0.4-0.3,0.6-0.3c0.3,0,0.5,0.1,0.6,0.3
	c0.2,0.2,0.3,0.5,0.3,0.8c0,0.3-0.1,0.5-0.3,0.8c-0.2,0.2-0.4,0.3-0.6,0.3C584.7,61.2,584.5,61.1,584.3,60.8z"/>
<path class="st1" d="M605.4,194.9c-0.3-0.3-0.4-0.7-0.4-1.2c0-0.5,0.1-0.9,0.4-1.2c0.3-0.3,0.6-0.5,1-0.5c0.4,0,0.7,0.2,1,0.5
	c0.3,0.3,0.4,0.7,0.4,1.2c0,0.5-0.1,0.9-0.4,1.2c-0.3,0.3-0.6,0.5-1,0.5C606,195.4,605.7,195.2,605.4,194.9z"/>
<path class="st1" d="M814.4,44.9c-0.3-0.3-0.4-0.7-0.4-1.2c0-0.5,0.1-0.9,0.4-1.2c0.3-0.3,0.6-0.5,1-0.5c0.4,0,0.7,0.2,1,0.5
	c0.3,0.3,0.4,0.7,0.4,1.2c0,0.5-0.1,0.9-0.4,1.2c-0.3,0.3-0.6,0.5-1,0.5C815,45.4,814.7,45.2,814.4,44.9z"/>
<path class="st1" d="M756,58.4l5.7-20.5l-3.8-1l2.8-2.8l5.4,1.5l-6.6,23.9L756,58.4z"/>
<path class="st1" d="M732.7,38.2c-0.5-0.4-0.7-1-0.7-1.8c0-0.8,0.2-1.4,0.7-1.8c0.5-0.4,1-0.6,1.7-0.6c0.6,0,1.2,0.2,1.7,0.6
	c0.5,0.4,0.7,1,0.7,1.8s-0.2,1.4-0.7,1.8c-0.5,0.4-1,0.6-1.7,0.6C733.7,38.9,733.2,38.7,732.7,38.2z"/>
<path class="st1" d="M918.4,117.7l-12.5-24.8l-3.1,1.5L898,85l10.1-5l17.3,34.2L918.4,117.7z"/>
<path class="st1" d="M1146,62.9l5.6-11.7l-1.4-0.7l1.6-1.6l2,0.9l-6.5,13.6L1146,62.9z"/>
<path class="st1" d="M1068.1,70.6l-1.9-9.8L1065,61l0.2-1.7l1.7-0.3l2.3,11.4L1068.1,70.6z"/>
<path class="st1" d="M1099,145.7l11-35l-6.5-2l4.9-4.7l9.2,2.8l-12.8,40.7L1099,145.7z"/>
<path class="st1" d="M989.8,178.4l-4.9-18.4l-3.4,0.9l-1.5-5.5l9.1-2.4l6.4,23.9L989.8,178.4z"/>
<path class="st1" d="M1054.6,140.2l0.1-9.4l-1.7,0l0-2.8l4.6,0.1l-0.2,12.1L1054.6,140.2z"/>
<path class="st1" d="M1039.4,83.6l5.7-20.5l-3.8-1l2.8-2.8l5.4,1.5l-6.6,23.9L1039.4,83.6z"/>
<path class="st1" d="M1130,219.2l13.3-13.7l-2.5-2.4l4-4.1l6.8,6.5l-17.3,17.8L1130,219.2z"/>
<path class="st1" d="M952.7,82.2c-0.5-0.4-0.7-1-0.7-1.8c0-0.8,0.2-1.4,0.7-1.8c0.5-0.4,1-0.6,1.7-0.6c0.6,0,1.2,0.2,1.7,0.6
	c0.5,0.4,0.7,1,0.7,1.8c0,0.8-0.2,1.4-0.7,1.8c-0.5,0.4-1,0.6-1.7,0.6C953.7,82.9,953.2,82.6,952.7,82.2z"/>
<path class="st1" d="M1069.4,106.9c-0.3-0.3-0.4-0.7-0.4-1.2c0-0.5,0.1-0.9,0.4-1.2c0.3-0.3,0.6-0.5,1-0.5s0.7,0.2,1,0.5
	c0.3,0.3,0.4,0.7,0.4,1.2c0,0.5-0.1,0.9-0.4,1.2c-0.3,0.3-0.6,0.5-1,0.5S1069.7,107.2,1069.4,106.9z"/>
<path class="st1" d="M971.5,212.1c-0.3-0.3-0.5-0.7-0.5-1.3c0-0.6,0.2-1,0.5-1.3c0.3-0.3,0.8-0.5,1.2-0.5c0.5,0,0.9,0.2,1.2,0.5
	c0.3,0.3,0.5,0.8,0.5,1.3c0,0.6-0.2,1-0.5,1.3c-0.3,0.3-0.8,0.5-1.2,0.5C972.3,212.6,971.9,212.4,971.5,212.1z"/>
<path class="st1" d="M1141.5,156.1c-0.3-0.3-0.5-0.7-0.5-1.3c0-0.6,0.2-1,0.5-1.3c0.3-0.3,0.8-0.5,1.2-0.5c0.5,0,0.9,0.2,1.2,0.5
	c0.3,0.3,0.5,0.8,0.5,1.3c0,0.6-0.2,1-0.5,1.3c-0.3,0.3-0.8,0.5-1.2,0.5C1142.3,156.6,1141.9,156.4,1141.5,156.1z"/>
<path class="st1" d="M889.4,183.9c-0.3-0.3-0.4-0.7-0.4-1.2c0-0.5,0.1-0.9,0.4-1.2c0.3-0.3,0.6-0.5,1-0.5c0.4,0,0.7,0.2,1,0.5
	c0.3,0.3,0.4,0.7,0.4,1.2c0,0.5-0.1,0.9-0.4,1.2c-0.3,0.3-0.6,0.5-1,0.5C890,184.4,889.7,184.2,889.4,183.9z"/>
<path class="st1" d="M880.3,41.8c-0.2-0.2-0.3-0.5-0.3-0.8c0-0.3,0.1-0.5,0.3-0.8c0.2-0.2,0.4-0.3,0.6-0.3c0.3,0,0.5,0.1,0.6,0.3
	c0.2,0.2,0.3,0.5,0.3,0.8c0,0.3-0.1,0.5-0.3,0.8c-0.2,0.2-0.4,0.3-0.6,0.3C880.7,42.2,880.5,42.1,880.3,41.8z"/>
<path class="st1" d="M1016.7,16.2c-0.5-0.4-0.7-1-0.7-1.8c0-0.8,0.2-1.4,0.7-1.8c0.5-0.4,1-0.6,1.7-0.6c0.6,0,1.2,0.2,1.7,0.6
	c0.5,0.4,0.7,1,0.7,1.8s-0.2,1.4-0.7,1.8c-0.5,0.4-1,0.6-1.7,0.6C1017.7,16.9,1017.2,16.7,1016.7,16.2z"/>
<path class="st1" d="M1092.4,19.9c-0.3-0.3-0.4-0.7-0.4-1.2c0-0.5,0.1-0.9,0.4-1.2c0.3-0.3,0.6-0.5,1-0.5s0.7,0.2,1,0.5
	c0.3,0.3,0.4,0.7,0.4,1.2c0,0.5-0.1,0.9-0.4,1.2c-0.3,0.3-0.6,0.5-1,0.5S1092.7,20.2,1092.4,19.9z"/>
<path class="st1" d="M1198.4,101.7l-12.5-24.8l-3.1,1.5L1178,69l10.1-5l17.3,34.2L1198.4,101.7z"/>
<path class="st1" d="M1396,116.7l11-35l-6.5-2l4.9-4.7l9.2,2.8l-12.8,40.7L1396,116.7z"/>
<path class="st1" d="M1270.8,150.4l-4.9-18.4l-3.4,0.9l-1.5-5.5l9.2-2.4l6.4,23.9L1270.8,150.4z"/>
<path class="st1" d="M1344.6,125.2l0.1-9.4l-1.7,0l0-2.8l4.6,0.1l-0.2,12.1L1344.6,125.2z"/>
<path class="st1" d="M1423,204.2l13.3-13.7l-2.5-2.4l4-4.1l6.8,6.5l-17.3,17.8L1423,204.2z"/>
<path class="st1" d="M1233.7,57.2c-0.5-0.4-0.7-1-0.7-1.8c0-0.8,0.2-1.4,0.7-1.8c0.5-0.4,1-0.6,1.7-0.6c0.6,0,1.2,0.2,1.7,0.6
	c0.5,0.4,0.7,1,0.7,1.8s-0.2,1.4-0.7,1.8c-0.5,0.4-1,0.6-1.7,0.6C1234.7,57.9,1234.2,57.6,1233.7,57.2z"/>
<path class="st1" d="M1354.4,91.9c-0.3-0.3-0.4-0.7-0.4-1.2s0.1-0.9,0.4-1.2c0.3-0.3,0.6-0.5,1-0.5s0.7,0.2,1,0.5
	c0.3,0.3,0.4,0.7,0.4,1.2s-0.1,0.9-0.4,1.2c-0.3,0.3-0.6,0.5-1,0.5S1354.7,92.2,1354.4,91.9z"/>
<path class="st1" d="M1264.5,199.1c-0.3-0.3-0.5-0.7-0.5-1.3c0-0.6,0.2-1,0.5-1.3c0.3-0.3,0.8-0.5,1.2-0.5c0.5,0,0.9,0.2,1.2,0.5
	c0.3,0.3,0.5,0.8,0.5,1.3c0,0.6-0.2,1-0.5,1.3c-0.3,0.3-0.8,0.5-1.2,0.5C1265.3,199.6,1264.9,199.4,1264.5,199.1z"/>
<path class="st1" d="M1438.5,144.1c-0.3-0.3-0.5-0.7-0.5-1.3c0-0.6,0.2-1,0.5-1.3c0.3-0.3,0.8-0.5,1.2-0.5c0.5,0,0.9,0.2,1.2,0.5
	c0.3,0.3,0.5,0.8,0.5,1.3c0,0.6-0.2,1-0.5,1.3c-0.3,0.3-0.8,0.5-1.2,0.5C1439.3,144.6,1438.9,144.4,1438.5,144.1z"/>
<path class="st1" d="M1170.4,168.9c-0.3-0.3-0.4-0.7-0.4-1.2c0-0.5,0.1-0.9,0.4-1.2c0.3-0.3,0.6-0.5,1-0.5s0.7,0.2,1,0.5
	c0.3,0.3,0.4,0.7,0.4,1.2c0,0.5-0.1,0.9-0.4,1.2c-0.3,0.3-0.6,0.5-1,0.5S1170.7,169.2,1170.4,168.9z"/>
<path class="st1" d="M1433,35.9l5.6-11.7l-1.4-0.7l1.6-1.6l2,0.9l-6.5,13.6L1433,35.9z"/>
<path class="st1" d="M1408.4,7.9c-0.3-0.3-0.4-0.7-0.4-1.2c0-0.5,0.1-0.9,0.4-1.2s0.6-0.5,1-0.5s0.7,0.2,1,0.5
	c0.3,0.3,0.4,0.7,0.4,1.2c0,0.5-0.1,0.9-0.4,1.2c-0.3,0.3-0.6,0.5-1,0.5S1408.7,8.2,1408.4,7.9z"/>
<path class="st1" d="M1354.1,41.6l-1.9-9.8L1351,32l0.2-1.7l1.7-0.3l2.3,11.4L1354.1,41.6z"/>
<path class="st1" d="M1321.7,9.2c-0.5-0.4-0.7-1-0.7-1.8c0-0.8,0.2-1.4,0.7-1.8c0.5-0.4,1-0.6,1.7-0.6c0.6,0,1.2,0.2,1.7,0.6
	c0.5,0.4,0.7,1,0.7,1.8s-0.2,1.4-0.7,1.8c-0.5,0.4-1,0.6-1.7,0.6C1322.7,9.9,1322.2,9.7,1321.7,9.2z"/>
<path class="st1" d="M1336,50.4l5.7-20.5l-3.8-1l2.8-2.8l5.4,1.5l-6.6,23.9L1336,50.4z"/>
<path class="st1" d="M1181.3,21.8c-0.2-0.2-0.3-0.5-0.3-0.8c0-0.3,0.1-0.5,0.3-0.8c0.2-0.2,0.4-0.3,0.7-0.3c0.2,0,0.5,0.1,0.6,0.3
	c0.2,0.2,0.3,0.5,0.3,0.8c0,0.3-0.1,0.5-0.3,0.8c-0.2,0.2-0.4,0.3-0.6,0.3C1181.7,22.2,1181.4,22.1,1181.3,21.8z"/>
</svg>
