<?xml version="1.0" encoding="utf-8"?>
<!-- Generator: Adobe Illustrator 24.0.1, SVG Export Plug-In . SVG Version: 6.00 Build 0)  -->
<svg version="1.1" id="Слой_1" xmlns="http://www.w3.org/2000/svg" xmlns:xlink="http://www.w3.org/1999/xlink" x="0px" y="0px"
	 viewBox="0 0 1445 255" style="enable-background:new 0 0 1445 255;" xml:space="preserve">
<style type="text/css">
	.st0{clip-path:url(#SVGID_2_);}
	.st1{fill:#8768E1;}
	.st2{clip-path:url(#SVGID_4_);}
</style>
<g>
	<defs>
		<rect id="SVGID_1_" y="43" width="288.5" height="211.7"/>
	</defs>
	<clipPath id="SVGID_2_">
		<use xlink:href="#SVGID_1_"  style="overflow:visible;"/>
	</clipPath>
	<g class="st0">
		<path class="st1" d="M89,177.5l-3.3-6.5l-9.6,4.8l-4.4-8.8l-1.2-23.2l7.7-3.9l9.5,18.9l2.5-1.2l4.5,8.9l-2.5,1.2l3.3,6.5L89,177.5
			z M81.6,161.9l-4.7-9.5l0.7,11.5L81.6,161.9z"/>
		<path class="st1" d="M288.5,93.7l-5.1,10.8l0.9,0.4l-0.9,1.9l-0.9-0.4l-0.9,2l-1.2-0.6l0.9-1.9l-4-1.9L288.5,93.7z M280.4,103.1
			l1.9,0.9l2.2-4.6L280.4,103.1z"/>
		<path class="st1" d="M206.2,80.1l1.8,9l0.7-0.1l0.3,1.6l-0.7,0.1l0.3,1.6l-1,0.2l-0.3-1.6l-3.3,0.7L206.2,80.1z M205.5,89.7
			l1.5-0.3l-0.8-3.8L205.5,89.7z"/>
		<path class="st1" d="M239.8,162.2l-10.1,32.2l4,1.2l-1.7,5.6l-4-1.2l-1.8,5.8l-5.5-1.7l1.8-5.8l-18.6-5.8L239.8,162.2z
			 M215.7,190.1l8.6,2.7l4.3-13.7L215.7,190.1z"/>
		<path class="st1" d="M138.6,221.4l-1.5-5.7l-9.9,2.6l-1.3-4.9l4.4-15.4l7.3-1.9l3.5,13.2l2.5-0.6l1.3,5l-2.5,0.6l1.5,5.7
			L138.6,221.4z M135.7,210.7l-2.2-8.4l-2.7,9.7L135.7,210.7z"/>
		<path class="st1" d="M189.6,169.9l0-2.9l-5-0.1l0-2.5l4.1-6.7l3.7,0.1l-0.1,6.7l1.2,0l0,2.6l-1.2,0l0,2.9L189.6,169.9z
			 M189.7,164.4l0.1-4.2l-2.6,4.2L189.7,164.4z"/>
		<path class="st1" d="M184.7,57.9l-5.2,18.9l2.3,0.6l-0.9,3.3l-2.3-0.6l-0.9,3.4l-3.2-0.9l0.9-3.4l-10.9-3L184.7,57.9z M171.3,74.5
			l5,1.4l2.2-8.1L171.3,74.5z"/>
		<path class="st1" d="M239.9,250.9l4.1-4.3l-7.4-7.1l3.5-3.7l15.4-4.2l5.4,5.2l-9.5,9.8l1.8,1.8l-3.6,3.7l-1.8-1.8l-4.1,4.3
			L239.9,250.9z M247.7,242.9l6-6.2l-9.7,2.7L247.7,242.9z"/>
		<path class="st1" d="M96.5,123c-0.5-0.4-0.7-1-0.7-1.8c0-0.8,0.2-1.4,0.7-1.8c0.5-0.4,1-0.6,1.7-0.6s1.2,0.2,1.7,0.6
			c0.5,0.4,0.7,1,0.7,1.8s-0.2,1.4-0.7,1.8c-0.5,0.4-1,0.6-1.7,0.6C97.5,123.6,97,123.4,96.5,123z"/>
		<path class="st1" d="M157.7,47.2c-0.5-0.4-0.7-1-0.7-1.8c0-0.8,0.2-1.4,0.7-1.8s1-0.6,1.7-0.6c0.6,0,1.2,0.2,1.6,0.6
			s0.7,1,0.7,1.8c0,0.8-0.2,1.4-0.7,1.8c-0.5,0.4-1,0.6-1.6,0.6C158.7,47.9,158.2,47.7,157.7,47.2z"/>
		<path class="st1" d="M208.9,137.1c-0.3-0.3-0.4-0.7-0.4-1.2c0-0.5,0.1-0.9,0.4-1.2c0.3-0.3,0.6-0.5,1-0.5s0.7,0.2,1,0.5
			s0.4,0.7,0.4,1.2c0,0.5-0.1,0.9-0.4,1.2c-0.3,0.3-0.6,0.5-1,0.5S209.1,137.4,208.9,137.1z"/>
		<path class="st1" d="M227.2,57.1c-0.3-0.3-0.4-0.7-0.4-1.2s0.1-0.9,0.4-1.2c0.3-0.3,0.6-0.5,1-0.5s0.7,0.2,1,0.5
			c0.3,0.3,0.4,0.7,0.4,1.2s-0.1,0.9-0.4,1.2c-0.3,0.3-0.6,0.5-1,0.5S227.5,57.4,227.2,57.1z"/>
		<path class="st1" d="M96,240.5c-0.3-0.3-0.5-0.8-0.5-1.3c0-0.6,0.2-1,0.5-1.3c0.3-0.3,0.8-0.5,1.2-0.5s0.9,0.2,1.2,0.5
			c0.3,0.3,0.5,0.8,0.5,1.3c0,0.6-0.2,1-0.5,1.3c-0.3,0.3-0.8,0.5-1.2,0.5S96.4,240.8,96,240.5z"/>
		<path class="st1" d="M259.8,177.9c-0.3-0.3-0.5-0.8-0.5-1.3c0-0.6,0.2-1,0.5-1.3c0.3-0.3,0.8-0.5,1.2-0.5c0.5,0,0.9,0.2,1.2,0.5
			c0.3,0.3,0.5,0.8,0.5,1.3c0,0.6-0.2,1-0.5,1.3s-0.8,0.5-1.2,0.5S260.1,178.2,259.8,177.9z"/>
		<path class="st1" d="M0.3,75.9C0.1,75.6,0,75.4,0,75.1c0-0.3,0.1-0.5,0.3-0.8S0.7,74,0.9,74s0.5,0.1,0.6,0.3s0.3,0.5,0.3,0.8
			c0,0.3-0.1,0.6-0.3,0.8c-0.2,0.2-0.4,0.3-0.6,0.3S0.4,76.1,0.3,75.9z"/>
		<path class="st1" d="M34.3,216c-0.3-0.3-0.4-0.7-0.4-1.2c0-0.5,0.1-0.9,0.4-1.2c0.3-0.3,0.6-0.5,1-0.5s0.7,0.2,1,0.5
			c0.3,0.3,0.4,0.7,0.4,1.2c0,0.5-0.1,0.9-0.4,1.2s-0.6,0.5-1,0.5S34.6,216.3,34.3,216z"/>
	</g>
</g>
<path class="st1" d="M375.4,161.5l-3.3-6.5l-9.6,4.8l-4.4-8.8l-1.1-23.2l7.7-3.8l9.5,18.9l2.5-1.2l4.5,8.9l-2.5,1.2l3.3,6.5
	L375.4,161.5z M368,145.9l-4.7-9.4l0.7,11.5L368,145.9z"/>
<path class="st1" d="M575.2,85l-5.1,10.8l0.9,0.4L570,98l-0.9-0.4l-0.9,1.9l-1.2-0.6l0.9-2l-4-1.9L575.2,85z M567,94.3l1.9,0.9
	l2.2-4.6L567,94.3z"/>
<path class="st1" d="M499.2,71l1.8,9l0.7-0.1l0.3,1.6l-0.7,0.1l0.3,1.6l-1,0.2l-0.3-1.6l-3.3,0.7L499.2,71z M498.5,80.5l1.6-0.3
	l-0.8-3.8L498.5,80.5z"/>
<path class="st1" d="M533.8,153l-10.1,32.2l4,1.2l-1.7,5.6l-4-1.2l-1.8,5.8l-5.5-1.7l1.8-5.8l-18.6-5.8L533.8,153z M509.7,180.9
	l8.6,2.7l4.3-13.7L509.7,180.9z"/>
<path class="st1" d="M429.8,206.3l-1.5-5.7l-9.9,2.6l-1.3-4.9l4.4-15.4l7.3-1.9l3.5,13.2l2.5-0.7l1.3,5l-2.5,0.7l1.5,5.7
	L429.8,206.3z M426.9,195.6l-2.2-8.4l-2.7,9.7L426.9,195.6z"/>
<path class="st1" d="M481,161.2l0-2.9l-5-0.1l0-2.5l4.1-6.7l3.7,0.1l-0.1,6.7l1.2,0l0,2.6l-1.2,0l0,2.9L481,161.2z M481.1,155.7
	l0.1-4.2l-2.6,4.2L481.1,155.7z"/>
<path class="st1" d="M476.2,52L471,70.9l2.3,0.6l-0.9,3.3l-2.3-0.6l-0.9,3.4l-3.2-0.9l0.9-3.4l-10.9-3L476.2,52z M462.8,68.6l5,1.4
	l2.2-8L462.8,68.6z"/>
<path class="st1" d="M534.3,236.2l4.1-4.3l-7.4-7.1l3.5-3.7L550,217l5.4,5.2L546,232l1.8,1.8l-3.6,3.7l-1.8-1.8l-4.1,4.3
	L534.3,236.2z M542,228.2l6-6.2l-9.7,2.7L542,228.2z"/>
<path class="st1" d="M390.7,115.2c-0.5-0.4-0.7-1-0.7-1.8c0-0.8,0.2-1.4,0.7-1.8s1-0.6,1.6-0.6s1.2,0.2,1.6,0.6s0.7,1,0.7,1.8
	c0,0.8-0.2,1.4-0.7,1.8c-0.5,0.4-1,0.6-1.6,0.6C391.7,115.9,391.2,115.6,390.7,115.2z"/>
<path class="st1" d="M499.4,130.9c-0.3-0.3-0.4-0.7-0.4-1.2c0-0.5,0.1-0.9,0.4-1.2s0.6-0.5,1-0.5c0.4,0,0.7,0.2,1,0.5
	c0.3,0.3,0.4,0.7,0.4,1.2c0,0.5-0.1,0.9-0.4,1.2c-0.3,0.3-0.6,0.5-1,0.5C500,131.4,499.7,131.2,499.4,130.9z"/>
<path class="st1" d="M520.4,52.9c-0.3-0.3-0.4-0.7-0.4-1.2c0-0.5,0.1-0.9,0.4-1.2c0.3-0.3,0.6-0.5,1-0.5c0.4,0,0.7,0.2,1,0.5
	c0.3,0.3,0.4,0.7,0.4,1.2c0,0.5-0.1,0.9-0.4,1.2c-0.3,0.3-0.6,0.5-1,0.5C521,53.4,520.7,53.2,520.4,52.9z"/>
<path class="st1" d="M390.5,220.1c-0.3-0.3-0.5-0.8-0.5-1.3c0-0.6,0.2-1,0.5-1.3c0.3-0.3,0.8-0.5,1.2-0.5c0.5,0,0.9,0.2,1.2,0.5
	c0.3,0.3,0.5,0.8,0.5,1.3c0,0.6-0.2,1-0.5,1.3c-0.3,0.3-0.8,0.5-1.2,0.5S390.9,220.4,390.5,220.1z"/>
<path class="st1" d="M552.5,174.1c-0.3-0.3-0.5-0.8-0.5-1.3c0-0.6,0.2-1,0.5-1.3c0.3-0.3,0.8-0.5,1.2-0.5c0.5,0,0.9,0.2,1.2,0.5
	c0.3,0.3,0.5,0.8,0.5,1.3c0,0.6-0.2,1-0.5,1.3c-0.3,0.3-0.8,0.5-1.2,0.5C553.3,174.6,552.9,174.4,552.5,174.1z"/>
<path class="st1" d="M291.3,67.9c-0.2-0.2-0.3-0.5-0.3-0.8c0-0.3,0.1-0.5,0.3-0.8c0.2-0.2,0.4-0.3,0.6-0.3s0.5,0.1,0.6,0.3
	c0.2,0.2,0.3,0.5,0.3,0.8c0,0.3-0.1,0.6-0.3,0.8c-0.2,0.2-0.4,0.3-0.6,0.3S291.5,68.1,291.3,67.9z"/>
<path class="st1" d="M329.4,200.9c-0.3-0.3-0.4-0.7-0.4-1.2c0-0.5,0.1-0.9,0.4-1.2s0.6-0.5,1-0.5c0.4,0,0.7,0.2,1,0.5
	c0.3,0.3,0.4,0.7,0.4,1.2c0,0.5-0.1,0.9-0.4,1.2c-0.3,0.3-0.6,0.5-1,0.5C330,201.4,329.7,201.2,329.4,200.9z"/>
<path class="st1" d="M450.7,42.2c-0.5-0.4-0.7-1-0.7-1.8c0-0.8,0.2-1.4,0.7-1.8s1-0.6,1.6-0.6s1.2,0.2,1.6,0.6s0.7,1,0.7,1.8
	c0,0.8-0.2,1.4-0.7,1.8c-0.5,0.4-1,0.6-1.6,0.6S451.2,42.7,450.7,42.2z"/>
<path class="st1" d="M667.4,142.5l-3.3-6.5l-9.5,4.8l-4.4-8.8l-1.2-23.2l7.7-3.8l9.5,18.8l2.5-1.2l4.5,8.9l-2.5,1.2l3.3,6.5
	L667.4,142.5z M660,126.9l-4.7-9.5l0.7,11.5L660,126.9z"/>
<path class="st1" d="M865.2,77l-5.1,10.8l0.9,0.4L860,90l-0.9-0.4l-0.9,1.9l-1.2-0.6l0.9-2l-4-1.9L865.2,77z M857,86.3l1.9,0.9
	l2.2-4.6L857,86.3z"/>
<path class="st1" d="M793.2,65l1.8,9l0.7-0.1l0.3,1.6l-0.7,0.1l0.3,1.6l-1,0.2l-0.3-1.6l-3.3,0.7L793.2,65z M792.5,74.5l1.5-0.3
	l-0.8-3.8L792.5,74.5z"/>
<path class="st1" d="M828.8,144l-10.1,32.2l4,1.2l-1.7,5.6l-4-1.2l-1.8,5.8l-5.5-1.7l1.8-5.8l-18.6-5.8L828.8,144z M804.7,171.9
	l8.6,2.7l4.3-13.7L804.7,171.9z"/>
<path class="st1" d="M715.8,193.3l-1.5-5.7l-9.9,2.6l-1.3-4.9l4.4-15.4l7.3-1.9l3.5,13.2l2.5-0.7l1.3,5l-2.5,0.7l1.5,5.7
	L715.8,193.3z M712.9,182.6l-2.2-8.4l-2.7,9.7L712.9,182.6z"/>
<path class="st1" d="M773,150.2l0-2.9l-5-0.1l0-2.5l4.1-6.7l3.7,0.1l-0.1,6.7l1.2,0l0,2.6l-1.2,0l0,2.9L773,150.2z M773.1,144.7
	l0.1-4.2l-2.5,4.2L773.1,144.7z"/>
<path class="st1" d="M763.2,45L758,63.9l2.3,0.6l-0.9,3.3l-2.3-0.6l-0.9,3.4l-3.2-0.9l0.9-3.4l-10.9-3L763.2,45z M749.8,61.6l5,1.4
	l2.2-8L749.8,61.6z"/>
<path class="st1" d="M826.3,226.2l4.1-4.3l-7.4-7.1l3.5-3.7L842,207l5.4,5.2L838,222l1.8,1.8l-3.6,3.7l-1.8-1.8l-4.1,4.3
	L826.3,226.2z M834,218.2l6-6.2l-9.7,2.7L834,218.2z"/>
<path class="st1" d="M680.7,104.2c-0.5-0.4-0.7-1-0.7-1.8c0-0.8,0.2-1.4,0.7-1.8c0.5-0.4,1-0.6,1.6-0.6s1.2,0.2,1.7,0.6
	s0.7,1,0.7,1.8c0,0.8-0.2,1.4-0.7,1.8c-0.5,0.4-1,0.6-1.7,0.6C681.7,104.9,681.2,104.6,680.7,104.2z"/>
<path class="st1" d="M792.4,126.9c-0.3-0.3-0.4-0.7-0.4-1.2s0.1-0.9,0.4-1.2c0.3-0.3,0.6-0.5,1-0.5c0.4,0,0.7,0.2,1,0.5
	c0.3,0.3,0.4,0.7,0.4,1.2s-0.1,0.9-0.4,1.2c-0.3,0.3-0.6,0.5-1,0.5C793,127.4,792.7,127.2,792.4,126.9z"/>
<path class="st1" d="M814.4,47.9c-0.3-0.3-0.4-0.7-0.4-1.2c0-0.5,0.1-0.9,0.4-1.2c0.3-0.3,0.6-0.5,1-0.5c0.4,0,0.7,0.2,1,0.5
	c0.3,0.3,0.4,0.7,0.4,1.2c0,0.5-0.1,0.9-0.4,1.2c-0.3,0.3-0.6,0.5-1,0.5C815,48.4,814.7,48.2,814.4,47.9z"/>
<path class="st1" d="M685.5,208.1c-0.3-0.3-0.5-0.8-0.5-1.3c0-0.6,0.2-1,0.5-1.3c0.3-0.3,0.8-0.5,1.2-0.5c0.5,0,0.9,0.2,1.2,0.5
	c0.3,0.3,0.5,0.8,0.5,1.3c0,0.6-0.2,1-0.5,1.3c-0.3,0.3-0.8,0.5-1.2,0.5C686.3,208.6,685.9,208.4,685.5,208.1z"/>
<path class="st1" d="M844.5,167.1c-0.3-0.3-0.5-0.8-0.5-1.3c0-0.6,0.2-1,0.5-1.3c0.3-0.3,0.8-0.5,1.2-0.5c0.5,0,0.9,0.2,1.2,0.5
	c0.3,0.3,0.5,0.8,0.5,1.3c0,0.6-0.2,1-0.5,1.3c-0.3,0.3-0.8,0.5-1.2,0.5C845.3,167.6,844.9,167.4,844.5,167.1z"/>
<path class="st1" d="M583.3,61.9c-0.2-0.2-0.3-0.5-0.3-0.8c0-0.3,0.1-0.5,0.3-0.8s0.4-0.3,0.6-0.3s0.5,0.1,0.6,0.3s0.3,0.5,0.3,0.8
	s-0.1,0.5-0.3,0.8c-0.2,0.2-0.4,0.3-0.6,0.3S583.5,62.1,583.3,61.9z"/>
<path class="st1" d="M617.4,186.9c-0.3-0.3-0.4-0.7-0.4-1.2c0-0.5,0.1-0.9,0.4-1.2c0.3-0.3,0.6-0.5,1-0.5c0.4,0,0.7,0.2,1,0.5
	c0.3,0.3,0.4,0.7,0.4,1.2c0,0.5-0.1,0.9-0.4,1.2c-0.3,0.3-0.6,0.5-1,0.5C618,187.4,617.7,187.2,617.4,186.9z"/>
<path class="st1" d="M732.7,35.2c-0.5-0.4-0.7-1-0.7-1.8c0-0.8,0.2-1.4,0.7-1.8c0.5-0.4,1-0.6,1.6-0.6s1.2,0.2,1.7,0.6
	s0.7,1,0.7,1.8c0,0.8-0.2,1.4-0.7,1.8c-0.5,0.4-1,0.6-1.7,0.6S733.2,35.7,732.7,35.2z"/>
<g>
	<defs>
		<rect id="SVGID_3_" x="867" y="43" width="288.5" height="211.7"/>
	</defs>
	<clipPath id="SVGID_4_">
		<use xlink:href="#SVGID_3_"  style="overflow:visible;"/>
	</clipPath>
	<g class="st2">
		<path class="st1" d="M952.4,128.5l-3.3-6.5l-9.5,4.8l-4.4-8.8L934,94.8l7.7-3.8l9.5,18.8l2.5-1.2l4.5,8.9l-2.5,1.2l3.3,6.5
			L952.4,128.5z M945,112.9l-4.7-9.5l0.7,11.5L945,112.9z"/>
		<path class="st1" d="M1156.2,67l-5.1,10.8l0.9,0.4L1151,80l-0.9-0.4l-0.9,1.9l-1.2-0.6l0.9-2l-4-1.9L1156.2,67z M1148,76.3
			l1.8,0.9l2.2-4.6L1148,76.3z"/>
		<path class="st1" d="M1086.2,55l1.8,9l0.7-0.1l0.3,1.6l-0.7,0.1l0.3,1.6l-1,0.2l-0.3-1.6l-3.3,0.7L1086.2,55z M1085.5,64.5
			l1.6-0.3l-0.8-3.8L1085.5,64.5z"/>
		<path class="st1" d="M1125.8,129l-10.1,32.2l4,1.2l-1.7,5.6l-4-1.2l-1.8,5.8l-5.5-1.7l1.8-5.8l-18.6-5.8L1125.8,129z
			 M1101.7,156.9l8.6,2.7l4.3-13.7L1101.7,156.9z"/>
		<path class="st1" d="M1004.8,180.3l-1.5-5.7l-9.9,2.6l-1.3-4.9l4.4-15.4l7.3-1.9l3.5,13.2l2.5-0.7l1.3,5l-2.5,0.7l1.5,5.7
			L1004.8,180.3z M1001.9,169.6l-2.2-8.4l-2.7,9.7L1001.9,169.6z"/>
		<path class="st1" d="M1067,135.2l0-2.9l-5-0.1l0-2.5l4.1-6.7l3.7,0.1l-0.1,6.7l1.2,0l0,2.6l-1.2,0l0,2.9L1067,135.2z
			 M1067.1,129.7l0.1-4.3l-2.6,4.2L1067.1,129.7z"/>
		<path class="st1" d="M1121.3,207.2l4.1-4.3l-7.4-7.1l3.5-3.7l15.4-4.2l5.4,5.2l-9.5,9.8l1.8,1.8l-3.6,3.7l-1.8-1.8l-4.1,4.3
			L1121.3,207.2z M1129,199.2l6-6.2l-9.7,2.7L1129,199.2z"/>
		<path class="st1" d="M980.7,77.2c-0.5-0.4-0.7-1-0.7-1.8c0-0.8,0.2-1.4,0.7-1.8c0.5-0.4,1-0.6,1.6-0.6s1.2,0.2,1.7,0.6
			s0.7,1,0.7,1.8c0,0.8-0.2,1.4-0.7,1.8c-0.5,0.4-1,0.6-1.7,0.6C981.7,77.9,981.2,77.6,980.7,77.2z"/>
		<path class="st1" d="M1083.4,114.9c-0.3-0.3-0.4-0.7-0.4-1.2s0.1-0.9,0.4-1.2s0.6-0.5,1-0.5s0.7,0.2,1,0.5s0.4,0.7,0.4,1.2
			s-0.1,0.9-0.4,1.2c-0.3,0.3-0.6,0.5-1,0.5S1083.7,115.2,1083.4,114.9z"/>
		<path class="st1" d="M982.5,185.1c-0.3-0.3-0.5-0.8-0.5-1.3c0-0.6,0.2-1,0.5-1.3c0.3-0.3,0.8-0.5,1.2-0.5c0.5,0,0.9,0.2,1.2,0.5
			c0.3,0.3,0.5,0.8,0.5,1.3c0,0.6-0.2,1-0.5,1.3c-0.3,0.3-0.8,0.5-1.2,0.5C983.3,185.6,982.9,185.4,982.5,185.1z"/>
		<path class="st1" d="M1139.5,160.1c-0.3-0.3-0.5-0.8-0.5-1.3c0-0.6,0.2-1,0.5-1.3c0.3-0.3,0.8-0.5,1.2-0.5s0.9,0.2,1.2,0.5
			c0.3,0.3,0.5,0.8,0.5,1.3c0,0.6-0.2,1-0.5,1.3c-0.3,0.3-0.8,0.5-1.2,0.5S1139.9,160.4,1139.5,160.1z"/>
		<path class="st1" d="M878.3,48.9c-0.2-0.2-0.3-0.5-0.3-0.8c0-0.3,0.1-0.5,0.3-0.8s0.4-0.3,0.6-0.3s0.5,0.1,0.6,0.3
			s0.3,0.5,0.3,0.8s-0.1,0.5-0.3,0.8c-0.2,0.2-0.4,0.3-0.6,0.3S878.5,49.1,878.3,48.9z"/>
		<path class="st1" d="M918.4,161.9c-0.3-0.3-0.4-0.7-0.4-1.2c0-0.5,0.1-0.9,0.4-1.2c0.3-0.3,0.6-0.5,1-0.5c0.4,0,0.7,0.2,1,0.5
			c0.3,0.3,0.4,0.7,0.4,1.2c0,0.5-0.1,0.9-0.4,1.2c-0.3,0.3-0.6,0.5-1,0.5C919,162.4,918.7,162.2,918.4,161.9z"/>
	</g>
</g>
<path class="st1" d="M1111.4,33.9c-0.3-0.3-0.4-0.7-0.4-1.2c0-0.5,0.1-0.9,0.4-1.2s0.6-0.5,1-0.5s0.7,0.2,1,0.5s0.4,0.7,0.4,1.2
	c0,0.5-0.1,0.9-0.4,1.2c-0.3,0.3-0.6,0.5-1,0.5S1111.7,34.2,1111.4,33.9z"/>
<path class="st1" d="M1022.7,27.2c-0.5-0.4-0.7-1-0.7-1.8c0-0.8,0.2-1.4,0.7-1.8c0.5-0.4,1-0.6,1.6-0.6s1.2,0.2,1.7,0.6
	s0.7,1,0.7,1.8c0,0.8-0.2,1.4-0.7,1.8c-0.5,0.4-1,0.6-1.7,0.6S1023.2,27.7,1022.7,27.2z"/>
<path class="st1" d="M1057.2,37l-5.2,18.9l2.3,0.6l-0.9,3.3l-2.3-0.6l-0.9,3.4l-3.2-0.9l0.9-3.4l-10.9-3L1057.2,37z M1043.8,53.6
	l5,1.4l2.2-8L1043.8,53.6z"/>
<path class="st1" d="M1245.4,112.5l-3.3-6.5l-9.5,4.8l-4.4-8.8l-1.2-23.2l7.7-3.8l9.5,18.8l2.5-1.2l4.5,8.9l-2.5,1.2l3.3,6.5
	L1245.4,112.5z M1238,96.9l-4.7-9.5l0.7,11.5L1238,96.9z"/>
<path class="st1" d="M1442.2,54l-5.1,10.8l0.9,0.4L1437,67l-0.9-0.4l-0.9,1.9l-1.2-0.6l0.9-2l-4-1.9L1442.2,54z M1434,63.3l1.8,0.9
	l2.2-4.6L1434,63.3z"/>
<path class="st1" d="M1376.2,46l1.8,9l0.7-0.1l0.3,1.6l-0.7,0.1l0.3,1.6l-1,0.2l-0.3-1.6l-3.3,0.7L1376.2,46z M1375.5,55.5l1.6-0.3
	l-0.8-3.8L1375.5,55.5z"/>
<path class="st1" d="M1418.8,113l-10.1,32.2l4,1.2l-1.7,5.6l-4-1.2l-1.8,5.8l-5.5-1.7l1.8-5.8l-18.6-5.8L1418.8,113z M1394.7,140.9
	l8.6,2.7l4.3-13.7L1394.7,140.9z"/>
<path class="st1" d="M1289.8,163.3l-1.5-5.7l-9.9,2.6l-1.3-4.9l4.4-15.4l7.3-1.9l3.5,13.2l2.5-0.7l1.3,5l-2.5,0.7l1.5,5.7
	L1289.8,163.3z M1286.9,152.6l-2.2-8.4l-2.7,9.7L1286.9,152.6z"/>
<path class="st1" d="M1353,125.2l0-2.9l-5-0.1l0-2.5l4.1-6.7l3.7,0.1l-0.1,6.7l1.2,0l0,2.5l-1.2,0l0,2.9L1353,125.2z M1353.1,119.7
	l0.1-4.2l-2.6,4.2L1353.1,119.7z"/>
<path class="st1" d="M1410.3,195.2l4.1-4.3l-7.4-7.1l3.5-3.7l15.4-4.2l5.4,5.2l-9.5,9.8l1.8,1.8l-3.6,3.7l-1.8-1.8l-4.1,4.3
	L1410.3,195.2z M1418,187.2l6-6.2l-9.7,2.7L1418,187.2z"/>
<path class="st1" d="M1275.7,65.2c-0.5-0.4-0.7-1-0.7-1.8s0.2-1.4,0.7-1.8c0.5-0.4,1-0.6,1.7-0.6s1.2,0.2,1.7,0.6s0.7,1,0.7,1.8
	s-0.2,1.4-0.7,1.8c-0.5,0.4-1,0.6-1.7,0.6C1276.7,65.9,1276.2,65.6,1275.7,65.2z"/>
<path class="st1" d="M1364.9,137.1c-0.3-0.3-0.4-0.7-0.4-1.2c0-0.5,0.1-0.9,0.4-1.2s0.6-0.5,1-0.5s0.7,0.2,1,0.5s0.4,0.7,0.4,1.2
	c0,0.5-0.1,0.9-0.4,1.2c-0.3,0.3-0.6,0.5-1,0.5S1365.1,137.4,1364.9,137.1z"/>
<path class="st1" d="M1275.5,171.1c-0.3-0.3-0.5-0.8-0.5-1.3c0-0.6,0.2-1,0.5-1.3c0.3-0.3,0.8-0.5,1.2-0.5s0.9,0.2,1.2,0.5
	c0.3,0.3,0.5,0.8,0.5,1.3c0,0.6-0.2,1-0.5,1.3c-0.3,0.3-0.8,0.5-1.2,0.5S1275.9,171.4,1275.5,171.1z"/>
<path class="st1" d="M1434.5,146.1c-0.3-0.3-0.5-0.8-0.5-1.3c0-0.6,0.2-1,0.5-1.3c0.3-0.3,0.8-0.5,1.2-0.5s0.9,0.2,1.2,0.5
	c0.3,0.3,0.5,0.8,0.5,1.3c0,0.6-0.2,1-0.5,1.3c-0.3,0.3-0.8,0.5-1.2,0.5S1434.9,146.4,1434.5,146.1z"/>
<path class="st1" d="M1216.4,144.9c-0.3-0.3-0.4-0.7-0.4-1.2c0-0.5,0.1-0.9,0.4-1.2s0.6-0.5,1-0.5s0.7,0.2,1,0.5s0.4,0.7,0.4,1.2
	c0,0.5-0.1,0.9-0.4,1.2s-0.6,0.5-1,0.5S1216.7,145.2,1216.4,144.9z"/>
<path class="st1" d="M1390.4,34.9c-0.3-0.3-0.4-0.7-0.4-1.2c0-0.5,0.1-0.9,0.4-1.2s0.6-0.5,1-0.5s0.7,0.2,1,0.5s0.4,0.7,0.4,1.2
	c0,0.5-0.1,0.9-0.4,1.2c-0.3,0.3-0.6,0.5-1,0.5S1390.7,35.2,1390.4,34.9z"/>
<path class="st1" d="M1178.3,29.9c-0.2-0.2-0.3-0.5-0.3-0.8c0-0.3,0.1-0.5,0.3-0.8c0.2-0.2,0.4-0.3,0.6-0.3s0.5,0.1,0.6,0.3
	c0.2,0.2,0.3,0.5,0.3,0.8s-0.1,0.5-0.3,0.8c-0.2,0.2-0.4,0.3-0.6,0.3S1178.4,30.1,1178.3,29.9z"/>
<path class="st1" d="M1313.7,4.2c-0.5-0.4-0.7-1-0.7-1.8c0-0.8,0.2-1.4,0.7-1.8c0.5-0.4,1-0.6,1.7-0.6s1.2,0.2,1.7,0.6
	s0.7,1,0.7,1.8s-0.2,1.4-0.7,1.8c-0.5,0.4-1,0.6-1.7,0.6S1314.2,4.7,1313.7,4.2z"/>
<path class="st1" d="M1353.2,8l-5.2,18.9l2.3,0.6l-0.9,3.3l-2.3-0.6l-0.9,3.4l-3.2-0.9l0.9-3.4l-10.9-3L1353.2,8z M1339.8,24.6
	l5,1.4l2.2-8.1L1339.8,24.6z"/>
</svg>
