<?xml version="1.0" encoding="utf-8"?>
<!-- Generator: Adobe Illustrator 24.0.1, SVG Export Plug-In . SVG Version: 6.00 Build 0)  -->
<svg version="1.1" id="Слой_1" xmlns="http://www.w3.org/2000/svg" xmlns:xlink="http://www.w3.org/1999/xlink" x="0px" y="0px"
	 viewBox="0 0 1445 255" style="enable-background:new 0 0 1445 255;" xml:space="preserve">
<style type="text/css">
	.st0{fill:#8768E1;}
</style>
<path class="st0" d="M97.5,172.6l-17.6,8.8l0.5-24.3c0.1-1.2-0.2-2.4-0.8-3.5c-0.5-0.9-1-1.6-1.6-2c-0.6-0.4-1.2-0.4-1.8-0.1
	c-0.7,0.3-1,1-0.9,2c0.1,1,0.4,1.9,0.8,2.8l-6.4,3.2c-0.5-1.1-1-2.1-1.4-3.2c-0.4-1.1-0.7-2.3-1-3.8c-0.3-1.5-0.4-2.9-0.3-4.1
	c0.1-1.3,0.5-2.5,1.3-3.7s1.8-2.2,3.3-2.9c2.6-1.3,5.2-1.3,7.7-0.1c2.5,1.2,4.7,3.6,6.5,7.2c0.8,1.5,1.3,2.9,1.7,4.3
	c0.4,1.4,0.6,2.9,0.7,4.5s0.1,2.9,0,3.8c-0.1,1-0.2,2.4-0.4,4.4l5-2.5L97.5,172.6z"/>
<path class="st0" d="M284.5,105.7l-0.9,1.9l-5.5-2.6l5.6-4.4c0.9-0.7,1.6-1.3,2-1.7c0.6-0.5,1-1.1,1.3-1.7c0.3-0.6,0.4-1.2,0.4-1.8
	c0-0.6-0.3-0.9-0.7-1.1c-0.4-0.2-0.8-0.1-1.3,0.2c-0.5,0.3-0.9,0.9-1.3,1.6l-1.2-0.6c0.6-1.1,1.3-2,2.1-2.7c0.9-0.7,1.8-0.9,2.6-0.5
	c0.8,0.4,1.3,1.1,1.3,2.1c0.1,1-0.2,2.1-0.7,3.3c-0.4,0.9-1.1,1.8-1.9,2.6c-0.3,0.3-1.1,0.9-2.3,1.9l-2.5,2L284.5,105.7z"/>
<path class="st0" d="M209.9,89.8l0.3,1.6l-4.6,0.9L207,87c0.2-0.9,0.4-1.5,0.5-1.9c0.1-0.6,0.1-1.2,0-1.7c-0.1-0.5-0.3-1-0.6-1.3
	c-0.3-0.3-0.6-0.5-0.9-0.4c-0.3,0.1-0.6,0.3-0.7,0.7c-0.2,0.4-0.2,1-0.1,1.6l-1,0.2c-0.2-1-0.1-1.8,0.1-2.6c0.2-0.9,0.7-1.3,1.4-1.5
	c0.7-0.1,1.3,0.1,1.8,0.7c0.5,0.6,0.9,1.4,1.1,2.4c0.2,0.8,0.2,1.6,0,2.5c-0.1,0.3-0.3,1.1-0.6,2.2l-0.7,2.4L209.9,89.8z"/>
<path class="st0" d="M231.2,200l-1.8,5.6l-25.4-7.9l18.5-13c3.1-2.2,5.3-3.8,6.5-4.9c1.8-1.6,3.1-3.3,3.6-5.2
	c0.6-1.9,0.5-3.6-0.2-5.3c-0.7-1.7-2-2.8-3.9-3.4c-1.8-0.6-3.6-0.4-5.2,0.6c-1.7,1-2.9,2.6-3.7,4.8l-5.6-1.7c1.2-3.4,3.2-6.1,6-7.9
	c3-2.1,6.5-2.5,10.3-1.3c3.8,1.2,6.3,3.3,7.7,6.3c1.4,3,1.5,6.3,0.4,9.8c-0.9,2.8-2.7,5.4-5.4,7.7c-1,0.9-3.6,2.8-7.7,5.7l-8.5,5.8
	L231.2,200z"/>
<path class="st0" d="M144.9,213.5l1.4,5.3l-17.1,4.5l6.1-14c0.7-1.5,1.1-2.7,1.3-3.5c0.2-0.8,0.2-1.5,0-2.2c-0.2-0.8-0.7-1.5-1.3-2
	c-0.7-0.5-1.4-0.6-2.2-0.4c-0.6,0.2-1.1,0.5-1.4,0.9c-0.3,0.4-0.5,0.9-0.5,1.5c0,0.5,0,1,0,1.4c0,0.4,0.1,0.7,0.2,1.1l-5.6,1.5
	c-0.2-1-0.4-2-0.3-3c0-1,0.2-2.1,0.5-3.3c0.3-1.1,1-2.2,2-3.1c1-0.9,2.3-1.6,3.9-2c2.6-0.7,4.8-0.4,6.6,0.8c1.8,1.2,3,2.9,3.6,5.1
	c0.5,1.7,0.4,3.4-0.1,5.1c-0.5,1.7-1.7,4.4-3.6,8.1L144.9,213.5z"/>
<path class="st0" d="M194.3,166.3l0,2.7l-8.7-0.1l4.8-5.8c0.5-0.6,0.9-1.1,1.1-1.5c0.2-0.3,0.3-0.7,0.3-1c0-0.4-0.1-0.8-0.4-1.1
	c-0.2-0.3-0.6-0.5-1-0.5c-0.3,0-0.6,0.1-0.8,0.2s-0.4,0.4-0.4,0.6c-0.1,0.2-0.1,0.5-0.2,0.7c0,0.2-0.1,0.4-0.1,0.5l-2.8,0
	c0-0.5,0.1-1,0.2-1.5c0.1-0.5,0.4-1,0.7-1.5c0.3-0.5,0.8-0.9,1.4-1.2c0.6-0.3,1.3-0.4,2.1-0.4c1.3,0,2.3,0.4,3,1.2
	c0.7,0.8,1,1.8,1,2.9c0,0.9-0.3,1.7-0.7,2.4c-0.5,0.7-1.4,1.9-2.8,3.3L194.3,166.3z"/>
<path class="st0" d="M180.7,79.5l-0.9,3.3l-14.9-4.1l10.5-7.9c1.8-1.3,3-2.3,3.7-3c1-1,1.7-2,2-3.1c0.3-1.1,0.2-2.1-0.2-3.1
	c-0.4-1-1.2-1.6-2.3-1.9c-1.1-0.3-2.1-0.1-3,0.5c-1,0.6-1.7,1.5-2.1,2.9l-3.3-0.9c0.6-2,1.7-3.6,3.3-4.7c1.7-1.3,3.7-1.6,6-1
	c2.2,0.6,3.8,1.8,4.6,3.5c0.8,1.7,1,3.6,0.4,5.7c-0.5,1.6-1.4,3.2-3,4.6c-0.6,0.6-2,1.7-4.3,3.4l-4.8,3.5L180.7,79.5z"/>
<path class="st0" d="M250.2,251.1l-3.8,3.9l-12.7-12.2l15.2-2c1.7-0.2,2.9-0.5,3.6-0.7c0.7-0.2,1.4-0.6,1.9-1.1c0.6-0.6,1-1.3,1-2.2
	c0.1-0.8-0.2-1.5-0.8-2.1c-0.4-0.4-0.9-0.7-1.5-0.7c-0.5-0.1-1,0-1.5,0.3c-0.5,0.3-0.9,0.5-1.2,0.7c-0.3,0.2-0.6,0.5-0.8,0.7l-4.1-4
	c0.7-0.7,1.5-1.3,2.4-1.9c0.9-0.5,1.9-0.9,3.1-1.2c1.1-0.3,2.4-0.3,3.7,0.1c1.3,0.4,2.5,1.1,3.7,2.3c2,1.9,2.9,3.9,2.8,6
	c-0.1,2.2-0.9,4-2.5,5.7c-1.2,1.3-2.7,2.1-4.4,2.5c-1.7,0.4-4.7,0.8-8.8,1.1L250.2,251.1z"/>
<path class="st0" d="M97.1,122.1c-0.5-0.4-0.7-1-0.7-1.8c0-0.8,0.2-1.4,0.7-1.8c0.5-0.4,1-0.6,1.7-0.6s1.2,0.2,1.7,0.6
	c0.5,0.4,0.7,1,0.7,1.8c0,0.8-0.2,1.4-0.7,1.8c-0.5,0.4-1,0.6-1.7,0.6C98.1,122.7,97.5,122.5,97.1,122.1z"/>
<path class="st0" d="M158.6,46.2c-0.5-0.4-0.7-1-0.7-1.8c0-0.8,0.2-1.4,0.7-1.8c0.5-0.4,1-0.6,1.7-0.6c0.6,0,1.2,0.2,1.7,0.6
	c0.5,0.4,0.7,1,0.7,1.8c0,0.8-0.2,1.4-0.7,1.8c-0.5,0.4-1,0.6-1.7,0.6C159.6,46.9,159.1,46.7,158.6,46.2z"/>
<path class="st0" d="M210.1,136.2c-0.3-0.3-0.4-0.7-0.4-1.2c0-0.5,0.1-0.9,0.4-1.2c0.3-0.3,0.6-0.5,1-0.5c0.4,0,0.7,0.2,1,0.5
	c0.3,0.3,0.4,0.7,0.4,1.2c0,0.5-0.1,0.9-0.4,1.2c-0.3,0.3-0.6,0.5-1,0.5C210.7,136.7,210.3,136.5,210.1,136.2z"/>
<path class="st0" d="M228.5,56.1c-0.3-0.3-0.4-0.7-0.4-1.2s0.1-0.9,0.4-1.2c0.3-0.3,0.6-0.5,1-0.5c0.4,0,0.7,0.2,1,0.5
	c0.3,0.3,0.4,0.7,0.4,1.2s-0.1,0.9-0.4,1.2c-0.3,0.3-0.6,0.5-1,0.5C229.1,56.6,228.8,56.4,228.5,56.1z"/>
<path class="st0" d="M96.6,239.6c-0.3-0.3-0.5-0.8-0.5-1.3c0-0.6,0.2-1,0.5-1.3c0.3-0.3,0.8-0.5,1.2-0.5c0.5,0,0.9,0.2,1.2,0.5
	c0.3,0.3,0.5,0.8,0.5,1.3c0,0.6-0.2,1-0.5,1.3c-0.3,0.3-0.8,0.5-1.2,0.5C97.3,240.1,96.9,239.9,96.6,239.6z"/>
<path class="st0" d="M261.3,177c-0.3-0.3-0.5-0.8-0.5-1.3c0-0.6,0.2-1,0.5-1.3c0.3-0.3,0.8-0.5,1.2-0.5c0.5,0,0.9,0.2,1.2,0.5
	c0.3,0.3,0.5,0.8,0.5,1.3c0,0.6-0.2,1-0.5,1.3c-0.3,0.3-0.8,0.5-1.2,0.5C262,177.4,261.6,177.3,261.3,177z"/>
<path class="st0" d="M0.3,74.9C0.1,74.7,0,74.4,0,74.1c0-0.3,0.1-0.6,0.3-0.8C0.5,73.1,0.7,73,0.9,73c0.3,0,0.5,0.1,0.6,0.3
	c0.2,0.2,0.3,0.5,0.3,0.8c0,0.3-0.1,0.6-0.3,0.8c-0.2,0.2-0.4,0.3-0.6,0.3C0.7,75.2,0.5,75.1,0.3,74.9z"/>
<path class="st0" d="M34.5,215.1c-0.3-0.3-0.4-0.7-0.4-1.2c0-0.5,0.1-0.9,0.4-1.2c0.3-0.3,0.6-0.5,1-0.5c0.4,0,0.7,0.2,1,0.5
	c0.3,0.3,0.4,0.7,0.4,1.2c0,0.5-0.1,0.9-0.4,1.2c-0.3,0.3-0.6,0.5-1,0.5C35.1,215.6,34.8,215.4,34.5,215.1z"/>
<path class="st0" d="M368.5,156.9l-17.6,8.8l0.5-24.3c0-1.2-0.2-2.4-0.8-3.5c-0.5-1-1-1.6-1.6-2c-0.6-0.4-1.2-0.4-1.8-0.1
	c-0.7,0.4-1,1-0.9,2c0.1,1,0.4,1.9,0.8,2.8l-6.4,3.2c-0.5-1.1-1-2.1-1.4-3.2c-0.4-1.1-0.7-2.3-1-3.8c-0.3-1.5-0.4-2.9-0.3-4.1
	c0.1-1.3,0.5-2.5,1.3-3.7c0.7-1.2,1.8-2.2,3.3-2.9c2.6-1.3,5.2-1.3,7.7-0.1c2.5,1.2,4.7,3.6,6.5,7.2c0.8,1.5,1.3,2.9,1.7,4.3
	c0.4,1.4,0.6,2.9,0.7,4.5c0.1,1.6,0.1,2.9,0,3.8c0,1-0.2,2.4-0.4,4.4l5-2.5L368.5,156.9z"/>
<path class="st0" d="M569.4,91.5l-0.9,1.9l-5.5-2.6l5.6-4.4c0.9-0.7,1.6-1.3,2-1.7c0.6-0.5,1-1.1,1.3-1.7c0.3-0.6,0.4-1.2,0.4-1.8
	c0-0.6-0.3-0.9-0.7-1.1c-0.4-0.2-0.8-0.1-1.3,0.2c-0.5,0.3-0.9,0.9-1.3,1.6l-1.2-0.6c0.6-1.1,1.3-2,2.1-2.7c0.9-0.7,1.8-0.9,2.6-0.5
	c0.8,0.4,1.3,1.1,1.3,2.1c0.1,1-0.2,2.1-0.7,3.3c-0.4,0.9-1.1,1.8-1.9,2.6c-0.3,0.3-1.1,0.9-2.3,1.9l-2.5,2L569.4,91.5z"/>
<path class="st0" d="M500.8,75.7l0.3,1.6l-4.6,0.9l1.4-5.3c0.2-0.9,0.4-1.5,0.5-1.9c0.1-0.6,0.1-1.2,0-1.7c-0.1-0.5-0.3-1-0.6-1.3
	c-0.3-0.3-0.6-0.5-0.9-0.4c-0.3,0.1-0.6,0.3-0.7,0.7c-0.2,0.4-0.2,1-0.1,1.6l-1,0.2c-0.2-1-0.1-1.8,0.1-2.6c0.2-0.9,0.7-1.3,1.4-1.5
	c0.7-0.1,1.3,0.1,1.8,0.7s0.9,1.4,1.1,2.4c0.2,0.8,0.2,1.6,0,2.5c-0.1,0.3-0.3,1.1-0.6,2.2l-0.7,2.4L500.8,75.7z"/>
<path class="st0" d="M515.1,183.4l-1.8,5.6l-25.4-7.9l18.5-13c3.1-2.2,5.3-3.8,6.5-4.9c1.8-1.6,3.1-3.3,3.6-5.2
	c0.6-1.9,0.5-3.6-0.2-5.3c-0.7-1.7-2-2.8-3.9-3.4c-1.8-0.6-3.5-0.4-5.2,0.6c-1.7,1-2.9,2.6-3.7,4.8l-5.6-1.7c1.2-3.4,3.2-6.1,6-7.9
	c3-2.1,6.5-2.5,10.3-1.3c3.8,1.2,6.3,3.3,7.7,6.3c1.4,3,1.5,6.3,0.4,9.8c-0.9,2.8-2.7,5.4-5.4,7.7c-1,0.9-3.6,2.8-7.7,5.7l-8.5,5.8
	L515.1,183.4z"/>
<path class="st0" d="M443.4,195.7l1.4,5.3l-17.1,4.5l6.1-14c0.7-1.5,1.1-2.7,1.3-3.5c0.2-0.8,0.2-1.5,0-2.2c-0.2-0.8-0.7-1.5-1.3-2
	c-0.7-0.5-1.4-0.6-2.2-0.4c-0.6,0.2-1.1,0.5-1.4,0.9c-0.3,0.4-0.5,0.9-0.5,1.5c0,0.5,0,1,0,1.4c0,0.4,0.1,0.7,0.2,1.1l-5.6,1.5
	c-0.2-1-0.4-2-0.3-3c0-1,0.2-2.1,0.5-3.3c0.3-1.1,1-2.2,2-3.1c1-0.9,2.3-1.6,3.9-2c2.6-0.7,4.8-0.4,6.6,0.8c1.8,1.2,3,2.9,3.6,5.1
	c0.5,1.7,0.4,3.4-0.1,5.1c-0.5,1.7-1.7,4.4-3.6,8.1L443.4,195.7z"/>
<path class="st0" d="M480.7,157.9l0,2.7l-8.7-0.1l4.8-5.8c0.5-0.6,0.9-1.1,1.1-1.5c0.2-0.3,0.3-0.7,0.3-1c0-0.4-0.1-0.8-0.4-1.1
	c-0.2-0.3-0.6-0.5-1-0.5c-0.3,0-0.6,0.1-0.8,0.2c-0.2,0.2-0.4,0.4-0.4,0.6c-0.1,0.2-0.1,0.5-0.2,0.7c0,0.2-0.1,0.4-0.1,0.5l-2.8,0
	c0-0.5,0.1-1,0.2-1.5c0.1-0.5,0.4-1,0.7-1.5c0.3-0.5,0.8-0.9,1.4-1.2c0.6-0.3,1.3-0.4,2.1-0.4c1.3,0,2.3,0.4,3,1.2
	c0.7,0.8,1,1.8,1,2.9c0,0.9-0.3,1.7-0.7,2.4c-0.5,0.7-1.4,1.9-2.8,3.3L480.7,157.9z"/>
<path class="st0" d="M471.8,69.3l-0.9,3.3L456,68.5l10.5-7.9c1.8-1.3,3-2.3,3.7-3c1-1,1.7-2,2-3.1c0.3-1.1,0.2-2.1-0.2-3.1
	c-0.4-1-1.2-1.6-2.3-1.9c-1.1-0.3-2.1-0.1-3,0.5c-1,0.6-1.7,1.5-2.1,2.9l-3.3-0.9c0.6-2,1.7-3.6,3.3-4.7c1.7-1.3,3.7-1.6,6-1
	c2.2,0.6,3.8,1.8,4.6,3.5c0.8,1.7,1,3.6,0.4,5.7c-0.5,1.6-1.4,3.2-3,4.6c-0.6,0.6-2,1.7-4.3,3.4l-4.8,3.5L471.8,69.3z"/>
<path class="st0" d="M542.5,232.6l-3.8,3.9L526,224.3l15.2-2c1.7-0.2,2.9-0.5,3.6-0.7c0.7-0.2,1.4-0.6,1.9-1.1c0.6-0.6,1-1.3,1-2.2
	c0.1-0.8-0.2-1.5-0.8-2.1c-0.4-0.4-0.9-0.7-1.5-0.7c-0.5-0.1-1,0-1.5,0.3c-0.5,0.3-0.9,0.5-1.2,0.7c-0.3,0.2-0.6,0.5-0.8,0.7l-4.1-4
	c0.7-0.7,1.5-1.3,2.4-1.9c0.9-0.5,1.9-0.9,3.1-1.3c1.1-0.3,2.4-0.3,3.7,0.1c1.3,0.4,2.5,1.1,3.7,2.3c2,1.9,2.9,3.9,2.8,6
	c-0.1,2.2-0.9,4-2.5,5.7c-1.2,1.3-2.7,2.1-4.4,2.5c-1.7,0.4-4.7,0.8-8.8,1.1L542.5,232.6z"/>
<path class="st0" d="M390.7,112.2c-0.5-0.4-0.7-1-0.7-1.8c0-0.8,0.2-1.4,0.7-1.8c0.5-0.4,1-0.6,1.7-0.6c0.6,0,1.2,0.2,1.7,0.6
	c0.5,0.4,0.7,1,0.7,1.8c0,0.8-0.2,1.4-0.7,1.8c-0.5,0.4-1,0.6-1.7,0.6C391.7,112.9,391.2,112.7,390.7,112.2z"/>
<path class="st0" d="M499.1,136.2c-0.3-0.3-0.4-0.7-0.4-1.2c0-0.5,0.1-0.9,0.4-1.2c0.3-0.3,0.6-0.5,1-0.5c0.4,0,0.7,0.2,1,0.5
	c0.3,0.3,0.4,0.7,0.4,1.2c0,0.5-0.1,0.9-0.4,1.2c-0.3,0.3-0.6,0.5-1,0.5C499.7,136.7,499.3,136.5,499.1,136.2z"/>
<path class="st0" d="M515.4,46.9c-0.3-0.3-0.4-0.7-0.4-1.2s0.1-0.9,0.4-1.2c0.3-0.3,0.6-0.5,1-0.5c0.4,0,0.7,0.2,1,0.5
	c0.3,0.3,0.4,0.7,0.4,1.2s-0.1,0.9-0.4,1.2c-0.3,0.3-0.6,0.5-1,0.5C516,47.4,515.7,47.2,515.4,46.9z"/>
<path class="st0" d="M388.5,229.1c-0.3-0.3-0.5-0.8-0.5-1.3c0-0.6,0.2-1,0.5-1.3c0.3-0.3,0.8-0.5,1.2-0.5c0.5,0,0.9,0.2,1.2,0.5
	c0.3,0.3,0.5,0.8,0.5,1.3c0,0.6-0.2,1-0.5,1.3c-0.3,0.3-0.8,0.5-1.2,0.5C389.3,229.6,388.9,229.4,388.5,229.1z"/>
<path class="st0" d="M555.5,165.1c-0.3-0.3-0.5-0.8-0.5-1.3c0-0.6,0.2-1,0.5-1.3c0.3-0.3,0.8-0.5,1.2-0.5s0.9,0.2,1.2,0.5
	c0.3,0.3,0.5,0.8,0.5,1.3c0,0.6-0.2,1-0.5,1.3c-0.3,0.3-0.8,0.5-1.2,0.5C556.3,165.6,555.9,165.4,555.5,165.1z"/>
<path class="st0" d="M296.3,67.9c-0.2-0.2-0.3-0.5-0.3-0.8c0-0.3,0.1-0.6,0.3-0.8c0.2-0.2,0.4-0.3,0.6-0.3c0.3,0,0.5,0.1,0.6,0.3
	c0.2,0.2,0.3,0.5,0.3,0.8c0,0.3-0.1,0.6-0.3,0.8c-0.2,0.2-0.4,0.3-0.6,0.3C296.7,68.2,296.5,68.1,296.3,67.9z"/>
<path class="st0" d="M319.4,205.9c-0.3-0.3-0.4-0.7-0.4-1.2c0-0.5,0.1-0.9,0.4-1.2c0.3-0.3,0.6-0.5,1-0.5s0.7,0.2,1,0.5
	c0.3,0.3,0.4,0.7,0.4,1.2c0,0.5-0.1,0.9-0.4,1.2c-0.3,0.3-0.6,0.5-1,0.5S319.7,206.2,319.4,205.9z"/>
<path class="st0" d="M451.7,35.2c-0.5-0.4-0.7-1-0.7-1.8c0-0.8,0.2-1.4,0.7-1.8c0.5-0.4,1-0.6,1.7-0.6c0.6,0,1.2,0.2,1.7,0.6
	c0.5,0.4,0.7,1,0.7,1.8c0,0.8-0.2,1.4-0.7,1.8c-0.5,0.4-1,0.6-1.7,0.6C452.7,35.9,452.2,35.7,451.7,35.2z"/>
<path class="st0" d="M649.5,127.9l-17.6,8.8l0.5-24.3c0-1.2-0.2-2.4-0.8-3.5c-0.5-1-1-1.6-1.7-2c-0.6-0.4-1.2-0.4-1.8-0.1
	c-0.7,0.3-1,1-0.9,2c0.1,0.9,0.4,1.9,0.8,2.8l-6.4,3.2c-0.5-1.1-1-2.1-1.4-3.2c-0.4-1.1-0.7-2.3-1-3.8c-0.3-1.5-0.4-2.9-0.3-4.1
	c0.1-1.3,0.5-2.5,1.3-3.7c0.7-1.2,1.8-2.2,3.3-2.9c2.6-1.3,5.2-1.3,7.7-0.1c2.5,1.2,4.7,3.6,6.5,7.2c0.8,1.5,1.3,2.9,1.7,4.3
	c0.4,1.4,0.6,2.9,0.7,4.5c0.1,1.6,0.1,2.9,0,3.8c0,1-0.2,2.4-0.4,4.4l5-2.5L649.5,127.9z"/>
<path class="st0" d="M859.4,74.5l-0.9,1.9l-5.5-2.6l5.6-4.4c0.9-0.7,1.6-1.3,2-1.7c0.6-0.5,1-1.1,1.3-1.7c0.3-0.6,0.4-1.2,0.4-1.8
	c0-0.6-0.3-0.9-0.7-1.1c-0.4-0.2-0.8-0.1-1.3,0.2c-0.5,0.3-0.9,0.9-1.3,1.6l-1.2-0.6c0.6-1.1,1.3-2,2.1-2.7c0.9-0.7,1.8-0.9,2.6-0.5
	c0.8,0.4,1.3,1.1,1.3,2.1c0.1,1-0.2,2.1-0.7,3.3c-0.4,0.9-1.1,1.8-1.9,2.6c-0.3,0.3-1.1,0.9-2.3,1.9l-2.5,2L859.4,74.5z"/>
<path class="st0" d="M786.8,64.7l0.3,1.6l-4.6,0.9l1.4-5.3c0.2-0.9,0.4-1.5,0.5-1.9c0.1-0.6,0.1-1.2,0-1.7c-0.1-0.5-0.3-1-0.6-1.3
	c-0.3-0.3-0.6-0.5-0.9-0.4c-0.3,0.1-0.6,0.3-0.7,0.7c-0.2,0.4-0.2,1-0.1,1.6l-1,0.2c-0.2-1-0.1-1.8,0.1-2.6c0.2-0.9,0.7-1.3,1.4-1.5
	c0.7-0.1,1.3,0.1,1.8,0.7s0.9,1.4,1.1,2.4c0.2,0.8,0.2,1.6,0,2.5c-0.1,0.3-0.3,1.1-0.6,2.2l-0.7,2.4L786.8,64.7z"/>
<path class="st0" d="M823.1,160.4l-1.8,5.6l-25.4-7.9l18.5-13c3.1-2.2,5.3-3.8,6.5-4.9c1.8-1.6,3.1-3.3,3.6-5.2
	c0.6-1.9,0.5-3.6-0.2-5.3c-0.7-1.7-2-2.8-3.9-3.4c-1.8-0.6-3.5-0.4-5.2,0.6c-1.7,1-2.9,2.6-3.7,4.8l-5.6-1.7c1.2-3.4,3.2-6.1,6-7.9
	c3-2.1,6.5-2.5,10.3-1.3c3.8,1.2,6.3,3.3,7.7,6.3c1.4,3,1.5,6.3,0.4,9.8c-0.9,2.8-2.7,5.4-5.4,7.7c-1,0.9-3.6,2.8-7.7,5.7l-8.5,5.8
	L823.1,160.4z"/>
<path class="st0" d="M721.4,172.7l1.4,5.3l-17.1,4.5l6.1-14c0.7-1.5,1.1-2.7,1.3-3.5c0.2-0.8,0.2-1.5,0-2.2c-0.2-0.8-0.7-1.5-1.3-2
	c-0.7-0.5-1.4-0.6-2.2-0.4c-0.6,0.2-1.1,0.5-1.4,0.9c-0.3,0.4-0.5,0.9-0.5,1.5c0,0.5,0,1,0,1.4c0,0.4,0.1,0.7,0.2,1.1l-5.6,1.5
	c-0.2-1-0.4-2-0.3-3c0-1,0.2-2.1,0.5-3.3c0.3-1.1,1-2.2,2-3.1c1-0.9,2.3-1.6,3.9-2c2.6-0.7,4.8-0.4,6.6,0.8c1.8,1.2,3,2.9,3.6,5.1
	c0.5,1.7,0.4,3.4-0.1,5.1c-0.5,1.7-1.7,4.4-3.6,8.1L721.4,172.7z"/>
<path class="st0" d="M774.7,144.9l0,2.7l-8.7-0.1l4.8-5.8c0.5-0.6,0.9-1.1,1.1-1.5c0.2-0.3,0.3-0.7,0.3-1c0-0.4-0.1-0.8-0.4-1.1
	c-0.2-0.3-0.6-0.5-1-0.5c-0.3,0-0.6,0.1-0.8,0.2c-0.2,0.2-0.4,0.4-0.4,0.6c-0.1,0.2-0.1,0.5-0.2,0.7c0,0.2,0,0.4,0,0.5l-2.8,0
	c0-0.5,0.1-1,0.2-1.5c0.1-0.5,0.4-1,0.7-1.5c0.3-0.5,0.8-0.9,1.4-1.2c0.6-0.3,1.3-0.4,2.1-0.4c1.3,0,2.3,0.4,3,1.2
	c0.7,0.8,1,1.8,1,2.9c0,0.9-0.3,1.7-0.7,2.4c-0.5,0.7-1.4,1.9-2.8,3.3L774.7,144.9z"/>
<path class="st0" d="M842.5,217.6l-3.8,3.9L826,209.3l15.2-2c1.7-0.2,2.9-0.5,3.6-0.7c0.7-0.2,1.4-0.6,1.9-1.1c0.6-0.6,1-1.3,1-2.2
	c0.1-0.8-0.2-1.5-0.8-2.1c-0.4-0.4-0.9-0.7-1.5-0.7c-0.5-0.1-1,0-1.5,0.3c-0.5,0.3-0.9,0.5-1.2,0.7c-0.3,0.2-0.6,0.5-0.8,0.7l-4.1-4
	c0.7-0.7,1.5-1.3,2.4-1.9c0.9-0.5,1.9-0.9,3.1-1.3c1.1-0.3,2.4-0.3,3.7,0.1c1.3,0.4,2.5,1.1,3.7,2.3c2,1.9,2.9,3.9,2.8,6
	c-0.1,2.2-0.9,4-2.5,5.7c-1.2,1.3-2.7,2.1-4.4,2.5c-1.7,0.4-4.7,0.8-8.8,1.1L842.5,217.6z"/>
<path class="st0" d="M684.7,100.2c-0.5-0.4-0.7-1-0.7-1.8c0-0.8,0.2-1.4,0.7-1.8c0.5-0.4,1-0.6,1.7-0.6c0.6,0,1.2,0.2,1.7,0.6
	c0.5,0.4,0.7,1,0.7,1.8c0,0.8-0.2,1.4-0.7,1.8c-0.5,0.4-1,0.6-1.7,0.6C685.7,100.9,685.2,100.7,684.7,100.2z"/>
<path class="st0" d="M791.4,128.9c-0.3-0.3-0.4-0.7-0.4-1.2c0-0.5,0.1-0.9,0.4-1.2c0.3-0.3,0.6-0.5,1-0.5c0.4,0,0.7,0.2,1,0.5
	c0.3,0.3,0.4,0.7,0.4,1.2c0,0.5-0.1,0.9-0.4,1.2c-0.3,0.3-0.6,0.5-1,0.5C792,129.4,791.7,129.2,791.4,128.9z"/>
<path class="st0" d="M683.5,214.1c-0.3-0.3-0.5-0.8-0.5-1.3c0-0.6,0.2-1,0.5-1.3c0.3-0.3,0.8-0.5,1.2-0.5c0.5,0,0.9,0.2,1.2,0.5
	c0.3,0.3,0.5,0.8,0.5,1.3c0,0.6-0.2,1-0.5,1.3c-0.3,0.3-0.8,0.5-1.2,0.5C684.3,214.6,683.9,214.4,683.5,214.1z"/>
<path class="st0" d="M850.5,158.1c-0.3-0.3-0.5-0.8-0.5-1.3c0-0.6,0.2-1,0.5-1.3c0.3-0.3,0.8-0.5,1.2-0.5s0.9,0.2,1.2,0.5
	c0.3,0.3,0.5,0.8,0.5,1.3c0,0.6-0.2,1-0.5,1.3c-0.3,0.3-0.8,0.5-1.2,0.5C851.3,158.6,850.9,158.4,850.5,158.1z"/>
<path class="st0" d="M587.3,60.9c-0.2-0.2-0.3-0.5-0.3-0.8c0-0.3,0.1-0.6,0.3-0.8c0.2-0.2,0.4-0.3,0.6-0.3c0.3,0,0.5,0.1,0.6,0.3
	c0.2,0.2,0.3,0.5,0.3,0.8c0,0.3-0.1,0.6-0.3,0.8c-0.2,0.2-0.4,0.3-0.6,0.3C587.7,61.2,587.5,61.1,587.3,60.9z"/>
<path class="st0" d="M602.4,194.9c-0.3-0.3-0.4-0.7-0.4-1.2c0-0.5,0.1-0.9,0.4-1.2c0.3-0.3,0.6-0.5,1-0.5c0.4,0,0.7,0.2,1,0.5
	c0.3,0.3,0.4,0.7,0.4,1.2c0,0.5-0.1,0.9-0.4,1.2c-0.3,0.3-0.6,0.5-1,0.5C603,195.4,602.7,195.2,602.4,194.9z"/>
<path class="st0" d="M809.4,36.9c-0.3-0.3-0.4-0.7-0.4-1.2s0.1-0.9,0.4-1.2c0.3-0.3,0.6-0.5,1-0.5c0.4,0,0.7,0.2,1,0.5
	c0.3,0.3,0.4,0.7,0.4,1.2s-0.1,0.9-0.4,1.2c-0.3,0.3-0.6,0.5-1,0.5C810,37.4,809.7,37.2,809.4,36.9z"/>
<path class="st0" d="M758.8,48.3l-0.9,3.3L743,47.5l10.5-7.9c1.8-1.3,3-2.3,3.7-3c1-1,1.7-2,2-3.1c0.3-1.1,0.2-2.1-0.2-3.1
	c-0.4-1-1.2-1.6-2.3-1.9c-1.1-0.3-2.1-0.1-3,0.5c-1,0.6-1.7,1.5-2.1,2.9l-3.3-0.9c0.6-2,1.7-3.6,3.3-4.7c1.7-1.3,3.7-1.6,6-1
	c2.2,0.6,3.8,1.8,4.6,3.5c0.8,1.7,1,3.6,0.4,5.7c-0.5,1.6-1.4,3.2-3,4.6c-0.6,0.6-2,1.7-4.3,3.4l-4.8,3.5L758.8,48.3z"/>
<path class="st0" d="M725.7,20.2c-0.5-0.4-0.7-1-0.7-1.8c0-0.8,0.2-1.4,0.7-1.8c0.5-0.4,1-0.6,1.7-0.6c0.6,0,1.2,0.2,1.7,0.6
	c0.5,0.4,0.7,1,0.7,1.8c0,0.8-0.2,1.4-0.7,1.8c-0.5,0.4-1,0.6-1.7,0.6C726.7,20.9,726.2,20.7,725.7,20.2z"/>
<path class="st0" d="M929.5,104.9l-17.6,8.8l0.5-24.3c0-1.2-0.2-2.4-0.8-3.5c-0.5-1-1-1.6-1.7-2c-0.6-0.4-1.2-0.4-1.8-0.1
	c-0.7,0.4-1,1-0.9,2c0.1,1,0.4,1.9,0.8,2.8l-6.4,3.2c-0.5-1.1-1-2.1-1.4-3.2c-0.4-1.1-0.7-2.3-1-3.8c-0.3-1.5-0.4-2.9-0.3-4.1
	c0.1-1.3,0.5-2.5,1.3-3.7c0.7-1.2,1.8-2.2,3.3-2.9c2.6-1.3,5.2-1.3,7.7-0.1c2.5,1.2,4.7,3.6,6.5,7.2c0.8,1.5,1.3,2.9,1.7,4.3
	c0.4,1.4,0.6,2.9,0.7,4.5c0.1,1.6,0.1,2.9,0,3.8c0,1-0.2,2.4-0.4,4.4l5-2.5L929.5,104.9z"/>
<path class="st0" d="M1147.4,58.5l-0.9,1.9l-5.5-2.6l5.6-4.4c0.9-0.7,1.6-1.3,2-1.7c0.6-0.5,1-1.1,1.3-1.7c0.3-0.6,0.4-1.2,0.4-1.8
	s-0.2-0.9-0.7-1.1c-0.4-0.2-0.8-0.1-1.3,0.2c-0.5,0.3-0.9,0.9-1.3,1.6l-1.2-0.6c0.6-1.1,1.3-2,2.1-2.7c0.9-0.7,1.8-0.9,2.6-0.5
	c0.8,0.4,1.3,1.1,1.3,2.1c0.1,1-0.2,2.1-0.7,3.3c-0.4,0.9-1.1,1.8-1.9,2.6c-0.3,0.3-1.1,0.9-2.3,1.9l-2.5,2L1147.4,58.5z"/>
<path class="st0" d="M1073.8,52.7l0.3,1.6l-4.6,0.9l1.4-5.3c0.2-0.9,0.4-1.5,0.5-1.9c0.1-0.6,0.1-1.2,0-1.7c-0.1-0.5-0.3-1-0.6-1.3
	c-0.3-0.3-0.6-0.5-0.9-0.4c-0.3,0.1-0.6,0.3-0.7,0.7c-0.2,0.4-0.2,1-0.1,1.6l-1,0.2c-0.2-1-0.2-1.8,0.1-2.6c0.2-0.9,0.7-1.3,1.4-1.5
	c0.7-0.1,1.3,0.1,1.8,0.7c0.5,0.6,0.9,1.4,1.1,2.4c0.1,0.8,0.1,1.6,0,2.5c-0.1,0.3-0.2,1.1-0.6,2.2l-0.7,2.4L1073.8,52.7z"/>
<path class="st0" d="M1123.1,138.4l-1.8,5.6l-25.4-7.9l18.5-13c3.1-2.2,5.3-3.8,6.5-4.9c1.8-1.6,3.1-3.3,3.6-5.2
	c0.6-1.9,0.5-3.6-0.2-5.3c-0.7-1.7-2-2.8-3.9-3.4c-1.8-0.6-3.5-0.4-5.2,0.6c-1.7,1-2.9,2.6-3.7,4.8l-5.6-1.7c1.2-3.4,3.2-6.1,6-7.9
	c3-2.1,6.5-2.5,10.3-1.3c3.8,1.2,6.4,3.3,7.7,6.3c1.4,3,1.5,6.3,0.4,9.8c-0.9,2.8-2.7,5.4-5.4,7.7c-1,0.9-3.6,2.8-7.7,5.7l-8.5,5.8
	L1123.1,138.4z"/>
<path class="st0" d="M1006.4,157.7l1.4,5.3l-17.1,4.5l6.1-14c0.7-1.5,1.1-2.7,1.3-3.5c0.2-0.8,0.2-1.5,0-2.2c-0.2-0.8-0.7-1.5-1.3-2
	c-0.7-0.5-1.4-0.6-2.2-0.4c-0.6,0.2-1.1,0.5-1.4,0.9c-0.3,0.4-0.5,0.9-0.5,1.5c0,0.5,0,1,0,1.4c0,0.4,0.1,0.7,0.2,1.1l-5.6,1.5
	c-0.2-1-0.4-2-0.3-3c0-1,0.2-2.1,0.5-3.3c0.3-1.1,1-2.2,2-3.1c1-0.9,2.3-1.6,3.9-2c2.6-0.7,4.8-0.4,6.6,0.8c1.8,1.2,3,2.9,3.6,5.1
	c0.5,1.7,0.4,3.4-0.1,5.1c-0.5,1.7-1.7,4.4-3.6,8.1L1006.4,157.7z"/>
<path class="st0" d="M1067.7,132.9l0,2.7l-8.7-0.1l4.8-5.8c0.5-0.6,0.9-1.1,1.1-1.5c0.2-0.3,0.3-0.7,0.3-1c0-0.4-0.1-0.8-0.3-1.1
	c-0.2-0.3-0.6-0.5-1-0.5c-0.3,0-0.6,0.1-0.8,0.2c-0.2,0.2-0.4,0.4-0.4,0.6c-0.1,0.2-0.1,0.5-0.2,0.7c0,0.2-0.1,0.4-0.1,0.5l-2.8,0
	c0-0.5,0.1-1,0.2-1.5c0.2-0.5,0.4-1,0.7-1.5c0.3-0.5,0.8-0.9,1.4-1.2c0.6-0.3,1.3-0.4,2.1-0.4c1.3,0,2.3,0.4,3,1.2
	c0.7,0.8,1,1.8,1,2.9c0,0.9-0.3,1.7-0.7,2.4c-0.5,0.7-1.4,1.9-2.8,3.3L1067.7,132.9z"/>
<path class="st0" d="M1135.5,204.6l-3.8,3.9l-12.7-12.2l15.2-2c1.7-0.2,2.9-0.5,3.6-0.7c0.7-0.2,1.4-0.6,1.9-1.1
	c0.6-0.6,1-1.3,1-2.2c0.1-0.8-0.2-1.5-0.8-2.1c-0.4-0.4-0.9-0.7-1.5-0.7c-0.5-0.1-1,0-1.5,0.3c-0.5,0.3-0.9,0.5-1.2,0.7
	c-0.3,0.2-0.6,0.5-0.8,0.7l-4.1-4c0.7-0.7,1.5-1.3,2.4-1.9c0.9-0.5,1.9-0.9,3.1-1.3c1.1-0.3,2.4-0.3,3.7,0.1
	c1.3,0.4,2.5,1.1,3.7,2.3c1.9,1.9,2.9,3.9,2.8,6c-0.1,2.2-0.9,4-2.5,5.7c-1.2,1.3-2.7,2.1-4.4,2.5c-1.7,0.4-4.7,0.8-8.8,1.1
	L1135.5,204.6z"/>
<path class="st0" d="M982.7,83.2c-0.5-0.4-0.7-1-0.7-1.8c0-0.8,0.2-1.4,0.7-1.8c0.5-0.4,1-0.6,1.7-0.6c0.6,0,1.2,0.2,1.7,0.6
	c0.5,0.4,0.7,1,0.7,1.8c0,0.8-0.2,1.4-0.7,1.8c-0.5,0.4-1,0.6-1.7,0.6C983.7,83.9,983.2,83.7,982.7,83.2z"/>
<path class="st0" d="M1086.4,116.9c-0.3-0.3-0.4-0.7-0.4-1.2c0-0.5,0.1-0.9,0.4-1.2c0.3-0.3,0.6-0.5,1-0.5s0.7,0.2,1,0.5
	c0.3,0.3,0.4,0.7,0.4,1.2c0,0.5-0.1,0.9-0.4,1.2c-0.3,0.3-0.6,0.5-1,0.5S1086.7,117.2,1086.4,116.9z"/>
<path class="st0" d="M979.5,196.1c-0.3-0.3-0.5-0.8-0.5-1.3c0-0.6,0.2-1,0.5-1.3c0.3-0.3,0.8-0.5,1.2-0.5c0.5,0,0.9,0.2,1.2,0.5
	c0.3,0.3,0.5,0.8,0.5,1.3c0,0.6-0.2,1-0.5,1.3c-0.3,0.3-0.8,0.5-1.2,0.5C980.3,196.6,979.9,196.4,979.5,196.1z"/>
<path class="st0" d="M1146.5,147.1c-0.3-0.3-0.5-0.8-0.5-1.3c0-0.6,0.2-1,0.5-1.3c0.3-0.3,0.8-0.5,1.2-0.5s0.9,0.2,1.2,0.5
	c0.3,0.3,0.5,0.8,0.5,1.3c0,0.6-0.2,1-0.5,1.3c-0.3,0.3-0.8,0.5-1.2,0.5S1146.9,147.4,1146.5,147.1z"/>
<path class="st0" d="M882.3,50.9c-0.2-0.2-0.3-0.5-0.3-0.8c0-0.3,0.1-0.6,0.3-0.8c0.2-0.2,0.4-0.3,0.6-0.3c0.3,0,0.5,0.1,0.6,0.3
	c0.2,0.2,0.3,0.5,0.3,0.8c0,0.3-0.1,0.6-0.3,0.8c-0.2,0.2-0.4,0.3-0.6,0.3C882.7,51.2,882.5,51.1,882.3,50.9z"/>
<path class="st0" d="M884.4,179.9c-0.3-0.3-0.4-0.7-0.4-1.2c0-0.5,0.1-0.9,0.4-1.2c0.3-0.3,0.6-0.5,1-0.5c0.4,0,0.7,0.2,1,0.5
	c0.3,0.3,0.4,0.7,0.4,1.2c0,0.5-0.1,0.9-0.4,1.2c-0.3,0.3-0.6,0.5-1,0.5C885,180.4,884.7,180.2,884.4,179.9z"/>
<path class="st0" d="M1102.4,30.9c-0.3-0.3-0.4-0.7-0.4-1.2s0.1-0.9,0.4-1.2c0.3-0.3,0.6-0.5,1-0.5s0.7,0.2,1,0.5
	c0.3,0.3,0.4,0.7,0.4,1.2s-0.1,0.9-0.4,1.2c-0.3,0.3-0.6,0.5-1,0.5S1102.7,31.2,1102.4,30.9z"/>
<path class="st0" d="M1029.7,14.2c-0.5-0.4-0.7-1-0.7-1.8c0-0.8,0.2-1.4,0.7-1.8c0.5-0.4,1-0.6,1.7-0.6c0.6,0,1.2,0.2,1.7,0.6
	c0.5,0.4,0.7,1,0.7,1.8c0,0.8-0.2,1.4-0.7,1.8c-0.5,0.4-1,0.6-1.7,0.6C1030.7,14.9,1030.2,14.7,1029.7,14.2z"/>
<path class="st0" d="M1059.8,38.3l-0.9,3.3l-14.9-4.1l10.5-7.9c1.8-1.3,3-2.3,3.7-3c1-1,1.7-2,2-3.1c0.3-1.1,0.2-2.1-0.2-3.1
	c-0.4-1-1.2-1.6-2.3-1.9c-1.1-0.3-2.1-0.1-3,0.5c-1,0.6-1.7,1.5-2.1,2.9l-3.3-0.9c0.6-2,1.7-3.6,3.3-4.7c1.7-1.3,3.7-1.6,5.9-1
	c2.2,0.6,3.8,1.8,4.6,3.5c0.8,1.7,1,3.6,0.4,5.7c-0.4,1.6-1.4,3.2-3,4.6c-0.6,0.6-2,1.7-4.3,3.4l-4.8,3.5L1059.8,38.3z"/>
<path class="st0" d="M1208.5,84.9l-17.6,8.8l0.5-24.3c0.1-1.2-0.2-2.4-0.8-3.5c-0.5-1-1-1.6-1.7-2c-0.6-0.4-1.2-0.4-1.8-0.1
	c-0.7,0.4-1,1-0.9,2c0.1,1,0.4,1.9,0.8,2.8l-6.4,3.2c-0.5-1.1-0.9-2.1-1.3-3.2c-0.4-1.1-0.7-2.3-1-3.8c-0.3-1.5-0.4-2.9-0.3-4.1
	c0.1-1.3,0.5-2.5,1.3-3.7c0.7-1.2,1.8-2.2,3.3-2.9c2.6-1.3,5.2-1.3,7.7-0.1c2.5,1.2,4.7,3.6,6.5,7.2c0.8,1.5,1.3,2.9,1.7,4.3
	c0.4,1.4,0.6,2.9,0.7,4.5c0,1.6,0.1,2.9,0,3.8c-0.1,1-0.2,2.4-0.4,4.4l5-2.5L1208.5,84.9z"/>
<path class="st0" d="M1423.1,111.4l-1.8,5.6l-25.4-7.9l18.5-13c3.1-2.2,5.3-3.8,6.5-4.9c1.8-1.6,3.1-3.3,3.6-5.2
	c0.6-1.9,0.5-3.6-0.2-5.3c-0.7-1.7-2-2.8-3.9-3.4c-1.8-0.6-3.5-0.4-5.2,0.6c-1.7,1-2.9,2.6-3.7,4.8l-5.6-1.7c1.2-3.4,3.2-6.1,6-7.9
	c3-2.1,6.5-2.5,10.3-1.3c3.8,1.2,6.4,3.3,7.7,6.3c1.4,3,1.5,6.3,0.4,9.8c-0.9,2.8-2.7,5.4-5.4,7.7c-1,0.9-3.6,2.8-7.7,5.7l-8.5,5.8
	L1423.1,111.4z"/>
<path class="st0" d="M1288.4,134.7l1.4,5.3l-17.1,4.5l6.1-14c0.7-1.5,1.1-2.7,1.3-3.5c0.2-0.8,0.2-1.5,0-2.2c-0.2-0.8-0.7-1.5-1.3-2
	c-0.7-0.5-1.4-0.6-2.2-0.4c-0.6,0.2-1,0.5-1.4,0.9c-0.3,0.4-0.5,0.9-0.5,1.5c0,0.5,0,1,0,1.4c0,0.4,0.1,0.7,0.2,1.1l-5.6,1.5
	c-0.2-1-0.3-2-0.3-3c0-1,0.2-2.1,0.5-3.3c0.3-1.1,1-2.2,2-3.1c1-0.9,2.3-1.6,3.9-2c2.6-0.7,4.8-0.4,6.6,0.8c1.8,1.2,3,2.9,3.6,5.1
	c0.5,1.7,0.4,3.4-0.1,5.1c-0.5,1.7-1.7,4.4-3.6,8.1L1288.4,134.7z"/>
<path class="st0" d="M1358.7,120.9l0,2.7l-8.7-0.1l4.8-5.8c0.5-0.6,0.9-1.1,1.1-1.5c0.2-0.3,0.3-0.7,0.3-1c0-0.4-0.1-0.8-0.3-1.1
	c-0.2-0.3-0.6-0.5-1-0.5c-0.3,0-0.6,0.1-0.8,0.2c-0.2,0.2-0.4,0.4-0.4,0.6c-0.1,0.2-0.1,0.5-0.2,0.7c0,0.2-0.1,0.4-0.1,0.5l-2.8,0
	c0-0.5,0.1-1,0.2-1.5c0.2-0.5,0.4-1,0.7-1.5c0.3-0.5,0.8-0.9,1.4-1.2c0.6-0.3,1.3-0.4,2.1-0.4c1.3,0,2.3,0.4,3,1.2
	c0.7,0.8,1,1.8,1,2.9c0,0.9-0.3,1.7-0.7,2.4c-0.5,0.7-1.4,1.9-2.8,3.3L1358.7,120.9z"/>
<path class="st0" d="M1433.5,191.6l-3.8,3.9l-12.7-12.2l15.2-2c1.7-0.2,2.9-0.5,3.6-0.7c0.7-0.2,1.4-0.6,1.9-1.1
	c0.6-0.6,1-1.3,1-2.2c0.1-0.8-0.2-1.5-0.8-2.1c-0.4-0.4-0.9-0.7-1.5-0.7c-0.5-0.1-1,0-1.5,0.3c-0.5,0.3-0.9,0.5-1.2,0.7
	c-0.3,0.2-0.6,0.5-0.8,0.7l-4.1-4c0.7-0.7,1.5-1.3,2.4-1.9c0.9-0.5,1.9-0.9,3.1-1.3c1.1-0.3,2.4-0.3,3.7,0.1
	c1.3,0.4,2.5,1.1,3.7,2.3c1.9,1.9,2.9,3.9,2.8,6c-0.1,2.2-0.9,4-2.5,5.7c-1.2,1.3-2.7,2.1-4.4,2.5c-1.7,0.4-4.7,0.8-8.8,1.1
	L1433.5,191.6z"/>
<path class="st0" d="M1279.7,64.2c-0.5-0.4-0.7-1-0.7-1.8c0-0.8,0.2-1.4,0.7-1.8c0.5-0.4,1-0.6,1.7-0.6c0.6,0,1.2,0.2,1.7,0.6
	c0.5,0.4,0.7,1,0.7,1.8c0,0.8-0.2,1.4-0.7,1.8c-0.5,0.4-1,0.6-1.7,0.6C1280.7,64.9,1280.2,64.7,1279.7,64.2z"/>
<path class="st0" d="M1380.4,105.9c-0.3-0.3-0.4-0.7-0.4-1.2c0-0.5,0.1-0.9,0.4-1.2c0.3-0.3,0.6-0.5,1-0.5s0.7,0.2,1,0.5
	c0.3,0.3,0.4,0.7,0.4,1.2c0,0.5-0.1,0.9-0.4,1.2c-0.3,0.3-0.6,0.5-1,0.5S1380.7,106.2,1380.4,105.9z"/>
<path class="st0" d="M1276.5,181.1c-0.3-0.3-0.5-0.8-0.5-1.3c0-0.6,0.2-1,0.5-1.3c0.3-0.3,0.8-0.5,1.2-0.5s0.9,0.2,1.2,0.5
	c0.3,0.3,0.5,0.8,0.5,1.3c0,0.6-0.2,1-0.5,1.3c-0.3,0.3-0.8,0.5-1.2,0.5S1276.9,181.4,1276.5,181.1z"/>
<path class="st0" d="M1441.5,138.1c-0.3-0.3-0.5-0.8-0.5-1.3c0-0.6,0.2-1,0.5-1.3c0.3-0.3,0.8-0.5,1.2-0.5s0.9,0.2,1.2,0.5
	c0.3,0.3,0.5,0.8,0.5,1.3c0,0.6-0.2,1-0.5,1.3c-0.3,0.3-0.8,0.5-1.2,0.5S1441.9,138.4,1441.5,138.1z"/>
<path class="st0" d="M1173.3,43.9c-0.2-0.2-0.3-0.5-0.3-0.8c0-0.3,0.1-0.6,0.3-0.8c0.2-0.2,0.4-0.3,0.7-0.3c0.2,0,0.5,0.1,0.6,0.3
	c0.2,0.2,0.3,0.5,0.3,0.8c0,0.3-0.1,0.6-0.3,0.8c-0.2,0.2-0.4,0.3-0.6,0.3C1173.7,44.2,1173.4,44.1,1173.3,43.9z"/>
<path class="st0" d="M1163.4,166.9c-0.3-0.3-0.4-0.7-0.4-1.2c0-0.5,0.1-0.9,0.4-1.2c0.3-0.3,0.6-0.5,1-0.5s0.7,0.2,1,0.5
	c0.3,0.3,0.4,0.7,0.4,1.2c0,0.5-0.1,0.9-0.4,1.2c-0.3,0.3-0.6,0.5-1,0.5S1163.7,167.2,1163.4,166.9z"/>
<path class="st0" d="M1434.4,43.5l-0.9,1.9l-5.5-2.6l5.6-4.4c0.9-0.7,1.6-1.3,2-1.7c0.6-0.5,1-1.1,1.3-1.7c0.3-0.6,0.4-1.2,0.4-1.8
	s-0.2-0.9-0.7-1.1c-0.4-0.2-0.8-0.1-1.3,0.2c-0.5,0.3-0.9,0.9-1.3,1.6l-1.2-0.6c0.6-1.1,1.3-2,2.1-2.7c0.9-0.7,1.8-0.9,2.6-0.5
	c0.8,0.4,1.3,1.1,1.3,2.1c0.1,1-0.2,2.1-0.7,3.3c-0.4,0.9-1.1,1.8-1.9,2.6c-0.3,0.3-1.1,0.9-2.3,1.9l-2.5,2L1434.4,43.5z"/>
<path class="st0" d="M1392.4,14.9c-0.3-0.3-0.4-0.7-0.4-1.2c0-0.5,0.1-0.9,0.4-1.2c0.3-0.3,0.6-0.5,1-0.5s0.7,0.2,1,0.5
	c0.3,0.3,0.4,0.7,0.4,1.2c0,0.5-0.1,0.9-0.4,1.2c-0.3,0.3-0.6,0.5-1,0.5S1392.7,15.2,1392.4,14.9z"/>
<path class="st0" d="M1360.8,37.7l0.3,1.6l-4.6,0.9l1.4-5.3c0.2-0.9,0.4-1.5,0.5-1.9c0.1-0.6,0.1-1.2,0-1.7c-0.1-0.5-0.3-1-0.6-1.3
	c-0.3-0.3-0.6-0.5-0.9-0.4c-0.3,0.1-0.6,0.3-0.7,0.7c-0.2,0.4-0.2,1-0.1,1.6l-1,0.2c-0.2-1-0.2-1.8,0.1-2.6c0.2-0.9,0.7-1.3,1.4-1.5
	c0.7-0.1,1.3,0.1,1.8,0.7c0.5,0.6,0.9,1.4,1.1,2.4c0.1,0.8,0.1,1.6,0,2.5c-0.1,0.3-0.2,1.1-0.6,2.2l-0.7,2.4L1360.8,37.7z"/>
<path class="st0" d="M1350.8,23.3l-0.9,3.3l-14.9-4.1l10.5-7.9c1.8-1.3,3-2.3,3.7-3c1-1,1.7-2,2-3.1c0.3-1.1,0.2-2.1-0.2-3.1
	c-0.4-1-1.2-1.6-2.3-1.9c-1.1-0.3-2.1-0.1-3,0.5c-1,0.6-1.7,1.5-2.1,2.9l-3.3-0.9c0.6-2,1.7-3.6,3.3-4.7c1.7-1.3,3.7-1.6,5.9-1
	c2.2,0.6,3.8,1.8,4.6,3.5c0.8,1.7,1,3.6,0.4,5.7c-0.4,1.6-1.4,3.2-3,4.6c-0.6,0.6-2,1.7-4.3,3.4l-4.8,3.5L1350.8,23.3z"/>
<path class="st0" d="M1301.7,4.2c-0.5-0.4-0.7-1-0.7-1.8c0-0.8,0.2-1.4,0.7-1.8c0.5-0.4,1-0.6,1.7-0.6c0.6,0,1.2,0.2,1.7,0.6
	c0.5,0.4,0.7,1,0.7,1.8s-0.2,1.4-0.7,1.8c-0.5,0.4-1,0.6-1.7,0.6C1302.7,4.9,1302.2,4.7,1301.7,4.2z"/>
</svg>
