<svg width="1445" height="255" viewBox="0 0 1445 255" fill="none" xmlns="http://www.w3.org/2000/svg">
<g clip-path="url(#clip0)">
<path d="M74.2695 171.845L80.9802 168.51C81.2619 169.069 81.5637 169.558 81.8756 169.988C82.1875 170.417 82.6402 170.786 83.2237 171.096C83.8073 171.395 84.3908 171.405 84.9743 171.116C86.1515 170.537 86.2118 169.219 85.1756 167.162C84.2198 165.275 82.9622 164.716 81.4027 165.495L80.2658 166.064L76.9055 159.415L77.9015 158.916C78.2537 158.746 78.5253 158.576 78.7265 158.416C78.9277 158.257 79.0485 157.887 79.0988 157.308C79.1491 156.729 78.9579 156.02 78.5354 155.172C78.2033 154.523 77.7908 154.043 77.2878 153.744C76.7848 153.444 76.3018 153.405 75.8592 153.634C75.2555 153.934 74.9637 154.423 74.9738 155.082C74.9838 155.741 75.175 156.42 75.5171 157.109L69.0479 160.333C68.3738 158.756 67.8808 157.278 67.579 155.9C67.2772 154.523 67.1162 153.335 67.1162 152.336C67.1162 151.338 67.2369 150.409 67.4683 149.561C67.7098 148.702 67.9814 148.023 68.2933 147.494C68.6052 146.975 68.9875 146.486 69.4302 146.046C69.8729 145.607 70.2452 145.288 70.5269 145.098C70.8186 144.918 71.1003 144.749 71.3921 144.609C73.6357 143.491 75.9598 143.321 78.3643 144.11C80.7588 144.898 82.7509 146.855 84.3304 149.98C85.3365 151.967 85.8396 153.754 85.8396 155.351C85.8396 156.939 85.4271 158.147 84.592 158.975L84.6625 159.125C85.085 159.085 85.5378 159.095 86.0408 159.175C86.5438 159.255 87.1978 159.465 88.0128 159.814C88.8277 160.164 89.6829 160.832 90.5783 161.811C91.4737 162.789 92.3088 164.027 93.0633 165.525C94.5423 168.46 95.0453 171.266 94.5725 173.951C94.0996 176.637 92.2886 178.763 89.1396 180.321C87.8518 180.96 86.5539 181.239 85.2561 181.15C83.9582 181.06 82.7911 180.73 81.775 180.161C80.7488 179.592 79.7427 178.803 78.7366 177.815C77.7305 176.827 76.8954 175.858 76.2213 174.91C75.5372 173.941 74.8933 172.923 74.2695 171.845Z" fill="#FFC700"/>
<path d="M284.755 98.4436L283.547 97.8745C284 97.0359 284.473 96.3969 284.976 95.9276C285.892 95.079 286.807 94.8594 287.723 95.2887C288.467 95.6381 288.89 96.2671 288.99 97.1756C289.091 98.0842 288.87 99.1025 288.336 100.231C287.743 101.479 286.988 102.297 286.063 102.707C286.475 103.615 286.324 104.813 285.62 106.301C285.388 106.78 285.127 107.229 284.825 107.649C284.523 108.068 284.171 108.467 283.769 108.837C283.366 109.206 282.914 109.456 282.41 109.566C281.907 109.675 281.404 109.615 280.911 109.386C280.247 109.076 279.845 108.597 279.694 107.948C279.543 107.299 279.543 106.6 279.704 105.852C279.815 105.332 279.996 104.793 280.227 104.244L281.435 104.813C281.183 105.422 281.082 105.981 281.143 106.501C281.203 107.01 281.424 107.359 281.817 107.539C282.239 107.739 282.682 107.669 283.155 107.329C283.628 107 284.04 106.451 284.403 105.702C284.704 105.063 284.835 104.484 284.785 103.945C284.735 103.406 284.493 103.036 284.06 102.836L283.819 102.727L284.674 100.94L284.916 101.049C285.771 101.449 286.485 101.039 287.079 99.8014C287.391 99.1524 287.521 98.5933 287.471 98.1241C287.421 97.6549 287.22 97.3254 286.847 97.1557C286.505 96.9959 286.153 97.0259 285.781 97.2555C285.388 97.4751 285.056 97.8745 284.755 98.4436Z" fill="#FFC700"/>
<path d="M205.363 86.333L204.347 86.5327C204.247 85.8138 204.237 85.1948 204.337 84.6757C204.518 83.7272 204.981 83.1781 205.746 83.0383C206.37 82.9185 206.923 83.1182 207.396 83.6374C207.869 84.1565 208.211 84.8853 208.392 85.8338C208.603 86.8721 208.512 87.7307 208.12 88.3997C208.794 88.779 209.257 89.5877 209.498 90.8257C209.579 91.2251 209.619 91.6244 209.629 92.0238C209.639 92.4231 209.599 92.8225 209.519 93.2418C209.438 93.6611 209.267 94.0106 209.005 94.3101C208.744 94.6096 208.402 94.7993 207.989 94.8792C207.436 94.989 206.963 94.8792 206.571 94.5397C206.178 94.2102 205.856 93.771 205.615 93.2318C205.444 92.8624 205.313 92.4431 205.202 91.9938L206.209 91.7942C206.329 92.2834 206.53 92.6827 206.802 92.9723C207.074 93.2618 207.376 93.3716 207.698 93.3117C208.05 93.2418 208.291 93.0022 208.432 92.5829C208.573 92.1636 208.583 91.6344 208.452 91.0054C208.352 90.4763 208.16 90.057 207.879 89.7375C207.597 89.428 207.285 89.3082 206.913 89.3781L206.712 89.418L206.45 87.9304L206.651 87.8905C207.366 87.7507 207.617 87.1716 207.416 86.1333C207.305 85.5942 207.134 85.1849 206.883 84.9153C206.641 84.6457 206.359 84.5359 206.048 84.5958C205.766 84.6557 205.555 84.8354 205.434 85.1349C205.313 85.4444 205.293 85.8438 205.363 86.333Z" fill="#FFC700"/>
<path d="M221.209 172.264L215.595 170.527C216.611 168.041 217.909 166.104 219.499 164.726C222.426 162.19 226.018 161.581 230.264 162.899C233.725 163.967 236.129 165.874 237.478 168.61C238.826 171.345 238.977 174.401 237.92 177.765C236.753 181.479 234.459 183.935 231.039 185.133C233.695 187.869 234.328 191.463 232.92 195.916C232.467 197.353 231.843 198.691 231.029 199.949C230.214 201.207 229.167 202.395 227.869 203.493C226.572 204.602 224.932 205.32 222.96 205.64C220.978 205.959 218.845 205.77 216.541 205.051C213.482 204.102 211.289 202.645 209.971 200.688C208.653 198.731 207.949 196.635 207.858 194.398C207.788 192.851 207.959 191.243 208.361 189.586L213.975 191.323C213.563 193.15 213.744 194.827 214.519 196.365C215.303 197.902 216.591 198.951 218.392 199.51C220.334 200.109 222.115 199.919 223.724 198.931C225.334 197.942 226.501 196.325 227.205 194.079C227.799 192.182 227.718 190.425 226.964 188.807C226.209 187.19 224.821 186.072 222.809 185.443L221.672 185.093L223.352 179.752L224.489 180.101C228.453 181.329 231.008 180.101 232.165 176.417C232.769 174.48 232.739 172.803 232.065 171.385C231.391 169.968 230.183 168.979 228.453 168.45C226.863 167.961 225.425 168.051 224.137 168.71C222.839 169.369 221.863 170.557 221.209 172.264Z" fill="#FFC700"/>
<path d="M127.834 217.99L133.388 216.532C133.589 217.361 133.981 218.07 134.585 218.659C135.189 219.258 136.014 219.417 137.07 219.138C138.931 218.649 139.565 217.301 138.971 215.094C138.811 214.505 138.579 214.046 138.277 213.707C137.975 213.377 137.613 213.178 137.211 213.128C136.798 213.078 136.456 213.068 136.185 213.088C135.903 213.118 135.571 213.178 135.168 213.287L134.474 213.467L133.378 209.374L134.072 209.194C134.283 209.134 134.484 209.064 134.686 208.954C134.887 208.855 135.128 208.675 135.41 208.435C135.692 208.186 135.883 207.846 135.983 207.407C136.084 206.968 136.054 206.448 135.893 205.859C135.641 204.931 135.239 204.332 134.686 204.072C134.132 203.813 133.579 203.763 133.025 203.903C132.351 204.082 131.838 204.472 131.506 205.091C131.174 205.71 131.114 206.359 131.315 207.058L125.762 208.515C125.621 207.477 125.59 206.518 125.691 205.63C125.782 204.741 125.943 203.992 126.174 203.383C126.405 202.774 126.717 202.215 127.12 201.706C127.522 201.197 127.904 200.788 128.287 200.488C128.669 200.179 129.102 199.909 129.595 199.669C130.088 199.43 130.48 199.26 130.782 199.16C131.084 199.06 131.406 198.961 131.738 198.871C133.81 198.322 135.732 198.402 137.503 199.11C139.273 199.809 140.45 201.247 141.024 203.403C141.356 204.631 141.346 205.76 140.994 206.788C140.642 207.816 139.998 208.605 139.062 209.144L139.092 209.244C140.259 209.274 141.366 209.703 142.412 210.502C143.469 211.311 144.223 212.589 144.696 214.336C145.3 216.612 145.028 218.649 143.871 220.456C142.714 222.263 140.843 223.501 138.267 224.18C136.869 224.549 135.581 224.629 134.414 224.429C133.237 224.23 132.291 223.88 131.577 223.391C130.862 222.902 130.208 222.263 129.645 221.484C129.072 220.705 128.669 220.066 128.438 219.557C128.196 219.058 127.995 218.529 127.834 217.99Z" fill="#FFC700"/>
<path d="M186.006 167.671L188.823 167.711C188.803 168.131 188.903 168.51 189.105 168.879C189.306 169.239 189.678 169.428 190.211 169.428C191.157 169.438 191.64 168.889 191.66 167.771C191.66 167.472 191.62 167.222 191.519 167.022C191.419 166.823 191.278 166.683 191.087 166.603C190.895 166.523 190.734 166.473 190.604 166.453C190.473 166.433 190.302 166.413 190.101 166.413L189.749 166.403L189.779 164.327L190.131 164.337C190.241 164.337 190.342 164.327 190.453 164.307C190.563 164.287 190.694 164.237 190.865 164.157C191.036 164.077 191.167 163.947 191.278 163.748C191.388 163.548 191.439 163.308 191.439 163.009C191.449 162.54 191.338 162.2 191.107 162.01C190.875 161.821 190.624 161.721 190.342 161.711C190 161.701 189.708 161.831 189.467 162.07C189.225 162.32 189.115 162.619 189.115 162.979L186.298 162.939C186.368 162.43 186.489 161.97 186.65 161.561C186.811 161.152 186.992 160.822 187.183 160.563C187.374 160.303 187.595 160.084 187.857 159.894C188.109 159.704 188.35 159.564 188.571 159.475C188.793 159.375 189.034 159.305 189.296 159.265C189.557 159.215 189.769 159.185 189.93 159.175C190.081 159.165 190.252 159.165 190.423 159.165C191.479 159.185 192.374 159.475 193.119 160.034C193.863 160.603 194.226 161.431 194.205 162.53C194.195 163.159 194.045 163.688 193.743 164.127C193.441 164.566 193.028 164.856 192.515 164.986V165.036C193.059 165.205 193.531 165.555 193.914 166.074C194.306 166.593 194.487 167.302 194.477 168.19C194.457 169.349 194.055 170.267 193.27 170.976C192.475 171.675 191.429 172.014 190.121 171.994C189.406 171.984 188.793 171.854 188.27 171.605C187.746 171.355 187.344 171.066 187.062 170.736C186.791 170.407 186.569 170.027 186.408 169.578C186.247 169.139 186.137 168.779 186.096 168.51C186.036 168.22 186.006 167.951 186.006 167.671Z" fill="#FFC700"/>
<path d="M174.326 65.0276L171.036 64.1291C171.579 62.6614 172.294 61.5133 173.179 60.6846C174.829 59.1571 176.892 58.7278 179.387 59.4067C181.409 59.9558 182.848 61.0141 183.683 62.5716C184.528 64.1291 184.669 65.8962 184.125 67.873C183.522 70.0495 182.244 71.5271 180.292 72.2858C181.892 73.8234 182.324 75.89 181.61 78.4958C181.379 79.3344 181.037 80.1232 180.594 80.8719C180.151 81.6207 179.568 82.3296 178.833 82.9985C178.109 83.6674 177.173 84.1167 176.026 84.3363C174.889 84.566 173.642 84.4961 172.294 84.1267C170.503 83.6375 169.195 82.8388 168.39 81.7306C167.585 80.6223 167.132 79.4243 167.042 78.1264C166.971 77.2278 167.032 76.2993 167.233 75.3209L170.523 76.2195C170.322 77.2877 170.463 78.2562 170.946 79.1348C171.428 80.0133 172.203 80.5924 173.26 80.8819C174.396 81.1914 175.423 81.0417 176.338 80.4327C177.254 79.8236 177.898 78.8652 178.26 77.5473C178.562 76.4391 178.481 75.4208 178.008 74.5023C177.535 73.5837 176.71 72.9647 175.523 72.6353L174.859 72.4556L175.724 69.3206L176.389 69.5004C178.713 70.1293 180.171 69.3706 180.765 67.2141C181.077 66.0759 181.027 65.1075 180.604 64.2988C180.181 63.4901 179.467 62.941 178.451 62.6714C177.525 62.4218 176.69 62.5017 175.956 62.911C175.211 63.3104 174.678 64.0192 174.326 65.0276Z" fill="#FFC700"/>
<path d="M239.862 240.074L243.997 244.028C243.383 244.617 242.981 245.326 242.78 246.144C242.578 246.963 242.87 247.752 243.655 248.501C245.043 249.828 246.532 249.669 248.132 248.021C248.565 247.582 248.836 247.143 248.967 246.714C249.098 246.284 249.078 245.885 248.907 245.505C248.736 245.136 248.575 244.837 248.414 244.607C248.253 244.387 248.021 244.128 247.72 243.848L247.196 243.349L250.164 240.304L250.688 240.803C250.849 240.953 251.02 241.093 251.211 241.202C251.402 241.322 251.674 241.432 252.036 241.552C252.398 241.672 252.79 241.652 253.223 241.512C253.656 241.372 254.078 241.073 254.511 240.633C255.185 239.934 255.487 239.286 255.426 238.687C255.356 238.078 255.124 237.588 254.712 237.189C254.209 236.71 253.605 236.48 252.901 236.51C252.197 236.54 251.603 236.83 251.11 237.369L246.975 233.405C247.79 232.746 248.615 232.237 249.42 231.848C250.235 231.468 250.959 231.219 251.613 231.099C252.257 230.979 252.901 230.959 253.545 231.039C254.189 231.119 254.742 231.229 255.205 231.398C255.668 231.568 256.131 231.788 256.593 232.087C257.056 232.377 257.408 232.626 257.65 232.826C257.891 233.026 258.143 233.245 258.394 233.495C259.934 234.973 260.859 236.65 261.171 238.517C261.483 240.384 260.859 242.121 259.29 243.728C258.404 244.647 257.418 245.216 256.352 245.456C255.285 245.695 254.269 245.555 253.324 245.026L253.253 245.106C253.827 246.114 254.038 247.273 253.887 248.581C253.736 249.888 253.022 251.196 251.754 252.504C250.104 254.201 248.203 255.02 246.049 254.97C243.896 254.92 241.854 253.972 239.932 252.135C238.896 251.136 238.162 250.088 237.719 248.99C237.286 247.892 237.095 246.903 237.146 246.035C237.196 245.166 237.407 244.297 237.789 243.409C238.162 242.52 238.504 241.851 238.826 241.382C239.128 240.943 239.48 240.494 239.862 240.074Z" fill="#FFC700"/>
<path d="M97.1076 124.881C96.6347 124.461 96.4033 123.862 96.4033 123.094C96.4033 122.315 96.6347 121.716 97.1076 121.286C97.5804 120.857 98.1338 120.647 98.7676 120.647C99.4015 120.647 99.9548 120.857 100.428 121.286C100.901 121.716 101.132 122.315 101.132 123.094C101.132 123.872 100.901 124.471 100.428 124.881C99.9548 125.3 99.4015 125.51 98.7676 125.51C98.1338 125.51 97.5804 125.29 97.1076 124.881Z" fill="#FFC700"/>
<path d="M158.66 49.2331C158.187 48.8138 157.956 48.2148 157.956 47.446C157.956 46.6673 158.187 46.0683 158.66 45.639C159.133 45.2097 159.687 45 160.32 45C160.954 45 161.508 45.2097 161.98 45.639C162.453 46.0683 162.685 46.6673 162.685 47.446C162.685 48.2248 162.453 48.8238 161.98 49.2331C161.508 49.6525 160.954 49.8621 160.32 49.8621C159.687 49.8621 159.133 49.6525 158.66 49.2331Z" fill="#FFC700"/>
<path d="M210.143 138.948C209.871 138.618 209.73 138.219 209.73 137.76C209.73 137.301 209.871 136.901 210.143 136.572C210.415 136.242 210.747 136.073 211.139 136.073C211.531 136.073 211.853 136.242 212.135 136.572C212.417 136.901 212.548 137.301 212.548 137.76C212.548 138.219 212.407 138.618 212.135 138.948C211.863 139.277 211.531 139.447 211.139 139.447C210.747 139.447 210.415 139.277 210.143 138.948Z" fill="#FFC700"/>
<path d="M228.604 59.0772C228.332 58.7478 228.191 58.3484 228.191 57.8892C228.191 57.4299 228.332 57.0306 228.604 56.7011C228.876 56.3716 229.208 56.2019 229.6 56.2019C229.992 56.2019 230.314 56.3716 230.596 56.7011C230.878 57.0306 231.008 57.4299 231.008 57.8892C231.008 58.3484 230.868 58.7478 230.596 59.0772C230.324 59.4067 229.992 59.5764 229.6 59.5764C229.208 59.5764 228.886 59.4067 228.604 59.0772Z" fill="#FFC700"/>
<path d="M96.615 242.151C96.2729 241.841 96.0918 241.402 96.0918 240.833C96.0918 240.264 96.2628 239.815 96.615 239.505C96.957 239.196 97.3695 239.036 97.8323 239.036C98.2951 239.036 98.7076 239.196 99.0598 239.505C99.4018 239.815 99.5729 240.264 99.5729 240.833C99.5729 241.402 99.4018 241.841 99.0598 242.151C98.7177 242.46 98.3052 242.61 97.8323 242.61C97.3595 242.61 96.957 242.46 96.615 242.151Z" fill="#FFC700"/>
<path d="M261.383 179.662C261.04 179.353 260.859 178.913 260.859 178.344C260.859 177.775 261.03 177.326 261.383 177.016C261.725 176.707 262.137 176.547 262.6 176.547C263.063 176.547 263.475 176.707 263.827 177.016C264.169 177.326 264.34 177.775 264.34 178.344C264.34 178.913 264.169 179.353 263.827 179.662C263.485 179.972 263.073 180.121 262.6 180.121C262.127 180.121 261.725 179.972 261.383 179.662Z" fill="#FFC700"/>
<path d="M0.271645 77.797C0.0905483 77.5873 0 77.3277 0 77.0382C0 76.7387 0.0905483 76.4891 0.271645 76.2694C0.452742 76.0498 0.664021 75.95 0.915544 75.95C1.16707 75.95 1.37835 76.0598 1.55944 76.2694C1.74054 76.4791 1.83109 76.7387 1.83109 77.0382C1.83109 77.3377 1.74054 77.5873 1.55944 77.8069C1.37835 78.0166 1.16707 78.1264 0.915544 78.1264C0.664021 78.1264 0.452742 78.0166 0.271645 77.797Z" fill="#FFC700"/>
<path d="M34.4887 217.7C34.217 217.371 34.0762 216.971 34.0762 216.512C34.0762 216.053 34.217 215.654 34.4887 215.324C34.7603 214.995 35.0923 214.825 35.4847 214.825C35.8771 214.825 36.199 214.995 36.4807 215.324C36.7624 215.654 36.8932 216.053 36.8932 216.512C36.8932 216.971 36.7524 217.371 36.4807 217.7C36.2091 218.03 35.8771 218.199 35.4847 218.199C35.0923 218.199 34.7603 218.03 34.4887 217.7Z" fill="#FFC700"/>
</g>
<path d="M364.153 159.223L370.864 155.888C371.146 156.447 371.447 156.936 371.759 157.366C372.071 157.795 372.524 158.164 373.108 158.474C373.691 158.773 374.275 158.783 374.858 158.494C376.035 157.915 376.096 156.597 375.059 154.54C374.104 152.653 372.846 152.094 371.287 152.873L370.15 153.442L366.789 146.793L367.785 146.294C368.137 146.124 368.409 145.954 368.61 145.794C368.812 145.635 368.932 145.265 368.983 144.686C369.033 144.107 368.842 143.398 368.419 142.55C368.087 141.901 367.675 141.421 367.172 141.122C366.669 140.822 366.186 140.782 365.743 141.012C365.139 141.312 364.848 141.801 364.858 142.46C364.868 143.119 365.059 143.798 365.401 144.486L358.932 147.711C358.258 146.134 357.765 144.656 357.463 143.278C357.161 141.901 357 140.713 357 139.714C357 138.716 357.121 137.787 357.352 136.939C357.594 136.08 357.865 135.401 358.177 134.872C358.489 134.353 358.871 133.864 359.314 133.424C359.757 132.985 360.129 132.666 360.411 132.476C360.702 132.296 360.984 132.126 361.276 131.987C363.519 130.868 365.844 130.699 368.248 131.487C370.643 132.276 372.635 134.233 374.214 137.358C375.22 139.345 375.723 141.132 375.723 142.729C375.723 144.317 375.311 145.525 374.476 146.353L374.546 146.503C374.969 146.463 375.422 146.473 375.925 146.553C376.428 146.633 377.082 146.843 377.897 147.192C378.711 147.542 379.567 148.21 380.462 149.189C381.357 150.167 382.193 151.405 382.947 152.903C384.426 155.838 384.929 158.644 384.456 161.329C383.983 164.015 382.172 166.141 379.023 167.699C377.736 168.338 376.438 168.617 375.14 168.528C373.842 168.438 372.675 168.108 371.659 167.539C370.633 166.97 369.626 166.181 368.62 165.193C367.614 164.205 366.779 163.236 366.105 162.288C365.421 161.319 364.777 160.301 364.153 159.223Z" fill="#FFC700"/>
<path d="M571.173 88.3686L569.965 87.7995C570.418 86.9609 570.891 86.3219 571.394 85.8527C572.31 85.0041 573.225 84.7844 574.141 85.2137C574.885 85.5632 575.308 86.1921 575.408 87.1007C575.509 88.0092 575.288 89.0276 574.754 90.1557C574.161 91.4037 573.406 92.2224 572.481 92.6317C572.893 93.5402 572.742 94.7383 572.038 96.2259C571.806 96.7051 571.545 97.1544 571.243 97.5737C570.941 97.993 570.589 98.3924 570.187 98.7618C569.784 99.1312 569.331 99.3808 568.828 99.4906C568.325 99.6004 567.822 99.5405 567.329 99.3109C566.665 99.0014 566.263 98.5222 566.112 97.8732C565.961 97.2243 565.961 96.5254 566.122 95.7766C566.233 95.2575 566.414 94.7183 566.645 94.1692L567.853 94.7383C567.601 95.3473 567.5 95.9064 567.561 96.4256C567.621 96.9348 567.842 97.2842 568.235 97.4639C568.657 97.6636 569.1 97.5937 569.573 97.2542C570.046 96.9248 570.458 96.3757 570.82 95.6269C571.122 94.9879 571.253 94.4088 571.203 93.8697C571.152 93.3306 570.911 92.9612 570.478 92.7615L570.237 92.6517L571.092 90.8646L571.334 90.9744C572.189 91.3738 572.903 90.9644 573.497 89.7264C573.809 89.0775 573.939 88.5184 573.889 88.0491C573.839 87.5799 573.638 87.2504 573.265 87.0807C572.923 86.921 572.571 86.9509 572.199 87.1805C571.806 87.4002 571.474 87.7995 571.173 88.3686Z" fill="#FFC700"/>
<path d="M497.097 79.3284L496.081 79.528C495.98 78.8092 495.97 78.1902 496.071 77.671C496.252 76.7226 496.715 76.1735 497.479 76.0337C498.103 75.9139 498.656 76.1136 499.129 76.6327C499.602 77.1519 499.944 77.8807 500.125 78.8292C500.336 79.8675 500.246 80.7261 499.854 81.395C500.528 81.7744 500.99 82.5831 501.232 83.8211C501.312 84.2204 501.353 84.6198 501.363 85.0191C501.373 85.4185 501.332 85.8179 501.252 86.2372C501.172 86.6565 501 87.0059 500.739 87.3054C500.477 87.605 500.135 87.7947 499.723 87.8745C499.169 87.9843 498.697 87.8745 498.304 87.5351C497.912 87.2056 497.59 86.7663 497.348 86.2272C497.177 85.8578 497.047 85.4385 496.936 84.9892L497.942 84.7895C498.063 85.2787 498.264 85.6781 498.536 85.9676C498.807 86.2571 499.109 86.367 499.431 86.3071C499.783 86.2372 500.025 85.9976 500.165 85.5782C500.306 85.1589 500.316 84.6298 500.186 84.0008C500.085 83.4717 499.894 83.0523 499.612 82.7329C499.33 82.4234 499.018 82.3035 498.646 82.3734L498.445 82.4134L498.183 80.9258L498.385 80.8858C499.099 80.7461 499.35 80.167 499.149 79.1287C499.039 78.5896 498.868 78.1802 498.616 77.9107C498.375 77.6411 498.093 77.5313 497.781 77.5912C497.499 77.6511 497.288 77.8308 497.167 78.1303C497.047 78.4398 497.026 78.8392 497.097 79.3284Z" fill="#FFC700"/>
<path d="M520.366 157.041L514.752 155.304C515.768 152.818 517.066 150.881 518.656 149.503C521.584 146.967 525.175 146.358 529.421 147.676C532.882 148.744 535.287 150.651 536.635 153.387C537.983 156.122 538.134 159.177 537.077 162.542C535.91 166.256 533.617 168.712 530.196 169.91C532.852 172.646 533.486 176.24 532.077 180.693C531.624 182.13 531.001 183.468 530.186 184.726C529.371 185.984 528.324 187.172 527.027 188.27C525.729 189.378 524.089 190.097 522.117 190.417C520.135 190.736 518.002 190.547 515.698 189.828C512.639 188.879 510.446 187.422 509.128 185.465C507.81 183.508 507.106 181.411 507.015 179.175C506.945 177.628 507.116 176.02 507.518 174.363L513.132 176.1C512.72 177.927 512.901 179.604 513.676 181.142C514.461 182.679 515.748 183.728 517.549 184.287C519.491 184.886 521.272 184.696 522.881 183.708C524.491 182.719 525.658 181.102 526.363 178.856C526.956 176.959 526.876 175.201 526.121 173.584C525.367 171.967 523.978 170.848 521.966 170.22L520.829 169.87L522.509 164.529L523.646 164.878C527.61 166.106 530.166 164.878 531.323 161.194C531.926 159.257 531.896 157.58 531.222 156.162C530.548 154.745 529.341 153.756 527.61 153.227C526.021 152.738 524.582 152.828 523.294 153.487C521.996 154.146 521.02 155.334 520.366 157.041Z" fill="#FFC700"/>
<path d="M420.202 203.479L425.756 202.021C425.957 202.85 426.349 203.558 426.953 204.147C427.557 204.747 428.382 204.906 429.438 204.627C431.299 204.138 431.933 202.79 431.34 200.583C431.179 199.994 430.947 199.535 430.645 199.196C430.344 198.866 429.981 198.666 429.579 198.616C429.166 198.567 428.824 198.557 428.553 198.577C428.271 198.606 427.939 198.666 427.537 198.776L426.842 198.956L425.746 194.863L426.44 194.683C426.651 194.623 426.852 194.553 427.054 194.443C427.255 194.343 427.496 194.164 427.778 193.924C428.06 193.674 428.251 193.335 428.352 192.896C428.452 192.456 428.422 191.937 428.261 191.348C428.009 190.42 427.607 189.821 427.054 189.561C426.5 189.302 425.947 189.252 425.394 189.391C424.72 189.571 424.206 189.96 423.874 190.579C423.542 191.198 423.482 191.847 423.683 192.546L418.13 194.004C417.989 192.966 417.959 192.007 418.059 191.119C418.15 190.23 418.311 189.481 418.542 188.872C418.774 188.263 419.085 187.704 419.488 187.195C419.89 186.686 420.273 186.276 420.655 185.977C421.037 185.667 421.47 185.398 421.963 185.158C422.456 184.919 422.848 184.749 423.15 184.649C423.452 184.549 423.774 184.449 424.106 184.36C426.178 183.81 428.1 183.89 429.871 184.599C431.641 185.298 432.819 186.736 433.392 188.892C433.724 190.12 433.714 191.248 433.362 192.277C433.01 193.305 432.366 194.094 431.43 194.633L431.46 194.733C432.627 194.763 433.734 195.192 434.78 195.991C435.837 196.799 436.591 198.077 437.064 199.824C437.668 202.101 437.396 204.138 436.239 205.945C435.082 207.752 433.211 208.99 430.635 209.669C429.237 210.038 427.949 210.118 426.782 209.918C425.605 209.718 424.659 209.369 423.945 208.88C423.231 208.391 422.577 207.752 422.013 206.973C421.44 206.194 421.037 205.555 420.806 205.046C420.564 204.547 420.363 204.018 420.202 203.479Z" fill="#FFC700"/>
<path d="M479 157.506L481.817 157.546C481.797 157.965 481.898 158.345 482.099 158.714C482.3 159.074 482.672 159.263 483.205 159.263C484.151 159.273 484.634 158.724 484.654 157.606C484.654 157.307 484.614 157.057 484.513 156.857C484.413 156.658 484.272 156.518 484.081 156.438C483.89 156.358 483.729 156.308 483.598 156.288C483.467 156.268 483.296 156.248 483.095 156.248L482.743 156.238L482.773 154.162L483.125 154.172C483.236 154.172 483.336 154.162 483.447 154.142C483.558 154.122 483.688 154.072 483.859 153.992C484.03 153.912 484.161 153.782 484.272 153.583C484.383 153.383 484.433 153.143 484.433 152.844C484.443 152.375 484.332 152.035 484.101 151.845C483.869 151.656 483.618 151.556 483.336 151.546C482.994 151.536 482.702 151.666 482.461 151.905C482.219 152.155 482.109 152.454 482.109 152.814L479.292 152.774C479.362 152.265 479.483 151.805 479.644 151.396C479.805 150.987 479.986 150.657 480.177 150.398C480.368 150.138 480.59 149.919 480.851 149.729C481.103 149.539 481.344 149.399 481.566 149.31C481.787 149.21 482.028 149.14 482.29 149.1C482.551 149.05 482.763 149.02 482.924 149.01C483.075 149 483.246 149 483.417 149C484.473 149.02 485.369 149.31 486.113 149.869C486.858 150.438 487.22 151.266 487.2 152.365C487.19 152.994 487.039 153.523 486.737 153.962C486.435 154.401 486.023 154.691 485.509 154.821V154.87C486.053 155.04 486.526 155.39 486.908 155.909C487.3 156.428 487.481 157.137 487.471 158.025C487.451 159.184 487.049 160.102 486.264 160.811C485.469 161.51 484.423 161.849 483.115 161.829C482.401 161.819 481.787 161.689 481.264 161.44C480.741 161.19 480.338 160.901 480.056 160.571C479.785 160.242 479.563 159.862 479.402 159.413C479.241 158.974 479.131 158.614 479.091 158.345C479.03 158.055 479 157.786 479 157.506Z" fill="#FFC700"/>
<path d="M469.312 54.9331L466.022 54.0346C466.566 52.5669 467.28 51.4188 468.165 50.5901C469.815 49.0626 471.878 48.6333 474.373 49.3122C476.395 49.8613 477.834 50.9196 478.669 52.4771C479.514 54.0346 479.655 55.8017 479.112 57.7785C478.508 59.955 477.23 61.4326 475.278 62.1914C476.878 63.7289 477.311 65.7955 476.596 68.4013C476.365 69.2399 476.023 70.0287 475.58 70.7775C475.138 71.5262 474.554 72.2351 473.82 72.904C473.095 73.5729 472.16 74.0222 471.013 74.2419C469.876 74.4715 468.628 74.4016 467.28 74.0322C465.489 73.543 464.181 72.7443 463.376 71.6361C462.572 70.5279 462.119 69.3298 462.028 68.0319C461.958 67.1334 462.018 66.2049 462.219 65.2264L465.509 66.125C465.308 67.1933 465.449 68.1617 465.932 69.0403C466.415 69.9188 467.19 70.4979 468.246 70.7874C469.383 71.0969 470.409 70.9472 471.325 70.3382C472.24 69.7292 472.884 68.7707 473.246 67.4528C473.548 66.3446 473.468 65.3263 472.995 64.4078C472.522 63.4893 471.697 62.8703 470.51 62.5408L469.846 62.3611L470.711 59.2262L471.375 59.4059C473.699 60.0349 475.158 59.2761 475.751 57.1196C476.063 55.9814 476.013 55.013 475.59 54.2043C475.168 53.3956 474.453 52.8465 473.437 52.5769C472.512 52.3273 471.677 52.4072 470.942 52.8165C470.198 53.2159 469.664 53.9247 469.312 54.9331Z" fill="#FFC700"/>
<path d="M532.724 225.083L536.859 229.037C536.246 229.626 535.843 230.335 535.642 231.153C535.441 231.972 535.733 232.761 536.517 233.51C537.906 234.838 539.395 234.678 540.994 233.03C541.427 232.591 541.699 232.152 541.829 231.723C541.96 231.293 541.94 230.894 541.769 230.515C541.598 230.145 541.437 229.846 541.276 229.616C541.115 229.396 540.884 229.137 540.582 228.857L540.059 228.358L543.027 225.313L543.55 225.812C543.711 225.962 543.882 226.102 544.073 226.211C544.264 226.331 544.536 226.441 544.898 226.561C545.26 226.681 545.653 226.661 546.085 226.521C546.518 226.381 546.94 226.082 547.373 225.642C548.047 224.944 548.349 224.295 548.289 223.696C548.218 223.087 547.987 222.597 547.574 222.198C547.071 221.719 546.468 221.489 545.763 221.519C545.059 221.549 544.465 221.839 543.972 222.378L539.837 218.414C540.652 217.755 541.477 217.246 542.282 216.857C543.097 216.477 543.822 216.228 544.475 216.108C545.119 215.988 545.763 215.968 546.407 216.048C547.051 216.128 547.604 216.238 548.067 216.407C548.53 216.577 548.993 216.797 549.456 217.096C549.918 217.386 550.271 217.635 550.512 217.835C550.753 218.035 551.005 218.254 551.257 218.504C552.796 219.982 553.721 221.659 554.033 223.526C554.345 225.393 553.721 227.13 552.152 228.737C551.267 229.656 550.281 230.225 549.214 230.465C548.148 230.704 547.132 230.564 546.186 230.035L546.115 230.115C546.689 231.124 546.9 232.282 546.749 233.59C546.598 234.897 545.884 236.205 544.616 237.513C542.966 239.21 541.065 240.029 538.912 239.979C536.759 239.929 534.716 238.981 532.795 237.144C531.758 236.145 531.024 235.097 530.581 233.999C530.149 232.901 529.958 231.912 530.008 231.044C530.058 230.175 530.269 229.306 530.652 228.418C531.024 227.529 531.366 226.86 531.688 226.391C531.99 225.952 532.342 225.503 532.724 225.083Z" fill="#FFC700"/>
<path d="M389.704 118.233C389.231 117.814 389 117.215 389 116.446C389 115.667 389.231 115.068 389.704 114.639C390.177 114.21 390.73 114 391.364 114C391.998 114 392.552 114.21 393.024 114.639C393.497 115.068 393.729 115.667 393.729 116.446C393.729 117.225 393.497 117.824 393.024 118.233C392.552 118.652 391.998 118.862 391.364 118.862C390.73 118.862 390.177 118.642 389.704 118.233Z" fill="#FFC700"/>
<path d="M496.412 125.875C496.141 125.546 496 125.147 496 124.687C496 124.228 496.141 123.829 496.412 123.499C496.684 123.17 497.016 123 497.409 123C497.801 123 498.123 123.17 498.405 123.499C498.686 123.829 498.817 124.228 498.817 124.687C498.817 125.147 498.676 125.546 498.405 125.875C498.133 126.205 497.801 126.375 497.409 126.375C497.016 126.375 496.684 126.205 496.412 125.875Z" fill="#FFC700"/>
<path d="M515.413 49.8753C515.141 49.5459 515 49.1465 515 48.6873C515 48.228 515.141 47.8287 515.413 47.4992C515.684 47.1697 516.016 47 516.409 47C516.801 47 517.123 47.1697 517.405 47.4992C517.686 47.8287 517.817 48.228 517.817 48.6873C517.817 49.1465 517.676 49.5459 517.405 49.8753C517.133 50.2048 516.801 50.3745 516.409 50.3745C516.016 50.3745 515.694 50.2048 515.413 49.8753Z" fill="#FFC700"/>
<path d="M388.523 234.115C388.181 233.805 388 233.366 388 232.797C388 232.228 388.171 231.779 388.523 231.469C388.865 231.16 389.278 231 389.741 231C390.203 231 390.616 231.16 390.968 231.469C391.31 231.779 391.481 232.228 391.481 232.797C391.481 233.366 391.31 233.805 390.968 234.115C390.626 234.424 390.213 234.574 389.741 234.574C389.268 234.574 388.865 234.424 388.523 234.115Z" fill="#FFC700"/>
<path d="M554.523 168.115C554.181 167.805 554 167.366 554 166.797C554 166.228 554.171 165.779 554.523 165.469C554.865 165.16 555.278 165 555.741 165C556.203 165 556.616 165.16 556.968 165.469C557.31 165.779 557.481 166.228 557.481 166.797C557.481 167.366 557.31 167.805 556.968 168.115C556.626 168.424 556.213 168.574 555.741 168.574C555.268 168.574 554.865 168.424 554.523 168.115Z" fill="#FFC700"/>
<path d="M292.272 69.847C292.091 69.6373 292 69.3778 292 69.0882C292 68.7887 292.091 68.5391 292.272 68.3195C292.453 68.0998 292.664 68 292.916 68C293.167 68 293.378 68.1098 293.559 68.3195C293.741 68.5291 293.831 68.7887 293.831 69.0882C293.831 69.3878 293.741 69.6373 293.559 69.857C293.378 70.0667 293.167 70.1765 292.916 70.1765C292.664 70.1765 292.453 70.0667 292.272 69.847Z" fill="#FFC700"/>
<path d="M324.412 209.875C324.141 209.546 324 209.147 324 208.687C324 208.228 324.141 207.829 324.412 207.499C324.684 207.17 325.016 207 325.409 207C325.801 207 326.123 207.17 326.405 207.499C326.686 207.829 326.817 208.228 326.817 208.687C326.817 209.147 326.676 209.546 326.405 209.875C326.133 210.205 325.801 210.375 325.409 210.375C325.016 210.375 324.684 210.205 324.412 209.875Z" fill="#FFC700"/>
<path d="M443.704 36.2331C443.231 35.8138 443 35.2148 443 34.446C443 33.6673 443.231 33.0683 443.704 32.639C444.177 32.2097 444.73 32 445.364 32C445.998 32 446.551 32.2097 447.024 32.639C447.497 33.0683 447.729 33.6673 447.729 34.446C447.729 35.2248 447.497 35.8238 447.024 36.2331C446.551 36.6525 445.998 36.8621 445.364 36.8621C444.73 36.8621 444.177 36.6525 443.704 36.2331Z" fill="#FFC700"/>
<path d="M653.153 140.223L659.864 136.888C660.146 137.447 660.447 137.936 660.759 138.366C661.071 138.795 661.524 139.164 662.108 139.474C662.691 139.773 663.275 139.783 663.858 139.494C665.035 138.915 665.096 137.597 664.059 135.54C663.104 133.653 661.846 133.094 660.287 133.873L659.15 134.442L655.789 127.793L656.785 127.294C657.137 127.124 657.409 126.954 657.61 126.794C657.812 126.635 657.932 126.265 657.983 125.686C658.033 125.107 657.842 124.398 657.419 123.55C657.087 122.901 656.675 122.421 656.172 122.122C655.669 121.822 655.186 121.782 654.743 122.012C654.139 122.312 653.848 122.801 653.858 123.46C653.868 124.119 654.059 124.798 654.401 125.486L647.932 128.711C647.258 127.134 646.765 125.656 646.463 124.278C646.161 122.901 646 121.713 646 120.714C646 119.716 646.121 118.787 646.352 117.939C646.594 117.08 646.865 116.401 647.177 115.872C647.489 115.353 647.871 114.864 648.314 114.424C648.757 113.985 649.129 113.666 649.411 113.476C649.702 113.296 649.984 113.126 650.276 112.987C652.519 111.868 654.844 111.699 657.248 112.487C659.643 113.276 661.635 115.233 663.214 118.358C664.22 120.345 664.723 122.132 664.723 123.729C664.723 125.317 664.311 126.525 663.476 127.353L663.546 127.503C663.969 127.463 664.422 127.473 664.925 127.553C665.428 127.633 666.082 127.843 666.897 128.192C667.711 128.542 668.567 129.21 669.462 130.189C670.357 131.167 671.193 132.405 671.947 133.903C673.426 136.838 673.929 139.644 673.456 142.329C672.983 145.015 671.172 147.141 668.023 148.699C666.736 149.338 665.438 149.617 664.14 149.528C662.842 149.438 661.675 149.108 660.659 148.539C659.633 147.97 658.626 147.181 657.62 146.193C656.614 145.205 655.779 144.236 655.105 143.288C654.421 142.319 653.777 141.301 653.153 140.223Z" fill="#FFC700"/>
<path d="M857.173 76.3686L855.965 75.7995C856.418 74.9609 856.891 74.3219 857.394 73.8527C858.31 73.0041 859.225 72.7844 860.141 73.2137C860.885 73.5632 861.308 74.1921 861.408 75.1007C861.509 76.0092 861.288 77.0276 860.754 78.1557C860.161 79.4037 859.406 80.2224 858.481 80.6317C858.893 81.5402 858.742 82.7383 858.038 84.2259C857.806 84.7051 857.545 85.1544 857.243 85.5737C856.941 85.993 856.589 86.3924 856.187 86.7618C855.784 87.1312 855.331 87.3808 854.828 87.4906C854.325 87.6004 853.822 87.5405 853.329 87.3109C852.665 87.0014 852.263 86.5222 852.112 85.8732C851.961 85.2243 851.961 84.5254 852.122 83.7766C852.233 83.2575 852.414 82.7183 852.645 82.1692L853.853 82.7383C853.601 83.3473 853.5 83.9064 853.561 84.4256C853.621 84.9348 853.842 85.2842 854.235 85.4639C854.657 85.6636 855.1 85.5937 855.573 85.2542C856.046 84.9248 856.458 84.3757 856.82 83.6269C857.122 82.9879 857.253 82.4088 857.203 81.8697C857.152 81.3306 856.911 80.9612 856.478 80.7615L856.237 80.6517L857.092 78.8646L857.334 78.9744C858.189 79.3738 858.903 78.9644 859.497 77.7264C859.809 77.0775 859.939 76.5184 859.889 76.0491C859.839 75.5799 859.638 75.2504 859.265 75.0807C858.923 74.921 858.571 74.9509 858.199 75.1805C857.806 75.4002 857.474 75.7995 857.173 76.3686Z" fill="#FFC700"/>
<path d="M789.097 71.3284L788.081 71.528C787.98 70.8092 787.97 70.1902 788.071 69.671C788.252 68.7226 788.715 68.1735 789.479 68.0337C790.103 67.9139 790.656 68.1136 791.129 68.6327C791.602 69.1519 791.944 69.8807 792.125 70.8292C792.336 71.8675 792.246 72.7261 791.854 73.395C792.528 73.7744 792.99 74.5831 793.232 75.8211C793.312 76.2204 793.353 76.6198 793.363 77.0191C793.373 77.4185 793.332 77.8179 793.252 78.2372C793.172 78.6565 793 79.0059 792.739 79.3054C792.477 79.605 792.135 79.7947 791.723 79.8745C791.169 79.9843 790.697 79.8745 790.304 79.5351C789.912 79.2056 789.59 78.7663 789.348 78.2272C789.177 77.8578 789.047 77.4385 788.936 76.9892L789.942 76.7895C790.063 77.2787 790.264 77.6781 790.536 77.9676C790.807 78.2571 791.109 78.367 791.431 78.3071C791.783 78.2372 792.025 77.9976 792.165 77.5782C792.306 77.1589 792.316 76.6298 792.186 76.0008C792.085 75.4717 791.894 75.0523 791.612 74.7329C791.33 74.4234 791.018 74.3035 790.646 74.3734L790.445 74.4134L790.183 72.9258L790.385 72.8858C791.099 72.7461 791.35 72.167 791.149 71.1287C791.039 70.5896 790.868 70.1802 790.616 69.9107C790.375 69.6411 790.093 69.5313 789.781 69.5912C789.499 69.6511 789.288 69.8308 789.167 70.1303C789.047 70.4398 789.026 70.8392 789.097 71.3284Z" fill="#FFC700"/>
<path d="M813.366 127.041L807.752 125.304C808.768 122.818 810.066 120.881 811.656 119.503C814.584 116.967 818.175 116.358 822.421 117.676C825.882 118.744 828.287 120.651 829.635 123.387C830.983 126.122 831.134 129.177 830.077 132.542C828.91 136.256 826.617 138.712 823.196 139.91C825.852 142.646 826.486 146.24 825.077 150.693C824.624 152.13 824.001 153.468 823.186 154.726C822.371 155.984 821.324 157.172 820.027 158.27C818.729 159.378 817.089 160.097 815.117 160.417C813.135 160.736 811.002 160.547 808.698 159.828C805.639 158.879 803.446 157.422 802.128 155.465C800.81 153.508 800.106 151.411 800.015 149.175C799.945 147.628 800.116 146.02 800.518 144.363L806.132 146.1C805.72 147.927 805.901 149.604 806.676 151.142C807.461 152.679 808.748 153.728 810.549 154.287C812.491 154.886 814.272 154.696 815.881 153.708C817.491 152.719 818.658 151.102 819.363 148.856C819.956 146.959 819.876 145.201 819.121 143.584C818.367 141.967 816.978 140.848 814.966 140.22L813.829 139.87L815.509 134.529L816.646 134.878C820.61 136.106 823.166 134.878 824.323 131.194C824.926 129.257 824.896 127.58 824.222 126.162C823.548 124.745 822.341 123.756 820.61 123.227C819.021 122.738 817.582 122.828 816.294 123.487C814.996 124.146 814.02 125.334 813.366 127.041Z" fill="#FFC700"/>
<path d="M712.202 181.479L717.756 180.021C717.957 180.85 718.349 181.558 718.953 182.147C719.557 182.747 720.382 182.906 721.438 182.627C723.299 182.138 723.933 180.79 723.34 178.583C723.179 177.994 722.947 177.535 722.645 177.196C722.344 176.866 721.981 176.666 721.579 176.616C721.166 176.567 720.824 176.557 720.553 176.577C720.271 176.606 719.939 176.666 719.537 176.776L718.842 176.956L717.746 172.863L718.44 172.683C718.651 172.623 718.852 172.553 719.054 172.443C719.255 172.343 719.496 172.164 719.778 171.924C720.06 171.674 720.251 171.335 720.352 170.896C720.452 170.456 720.422 169.937 720.261 169.348C720.009 168.42 719.607 167.821 719.054 167.561C718.5 167.302 717.947 167.252 717.394 167.391C716.72 167.571 716.206 167.96 715.874 168.579C715.542 169.198 715.482 169.847 715.683 170.546L710.13 172.004C709.989 170.966 709.959 170.007 710.059 169.119C710.15 168.23 710.311 167.481 710.542 166.872C710.774 166.263 711.085 165.704 711.488 165.195C711.89 164.686 712.273 164.276 712.655 163.977C713.037 163.667 713.47 163.398 713.963 163.158C714.456 162.919 714.848 162.749 715.15 162.649C715.452 162.549 715.774 162.449 716.106 162.36C718.178 161.81 720.1 161.89 721.871 162.599C723.641 163.298 724.819 164.736 725.392 166.892C725.724 168.12 725.714 169.248 725.362 170.277C725.01 171.305 724.366 172.094 723.43 172.633L723.46 172.733C724.627 172.763 725.734 173.192 726.78 173.991C727.837 174.799 728.591 176.077 729.064 177.824C729.668 180.101 729.396 182.138 728.239 183.945C727.082 185.752 725.211 186.99 722.635 187.669C721.237 188.038 719.949 188.118 718.782 187.918C717.605 187.718 716.659 187.369 715.945 186.88C715.231 186.391 714.577 185.752 714.013 184.973C713.44 184.194 713.037 183.555 712.806 183.046C712.564 182.547 712.363 182.018 712.202 181.479Z" fill="#FFC700"/>
<path d="M767 145.506L769.817 145.546C769.797 145.965 769.898 146.345 770.099 146.714C770.3 147.074 770.672 147.263 771.205 147.263C772.151 147.273 772.634 146.724 772.654 145.606C772.654 145.307 772.614 145.057 772.513 144.857C772.413 144.658 772.272 144.518 772.081 144.438C771.89 144.358 771.729 144.308 771.598 144.288C771.467 144.268 771.296 144.248 771.095 144.248L770.743 144.238L770.773 142.162L771.125 142.172C771.236 142.172 771.336 142.162 771.447 142.142C771.558 142.122 771.688 142.072 771.859 141.992C772.03 141.912 772.161 141.782 772.272 141.583C772.383 141.383 772.433 141.143 772.433 140.844C772.443 140.375 772.332 140.035 772.101 139.845C771.869 139.656 771.618 139.556 771.336 139.546C770.994 139.536 770.702 139.666 770.461 139.905C770.219 140.155 770.109 140.454 770.109 140.814L767.292 140.774C767.362 140.265 767.483 139.805 767.644 139.396C767.805 138.987 767.986 138.657 768.177 138.398C768.368 138.138 768.59 137.919 768.851 137.729C769.103 137.539 769.344 137.399 769.566 137.31C769.787 137.21 770.028 137.14 770.29 137.1C770.551 137.05 770.763 137.02 770.924 137.01C771.075 137 771.246 137 771.417 137C772.473 137.02 773.369 137.31 774.113 137.869C774.858 138.438 775.22 139.266 775.2 140.365C775.19 140.994 775.039 141.523 774.737 141.962C774.435 142.401 774.023 142.691 773.509 142.821V142.87C774.053 143.04 774.526 143.39 774.908 143.909C775.3 144.428 775.481 145.137 775.471 146.025C775.451 147.184 775.049 148.102 774.264 148.811C773.469 149.51 772.423 149.849 771.115 149.829C770.401 149.819 769.787 149.689 769.264 149.44C768.741 149.19 768.338 148.901 768.056 148.571C767.785 148.242 767.563 147.862 767.402 147.413C767.241 146.974 767.131 146.614 767.091 146.345C767.03 146.055 767 145.786 767 145.506Z" fill="#FFC700"/>
<path d="M821.724 205.083L825.859 209.037C825.246 209.626 824.843 210.335 824.642 211.153C824.441 211.972 824.733 212.761 825.517 213.51C826.906 214.838 828.395 214.678 829.994 213.03C830.427 212.591 830.699 212.152 830.829 211.723C830.96 211.293 830.94 210.894 830.769 210.515C830.598 210.145 830.437 209.846 830.276 209.616C830.115 209.396 829.884 209.137 829.582 208.857L829.059 208.358L832.027 205.313L832.55 205.812C832.711 205.962 832.882 206.102 833.073 206.211C833.264 206.331 833.536 206.441 833.898 206.561C834.26 206.681 834.653 206.661 835.085 206.521C835.518 206.381 835.94 206.082 836.373 205.642C837.047 204.944 837.349 204.295 837.289 203.696C837.218 203.087 836.987 202.597 836.574 202.198C836.071 201.719 835.468 201.489 834.763 201.519C834.059 201.549 833.465 201.839 832.972 202.378L828.837 198.414C829.652 197.755 830.477 197.246 831.282 196.857C832.097 196.477 832.822 196.228 833.475 196.108C834.119 195.988 834.763 195.968 835.407 196.048C836.051 196.128 836.604 196.238 837.067 196.407C837.53 196.577 837.993 196.797 838.456 197.096C838.918 197.386 839.271 197.635 839.512 197.835C839.753 198.035 840.005 198.254 840.257 198.504C841.796 199.982 842.721 201.659 843.033 203.526C843.345 205.393 842.721 207.13 841.152 208.737C840.267 209.656 839.281 210.225 838.214 210.465C837.148 210.704 836.132 210.564 835.186 210.035L835.115 210.115C835.689 211.124 835.9 212.282 835.749 213.59C835.598 214.897 834.884 216.205 833.616 217.513C831.966 219.21 830.065 220.029 827.912 219.979C825.759 219.929 823.716 218.981 821.795 217.144C820.758 216.145 820.024 215.097 819.581 213.999C819.149 212.901 818.958 211.912 819.008 211.044C819.058 210.175 819.269 209.306 819.652 208.418C820.024 207.529 820.366 206.86 820.688 206.391C820.99 205.952 821.342 205.503 821.724 205.083Z" fill="#FFC700"/>
<path d="M681.704 104.233C681.231 103.814 681 103.215 681 102.446C681 101.667 681.231 101.068 681.704 100.639C682.177 100.21 682.73 100 683.364 100C683.998 100 684.552 100.21 685.024 100.639C685.497 101.068 685.729 101.667 685.729 102.446C685.729 103.225 685.497 103.824 685.024 104.233C684.552 104.652 683.998 104.862 683.364 104.862C682.73 104.862 682.177 104.642 681.704 104.233Z" fill="#FFC700"/>
<path d="M788.143 138.948C787.871 138.618 787.73 138.219 787.73 137.76C787.73 137.301 787.871 136.901 788.143 136.572C788.415 136.242 788.747 136.073 789.139 136.073C789.531 136.073 789.853 136.242 790.135 136.572C790.417 136.901 790.548 137.301 790.548 137.76C790.548 138.219 790.407 138.618 790.135 138.948C789.863 139.277 789.531 139.447 789.139 139.447C788.747 139.447 788.415 139.277 788.143 138.948Z" fill="#FFC700"/>
<path d="M676.523 219.115C676.181 218.805 676 218.366 676 217.797C676 217.228 676.171 216.779 676.523 216.469C676.865 216.16 677.278 216 677.741 216C678.203 216 678.616 216.16 678.968 216.469C679.31 216.779 679.481 217.228 679.481 217.797C679.481 218.366 679.31 218.805 678.968 219.115C678.626 219.424 678.213 219.574 677.741 219.574C677.268 219.574 676.865 219.424 676.523 219.115Z" fill="#FFC700"/>
<path d="M847.523 157.115C847.181 156.805 847 156.366 847 155.797C847 155.228 847.171 154.779 847.523 154.469C847.865 154.16 848.278 154 848.741 154C849.203 154 849.616 154.16 849.968 154.469C850.31 154.779 850.481 155.228 850.481 155.797C850.481 156.366 850.31 156.805 849.968 157.115C849.626 157.424 849.213 157.574 848.741 157.574C848.268 157.574 847.865 157.424 847.523 157.115Z" fill="#FFC700"/>
<path d="M586.272 55.847C586.091 55.6373 586 55.3778 586 55.0882C586 54.7887 586.091 54.5391 586.272 54.3195C586.453 54.0998 586.664 54 586.916 54C587.167 54 587.378 54.1098 587.559 54.3195C587.741 54.5291 587.831 54.7887 587.831 55.0882C587.831 55.3878 587.741 55.6373 587.559 55.857C587.378 56.0667 587.167 56.1765 586.916 56.1765C586.664 56.1765 586.453 56.0667 586.272 55.847Z" fill="#FFC700"/>
<path d="M616.412 195.875C616.141 195.546 616 195.147 616 194.687C616 194.228 616.141 193.829 616.412 193.499C616.684 193.17 617.016 193 617.409 193C617.801 193 618.123 193.17 618.405 193.499C618.686 193.829 618.817 194.228 618.817 194.687C618.817 195.147 618.676 195.546 618.405 195.875C618.133 196.205 617.801 196.375 617.409 196.375C617.016 196.375 616.684 196.205 616.412 195.875Z" fill="#FFC700"/>
<path d="M807.413 41.8753C807.141 41.5459 807 41.1465 807 40.6873C807 40.228 807.141 39.8287 807.413 39.4992C807.684 39.1697 808.016 39 808.409 39C808.801 39 809.123 39.1697 809.405 39.4992C809.686 39.8287 809.817 40.228 809.817 40.6873C809.817 41.1465 809.676 41.5459 809.405 41.8753C809.133 42.2048 808.801 42.3745 808.409 42.3745C808.016 42.3745 807.694 42.2048 807.413 41.8753Z" fill="#FFC700"/>
<path d="M765.312 34.9331L762.022 34.0346C762.566 32.5669 763.28 31.4188 764.165 30.5901C765.815 29.0626 767.878 28.6333 770.373 29.3122C772.395 29.8613 773.834 30.9196 774.669 32.4771C775.514 34.0346 775.655 35.8017 775.112 37.7785C774.508 39.955 773.23 41.4326 771.278 42.1914C772.878 43.7289 773.311 45.7955 772.596 48.4013C772.365 49.2399 772.023 50.0287 771.58 50.7775C771.138 51.5262 770.554 52.2351 769.82 52.904C769.095 53.5729 768.16 54.0222 767.013 54.2419C765.876 54.4715 764.628 54.4016 763.28 54.0322C761.489 53.543 760.181 52.7443 759.376 51.6361C758.572 50.5279 758.119 49.3298 758.028 48.0319C757.958 47.1334 758.018 46.2049 758.219 45.2264L761.509 46.125C761.308 47.1933 761.449 48.1617 761.932 49.0403C762.415 49.9188 763.19 50.4979 764.246 50.7874C765.383 51.0969 766.409 50.9472 767.325 50.3382C768.24 49.7292 768.884 48.7707 769.246 47.4528C769.548 46.3446 769.468 45.3263 768.995 44.4078C768.522 43.4893 767.697 42.8703 766.51 42.5408L765.846 42.3611L766.711 39.2262L767.375 39.4059C769.699 40.0349 771.158 39.2761 771.751 37.1196C772.063 35.9814 772.013 35.013 771.59 34.2043C771.168 33.3956 770.453 32.8465 769.437 32.5769C768.512 32.3273 767.677 32.4072 766.942 32.8165C766.198 33.2159 765.664 33.9247 765.312 34.9331Z" fill="#FFC700"/>
<path d="M735.704 26.2331C735.231 25.8138 735 25.2148 735 24.446C735 23.6673 735.231 23.0683 735.704 22.639C736.177 22.2097 736.73 22 737.364 22C737.998 22 738.551 22.2097 739.024 22.639C739.497 23.0683 739.729 23.6673 739.729 24.446C739.729 25.2248 739.497 25.8238 739.024 26.2331C738.551 26.6525 737.998 26.8621 737.364 26.8621C736.73 26.8621 736.177 26.6525 735.704 26.2331Z" fill="#FFC700"/>
<path d="M938.153 113.223L944.864 109.888C945.146 110.447 945.447 110.936 945.759 111.366C946.071 111.795 946.524 112.164 947.108 112.474C947.691 112.773 948.275 112.783 948.858 112.494C950.035 111.915 950.096 110.597 949.059 108.54C948.104 106.653 946.846 106.094 945.287 106.873L944.15 107.442L940.789 100.793L941.785 100.294C942.137 100.124 942.409 99.9541 942.61 99.7943C942.812 99.6346 942.932 99.2652 942.983 98.6861C943.033 98.1071 942.842 97.3982 942.419 96.5496C942.087 95.9006 941.675 95.4214 941.172 95.1219C940.669 94.8224 940.186 94.7824 939.743 95.0121C939.139 95.3116 938.848 95.8008 938.858 96.4597C938.868 97.1187 939.059 97.7976 939.401 98.4864L932.932 101.711C932.258 100.134 931.765 98.6562 931.463 97.2784C931.161 95.9006 931 94.7126 931 93.7142C931 92.7158 931.121 91.7873 931.352 90.9387C931.594 90.0801 931.865 89.4012 932.177 88.872C932.489 88.3529 932.871 87.8636 933.314 87.4244C933.757 86.9851 934.129 86.6656 934.411 86.4759C934.702 86.2962 934.984 86.1265 935.276 85.9867C937.519 84.8685 939.844 84.6988 942.248 85.4875C944.643 86.2762 946.635 88.233 948.214 91.358C949.22 93.3448 949.723 95.1319 949.723 96.7293C949.723 98.3167 949.311 99.5248 948.476 100.353L948.546 100.503C948.969 100.463 949.422 100.473 949.925 100.553C950.428 100.633 951.082 100.843 951.897 101.192C952.711 101.542 953.567 102.21 954.462 103.189C955.357 104.167 956.193 105.405 956.947 106.903C958.426 109.838 958.929 112.644 958.456 115.329C957.983 118.015 956.172 120.141 953.023 121.699C951.736 122.338 950.438 122.617 949.14 122.528C947.842 122.438 946.675 122.108 945.659 121.539C944.633 120.97 943.626 120.181 942.62 119.193C941.614 118.205 940.779 117.236 940.105 116.288C939.421 115.319 938.777 114.301 938.153 113.223Z" fill="#FFC700"/>
<path d="M1146.17 63.3686L1144.97 62.7995C1145.42 61.9609 1145.89 61.3219 1146.39 60.8527C1147.31 60.0041 1148.23 59.7844 1149.14 60.2137C1149.89 60.5632 1150.31 61.1921 1150.41 62.1007C1150.51 63.0092 1150.29 64.0276 1149.75 65.1557C1149.16 66.4037 1148.41 67.2224 1147.48 67.6317C1147.89 68.5402 1147.74 69.7383 1147.04 71.2259C1146.81 71.7051 1146.54 72.1544 1146.24 72.5737C1145.94 72.993 1145.59 73.3924 1145.19 73.7618C1144.78 74.1312 1144.33 74.3808 1143.83 74.4906C1143.33 74.6004 1142.82 74.5405 1142.33 74.3109C1141.67 74.0014 1141.26 73.5222 1141.11 72.8732C1140.96 72.2243 1140.96 71.5254 1141.12 70.7766C1141.23 70.2575 1141.41 69.7183 1141.65 69.1692L1142.85 69.7383C1142.6 70.3473 1142.5 70.9064 1142.56 71.4256C1142.62 71.9348 1142.84 72.2842 1143.23 72.4639C1143.66 72.6636 1144.1 72.5937 1144.57 72.2542C1145.05 71.9248 1145.46 71.3757 1145.82 70.6269C1146.12 69.9879 1146.25 69.4088 1146.2 68.8697C1146.15 68.3306 1145.91 67.9612 1145.48 67.7615L1145.24 67.6517L1146.09 65.8646L1146.33 65.9744C1147.19 66.3738 1147.9 65.9644 1148.5 64.7264C1148.81 64.0775 1148.94 63.5184 1148.89 63.0491C1148.84 62.5799 1148.64 62.2504 1148.27 62.0807C1147.92 61.921 1147.57 61.9509 1147.2 62.1805C1146.81 62.4002 1146.47 62.7995 1146.17 63.3686Z" fill="#FFC700"/>
<path d="M1081.1 62.3284L1080.08 62.528C1079.98 61.8092 1079.97 61.1902 1080.07 60.671C1080.25 59.7226 1080.71 59.1735 1081.48 59.0337C1082.1 58.9139 1082.66 59.1136 1083.13 59.6327C1083.6 60.1519 1083.94 60.8807 1084.13 61.8292C1084.34 62.8675 1084.25 63.7261 1083.85 64.395C1084.53 64.7744 1084.99 65.5831 1085.23 66.8211C1085.31 67.2204 1085.35 67.6198 1085.36 68.0191C1085.37 68.4185 1085.33 68.8179 1085.25 69.2372C1085.17 69.6565 1085 70.0059 1084.74 70.3054C1084.48 70.605 1084.14 70.7947 1083.72 70.8745C1083.17 70.9843 1082.7 70.8745 1082.3 70.5351C1081.91 70.2056 1081.59 69.7663 1081.35 69.2272C1081.18 68.8578 1081.05 68.4385 1080.94 67.9892L1081.94 67.7895C1082.06 68.2787 1082.26 68.6781 1082.54 68.9676C1082.81 69.2571 1083.11 69.367 1083.43 69.3071C1083.78 69.2372 1084.02 68.9976 1084.17 68.5782C1084.31 68.1589 1084.32 67.6298 1084.19 67.0008C1084.08 66.4717 1083.89 66.0523 1083.61 65.7329C1083.33 65.4234 1083.02 65.3035 1082.65 65.3734L1082.44 65.4134L1082.18 63.9258L1082.38 63.8858C1083.1 63.7461 1083.35 63.167 1083.15 62.1287C1083.04 61.5896 1082.87 61.1802 1082.62 60.9107C1082.37 60.6411 1082.09 60.5313 1081.78 60.5912C1081.5 60.6511 1081.29 60.8308 1081.17 61.1303C1081.05 61.4398 1081.03 61.8392 1081.1 62.3284Z" fill="#FFC700"/>
<path d="M1108.37 95.0408L1102.75 93.3037C1103.77 90.8177 1105.07 88.8808 1106.66 87.503C1109.58 84.9672 1113.18 84.3581 1117.42 85.676C1120.88 86.7443 1123.29 88.6512 1124.63 91.3868C1125.98 94.1223 1126.13 97.1774 1125.08 100.542C1123.91 104.256 1121.62 106.712 1118.2 107.91C1120.85 110.646 1121.49 114.24 1120.08 118.693C1119.62 120.13 1119 121.468 1118.19 122.726C1117.37 123.984 1116.32 125.172 1115.03 126.27C1113.73 127.378 1112.09 128.097 1110.12 128.417C1108.13 128.736 1106 128.547 1103.7 127.828C1100.64 126.879 1098.45 125.422 1097.13 123.465C1095.81 121.508 1095.11 119.411 1095.02 117.175C1094.95 115.628 1095.12 114.02 1095.52 112.363L1101.13 114.1C1100.72 115.927 1100.9 117.604 1101.68 119.142C1102.46 120.679 1103.75 121.728 1105.55 122.287C1107.49 122.886 1109.27 122.696 1110.88 121.708C1112.49 120.719 1113.66 119.102 1114.36 116.856C1114.96 114.959 1114.88 113.201 1114.12 111.584C1113.37 109.967 1111.98 108.848 1109.97 108.22L1108.83 107.87L1110.51 102.529L1111.65 102.878C1115.61 104.106 1118.17 102.878 1119.32 99.1941C1119.93 97.2573 1119.9 95.58 1119.22 94.1623C1118.55 92.7446 1117.34 91.7562 1115.61 91.227C1114.02 90.7378 1112.58 90.8277 1111.29 91.4866C1110 92.1455 1109.02 93.3336 1108.37 95.0408Z" fill="#FFC700"/>
<path d="M1004.2 157.479L1009.76 156.021C1009.96 156.85 1010.35 157.558 1010.95 158.147C1011.56 158.747 1012.38 158.906 1013.44 158.627C1015.3 158.138 1015.93 156.79 1015.34 154.583C1015.18 153.994 1014.95 153.535 1014.65 153.196C1014.34 152.866 1013.98 152.666 1013.58 152.616C1013.17 152.567 1012.82 152.557 1012.55 152.577C1012.27 152.606 1011.94 152.666 1011.54 152.776L1010.84 152.956L1009.75 148.863L1010.44 148.683C1010.65 148.623 1010.85 148.553 1011.05 148.443C1011.25 148.343 1011.5 148.164 1011.78 147.924C1012.06 147.674 1012.25 147.335 1012.35 146.896C1012.45 146.456 1012.42 145.937 1012.26 145.348C1012.01 144.42 1011.61 143.821 1011.05 143.561C1010.5 143.302 1009.95 143.252 1009.39 143.391C1008.72 143.571 1008.21 143.96 1007.87 144.579C1007.54 145.198 1007.48 145.847 1007.68 146.546L1002.13 148.004C1001.99 146.966 1001.96 146.007 1002.06 145.119C1002.15 144.23 1002.31 143.481 1002.54 142.872C1002.77 142.263 1003.09 141.704 1003.49 141.195C1003.89 140.686 1004.27 140.276 1004.65 139.977C1005.04 139.667 1005.47 139.398 1005.96 139.158C1006.46 138.919 1006.85 138.749 1007.15 138.649C1007.45 138.549 1007.77 138.449 1008.11 138.36C1010.18 137.81 1012.1 137.89 1013.87 138.599C1015.64 139.298 1016.82 140.736 1017.39 142.892C1017.72 144.12 1017.71 145.248 1017.36 146.277C1017.01 147.305 1016.37 148.094 1015.43 148.633L1015.46 148.733C1016.63 148.763 1017.73 149.192 1018.78 149.991C1019.84 150.799 1020.59 152.077 1021.06 153.824C1021.67 156.101 1021.4 158.138 1020.24 159.945C1019.08 161.752 1017.21 162.99 1014.64 163.669C1013.24 164.038 1011.95 164.118 1010.78 163.918C1009.6 163.718 1008.66 163.369 1007.94 162.88C1007.23 162.391 1006.58 161.752 1006.01 160.973C1005.44 160.194 1005.04 159.555 1004.81 159.046C1004.56 158.547 1004.36 158.018 1004.2 157.479Z" fill="#FFC700"/>
<path d="M1062 131.506L1064.82 131.546C1064.8 131.965 1064.9 132.345 1065.1 132.714C1065.3 133.074 1065.67 133.263 1066.21 133.263C1067.15 133.273 1067.63 132.724 1067.65 131.606C1067.65 131.307 1067.61 131.057 1067.51 130.857C1067.41 130.658 1067.27 130.518 1067.08 130.438C1066.89 130.358 1066.73 130.308 1066.6 130.288C1066.47 130.268 1066.3 130.248 1066.09 130.248L1065.74 130.238L1065.77 128.162L1066.12 128.172C1066.24 128.172 1066.34 128.162 1066.45 128.142C1066.56 128.122 1066.69 128.072 1066.86 127.992C1067.03 127.912 1067.16 127.782 1067.27 127.583C1067.38 127.383 1067.43 127.143 1067.43 126.844C1067.44 126.375 1067.33 126.035 1067.1 125.845C1066.87 125.656 1066.62 125.556 1066.34 125.546C1065.99 125.536 1065.7 125.666 1065.46 125.905C1065.22 126.155 1065.11 126.454 1065.11 126.814L1062.29 126.774C1062.36 126.265 1062.48 125.805 1062.64 125.396C1062.8 124.987 1062.99 124.657 1063.18 124.398C1063.37 124.138 1063.59 123.919 1063.85 123.729C1064.1 123.539 1064.34 123.399 1064.57 123.31C1064.79 123.21 1065.03 123.14 1065.29 123.1C1065.55 123.05 1065.76 123.02 1065.92 123.01C1066.07 123 1066.25 123 1066.42 123C1067.47 123.02 1068.37 123.31 1069.11 123.869C1069.86 124.438 1070.22 125.266 1070.2 126.365C1070.19 126.994 1070.04 127.523 1069.74 127.962C1069.44 128.401 1069.02 128.691 1068.51 128.821V128.87C1069.05 129.04 1069.53 129.39 1069.91 129.909C1070.3 130.428 1070.48 131.137 1070.47 132.025C1070.45 133.184 1070.05 134.102 1069.26 134.811C1068.47 135.51 1067.42 135.849 1066.11 135.829C1065.4 135.819 1064.79 135.689 1064.26 135.44C1063.74 135.19 1063.34 134.901 1063.06 134.571C1062.78 134.242 1062.56 133.862 1062.4 133.413C1062.24 132.974 1062.13 132.614 1062.09 132.345C1062.03 132.055 1062 131.786 1062 131.506Z" fill="#FFC700"/>
<path d="M1112.72 188.083L1116.86 192.037C1116.25 192.626 1115.84 193.335 1115.64 194.153C1115.44 194.972 1115.73 195.761 1116.52 196.51C1117.91 197.838 1119.39 197.678 1120.99 196.03C1121.43 195.591 1121.7 195.152 1121.83 194.723C1121.96 194.293 1121.94 193.894 1121.77 193.515C1121.6 193.145 1121.44 192.846 1121.28 192.616C1121.12 192.396 1120.88 192.137 1120.58 191.857L1120.06 191.358L1123.03 188.313L1123.55 188.812C1123.71 188.962 1123.88 189.102 1124.07 189.211C1124.26 189.331 1124.54 189.441 1124.9 189.561C1125.26 189.681 1125.65 189.661 1126.09 189.521C1126.52 189.381 1126.94 189.082 1127.37 188.642C1128.05 187.944 1128.35 187.295 1128.29 186.696C1128.22 186.087 1127.99 185.597 1127.57 185.198C1127.07 184.719 1126.47 184.489 1125.76 184.519C1125.06 184.549 1124.47 184.839 1123.97 185.378L1119.84 181.414C1120.65 180.755 1121.48 180.246 1122.28 179.857C1123.1 179.477 1123.82 179.228 1124.48 179.108C1125.12 178.988 1125.76 178.968 1126.41 179.048C1127.05 179.128 1127.6 179.238 1128.07 179.407C1128.53 179.577 1128.99 179.797 1129.46 180.096C1129.92 180.386 1130.27 180.635 1130.51 180.835C1130.75 181.035 1131 181.254 1131.26 181.504C1132.8 182.982 1133.72 184.659 1134.03 186.526C1134.35 188.393 1133.72 190.13 1132.15 191.737C1131.27 192.656 1130.28 193.225 1129.21 193.465C1128.15 193.704 1127.13 193.564 1126.19 193.035L1126.12 193.115C1126.69 194.124 1126.9 195.282 1126.75 196.59C1126.6 197.897 1125.88 199.205 1124.62 200.513C1122.97 202.21 1121.06 203.029 1118.91 202.979C1116.76 202.929 1114.72 201.981 1112.79 200.144C1111.76 199.145 1111.02 198.097 1110.58 196.999C1110.15 195.901 1109.96 194.912 1110.01 194.044C1110.06 193.175 1110.27 192.306 1110.65 191.418C1111.02 190.529 1111.37 189.86 1111.69 189.391C1111.99 188.952 1112.34 188.503 1112.72 188.083Z" fill="#FFC700"/>
<path d="M975.704 91.2332C975.231 90.8138 975 90.2148 975 89.446C975 88.6673 975.231 88.0683 975.704 87.639C976.177 87.2097 976.73 87 977.364 87C977.998 87 978.552 87.2097 979.024 87.639C979.497 88.0683 979.729 88.6673 979.729 89.446C979.729 90.2248 979.497 90.8238 979.024 91.2332C978.552 91.6525 977.998 91.8621 977.364 91.8621C976.73 91.8621 976.177 91.6425 975.704 91.2332Z" fill="#FFC700"/>
<path d="M1083.41 116.875C1083.14 116.546 1083 116.147 1083 115.687C1083 115.228 1083.14 114.829 1083.41 114.499C1083.68 114.17 1084.02 114 1084.41 114C1084.8 114 1085.12 114.17 1085.4 114.499C1085.69 114.829 1085.82 115.228 1085.82 115.687C1085.82 116.147 1085.68 116.546 1085.4 116.875C1085.13 117.205 1084.8 117.375 1084.41 117.375C1084.02 117.375 1083.68 117.205 1083.41 116.875Z" fill="#FFC700"/>
<path d="M972.523 198.115C972.181 197.805 972 197.366 972 196.797C972 196.228 972.171 195.779 972.523 195.469C972.865 195.16 973.278 195 973.741 195C974.203 195 974.616 195.16 974.968 195.469C975.31 195.779 975.481 196.228 975.481 196.797C975.481 197.366 975.31 197.805 974.968 198.115C974.626 198.424 974.213 198.574 973.741 198.574C973.268 198.574 972.865 198.424 972.523 198.115Z" fill="#FFC700"/>
<path d="M1144.52 141.115C1144.18 140.805 1144 140.366 1144 139.797C1144 139.228 1144.17 138.779 1144.52 138.469C1144.87 138.16 1145.28 138 1145.74 138C1146.2 138 1146.62 138.16 1146.97 138.469C1147.31 138.779 1147.48 139.228 1147.48 139.797C1147.48 140.366 1147.31 140.805 1146.97 141.115C1146.63 141.424 1146.21 141.574 1145.74 141.574C1145.27 141.574 1144.87 141.424 1144.52 141.115Z" fill="#FFC700"/>
<path d="M867.272 77.797C867.091 77.5873 867 77.3277 867 77.0382C867 76.7387 867.091 76.4891 867.272 76.2694C867.453 76.0498 867.664 75.95 867.916 75.95C868.167 75.95 868.378 76.0598 868.559 76.2694C868.741 76.4791 868.831 76.7387 868.831 77.0382C868.831 77.3377 868.741 77.5873 868.559 77.8069C868.378 78.0166 868.167 78.1264 867.916 78.1264C867.664 78.1264 867.453 78.0166 867.272 77.797Z" fill="#FFC700"/>
<path d="M910.412 174.875C910.141 174.546 910 174.147 910 173.687C910 173.228 910.141 172.829 910.412 172.499C910.684 172.17 911.016 172 911.409 172C911.801 172 912.123 172.17 912.405 172.499C912.686 172.829 912.817 173.228 912.817 173.687C912.817 174.147 912.676 174.546 912.405 174.875C912.133 175.205 911.801 175.375 911.409 175.375C911.016 175.375 910.684 175.205 910.412 174.875Z" fill="#FFC700"/>
<path d="M1057.31 25.9331L1054.02 25.0346C1054.57 23.5669 1055.28 22.4188 1056.17 21.5901C1057.82 20.0626 1059.88 19.6333 1062.37 20.3122C1064.4 20.8613 1065.83 21.9196 1066.67 23.4771C1067.51 25.0346 1067.65 26.8017 1067.11 28.7785C1066.51 30.955 1065.23 32.4326 1063.28 33.1914C1064.88 34.7289 1065.31 36.7955 1064.6 39.4013C1064.37 40.2399 1064.02 41.0287 1063.58 41.7775C1063.14 42.5262 1062.55 43.2351 1061.82 43.904C1061.1 44.5729 1060.16 45.0222 1059.01 45.2419C1057.88 45.4715 1056.63 45.4016 1055.28 45.0322C1053.49 44.543 1052.18 43.7443 1051.38 42.6361C1050.57 41.5279 1050.12 40.3298 1050.03 39.0319C1049.96 38.1334 1050.02 37.2049 1050.22 36.2264L1053.51 37.125C1053.31 38.1933 1053.45 39.1617 1053.93 40.0403C1054.41 40.9188 1055.19 41.4979 1056.25 41.7874C1057.38 42.0969 1058.41 41.9472 1059.32 41.3382C1060.24 40.7292 1060.88 39.7707 1061.25 38.4528C1061.55 37.3446 1061.47 36.3263 1060.99 35.4078C1060.52 34.4893 1059.7 33.8703 1058.51 33.5408L1057.85 33.3611L1058.71 30.2262L1059.37 30.4059C1061.7 31.0349 1063.16 30.2761 1063.75 28.1196C1064.06 26.9814 1064.01 26.013 1063.59 25.2043C1063.17 24.3956 1062.45 23.8465 1061.44 23.5769C1060.51 23.3273 1059.68 23.4072 1058.94 23.8165C1058.2 24.2159 1057.66 24.9247 1057.31 25.9331Z" fill="#FFC700"/>
<path d="M1101.41 33.8753C1101.14 33.5459 1101 33.1465 1101 32.6873C1101 32.228 1101.14 31.8287 1101.41 31.4992C1101.68 31.1697 1102.02 31 1102.41 31C1102.8 31 1103.12 31.1697 1103.4 31.4992C1103.69 31.8287 1103.82 32.228 1103.82 32.6873C1103.82 33.1465 1103.68 33.5459 1103.4 33.8753C1103.13 34.2048 1102.8 34.3745 1102.41 34.3745C1102.02 34.3745 1101.69 34.2048 1101.41 33.8753Z" fill="#FFC700"/>
<path d="M1035.7 19.2331C1035.23 18.8138 1035 18.2148 1035 17.446C1035 16.6673 1035.23 16.0683 1035.7 15.639C1036.18 15.2097 1036.73 15 1037.36 15C1038 15 1038.55 15.2097 1039.02 15.639C1039.5 16.0683 1039.73 16.6673 1039.73 17.446C1039.73 18.2248 1039.5 18.8238 1039.02 19.2331C1038.55 19.6525 1038 19.8621 1037.36 19.8621C1036.73 19.8621 1036.18 19.6525 1035.7 19.2331Z" fill="#FFC700"/>
<path d="M1227.15 73.2226L1233.86 69.888C1234.15 70.4471 1234.45 70.9363 1234.76 71.3656C1235.07 71.7949 1235.52 72.1643 1236.11 72.4738C1236.69 72.7733 1237.27 72.7833 1237.86 72.4938C1239.04 71.9147 1239.1 70.5968 1238.06 68.5402C1237.1 66.6532 1235.85 66.0941 1234.29 66.8729L1233.15 67.4419L1229.79 60.7927L1230.79 60.2935C1231.14 60.1238 1231.41 59.9541 1231.61 59.7943C1231.81 59.6346 1231.93 59.2652 1231.98 58.6861C1232.03 58.1071 1231.84 57.3982 1231.42 56.5496C1231.09 55.9006 1230.67 55.4214 1230.17 55.1219C1229.67 54.8224 1229.19 54.7824 1228.74 55.0121C1228.14 55.3116 1227.85 55.8008 1227.86 56.4597C1227.87 57.1187 1228.06 57.7976 1228.4 58.4864L1221.93 61.7112C1221.26 60.1338 1220.76 58.6562 1220.46 57.2784C1220.16 55.9006 1220 54.7126 1220 53.7142C1220 52.7158 1220.12 51.7873 1220.35 50.9387C1220.59 50.0801 1220.87 49.4012 1221.18 48.872C1221.49 48.3529 1221.87 47.8636 1222.31 47.4244C1222.76 46.9851 1223.13 46.6656 1223.41 46.4759C1223.7 46.2962 1223.98 46.1265 1224.28 45.9867C1226.52 44.8685 1228.84 44.6988 1231.25 45.4875C1233.64 46.2762 1235.63 48.233 1237.21 51.358C1238.22 53.3448 1238.72 55.1319 1238.72 56.7293C1238.72 58.3167 1238.31 59.5248 1237.48 60.3534L1237.55 60.5032C1237.97 60.4632 1238.42 60.4732 1238.92 60.5531C1239.43 60.633 1240.08 60.8426 1240.9 61.1921C1241.71 61.5415 1242.57 62.2104 1243.46 63.1888C1244.36 64.1672 1245.19 65.4052 1245.95 66.9028C1247.43 69.8381 1247.93 72.6435 1247.46 75.3292C1246.98 78.0148 1245.17 80.1414 1242.02 81.6989C1240.74 82.3378 1239.44 82.6174 1238.14 82.5275C1236.84 82.4377 1235.67 82.1082 1234.66 81.5391C1233.63 80.9701 1232.63 80.1813 1231.62 79.1929C1230.61 78.2045 1229.78 77.2361 1229.11 76.2876C1228.42 75.3192 1227.78 74.3008 1227.15 73.2226Z" fill="#FFC700"/>
<path d="M1401.37 57.0408L1395.75 55.3037C1396.77 52.8177 1398.07 50.8808 1399.66 49.503C1402.58 46.9672 1406.18 46.3581 1410.42 47.676C1413.88 48.7443 1416.29 50.6512 1417.63 53.3868C1418.98 56.1223 1419.13 59.1774 1418.08 62.5419C1416.91 66.2559 1414.62 68.7119 1411.2 69.91C1413.85 72.6456 1414.49 76.2398 1413.08 80.6926C1412.62 82.1302 1412 83.4681 1411.19 84.726C1410.37 85.984 1409.32 87.1721 1408.03 88.2703C1406.73 89.3785 1405.09 90.0973 1403.12 90.4168C1401.13 90.7363 1399 90.5466 1396.7 89.8278C1393.64 88.8793 1391.45 87.4217 1390.13 85.4648C1388.81 83.508 1388.11 81.4114 1388.02 79.175C1387.95 77.6275 1388.12 76.0201 1388.52 74.3628L1394.13 76.1C1393.72 77.927 1393.9 79.6043 1394.68 81.1418C1395.46 82.6793 1396.75 83.7276 1398.55 84.2867C1400.49 84.8858 1402.27 84.6961 1403.88 83.7077C1405.49 82.7193 1406.66 81.1019 1407.36 78.8555C1407.96 76.9586 1407.88 75.2014 1407.12 73.5841C1406.37 71.9667 1404.98 70.8485 1402.97 70.2195L1401.83 69.8701L1403.51 64.5287L1404.65 64.8782C1408.61 66.1062 1411.17 64.8782 1412.32 61.1941C1412.93 59.2573 1412.9 57.58 1412.22 56.1623C1411.55 54.7446 1410.34 53.7562 1408.61 53.227C1407.02 52.7378 1405.58 52.8277 1404.29 53.4866C1403 54.1455 1402.02 55.3336 1401.37 57.0408Z" fill="#FFC700"/>
<path d="M1299.2 132.479L1304.76 131.021C1304.96 131.85 1305.35 132.558 1305.95 133.147C1306.56 133.747 1307.38 133.906 1308.44 133.627C1310.3 133.138 1310.93 131.79 1310.34 129.583C1310.18 128.994 1309.95 128.535 1309.65 128.196C1309.34 127.866 1308.98 127.666 1308.58 127.616C1308.17 127.567 1307.82 127.557 1307.55 127.577C1307.27 127.606 1306.94 127.666 1306.54 127.776L1305.84 127.956L1304.75 123.863L1305.44 123.683C1305.65 123.623 1305.85 123.553 1306.05 123.443C1306.25 123.343 1306.5 123.164 1306.78 122.924C1307.06 122.674 1307.25 122.335 1307.35 121.896C1307.45 121.456 1307.42 120.937 1307.26 120.348C1307.01 119.42 1306.61 118.821 1306.05 118.561C1305.5 118.302 1304.95 118.252 1304.39 118.391C1303.72 118.571 1303.21 118.96 1302.87 119.579C1302.54 120.198 1302.48 120.847 1302.68 121.546L1297.13 123.004C1296.99 121.966 1296.96 121.007 1297.06 120.119C1297.15 119.23 1297.31 118.481 1297.54 117.872C1297.77 117.263 1298.09 116.704 1298.49 116.195C1298.89 115.686 1299.27 115.276 1299.65 114.977C1300.04 114.667 1300.47 114.398 1300.96 114.158C1301.46 113.919 1301.85 113.749 1302.15 113.649C1302.45 113.549 1302.77 113.449 1303.11 113.36C1305.18 112.81 1307.1 112.89 1308.87 113.599C1310.64 114.298 1311.82 115.736 1312.39 117.892C1312.72 119.12 1312.71 120.248 1312.36 121.277C1312.01 122.305 1311.37 123.094 1310.43 123.633L1310.46 123.733C1311.63 123.763 1312.73 124.192 1313.78 124.991C1314.84 125.799 1315.59 127.077 1316.06 128.824C1316.67 131.101 1316.4 133.138 1315.24 134.945C1314.08 136.752 1312.21 137.99 1309.64 138.669C1308.24 139.038 1306.95 139.118 1305.78 138.918C1304.6 138.718 1303.66 138.369 1302.94 137.88C1302.23 137.391 1301.58 136.752 1301.01 135.973C1300.44 135.194 1300.04 134.555 1299.81 134.046C1299.56 133.547 1299.36 133.018 1299.2 132.479Z" fill="#FFC700"/>
<path d="M1348 115.506L1350.82 115.546C1350.8 115.965 1350.9 116.345 1351.1 116.714C1351.3 117.074 1351.67 117.263 1352.21 117.263C1353.15 117.273 1353.63 116.724 1353.65 115.606C1353.65 115.307 1353.61 115.057 1353.51 114.857C1353.41 114.658 1353.27 114.518 1353.08 114.438C1352.89 114.358 1352.73 114.308 1352.6 114.288C1352.47 114.268 1352.3 114.248 1352.09 114.248L1351.74 114.238L1351.77 112.162L1352.12 112.172C1352.24 112.172 1352.34 112.162 1352.45 112.142C1352.56 112.122 1352.69 112.072 1352.86 111.992C1353.03 111.912 1353.16 111.782 1353.27 111.583C1353.38 111.383 1353.43 111.143 1353.43 110.844C1353.44 110.375 1353.33 110.035 1353.1 109.845C1352.87 109.656 1352.62 109.556 1352.34 109.546C1351.99 109.536 1351.7 109.666 1351.46 109.905C1351.22 110.155 1351.11 110.454 1351.11 110.814L1348.29 110.774C1348.36 110.265 1348.48 109.805 1348.64 109.396C1348.8 108.987 1348.99 108.657 1349.18 108.398C1349.37 108.138 1349.59 107.919 1349.85 107.729C1350.1 107.539 1350.34 107.399 1350.57 107.31C1350.79 107.21 1351.03 107.14 1351.29 107.1C1351.55 107.05 1351.76 107.02 1351.92 107.01C1352.07 107 1352.25 107 1352.42 107C1353.47 107.02 1354.37 107.31 1355.11 107.869C1355.86 108.438 1356.22 109.266 1356.2 110.365C1356.19 110.994 1356.04 111.523 1355.74 111.962C1355.44 112.401 1355.02 112.691 1354.51 112.821V112.87C1355.05 113.04 1355.53 113.39 1355.91 113.909C1356.3 114.428 1356.48 115.137 1356.47 116.025C1356.45 117.184 1356.05 118.102 1355.26 118.811C1354.47 119.51 1353.42 119.849 1352.11 119.829C1351.4 119.819 1350.79 119.689 1350.26 119.44C1349.74 119.19 1349.34 118.901 1349.06 118.571C1348.78 118.242 1348.56 117.862 1348.4 117.413C1348.24 116.974 1348.13 116.614 1348.09 116.345C1348.03 116.055 1348 115.786 1348 115.506Z" fill="#FFC700"/>
<path d="M1405.72 167.083L1409.86 171.037C1409.25 171.626 1408.84 172.335 1408.64 173.153C1408.44 173.972 1408.73 174.761 1409.52 175.51C1410.91 176.838 1412.39 176.678 1413.99 175.03C1414.43 174.591 1414.7 174.152 1414.83 173.723C1414.96 173.293 1414.94 172.894 1414.77 172.515C1414.6 172.145 1414.44 171.846 1414.28 171.616C1414.12 171.396 1413.88 171.137 1413.58 170.857L1413.06 170.358L1416.03 167.313L1416.55 167.812C1416.71 167.962 1416.88 168.102 1417.07 168.211C1417.26 168.331 1417.54 168.441 1417.9 168.561C1418.26 168.681 1418.65 168.661 1419.09 168.521C1419.52 168.381 1419.94 168.082 1420.37 167.642C1421.05 166.944 1421.35 166.295 1421.29 165.696C1421.22 165.087 1420.99 164.597 1420.57 164.198C1420.07 163.719 1419.47 163.489 1418.76 163.519C1418.06 163.549 1417.47 163.839 1416.97 164.378L1412.84 160.414C1413.65 159.755 1414.48 159.246 1415.28 158.857C1416.1 158.477 1416.82 158.228 1417.48 158.108C1418.12 157.988 1418.76 157.968 1419.41 158.048C1420.05 158.128 1420.6 158.238 1421.07 158.407C1421.53 158.577 1421.99 158.797 1422.46 159.096C1422.92 159.386 1423.27 159.635 1423.51 159.835C1423.75 160.035 1424 160.254 1424.26 160.504C1425.8 161.982 1426.72 163.659 1427.03 165.526C1427.35 167.393 1426.72 169.13 1425.15 170.737C1424.27 171.656 1423.28 172.225 1422.21 172.465C1421.15 172.704 1420.13 172.564 1419.19 172.035L1419.12 172.115C1419.69 173.124 1419.9 174.282 1419.75 175.59C1419.6 176.897 1418.88 178.205 1417.62 179.513C1415.97 181.21 1414.06 182.029 1411.91 181.979C1409.76 181.929 1407.72 180.981 1405.79 179.144C1404.76 178.145 1404.02 177.097 1403.58 175.999C1403.15 174.901 1402.96 173.912 1403.01 173.044C1403.06 172.175 1403.27 171.306 1403.65 170.418C1404.02 169.529 1404.37 168.86 1404.69 168.391C1404.99 167.952 1405.34 167.503 1405.72 167.083Z" fill="#FFC700"/>
<path d="M1271.7 71.2332C1271.23 70.8138 1271 70.2148 1271 69.446C1271 68.6673 1271.23 68.0683 1271.7 67.639C1272.18 67.2097 1272.73 67 1273.36 67C1274 67 1274.55 67.2097 1275.02 67.639C1275.5 68.0683 1275.73 68.6673 1275.73 69.446C1275.73 70.2248 1275.5 70.8238 1275.02 71.2332C1274.55 71.6525 1274 71.8621 1273.36 71.8621C1272.73 71.8621 1272.18 71.6425 1271.7 71.2332Z" fill="#FFC700"/>
<path d="M1371.41 97.8753C1371.14 97.5459 1371 97.1465 1371 96.6873C1371 96.228 1371.14 95.8287 1371.41 95.4992C1371.68 95.1697 1372.02 95 1372.41 95C1372.8 95 1373.12 95.1697 1373.4 95.4992C1373.69 95.8287 1373.82 96.228 1373.82 96.6873C1373.82 97.1465 1373.68 97.5459 1373.4 97.8753C1373.13 98.2048 1372.8 98.3745 1372.41 98.3745C1372.02 98.3745 1371.68 98.2048 1371.41 97.8753Z" fill="#FFC700"/>
<path d="M1259.52 165.115C1259.18 164.805 1259 164.366 1259 163.797C1259 163.228 1259.17 162.779 1259.52 162.469C1259.87 162.16 1260.28 162 1260.74 162C1261.2 162 1261.62 162.16 1261.97 162.469C1262.31 162.779 1262.48 163.228 1262.48 163.797C1262.48 164.366 1262.31 164.805 1261.97 165.115C1261.63 165.424 1261.21 165.574 1260.74 165.574C1260.27 165.574 1259.87 165.424 1259.52 165.115Z" fill="#FFC700"/>
<path d="M1438.52 125.115C1438.18 124.805 1438 124.366 1438 123.797C1438 123.228 1438.17 122.779 1438.52 122.469C1438.87 122.16 1439.28 122 1439.74 122C1440.2 122 1440.62 122.16 1440.97 122.469C1441.31 122.779 1441.48 123.228 1441.48 123.797C1441.48 124.366 1441.31 124.805 1440.97 125.115C1440.63 125.424 1440.21 125.574 1439.74 125.574C1439.27 125.574 1438.87 125.424 1438.52 125.115Z" fill="#FFC700"/>
<path d="M1206.41 155.875C1206.14 155.546 1206 155.147 1206 154.687C1206 154.228 1206.14 153.829 1206.41 153.499C1206.68 153.17 1207.02 153 1207.41 153C1207.8 153 1208.12 153.17 1208.4 153.499C1208.69 153.829 1208.82 154.228 1208.82 154.687C1208.82 155.147 1208.68 155.546 1208.4 155.875C1208.13 156.205 1207.8 156.375 1207.41 156.375C1207.02 156.375 1206.68 156.205 1206.41 155.875Z" fill="#FFC700"/>
<path d="M1161.27 63.847C1161.09 63.6373 1161 63.3778 1161 63.0882C1161 62.7887 1161.09 62.5391 1161.27 62.3195C1161.45 62.0998 1161.66 62 1161.92 62C1162.17 62 1162.38 62.1098 1162.56 62.3195C1162.74 62.5291 1162.83 62.7887 1162.83 63.0882C1162.83 63.3878 1162.74 63.6373 1162.56 63.857C1162.38 64.0667 1162.17 64.1765 1161.92 64.1765C1161.66 64.1765 1161.45 64.0667 1161.27 63.847Z" fill="#FFC700"/>
<path d="M1433.17 37.3686L1431.97 36.7995C1432.42 35.9609 1432.89 35.3219 1433.39 34.8527C1434.31 34.0041 1435.23 33.7844 1436.14 34.2137C1436.89 34.5632 1437.31 35.1921 1437.41 36.1007C1437.51 37.0092 1437.29 38.0276 1436.75 39.1557C1436.16 40.4037 1435.41 41.2224 1434.48 41.6317C1434.89 42.5402 1434.74 43.7383 1434.04 45.2259C1433.81 45.7051 1433.54 46.1544 1433.24 46.5737C1432.94 46.993 1432.59 47.3924 1432.19 47.7618C1431.78 48.1312 1431.33 48.3808 1430.83 48.4906C1430.33 48.6004 1429.82 48.5405 1429.33 48.3109C1428.67 48.0014 1428.26 47.5222 1428.11 46.8732C1427.96 46.2243 1427.96 45.5254 1428.12 44.7766C1428.23 44.2575 1428.41 43.7183 1428.65 43.1692L1429.85 43.7383C1429.6 44.3473 1429.5 44.9064 1429.56 45.4256C1429.62 45.9348 1429.84 46.2842 1430.23 46.4639C1430.66 46.6636 1431.1 46.5937 1431.57 46.2542C1432.05 45.9248 1432.46 45.3757 1432.82 44.6269C1433.12 43.9879 1433.25 43.4088 1433.2 42.8697C1433.15 42.3306 1432.91 41.9612 1432.48 41.7615L1432.24 41.6517L1433.09 39.8646L1433.33 39.9744C1434.19 40.3738 1434.9 39.9644 1435.5 38.7264C1435.81 38.0775 1435.94 37.5184 1435.89 37.0491C1435.84 36.5799 1435.64 36.2504 1435.27 36.0807C1434.92 35.921 1434.57 35.9509 1434.2 36.1805C1433.81 36.4002 1433.47 36.7995 1433.17 37.3686Z" fill="#FFC700"/>
<path d="M1392.41 17.8753C1392.14 17.5459 1392 17.1465 1392 16.6873C1392 16.228 1392.14 15.8287 1392.41 15.4992C1392.68 15.1697 1393.02 15 1393.41 15C1393.8 15 1394.12 15.1697 1394.4 15.4992C1394.69 15.8287 1394.82 16.228 1394.82 16.6873C1394.82 17.1465 1394.68 17.5459 1394.4 17.8753C1394.13 18.2048 1393.8 18.3745 1393.41 18.3745C1393.02 18.3745 1392.69 18.2048 1392.41 17.8753Z" fill="#FFC700"/>
<path d="M1376.1 37.3284L1375.08 37.528C1374.98 36.8092 1374.97 36.1902 1375.07 35.671C1375.25 34.7226 1375.71 34.1735 1376.48 34.0337C1377.1 33.9139 1377.66 34.1136 1378.13 34.6327C1378.6 35.1519 1378.94 35.8807 1379.13 36.8292C1379.34 37.8675 1379.25 38.7261 1378.85 39.395C1379.53 39.7744 1379.99 40.5831 1380.23 41.8211C1380.31 42.2204 1380.35 42.6198 1380.36 43.0191C1380.37 43.4185 1380.33 43.8179 1380.25 44.2372C1380.17 44.6565 1380 45.0059 1379.74 45.3054C1379.48 45.605 1379.14 45.7947 1378.72 45.8745C1378.17 45.9843 1377.7 45.8745 1377.3 45.5351C1376.91 45.2056 1376.59 44.7663 1376.35 44.2272C1376.18 43.8578 1376.05 43.4385 1375.94 42.9892L1376.94 42.7895C1377.06 43.2787 1377.26 43.6781 1377.54 43.9676C1377.81 44.2571 1378.11 44.367 1378.43 44.3071C1378.78 44.2372 1379.02 43.9976 1379.17 43.5782C1379.31 43.1589 1379.32 42.6298 1379.19 42.0008C1379.08 41.4717 1378.89 41.0523 1378.61 40.7329C1378.33 40.4234 1378.02 40.3035 1377.65 40.3734L1377.44 40.4134L1377.18 38.9258L1377.38 38.8858C1378.1 38.7461 1378.35 38.167 1378.15 37.1287C1378.04 36.5896 1377.87 36.1802 1377.62 35.9107C1377.37 35.6411 1377.09 35.5313 1376.78 35.5912C1376.5 35.6511 1376.29 35.8308 1376.17 36.1303C1376.05 36.4398 1376.03 36.8392 1376.1 37.3284Z" fill="#FFC700"/>
<path d="M1335.31 5.93311L1332.02 5.03457C1332.57 3.56694 1333.28 2.4188 1334.17 1.59015C1335.82 0.0626188 1337.88 -0.366686 1340.37 0.312215C1342.4 0.861326 1343.83 1.91961 1344.67 3.47709C1345.51 5.03457 1345.65 6.80171 1345.11 8.77851C1344.51 10.955 1343.23 12.4326 1341.28 13.1914C1342.88 14.7289 1343.31 16.7955 1342.6 19.4013C1342.37 20.2399 1342.02 21.0287 1341.58 21.7775C1341.14 22.5262 1340.55 23.2351 1339.82 23.904C1339.1 24.5729 1338.16 25.0222 1337.01 25.2419C1335.88 25.4715 1334.63 25.4016 1333.28 25.0322C1331.49 24.543 1330.18 23.7443 1329.38 22.6361C1328.57 21.5279 1328.12 20.3298 1328.03 19.0319C1327.96 18.1334 1328.02 17.2049 1328.22 16.2264L1331.51 17.125C1331.31 18.1933 1331.45 19.1617 1331.93 20.0403C1332.41 20.9188 1333.19 21.4979 1334.25 21.7874C1335.38 22.0969 1336.41 21.9472 1337.32 21.3382C1338.24 20.7292 1338.88 19.7707 1339.25 18.4528C1339.55 17.3446 1339.47 16.3263 1338.99 15.4078C1338.52 14.4893 1337.7 13.8703 1336.51 13.5408L1335.85 13.3611L1336.71 10.2262L1337.37 10.4059C1339.7 11.0349 1341.16 10.2761 1341.75 8.11957C1342.06 6.98142 1342.01 6.01298 1341.59 5.20429C1341.17 4.3956 1340.45 3.84649 1339.44 3.57693C1338.51 3.32733 1337.68 3.4072 1336.94 3.81654C1336.2 4.21589 1335.66 4.92475 1335.31 5.93311Z" fill="#FFC700"/>
<path d="M1309.7 8.23315C1309.23 7.81382 1309 7.21479 1309 6.44604C1309 5.6673 1309.23 5.06827 1309.7 4.63897C1310.18 4.20966 1310.73 4 1311.36 4C1312 4 1312.55 4.20966 1313.02 4.63897C1313.5 5.06827 1313.73 5.6673 1313.73 6.44604C1313.73 7.22478 1313.5 7.82381 1313.02 8.23315C1312.55 8.65247 1312 8.86213 1311.36 8.86213C1310.73 8.86213 1310.18 8.65247 1309.7 8.23315Z" fill="#FFC700"/>
<defs>
<clipPath id="clip0">
<rect width="289" height="210" fill="white" transform="translate(0 45)"/>
</clipPath>
</defs>
</svg>
