<svg width="1445" height="255" viewBox="0 0 1445 255" fill="none" xmlns="http://www.w3.org/2000/svg">
<g clip-path="url(#clip0)">
<path d="M87.0801 180.614L74.5394 155.815L71.4572 157.344L66.6826 147.902L76.7353 142.896L94.0505 177.137L87.0801 180.614Z" fill="#FFC700"/>
<path d="M281.264 109.125L286.834 97.4251L285.434 96.7656L287.015 95.177L289 96.1062L282.523 109.715L281.264 109.125Z" fill="#FFC700"/>
<path d="M208.146 94.7075L206.202 84.9159L205.033 85.1457L205.285 83.4372L206.937 83.1174L209.193 94.4977L208.146 94.7075Z" fill="#FFC700"/>
<path d="M216.616 204.233L227.626 169.233L221.139 167.225L226.065 162.499L235.261 165.347L222.458 206.052L216.616 204.233Z" fill="#FFC700"/>
<path d="M136.991 223.977L132.065 205.572L128.671 206.472L127.2 200.976L136.346 198.568L142.743 222.478L136.991 223.977Z" fill="#FFC700"/>
<path d="M189.692 171.721L189.833 162.369L188.11 162.339L188.151 159.552L192.794 159.622L192.613 171.761L189.692 171.721Z" fill="#FFC700"/>
<path d="M172.377 83.6069L178.038 63.0945L174.23 62.0654L176.99 59.2278L182.379 60.6865L175.802 84.5461L172.377 83.6069Z" fill="#FFC700"/>
<path d="M239.754 250.904L253.09 237.205L250.562 234.787L254.541 230.691L261.35 237.215L244.035 255.01L239.754 250.904Z" fill="#FFC700"/>
<path d="M97.2227 124.941C96.7493 124.522 96.5176 123.922 96.5176 123.153C96.5176 122.374 96.7493 121.774 97.2227 121.345C97.6961 120.915 98.2501 120.705 98.8847 120.705C99.5193 120.705 100.073 120.915 100.547 121.345C101.02 121.774 101.252 122.374 101.252 123.153C101.252 123.932 101.02 124.532 100.547 124.941C100.073 125.361 99.5193 125.571 98.8847 125.571C98.2501 125.571 97.6961 125.351 97.2227 124.941Z" fill="#FFC700"/>
<path d="M158.849 49.2364C158.375 48.8167 158.144 48.2172 158.144 47.4479C158.144 46.6686 158.375 46.0691 158.849 45.6395C159.322 45.2098 159.876 45 160.511 45C161.145 45 161.699 45.2098 162.173 45.6395C162.646 46.0691 162.878 46.6686 162.878 47.4479C162.878 48.2272 162.646 48.8267 162.173 49.2364C161.699 49.656 161.145 49.8658 160.511 49.8658C159.876 49.8658 159.322 49.656 158.849 49.2364Z" fill="#FFC700"/>
<path d="M210.391 139.019C210.12 138.69 209.979 138.29 209.979 137.83C209.979 137.371 210.12 136.971 210.391 136.641C210.663 136.312 210.996 136.142 211.389 136.142C211.782 136.142 212.104 136.312 212.386 136.641C212.668 136.971 212.799 137.371 212.799 137.83C212.799 138.29 212.658 138.69 212.386 139.019C212.114 139.349 211.782 139.519 211.389 139.519C210.996 139.519 210.663 139.349 210.391 139.019Z" fill="#FFC700"/>
<path d="M228.875 59.088C228.603 58.7583 228.462 58.3586 228.462 57.899C228.462 57.4394 228.603 57.0397 228.875 56.71C229.147 56.3803 229.479 56.2104 229.872 56.2104C230.265 56.2104 230.587 56.3803 230.869 56.71C231.151 57.0397 231.282 57.4394 231.282 57.899C231.282 58.3586 231.141 58.7583 230.869 59.088C230.597 59.4177 230.265 59.5876 229.872 59.5876C229.479 59.5876 229.157 59.4177 228.875 59.088Z" fill="#FFC700"/>
<path d="M96.7298 242.301C96.3874 241.991 96.2061 241.552 96.2061 240.982C96.2061 240.413 96.3773 239.963 96.7298 239.653C97.0723 239.343 97.4853 239.184 97.9487 239.184C98.412 239.184 98.825 239.343 99.1775 239.653C99.52 239.963 99.6913 240.413 99.6913 240.982C99.6913 241.552 99.52 241.991 99.1775 242.301C98.8351 242.611 98.4221 242.76 97.9487 242.76C97.4752 242.76 97.0723 242.611 96.7298 242.301Z" fill="#FFC700"/>
<path d="M261.693 179.765C261.35 179.455 261.169 179.015 261.169 178.446C261.169 177.876 261.34 177.427 261.693 177.117C262.035 176.807 262.448 176.647 262.912 176.647C263.375 176.647 263.788 176.807 264.14 177.117C264.483 177.427 264.654 177.876 264.654 178.446C264.654 179.015 264.483 179.455 264.14 179.765C263.798 180.074 263.385 180.224 262.912 180.224C262.438 180.224 262.035 180.074 261.693 179.765Z" fill="#FFC700"/>
<path d="M0.271967 77.8218C0.0906556 77.612 0 77.3522 0 77.0625C0 76.7627 0.0906556 76.5129 0.271967 76.2931C0.453278 76.0733 0.664808 75.9734 0.916629 75.9734C1.16845 75.9734 1.37998 76.0833 1.56129 76.2931C1.7426 76.5029 1.83326 76.7627 1.83326 77.0625C1.83326 77.3622 1.7426 77.612 1.56129 77.8318C1.37998 78.0416 1.16845 78.1515 0.916629 78.1515C0.664808 78.1515 0.453278 78.0416 0.271967 77.8218Z" fill="#FFC700"/>
<path d="M34.5302 217.832C34.2582 217.502 34.1172 217.102 34.1172 216.643C34.1172 216.183 34.2582 215.784 34.5302 215.454C34.8021 215.124 35.1345 214.954 35.5274 214.954C35.9202 214.954 36.2426 215.124 36.5246 215.454C36.8066 215.784 36.9376 216.183 36.9376 216.643C36.9376 217.102 36.7966 217.502 36.5246 217.832C36.2526 218.162 35.9202 218.331 35.5274 218.331C35.1345 218.331 34.8021 218.162 34.5302 217.832Z" fill="#FFC700"/>
</g>
<path d="M363.398 158.718L350.857 133.919L347.775 135.448L343 126.006L353.053 121L370.368 155.241L363.398 158.718Z" fill="#FFC700"/>
<path d="M568 95.948L573.57 84.2481L572.17 83.5886L573.752 82L575.736 82.9292L569.259 96.5375L568 95.948Z" fill="#FFC700"/>
<path d="M494.113 83.5901L492.168 73.7985L491 74.0283L491.252 72.3197L492.904 72L495.16 83.3802L494.113 83.5901Z" fill="#FFC700"/>
<path d="M510 185.734L521.01 150.734L514.523 148.726L519.448 144L528.645 146.848L515.842 187.553L510 185.734Z" fill="#FFC700"/>
<path d="M420.791 206.408L415.865 188.004L412.471 188.903L411 183.408L420.146 181L426.542 204.91L420.791 206.408Z" fill="#FFC700"/>
<path d="M477.581 162.17L477.722 152.818L476 152.788L476.04 150L480.684 150.07L480.503 162.21L477.581 162.17Z" fill="#FFC700"/>
<path d="M464 71.3791L469.661 50.8667L465.853 49.8376L468.613 47L474.002 48.4587L467.425 72.3183L464 71.3791Z" fill="#FFC700"/>
<path d="M536 239.213L549.336 225.514L546.808 223.096L550.787 219L557.596 225.524L540.281 243.319L536 239.213Z" fill="#FFC700"/>
<path d="M381.705 106.236C381.232 105.817 381 105.217 381 104.448C381 103.669 381.232 103.069 381.705 102.639C382.179 102.21 382.733 102 383.367 102C384.002 102 384.556 102.21 385.029 102.639C385.503 103.069 385.734 103.669 385.734 104.448C385.734 105.227 385.503 105.827 385.029 106.236C384.556 106.656 384.002 106.866 383.367 106.866C382.733 106.866 382.179 106.646 381.705 106.236Z" fill="#FFC700"/>
<path d="M497.413 128.878C497.141 128.548 497 128.148 497 127.689C497 127.229 497.141 126.829 497.413 126.5C497.685 126.17 498.017 126 498.41 126C498.803 126 499.125 126.17 499.407 126.5C499.689 126.829 499.82 127.229 499.82 127.689C499.82 128.148 499.679 128.548 499.407 128.878C499.135 129.207 498.803 129.377 498.41 129.377C498.017 129.377 497.685 129.207 497.413 128.878Z" fill="#FFC700"/>
<path d="M521.413 52.8775C521.141 52.5478 521 52.1482 521 51.6886C521 51.2289 521.141 50.8293 521.413 50.4996C521.685 50.1699 522.017 50 522.41 50C522.803 50 523.125 50.1699 523.407 50.4996C523.689 50.8293 523.82 51.2289 523.82 51.6886C523.82 52.1482 523.679 52.5478 523.407 52.8775C523.135 53.2073 522.803 53.3771 522.41 53.3771C522.017 53.3771 521.695 53.2073 521.413 52.8775Z" fill="#FFC700"/>
<path d="M387.524 234.117C387.181 233.808 387 233.368 387 232.798C387 232.229 387.171 231.779 387.524 231.47C387.866 231.16 388.279 231 388.743 231C389.206 231 389.619 231.16 389.971 231.47C390.314 231.779 390.485 232.229 390.485 232.798C390.485 233.368 390.314 233.808 389.971 234.117C389.629 234.427 389.216 234.577 388.743 234.577C388.269 234.577 387.866 234.427 387.524 234.117Z" fill="#FFC700"/>
<path d="M555.524 171.117C555.181 170.808 555 170.368 555 169.798C555 169.229 555.171 168.779 555.524 168.47C555.866 168.16 556.279 168 556.743 168C557.206 168 557.619 168.16 557.972 168.47C558.314 168.779 558.485 169.229 558.485 169.798C558.485 170.368 558.314 170.808 557.972 171.117C557.629 171.427 557.216 171.577 556.743 171.577C556.269 171.577 555.866 171.427 555.524 171.117Z" fill="#FFC700"/>
<path d="M292.272 68.8484C292.091 68.6386 292 68.3788 292 68.0891C292 67.7893 292.091 67.5395 292.272 67.3197C292.453 67.0999 292.665 67 292.917 67C293.168 67 293.38 67.1099 293.561 67.3197C293.743 67.5295 293.833 67.7893 293.833 68.0891C293.833 68.3888 293.743 68.6386 293.561 68.8584C293.38 69.0682 293.168 69.1781 292.917 69.1781C292.665 69.1781 292.453 69.0682 292.272 68.8484Z" fill="#FFC700"/>
<path d="M320.413 206.878C320.141 206.548 320 206.148 320 205.689C320 205.229 320.141 204.829 320.413 204.5C320.685 204.17 321.017 204 321.41 204C321.803 204 322.125 204.17 322.407 204.5C322.689 204.829 322.82 205.229 322.82 205.689C322.82 206.148 322.679 206.548 322.407 206.878C322.135 207.207 321.803 207.377 321.41 207.377C321.017 207.377 320.685 207.207 320.413 206.878Z" fill="#FFC700"/>
<path d="M442.705 36.2364C442.232 35.8167 442 35.2172 442 34.4479C442 33.6686 442.232 33.0691 442.705 32.6395C443.179 32.2098 443.733 32 444.367 32C445.002 32 445.556 32.2098 446.029 32.6395C446.503 33.0691 446.734 33.6686 446.734 34.4479C446.734 35.2272 446.503 35.8267 446.029 36.2364C445.556 36.656 445.002 36.8658 444.367 36.8658C443.733 36.8658 443.179 36.656 442.705 36.2364Z" fill="#FFC700"/>
<path d="M639.398 135.718L626.857 110.919L623.775 112.448L619 103.006L629.053 98L646.368 132.241L639.398 135.718Z" fill="#FFC700"/>
<path d="M855 80.948L860.57 69.2481L859.17 68.5886L860.752 67L862.736 67.9292L856.259 81.5375L855 80.948Z" fill="#FFC700"/>
<path d="M780.113 72.5901L778.168 62.7985L777 63.0283L777.252 61.3197L778.904 61L781.16 72.3802L780.113 72.5901Z" fill="#FFC700"/>
<path d="M803 167.734L814.01 132.734L807.523 130.726L812.448 126L821.645 128.848L808.842 169.553L803 167.734Z" fill="#FFC700"/>
<path d="M705.791 192.408L700.865 174.004L697.471 174.903L696 169.408L705.146 167L711.542 190.91L705.791 192.408Z" fill="#FFC700"/>
<path d="M766.581 152.17L766.722 142.818L765 142.788L765.04 140L769.684 140.07L769.503 152.21L766.581 152.17Z" fill="#FFC700"/>
<path d="M837 225.213L850.336 211.514L847.808 209.096L851.787 205L858.596 211.524L841.281 229.319L837 225.213Z" fill="#FFC700"/>
<path d="M667.705 93.2364C667.232 92.8167 667 92.2172 667 91.4479C667 90.6686 667.232 90.0691 667.705 89.6395C668.179 89.2098 668.733 89 669.367 89C670.002 89 670.556 89.2098 671.029 89.6395C671.503 90.0691 671.734 90.6686 671.734 91.4479C671.734 92.2272 671.503 92.8267 671.029 93.2364C670.556 93.656 670.002 93.8658 669.367 93.8658C668.733 93.8658 668.179 93.646 667.705 93.2364Z" fill="#FFC700"/>
<path d="M784.413 119.878C784.141 119.548 784 119.148 784 118.689C784 118.229 784.141 117.829 784.413 117.5C784.685 117.17 785.017 117 785.41 117C785.803 117 786.125 117.17 786.407 117.5C786.689 117.829 786.82 118.229 786.82 118.689C786.82 119.148 786.679 119.548 786.407 119.878C786.135 120.207 785.803 120.377 785.41 120.377C785.017 120.377 784.685 120.207 784.413 119.878Z" fill="#FFC700"/>
<path d="M679.524 223.117C679.181 222.808 679 222.368 679 221.798C679 221.229 679.171 220.779 679.524 220.47C679.866 220.16 680.279 220 680.743 220C681.206 220 681.619 220.16 681.971 220.47C682.314 220.779 682.485 221.229 682.485 221.798C682.485 222.368 682.314 222.808 681.971 223.117C681.629 223.427 681.216 223.577 680.743 223.577C680.269 223.577 679.866 223.427 679.524 223.117Z" fill="#FFC700"/>
<path d="M850.524 163.117C850.181 162.808 850 162.368 850 161.798C850 161.229 850.171 160.779 850.524 160.47C850.866 160.16 851.279 160 851.743 160C852.206 160 852.619 160.16 852.972 160.47C853.314 160.779 853.485 161.229 853.485 161.798C853.485 162.368 853.314 162.808 852.972 163.117C852.629 163.427 852.216 163.577 851.743 163.577C851.269 163.577 850.866 163.427 850.524 163.117Z" fill="#FFC700"/>
<path d="M584.272 60.8484C584.091 60.6386 584 60.3788 584 60.0891C584 59.7893 584.091 59.5395 584.272 59.3197C584.453 59.0999 584.665 59 584.917 59C585.168 59 585.38 59.1099 585.561 59.3197C585.743 59.5295 585.833 59.7893 585.833 60.0891C585.833 60.3888 585.743 60.6386 585.561 60.8584C585.38 61.0682 585.168 61.1781 584.917 61.1781C584.665 61.1781 584.453 61.0682 584.272 60.8484Z" fill="#FFC700"/>
<path d="M605.413 194.878C605.141 194.548 605 194.148 605 193.689C605 193.229 605.141 192.829 605.413 192.5C605.685 192.17 606.017 192 606.41 192C606.803 192 607.125 192.17 607.407 192.5C607.689 192.829 607.82 193.229 607.82 193.689C607.82 194.148 607.679 194.548 607.407 194.878C607.135 195.207 606.803 195.377 606.41 195.377C606.017 195.377 605.685 195.207 605.413 194.878Z" fill="#FFC700"/>
<path d="M814.413 44.8775C814.141 44.5478 814 44.1482 814 43.6886C814 43.2289 814.141 42.8293 814.413 42.4996C814.685 42.1699 815.017 42 815.41 42C815.803 42 816.125 42.1699 816.407 42.4996C816.689 42.8293 816.82 43.2289 816.82 43.6886C816.82 44.1482 816.679 44.5478 816.407 44.8775C816.135 45.2073 815.803 45.3771 815.41 45.3771C815.017 45.3771 814.695 45.2073 814.413 44.8775Z" fill="#FFC700"/>
<path d="M756 58.3791L761.661 37.8667L757.853 36.8376L760.613 34L766.002 35.4587L759.425 59.3183L756 58.3791Z" fill="#FFC700"/>
<path d="M732.705 38.2364C732.232 37.8167 732 37.2172 732 36.4479C732 35.6686 732.232 35.0691 732.705 34.6395C733.179 34.2098 733.733 34 734.367 34C735.002 34 735.556 34.2098 736.029 34.6395C736.503 35.0691 736.734 35.6686 736.734 36.4479C736.734 37.2272 736.503 37.8267 736.029 38.2364C735.556 38.656 735.002 38.8658 734.367 38.8658C733.733 38.8658 733.179 38.656 732.705 38.2364Z" fill="#FFC700"/>
<path d="M918.398 117.718L905.857 92.9189L902.775 94.4476L898 85.0057L908.053 80L925.368 114.241L918.398 117.718Z" fill="#FFC700"/>
<path d="M1146 62.948L1151.57 51.2481L1150.17 50.5886L1151.75 49L1153.74 49.9292L1147.26 63.5375L1146 62.948Z" fill="#FFC700"/>
<path d="M1068.11 70.5901L1066.17 60.7985L1065 61.0283L1065.25 59.3197L1066.9 59L1069.16 70.3802L1068.11 70.5901Z" fill="#FFC700"/>
<path d="M1099 145.734L1110.01 110.734L1103.52 108.726L1108.45 104L1117.64 106.848L1104.84 147.553L1099 145.734Z" fill="#FFC700"/>
<path d="M989.791 178.408L984.865 160.004L981.471 160.903L980 155.408L989.146 153L995.542 176.91L989.791 178.408Z" fill="#FFC700"/>
<path d="M1054.58 140.17L1054.72 130.818L1053 130.788L1053.04 128L1057.68 128.07L1057.5 140.21L1054.58 140.17Z" fill="#FFC700"/>
<path d="M1039.38 83.6069L1045.04 63.0945L1041.23 62.0654L1043.99 59.2278L1049.38 60.6865L1042.8 84.5461L1039.38 83.6069Z" fill="#FFC700"/>
<path d="M1130 219.213L1143.34 205.514L1140.81 203.096L1144.79 199L1151.6 205.524L1134.28 223.319L1130 219.213Z" fill="#FFC700"/>
<path d="M952.705 82.2364C952.232 81.8167 952 81.2172 952 80.4479C952 79.6686 952.232 79.0691 952.705 78.6395C953.179 78.2098 953.733 78 954.367 78C955.002 78 955.556 78.2098 956.029 78.6395C956.503 79.0691 956.734 79.6686 956.734 80.4479C956.734 81.2272 956.503 81.8267 956.029 82.2364C955.556 82.656 955.002 82.8658 954.367 82.8658C953.733 82.8658 953.179 82.646 952.705 82.2364Z" fill="#FFC700"/>
<path d="M1069.41 106.878C1069.14 106.548 1069 106.148 1069 105.689C1069 105.229 1069.14 104.829 1069.41 104.5C1069.68 104.17 1070.02 104 1070.41 104C1070.8 104 1071.13 104.17 1071.41 104.5C1071.69 104.829 1071.82 105.229 1071.82 105.689C1071.82 106.148 1071.68 106.548 1071.41 106.878C1071.14 107.207 1070.8 107.377 1070.41 107.377C1070.02 107.377 1069.68 107.207 1069.41 106.878Z" fill="#FFC700"/>
<path d="M971.524 212.117C971.181 211.808 971 211.368 971 210.798C971 210.229 971.171 209.779 971.524 209.47C971.866 209.16 972.279 209 972.743 209C973.206 209 973.619 209.16 973.971 209.47C974.314 209.779 974.485 210.229 974.485 210.798C974.485 211.368 974.314 211.808 973.971 212.117C973.629 212.427 973.216 212.577 972.743 212.577C972.269 212.577 971.866 212.427 971.524 212.117Z" fill="#FFC700"/>
<path d="M1141.52 156.117C1141.18 155.808 1141 155.368 1141 154.798C1141 154.229 1141.17 153.779 1141.52 153.47C1141.87 153.16 1142.28 153 1142.74 153C1143.21 153 1143.62 153.16 1143.97 153.47C1144.31 153.779 1144.49 154.229 1144.49 154.798C1144.49 155.368 1144.31 155.808 1143.97 156.117C1143.63 156.427 1143.22 156.577 1142.74 156.577C1142.27 156.577 1141.87 156.427 1141.52 156.117Z" fill="#FFC700"/>
<path d="M889.413 183.878C889.141 183.548 889 183.148 889 182.689C889 182.229 889.141 181.829 889.413 181.5C889.685 181.17 890.017 181 890.41 181C890.803 181 891.125 181.17 891.407 181.5C891.689 181.829 891.82 182.229 891.82 182.689C891.82 183.148 891.679 183.548 891.407 183.878C891.135 184.207 890.803 184.377 890.41 184.377C890.017 184.377 889.685 184.207 889.413 183.878Z" fill="#FFC700"/>
<path d="M880.272 41.8484C880.091 41.6386 880 41.3788 880 41.0891C880 40.7893 880.091 40.5395 880.272 40.3197C880.453 40.0999 880.665 40 880.917 40C881.168 40 881.38 40.1099 881.561 40.3197C881.743 40.5295 881.833 40.7893 881.833 41.0891C881.833 41.3888 881.743 41.6386 881.561 41.8584C881.38 42.0682 881.168 42.1781 880.917 42.1781C880.665 42.1781 880.453 42.0682 880.272 41.8484Z" fill="#FFC700"/>
<path d="M1016.71 16.2364C1016.23 15.8167 1016 15.2172 1016 14.4479C1016 13.6686 1016.23 13.0691 1016.71 12.6395C1017.18 12.2098 1017.73 12 1018.37 12C1019 12 1019.56 12.2098 1020.03 12.6395C1020.5 13.0691 1020.73 13.6686 1020.73 14.4479C1020.73 15.2272 1020.5 15.8267 1020.03 16.2364C1019.56 16.656 1019 16.8658 1018.37 16.8658C1017.73 16.8658 1017.18 16.656 1016.71 16.2364Z" fill="#FFC700"/>
<path d="M1092.41 19.8775C1092.14 19.5478 1092 19.1482 1092 18.6886C1092 18.2289 1092.14 17.8293 1092.41 17.4996C1092.68 17.1699 1093.02 17 1093.41 17C1093.8 17 1094.13 17.1699 1094.41 17.4996C1094.69 17.8293 1094.82 18.2289 1094.82 18.6886C1094.82 19.1482 1094.68 19.5478 1094.41 19.8775C1094.14 20.2073 1093.8 20.3771 1093.41 20.3771C1093.02 20.3771 1092.7 20.2073 1092.41 19.8775Z" fill="#FFC700"/>
<path d="M1198.4 101.718L1185.86 76.9189L1182.77 78.4476L1178 69.0057L1188.05 64L1205.37 98.2406L1198.4 101.718Z" fill="#FFC700"/>
<path d="M1396 116.734L1407.01 81.7342L1400.52 79.726L1405.45 75L1414.64 77.8476L1401.84 118.553L1396 116.734Z" fill="#FFC700"/>
<path d="M1270.79 150.408L1265.87 132.004L1262.47 132.903L1261 127.408L1270.15 125L1276.54 148.91L1270.79 150.408Z" fill="#FFC700"/>
<path d="M1344.58 125.17L1344.72 115.818L1343 115.788L1343.04 113L1347.68 113.07L1347.5 125.21L1344.58 125.17Z" fill="#FFC700"/>
<path d="M1423 204.213L1436.34 190.514L1433.81 188.096L1437.79 184L1444.6 190.524L1427.28 208.319L1423 204.213Z" fill="#FFC700"/>
<path d="M1233.71 57.2364C1233.23 56.8167 1233 56.2172 1233 55.4479C1233 54.6686 1233.23 54.0691 1233.71 53.6395C1234.18 53.2098 1234.73 53 1235.37 53C1236 53 1236.56 53.2098 1237.03 53.6395C1237.5 54.0691 1237.73 54.6686 1237.73 55.4479C1237.73 56.2272 1237.5 56.8267 1237.03 57.2364C1236.56 57.656 1236 57.8658 1235.37 57.8658C1234.73 57.8658 1234.18 57.646 1233.71 57.2364Z" fill="#FFC700"/>
<path d="M1354.41 91.8775C1354.14 91.5478 1354 91.1482 1354 90.6886C1354 90.229 1354.14 89.8293 1354.41 89.4996C1354.68 89.1699 1355.02 89 1355.41 89C1355.8 89 1356.13 89.1699 1356.41 89.4996C1356.69 89.8293 1356.82 90.229 1356.82 90.6886C1356.82 91.1482 1356.68 91.5478 1356.41 91.8775C1356.14 92.2073 1355.8 92.3771 1355.41 92.3771C1355.02 92.3771 1354.68 92.2073 1354.41 91.8775Z" fill="#FFC700"/>
<path d="M1264.52 199.117C1264.18 198.808 1264 198.368 1264 197.798C1264 197.229 1264.17 196.779 1264.52 196.47C1264.87 196.16 1265.28 196 1265.74 196C1266.21 196 1266.62 196.16 1266.97 196.47C1267.31 196.779 1267.49 197.229 1267.49 197.798C1267.49 198.368 1267.31 198.808 1266.97 199.117C1266.63 199.427 1266.22 199.577 1265.74 199.577C1265.27 199.577 1264.87 199.427 1264.52 199.117Z" fill="#FFC700"/>
<path d="M1438.52 144.117C1438.18 143.808 1438 143.368 1438 142.798C1438 142.229 1438.17 141.779 1438.52 141.47C1438.87 141.16 1439.28 141 1439.74 141C1440.21 141 1440.62 141.16 1440.97 141.47C1441.31 141.779 1441.49 142.229 1441.49 142.798C1441.49 143.368 1441.31 143.808 1440.97 144.117C1440.63 144.427 1440.22 144.577 1439.74 144.577C1439.27 144.577 1438.87 144.427 1438.52 144.117Z" fill="#FFC700"/>
<path d="M1170.41 168.878C1170.14 168.548 1170 168.148 1170 167.689C1170 167.229 1170.14 166.829 1170.41 166.5C1170.68 166.17 1171.02 166 1171.41 166C1171.8 166 1172.13 166.17 1172.41 166.5C1172.69 166.829 1172.82 167.229 1172.82 167.689C1172.82 168.148 1172.68 168.548 1172.41 168.878C1172.14 169.207 1171.8 169.377 1171.41 169.377C1171.02 169.377 1170.68 169.207 1170.41 168.878Z" fill="#FFC700"/>
<path d="M1433 35.948L1438.57 24.2481L1437.17 23.5886L1438.75 22L1440.74 22.9292L1434.26 36.5375L1433 35.948Z" fill="#FFC700"/>
<path d="M1408.41 7.87753C1408.14 7.54782 1408 7.14816 1408 6.68855C1408 6.22895 1408.14 5.82929 1408.41 5.49957C1408.68 5.16985 1409.02 5 1409.41 5C1409.8 5 1410.13 5.16985 1410.41 5.49957C1410.69 5.82929 1410.82 6.22895 1410.82 6.68855C1410.82 7.14816 1410.68 7.54782 1410.41 7.87753C1410.14 8.20725 1409.8 8.37711 1409.41 8.37711C1409.02 8.37711 1408.7 8.20725 1408.41 7.87753Z" fill="#FFC700"/>
<path d="M1354.11 41.5901L1352.17 31.7985L1351 32.0283L1351.25 30.3197L1352.9 30L1355.16 41.3802L1354.11 41.5901Z" fill="#FFC700"/>
<path d="M1321.71 9.23637C1321.23 8.81673 1321 8.21724 1321 7.4479C1321 6.66857 1321.23 6.06908 1321.71 5.63945C1322.18 5.20982 1322.73 5 1323.37 5C1324 5 1324.56 5.20982 1325.03 5.63945C1325.5 6.06908 1325.73 6.66857 1325.73 7.4479C1325.73 8.22723 1325.5 8.82672 1325.03 9.23637C1324.56 9.65601 1324 9.86583 1323.37 9.86583C1322.73 9.86583 1322.18 9.65601 1321.71 9.23637Z" fill="#FFC700"/>
<path d="M1336 50.3791L1341.66 29.8667L1337.85 28.8376L1340.61 26L1346 27.4587L1339.42 51.3183L1336 50.3791Z" fill="#FFC700"/>
<path d="M1181.27 21.8484C1181.09 21.6386 1181 21.3788 1181 21.0891C1181 20.7893 1181.09 20.5395 1181.27 20.3197C1181.45 20.0999 1181.66 20 1181.92 20C1182.17 20 1182.38 20.1099 1182.56 20.3197C1182.74 20.5295 1182.83 20.7893 1182.83 21.0891C1182.83 21.3888 1182.74 21.6386 1182.56 21.8584C1182.38 22.0682 1182.17 22.1781 1181.92 22.1781C1181.66 22.1781 1181.45 22.0682 1181.27 21.8484Z" fill="#FFC700"/>
<defs>
<clipPath id="clip0">
<rect width="289" height="210" fill="white" transform="translate(0 45)"/>
</clipPath>
</defs>
</svg>
