<svg width="1445" height="255" viewBox="0 0 1445 255" fill="none" xmlns="http://www.w3.org/2000/svg">
<path d="M97.4728 172.562L79.8528 181.358L80.3557 157.071C80.4059 155.86 80.1545 154.699 79.5913 153.588C79.1186 152.638 78.5655 151.977 77.942 151.587C77.3184 151.207 76.715 151.157 76.1317 151.447C75.4277 151.797 75.126 152.448 75.2266 153.398C75.3271 154.349 75.5987 155.29 76.0412 156.21L69.6851 159.383C69.1823 158.332 68.7297 157.271 68.3274 156.22C67.9352 155.17 67.5932 153.899 67.3016 152.408C67.0099 150.917 66.9194 149.546 67.02 148.285C67.1206 147.034 67.543 145.793 68.2872 144.582C69.0314 143.371 70.1176 142.411 71.5457 141.7C74.1605 140.399 76.7351 140.359 79.2594 141.59C81.7838 142.821 83.9561 145.233 85.7664 148.825C86.5206 150.326 87.0939 151.767 87.4861 153.148C87.8783 154.529 88.0996 156.01 88.1499 157.601C88.2002 159.192 88.2102 160.463 88.16 161.434C88.1097 162.395 87.9789 163.856 87.7577 165.807L92.7963 163.295L97.4728 172.562Z" fill="#FFC700"/>
<path d="M284.545 105.695L283.66 107.566L278.188 104.994L283.74 100.601C284.665 99.8608 285.329 99.3104 285.721 98.9401C286.295 98.3997 286.737 97.8193 287.029 97.1989C287.32 96.5785 287.451 95.988 287.421 95.4377C287.391 94.8873 287.169 94.507 286.757 94.3169C286.365 94.1367 285.932 94.2068 285.44 94.527C284.947 94.8472 284.514 95.3876 284.142 96.1281L282.935 95.5577C283.519 94.4169 284.213 93.5363 285.037 92.8959C285.943 92.1954 286.807 92.0353 287.632 92.4255C288.447 92.8058 288.889 93.5063 288.97 94.517C289.05 95.5277 288.809 96.6185 288.256 97.7893C287.813 98.72 287.169 99.5906 286.315 100.381C285.993 100.691 285.208 101.322 283.991 102.292L281.467 104.254L284.545 105.695Z" fill="#FFC700"/>
<path d="M209.881 89.7536L210.192 91.3147L205.616 92.2053L207.045 86.9516C207.286 86.071 207.437 85.4305 207.507 85.0202C207.618 84.4198 207.618 83.8694 207.517 83.3491C207.417 82.8287 207.226 82.3984 206.954 82.0682C206.683 81.7379 206.371 81.6078 206.029 81.6779C205.707 81.7379 205.466 81.9881 205.305 82.4084C205.154 82.8287 205.124 83.3591 205.244 83.9895L204.229 84.1896C204.068 83.219 204.088 82.3483 204.309 81.5878C204.54 80.7372 205.013 80.2469 205.707 80.1168C206.391 79.9867 206.984 80.2168 207.497 80.8073C208.01 81.3977 208.362 82.1882 208.553 83.1589C208.704 83.9395 208.704 84.7701 208.543 85.6507C208.483 85.9909 208.292 86.7414 207.98 87.8923L207.316 90.2539L209.881 89.7536Z" fill="#FFC700"/>
<path d="M231.202 199.971L229.452 205.565L204.078 197.69L222.613 184.66C225.711 182.469 227.883 180.818 229.14 179.717C230.981 178.116 232.198 176.385 232.781 174.523C233.364 172.662 233.304 170.891 232.6 169.23C231.896 167.568 230.589 166.438 228.688 165.837C226.888 165.277 225.138 165.477 223.438 166.448C221.738 167.408 220.491 169.009 219.717 171.231L214.105 169.49C215.332 166.077 217.323 163.436 220.089 161.564C223.116 159.483 226.546 159.032 230.397 160.223C234.179 161.394 236.744 163.506 238.101 166.548C239.459 169.59 239.59 172.852 238.493 176.355C237.618 179.147 235.818 181.728 233.113 184.08C232.077 184.991 229.512 186.882 225.409 189.744L216.951 195.558L231.202 199.971Z" fill="#FFC700"/>
<path d="M144.852 213.491L146.26 218.754L129.173 223.268L135.288 209.278C135.962 207.737 136.394 206.586 136.575 205.825C136.756 205.075 136.756 204.354 136.575 203.664C136.354 202.823 135.912 202.153 135.258 201.662C134.604 201.172 133.87 201.042 133.045 201.262C132.452 201.422 131.989 201.712 131.667 202.143C131.336 202.573 131.165 203.053 131.134 203.604C131.114 204.144 131.124 204.604 131.165 204.985C131.205 205.365 131.275 205.725 131.366 206.065L125.814 207.526C125.573 206.546 125.462 205.535 125.472 204.504C125.482 203.474 125.653 202.393 125.985 201.252C126.317 200.121 126.981 199.091 127.987 198.18C128.992 197.269 130.28 196.609 131.869 196.188C134.493 195.498 136.706 195.748 138.506 196.949C140.306 198.15 141.503 199.841 142.087 202.033C142.539 203.724 142.499 205.425 141.966 207.136C141.433 208.847 140.226 211.539 138.335 215.212L144.852 213.491Z" fill="#FFC700"/>
<path d="M194.253 166.318L194.212 168.99L185.533 168.859L190.29 163.055C190.813 162.415 191.175 161.925 191.356 161.594C191.547 161.264 191.638 160.924 191.648 160.574C191.658 160.143 191.537 159.773 191.296 159.453C191.055 159.133 190.723 158.972 190.3 158.972C189.999 158.972 189.747 159.043 189.536 159.203C189.325 159.363 189.174 159.573 189.093 159.823C189.013 160.073 188.953 160.293 188.922 160.484C188.892 160.674 188.872 160.854 188.872 161.024L186.056 160.984C186.076 160.484 186.157 159.993 186.298 159.513C186.438 159.033 186.66 158.542 186.971 158.052C187.283 157.561 187.726 157.161 188.329 156.861C188.922 156.561 189.626 156.421 190.431 156.431C191.759 156.451 192.774 156.861 193.468 157.672C194.162 158.472 194.494 159.433 194.484 160.544C194.474 161.404 194.222 162.195 193.75 162.935C193.267 163.676 192.342 164.787 190.954 166.268L194.253 166.318Z" fill="#FFC700"/>
<path d="M180.726 79.4965L179.821 82.7688L164.946 78.716L175.426 70.7804C177.176 69.4494 178.403 68.4487 179.107 67.7883C180.143 66.8276 180.816 65.7969 181.108 64.7061C181.4 63.6153 181.339 62.5946 180.897 61.6439C180.454 60.6933 179.68 60.0628 178.554 59.7626C177.498 59.4724 176.492 59.6325 175.516 60.2229C174.551 60.8134 173.857 61.764 173.455 63.075L170.166 62.1843C170.81 60.1829 171.906 58.6118 173.465 57.471C175.174 56.2001 177.156 55.8699 179.418 56.4903C181.631 57.0907 183.17 58.2616 184.015 60.0028C184.859 61.744 185.01 63.6353 184.447 65.6768C183.994 67.3179 183.009 68.849 181.48 70.26C180.897 70.8104 179.449 71.9612 177.135 73.7024L172.348 77.2449L180.726 79.4965Z" fill="#FFC700"/>
<path d="M250.24 251.077L246.438 255L233.716 242.781L248.912 240.75C250.592 240.52 251.798 240.29 252.543 240.06C253.287 239.829 253.91 239.449 254.403 238.939C255.017 238.308 255.359 237.598 255.439 236.787C255.52 235.987 255.258 235.286 254.645 234.696C254.202 234.276 253.719 234.035 253.176 233.975C252.643 233.915 252.13 234.015 251.648 234.276C251.165 234.536 250.773 234.786 250.471 235.016C250.169 235.246 249.898 235.496 249.646 235.747L245.513 231.784C246.237 231.073 247.041 230.453 247.926 229.922C248.811 229.402 249.837 228.982 250.984 228.672C252.13 228.361 253.357 228.401 254.665 228.782C255.962 229.162 257.209 229.922 258.386 231.053C260.337 232.925 261.262 234.946 261.162 237.097C261.061 239.249 260.226 241.14 258.647 242.771C257.43 244.022 255.942 244.873 254.202 245.313C252.462 245.754 249.515 246.114 245.372 246.394L250.24 251.077Z" fill="#FFC700"/>
<path d="M97.0712 122.066C96.5985 121.646 96.3672 121.046 96.3672 120.275C96.3672 119.495 96.5985 118.894 97.0712 118.464C97.5439 118.034 98.097 117.823 98.7306 117.823C99.3642 117.823 99.9173 118.034 100.39 118.464C100.863 118.894 101.094 119.495 101.094 120.275C101.094 121.056 100.863 121.656 100.39 122.066C99.9173 122.487 99.3642 122.697 98.7306 122.697C98.097 122.687 97.5439 122.477 97.0712 122.066Z" fill="#FFC700"/>
<path d="M158.6 46.243C158.128 45.8227 157.896 45.2223 157.896 44.4517C157.896 43.6712 158.128 43.0708 158.6 42.6405C159.073 42.2101 159.626 42 160.26 42C160.893 42 161.447 42.2101 161.919 42.6405C162.392 43.0708 162.623 43.6712 162.623 44.4517C162.623 45.2323 162.392 45.8327 161.919 46.243C161.447 46.6633 160.893 46.8734 160.26 46.8734C159.626 46.8734 159.073 46.6633 158.6 46.243Z" fill="#FFC700"/>
<path d="M210.062 136.166C209.79 135.836 209.649 135.436 209.649 134.975C209.649 134.515 209.79 134.115 210.062 133.785C210.333 133.454 210.665 133.284 211.057 133.284C211.45 133.284 211.771 133.454 212.053 133.785C212.335 134.115 212.465 134.515 212.465 134.975C212.465 135.436 212.325 135.836 212.053 136.166C211.782 136.496 211.45 136.667 211.057 136.667C210.665 136.667 210.333 136.496 210.062 136.166Z" fill="#FFC700"/>
<path d="M228.517 56.1101C228.245 55.7798 228.104 55.3795 228.104 54.9192C228.104 54.4589 228.245 54.0586 228.517 53.7284C228.788 53.3981 229.12 53.228 229.512 53.228C229.905 53.228 230.227 53.3981 230.508 53.7284C230.79 54.0586 230.92 54.4589 230.92 54.9192C230.92 55.3795 230.78 55.7798 230.508 56.1101C230.237 56.4403 229.905 56.6104 229.512 56.6104C229.12 56.6104 228.798 56.4403 228.517 56.1101Z" fill="#FFC700"/>
<path d="M96.5777 239.609C96.2357 239.299 96.0547 238.859 96.0547 238.288C96.0547 237.718 96.2257 237.268 96.5777 236.957C96.9196 236.647 97.3319 236.487 97.7946 236.487C98.2572 236.487 98.6695 236.647 99.0215 236.957C99.3635 237.268 99.5344 237.718 99.5344 238.288C99.5344 238.859 99.3635 239.299 99.0215 239.609C98.6796 239.919 98.2672 240.07 97.7946 240.07C97.3219 240.07 96.9196 239.919 96.5777 239.609Z" fill="#FFC700"/>
<path d="M261.283 176.975C260.941 176.665 260.76 176.224 260.76 175.654C260.76 175.084 260.931 174.633 261.283 174.323C261.625 174.013 262.037 173.853 262.5 173.853C262.962 173.853 263.375 174.013 263.727 174.323C264.069 174.633 264.24 175.084 264.24 175.654C264.24 176.224 264.069 176.665 263.727 176.975C263.385 177.285 262.972 177.435 262.5 177.435C262.027 177.435 261.625 177.285 261.283 176.975Z" fill="#FFC700"/>
<path d="M0.271541 74.873C0.0905136 74.6629 0 74.4027 0 74.1125C0 73.8123 0.0905136 73.5621 0.271541 73.342C0.452568 73.1218 0.663767 73.0217 0.915194 73.0217C1.16662 73.0217 1.37782 73.1318 1.55885 73.342C1.73987 73.5521 1.83039 73.8123 1.83039 74.1125C1.83039 74.4127 1.73987 74.6629 1.55885 74.883C1.37782 75.0932 1.16662 75.2033 0.915194 75.2033C0.663767 75.2033 0.452568 75.0932 0.271541 74.873Z" fill="#FFC700"/>
<path d="M34.4758 215.102C34.2043 214.772 34.0635 214.371 34.0635 213.911C34.0635 213.451 34.2043 213.051 34.4758 212.72C34.7474 212.39 35.0792 212.22 35.4715 212.22C35.8637 212.22 36.1855 212.39 36.4671 212.72C36.7487 213.051 36.8795 213.451 36.8795 213.911C36.8795 214.371 36.7387 214.772 36.4671 215.102C36.1956 215.432 35.8637 215.602 35.4715 215.602C35.0792 215.602 34.7574 215.432 34.4758 215.102Z" fill="#FFC700"/>
<path d="M368.492 156.867L350.872 165.663L351.375 141.376C351.425 140.165 351.174 139.004 350.611 137.894C350.138 136.943 349.585 136.283 348.961 135.892C348.338 135.512 347.735 135.462 347.151 135.752C346.447 136.102 346.146 136.753 346.246 137.704C346.347 138.654 346.618 139.595 347.061 140.516L340.705 143.688C340.202 142.637 339.749 141.576 339.347 140.526C338.955 139.475 338.613 138.204 338.321 136.713C338.029 135.222 337.939 133.851 338.04 132.59C338.14 131.339 338.562 130.098 339.307 128.887C340.051 127.676 341.137 126.716 342.565 126.005C345.18 124.704 347.755 124.664 350.279 125.895C352.803 127.126 354.976 129.538 356.786 133.13C357.54 134.631 358.113 136.072 358.506 137.453C358.898 138.834 359.119 140.315 359.169 141.906C359.22 143.498 359.23 144.768 359.179 145.739C359.129 146.7 358.998 148.161 358.777 150.112L363.816 147.6L368.492 156.867Z" fill="#FFC700"/>
<path d="M569.356 91.4773L568.471 93.3487L563 90.7769L568.552 86.3838C569.477 85.6432 570.141 85.0929 570.533 84.7226C571.106 84.1822 571.549 83.6018 571.84 82.9814C572.132 82.3609 572.263 81.7705 572.232 81.2201C572.202 80.6697 571.981 80.2895 571.569 80.0993C571.176 79.9192 570.744 79.9893 570.251 80.3095C569.758 80.6297 569.326 81.1701 568.954 81.9106L567.747 81.3402C568.33 80.1994 569.024 79.3188 569.849 78.6783C570.754 77.9778 571.619 77.8177 572.444 78.208C573.258 78.5883 573.701 79.2888 573.781 80.2995C573.862 81.3102 573.62 82.401 573.067 83.5718C572.625 84.5024 571.981 85.373 571.126 86.1636C570.804 86.4738 570.02 87.1043 568.803 88.0749L566.279 90.0363L569.356 91.4773Z" fill="#FFC700"/>
<path d="M500.758 75.672L501.069 77.2331L496.493 78.1237L497.922 72.87C498.163 71.9894 498.314 71.349 498.384 70.9387C498.495 70.3383 498.495 69.7879 498.394 69.2675C498.294 68.7471 498.103 68.3168 497.831 67.9866C497.56 67.6564 497.248 67.5263 496.906 67.5963C496.584 67.6564 496.343 67.9066 496.182 68.3268C496.031 68.7471 496.001 69.2775 496.121 69.908L495.106 70.1081C494.945 69.1374 494.965 68.2668 495.186 67.5063C495.417 66.6557 495.89 66.1653 496.584 66.0352C497.268 65.9051 497.861 66.1353 498.374 66.7257C498.887 67.3161 499.239 68.1067 499.43 69.0774C499.581 69.8579 499.581 70.6885 499.42 71.5691C499.36 71.9094 499.169 72.6599 498.857 73.8107L498.193 76.1724L500.758 75.672Z" fill="#FFC700"/>
<path d="M515.124 183.397L513.374 188.99L488 181.115L506.535 168.086C509.633 165.894 511.805 164.243 513.062 163.142C514.903 161.541 516.12 159.81 516.703 157.949C517.286 156.087 517.226 154.316 516.522 152.655C515.818 150.994 514.51 149.863 512.61 149.262C510.809 148.702 509.06 148.902 507.36 149.873C505.66 150.834 504.413 152.435 503.639 154.656L498.027 152.915C499.254 149.503 501.245 146.861 504.011 144.989C507.038 142.908 510.468 142.458 514.319 143.649C518.101 144.819 520.665 146.931 522.023 149.973C523.381 153.015 523.512 156.277 522.415 159.78C521.54 162.572 519.74 165.154 517.035 167.505C515.999 168.416 513.434 170.307 509.331 173.169L500.873 178.983L515.124 183.397Z" fill="#FFC700"/>
<path d="M443.381 195.682L444.789 200.946L427.702 205.459L433.816 191.469C434.49 189.928 434.923 188.777 435.104 188.016C435.285 187.266 435.285 186.545 435.104 185.855C434.882 185.014 434.44 184.344 433.786 183.854C433.132 183.363 432.398 183.233 431.574 183.453C430.98 183.613 430.518 183.904 430.196 184.334C429.864 184.764 429.693 185.244 429.663 185.795C429.643 186.335 429.653 186.796 429.693 187.176C429.733 187.556 429.804 187.916 429.894 188.257L424.343 189.718C424.101 188.737 423.991 187.726 424.001 186.696C424.011 185.665 424.182 184.584 424.514 183.443C424.845 182.312 425.509 181.282 426.515 180.371C427.521 179.46 428.808 178.8 430.397 178.38C433.022 177.689 435.234 177.939 437.035 179.14C438.835 180.341 440.032 182.032 440.615 184.224C441.067 185.915 441.027 187.616 440.494 189.327C439.961 191.039 438.754 193.73 436.864 197.403L443.381 195.682Z" fill="#FFC700"/>
<path d="M480.719 157.887L480.679 160.559L472 160.429L476.757 154.625C477.28 153.985 477.642 153.494 477.823 153.164C478.014 152.834 478.105 152.494 478.115 152.143C478.125 151.713 478.004 151.343 477.763 151.023C477.521 150.702 477.189 150.542 476.767 150.542C476.465 150.542 476.214 150.612 476.003 150.772C475.792 150.933 475.641 151.143 475.56 151.393C475.48 151.643 475.419 151.863 475.389 152.053C475.359 152.243 475.339 152.424 475.339 152.594L472.523 152.554C472.543 152.053 472.624 151.563 472.764 151.083C472.905 150.602 473.126 150.112 473.438 149.622C473.75 149.131 474.192 148.731 474.796 148.431C475.389 148.131 476.093 147.99 476.898 148C478.225 148.021 479.241 148.431 479.935 149.241C480.629 150.042 480.961 151.003 480.951 152.113C480.941 152.974 480.689 153.765 480.217 154.505C479.734 155.246 478.809 156.356 477.421 157.837L480.719 157.887Z" fill="#FFC700"/>
<path d="M471.78 69.3102L470.874 72.5825L456 68.5297L466.479 60.5941C468.229 59.2632 469.456 58.2625 470.16 57.602C471.196 56.6413 471.87 55.6106 472.162 54.5198C472.453 53.4291 472.393 52.4083 471.951 51.4577C471.508 50.507 470.734 49.8766 469.607 49.5763C468.551 49.2861 467.546 49.4462 466.57 50.0367C465.605 50.6271 464.911 51.5777 464.508 52.8887L461.22 51.998C461.863 49.9966 462.959 48.4255 464.518 47.2847C466.228 46.0138 468.209 45.6836 470.472 46.304C472.685 46.9045 474.223 48.0753 475.068 49.8165C475.913 51.5577 476.064 53.4491 475.501 55.4905C475.048 57.1317 474.063 58.6627 472.534 60.0737C471.951 60.6241 470.502 61.7749 468.189 63.5162L463.402 67.0587L471.78 69.3102Z" fill="#FFC700"/>
<path d="M542.524 232.613L538.722 236.536L526 224.317L541.196 222.285C542.876 222.055 544.083 221.825 544.827 221.595C545.571 221.365 546.195 220.985 546.687 220.474C547.301 219.844 547.643 219.133 547.723 218.323C547.804 217.522 547.542 216.822 546.929 216.231C546.486 215.811 546.004 215.571 545.46 215.511C544.927 215.451 544.415 215.551 543.932 215.811C543.449 216.071 543.057 216.321 542.755 216.551C542.453 216.782 542.182 217.032 541.93 217.282L537.797 213.319C538.521 212.609 539.326 211.988 540.211 211.458C541.096 210.937 542.121 210.517 543.268 210.207C544.414 209.897 545.641 209.937 546.949 210.317C548.246 210.697 549.493 211.458 550.67 212.589C552.621 214.46 553.546 216.481 553.446 218.633C553.345 220.784 552.51 222.676 550.931 224.307C549.715 225.558 548.226 226.408 546.486 226.849C544.746 227.289 541.8 227.649 537.656 227.929L542.524 232.613Z" fill="#FFC700"/>
<path d="M390.704 112.243C390.231 111.823 390 111.222 390 110.452C390 109.671 390.231 109.071 390.704 108.64C391.177 108.21 391.73 108 392.363 108C392.997 108 393.55 108.21 394.023 108.64C394.496 109.071 394.727 109.671 394.727 110.452C394.727 111.232 394.496 111.833 394.023 112.243C393.55 112.663 392.997 112.873 392.363 112.873C391.73 112.863 391.177 112.653 390.704 112.243Z" fill="#FFC700"/>
<path d="M499.062 136.166C498.79 135.836 498.649 135.436 498.649 134.975C498.649 134.515 498.79 134.115 499.062 133.785C499.333 133.454 499.665 133.284 500.057 133.284C500.45 133.284 500.771 133.454 501.053 133.785C501.335 134.115 501.465 134.515 501.465 134.975C501.465 135.436 501.325 135.836 501.053 136.166C500.782 136.496 500.45 136.667 500.057 136.667C499.665 136.667 499.333 136.496 499.062 136.166Z" fill="#FFC700"/>
<path d="M515.412 46.882C515.141 46.5518 515 46.1515 515 45.6912C515 45.2309 515.141 44.8306 515.412 44.5004C515.684 44.1701 516.016 44 516.408 44C516.8 44 517.122 44.1701 517.404 44.5004C517.685 44.8306 517.816 45.2309 517.816 45.6912C517.816 46.1515 517.675 46.5518 517.404 46.882C517.132 47.2123 516.8 47.3824 516.408 47.3824C516.016 47.3824 515.694 47.2123 515.412 46.882Z" fill="#FFC700"/>
<path d="M388.523 229.122C388.181 228.812 388 228.372 388 227.801C388 227.231 388.171 226.781 388.523 226.47C388.865 226.16 389.277 226 389.74 226C390.202 226 390.615 226.16 390.967 226.47C391.309 226.781 391.48 227.231 391.48 227.801C391.48 228.372 391.309 228.812 390.967 229.122C390.625 229.432 390.213 229.583 389.74 229.583C389.267 229.583 388.865 229.432 388.523 229.122Z" fill="#FFC700"/>
<path d="M555.523 165.122C555.181 164.812 555 164.372 555 163.801C555 163.231 555.171 162.781 555.523 162.47C555.865 162.16 556.277 162 556.74 162C557.203 162 557.615 162.16 557.967 162.47C558.309 162.781 558.48 163.231 558.48 163.801C558.48 164.372 558.309 164.812 557.967 165.122C557.625 165.432 557.213 165.583 556.74 165.583C556.267 165.583 555.865 165.432 555.523 165.122Z" fill="#FFC700"/>
<path d="M296.272 67.8513C296.091 67.6412 296 67.381 296 67.0908C296 66.7906 296.091 66.5404 296.272 66.3202C296.453 66.1001 296.664 66 296.915 66C297.167 66 297.378 66.1101 297.559 66.3202C297.74 66.5304 297.83 66.7906 297.83 67.0908C297.83 67.391 297.74 67.6412 297.559 67.8613C297.378 68.0715 297.167 68.1815 296.915 68.1815C296.664 68.1815 296.453 68.0715 296.272 67.8513Z" fill="#FFC700"/>
<path d="M319.412 205.882C319.141 205.552 319 205.152 319 204.691C319 204.231 319.141 203.831 319.412 203.5C319.684 203.17 320.016 203 320.408 203C320.8 203 321.122 203.17 321.404 203.5C321.685 203.831 321.816 204.231 321.816 204.691C321.816 205.152 321.675 205.552 321.404 205.882C321.132 206.212 320.8 206.382 320.408 206.382C320.016 206.382 319.694 206.212 319.412 205.882Z" fill="#FFC700"/>
<path d="M451.704 35.243C451.231 34.8227 451 34.2223 451 33.4517C451 32.6712 451.231 32.0708 451.704 31.6405C452.177 31.2101 452.73 31 453.363 31C453.997 31 454.55 31.2101 455.023 31.6405C455.496 32.0708 455.727 32.6712 455.727 33.4517C455.727 34.2323 455.496 34.8327 455.023 35.243C454.55 35.6633 453.997 35.8734 453.363 35.8734C452.73 35.8734 452.177 35.6633 451.704 35.243Z" fill="#FFC700"/>
<path d="M649.492 127.867L631.872 136.663L632.375 112.376C632.425 111.165 632.174 110.004 631.611 108.894C631.138 107.943 630.585 107.283 629.961 106.892C629.338 106.512 628.735 106.462 628.151 106.752C627.447 107.102 627.146 107.753 627.246 108.704C627.347 109.654 627.618 110.595 628.061 111.516L621.705 114.688C621.202 113.637 620.749 112.576 620.347 111.526C619.955 110.475 619.613 109.204 619.321 107.713C619.029 106.222 618.939 104.851 619.04 103.59C619.14 102.339 619.562 101.098 620.307 99.8873C621.051 98.6765 622.137 97.7158 623.565 97.0053C626.18 95.7044 628.755 95.6643 631.279 96.8952C633.803 98.1261 635.976 100.538 637.786 104.13C638.54 105.631 639.113 107.072 639.506 108.453C639.898 109.834 640.119 111.315 640.169 112.906C640.22 114.498 640.23 115.768 640.179 116.739C640.129 117.7 639.998 119.161 639.777 121.112L644.816 118.6L649.492 127.867Z" fill="#FFC700"/>
<path d="M859.356 74.4773L858.471 76.3487L853 73.7769L858.552 69.3838C859.477 68.6432 860.141 68.0929 860.533 67.7226C861.106 67.1822 861.549 66.6018 861.84 65.9814C862.132 65.3609 862.263 64.7705 862.232 64.2201C862.202 63.6697 861.981 63.2895 861.569 63.0993C861.176 62.9192 860.744 62.9893 860.251 63.3095C859.758 63.6297 859.326 64.1701 858.954 64.9106L857.747 64.3402C858.33 63.1994 859.024 62.3188 859.849 61.6783C860.754 60.9778 861.619 60.8177 862.444 61.208C863.258 61.5883 863.701 62.2888 863.781 63.2995C863.862 64.3102 863.62 65.401 863.067 66.5718C862.625 67.5024 861.981 68.373 861.126 69.1636C860.804 69.4738 860.02 70.1043 858.803 71.0749L856.279 73.0363L859.356 74.4773Z" fill="#FFC700"/>
<path d="M786.758 64.672L787.069 66.2331L782.493 67.1237L783.922 61.87C784.163 60.9894 784.314 60.349 784.384 59.9387C784.495 59.3383 784.495 58.7879 784.394 58.2675C784.294 57.7471 784.103 57.3168 783.831 56.9866C783.56 56.6564 783.248 56.5263 782.906 56.5963C782.584 56.6564 782.343 56.9066 782.182 57.3268C782.031 57.7471 782.001 58.2775 782.121 58.908L781.106 59.1081C780.945 58.1374 780.965 57.2668 781.186 56.5063C781.417 55.6557 781.89 55.1653 782.584 55.0352C783.268 54.9051 783.861 55.1353 784.374 55.7257C784.887 56.3161 785.239 57.1067 785.43 58.0774C785.581 58.8579 785.581 59.6885 785.42 60.5691C785.36 60.9094 785.169 61.6599 784.857 62.8107L784.193 65.1724L786.758 64.672Z" fill="#FFC700"/>
<path d="M823.124 160.397L821.374 165.99L796 158.115L814.535 145.086C817.633 142.894 819.805 141.243 821.062 140.142C822.903 138.541 824.12 136.81 824.703 134.949C825.286 133.087 825.226 131.316 824.522 129.655C823.818 127.994 822.51 126.863 820.61 126.262C818.809 125.702 817.06 125.902 815.36 126.873C813.66 127.834 812.413 129.435 811.639 131.656L806.027 129.915C807.254 126.503 809.245 123.861 812.011 121.989C815.038 119.908 818.468 119.458 822.319 120.649C826.101 121.819 828.665 123.931 830.023 126.973C831.381 130.015 831.512 133.277 830.415 136.78C829.54 139.572 827.74 142.154 825.035 144.505C823.999 145.416 821.434 147.307 817.331 150.169L808.873 155.983L823.124 160.397Z" fill="#FFC700"/>
<path d="M721.381 172.682L722.789 177.946L705.702 182.459L711.816 168.469C712.49 166.928 712.923 165.777 713.104 165.016C713.285 164.266 713.285 163.545 713.104 162.855C712.882 162.014 712.44 161.344 711.786 160.854C711.132 160.363 710.398 160.233 709.574 160.453C708.98 160.613 708.518 160.904 708.196 161.334C707.864 161.764 707.693 162.244 707.663 162.795C707.643 163.335 707.653 163.796 707.693 164.176C707.733 164.556 707.804 164.916 707.894 165.257L702.343 166.718C702.101 165.737 701.991 164.726 702.001 163.696C702.011 162.665 702.182 161.584 702.514 160.443C702.845 159.312 703.509 158.282 704.515 157.371C705.521 156.46 706.808 155.8 708.397 155.38C711.022 154.689 713.234 154.939 715.035 156.14C716.835 157.341 718.032 159.032 718.615 161.224C719.067 162.915 719.027 164.616 718.494 166.327C717.961 168.039 716.754 170.73 714.864 174.403L721.381 172.682Z" fill="#FFC700"/>
<path d="M774.719 144.887L774.679 147.559L766 147.429L770.757 141.625C771.28 140.985 771.642 140.494 771.823 140.164C772.014 139.834 772.105 139.494 772.115 139.143C772.125 138.713 772.004 138.343 771.763 138.023C771.521 137.702 771.189 137.542 770.767 137.542C770.465 137.542 770.214 137.612 770.003 137.772C769.792 137.933 769.641 138.143 769.56 138.393C769.48 138.643 769.419 138.863 769.389 139.053C769.359 139.243 769.339 139.424 769.339 139.594L766.523 139.554C766.543 139.053 766.624 138.563 766.764 138.083C766.905 137.602 767.126 137.112 767.438 136.622C767.75 136.131 768.192 135.731 768.796 135.431C769.389 135.131 770.093 134.99 770.898 135C772.225 135.021 773.241 135.431 773.935 136.241C774.629 137.042 774.961 138.003 774.951 139.113C774.941 139.974 774.689 140.765 774.217 141.505C773.734 142.246 772.809 143.356 771.421 144.837L774.719 144.887Z" fill="#FFC700"/>
<path d="M842.524 217.613L838.722 221.536L826 209.317L841.196 207.285C842.876 207.055 844.083 206.825 844.827 206.595C845.571 206.365 846.195 205.985 846.687 205.474C847.301 204.844 847.643 204.133 847.723 203.323C847.804 202.522 847.542 201.822 846.929 201.231C846.486 200.811 846.004 200.571 845.46 200.511C844.927 200.451 844.415 200.551 843.932 200.811C843.449 201.071 843.057 201.321 842.755 201.551C842.453 201.782 842.182 202.032 841.93 202.282L837.797 198.319C838.521 197.609 839.326 196.988 840.211 196.458C841.096 195.937 842.121 195.517 843.268 195.207C844.414 194.897 845.641 194.937 846.949 195.317C848.246 195.697 849.493 196.458 850.67 197.589C852.621 199.46 853.546 201.481 853.446 203.633C853.345 205.784 852.51 207.676 850.931 209.307C849.715 210.558 848.226 211.408 846.486 211.849C844.746 212.289 841.8 212.649 837.656 212.929L842.524 217.613Z" fill="#FFC700"/>
<path d="M684.704 100.243C684.231 99.8227 684 99.2223 684 98.4517C684 97.6712 684.231 97.0708 684.704 96.6405C685.177 96.2102 685.73 96 686.363 96C686.997 96 687.55 96.2102 688.023 96.6405C688.496 97.0708 688.727 97.6712 688.727 98.4517C688.727 99.2323 688.496 99.8327 688.023 100.243C687.55 100.663 686.997 100.873 686.363 100.873C685.73 100.863 685.177 100.653 684.704 100.243Z" fill="#FFC700"/>
<path d="M791.412 128.882C791.141 128.552 791 128.152 791 127.691C791 127.231 791.141 126.831 791.412 126.5C791.684 126.17 792.016 126 792.408 126C792.8 126 793.122 126.17 793.404 126.5C793.685 126.831 793.816 127.231 793.816 127.691C793.816 128.152 793.675 128.552 793.404 128.882C793.132 129.212 792.8 129.382 792.408 129.382C792.016 129.382 791.684 129.212 791.412 128.882Z" fill="#FFC700"/>
<path d="M683.523 214.122C683.181 213.812 683 213.372 683 212.801C683 212.231 683.171 211.781 683.523 211.47C683.865 211.16 684.277 211 684.74 211C685.202 211 685.615 211.16 685.967 211.47C686.309 211.781 686.48 212.231 686.48 212.801C686.48 213.372 686.309 213.812 685.967 214.122C685.625 214.432 685.213 214.583 684.74 214.583C684.267 214.583 683.865 214.432 683.523 214.122Z" fill="#FFC700"/>
<path d="M850.523 158.122C850.181 157.812 850 157.372 850 156.801C850 156.231 850.171 155.781 850.523 155.47C850.865 155.16 851.277 155 851.74 155C852.203 155 852.615 155.16 852.967 155.47C853.309 155.781 853.48 156.231 853.48 156.801C853.48 157.372 853.309 157.812 852.967 158.122C852.625 158.432 852.213 158.583 851.74 158.583C851.267 158.583 850.865 158.432 850.523 158.122Z" fill="#FFC700"/>
<path d="M587.272 60.8513C587.091 60.6412 587 60.381 587 60.0908C587 59.7906 587.091 59.5404 587.272 59.3202C587.453 59.1001 587.664 59 587.915 59C588.167 59 588.378 59.1101 588.559 59.3202C588.74 59.5304 588.83 59.7906 588.83 60.0908C588.83 60.391 588.74 60.6412 588.559 60.8613C588.378 61.0715 588.167 61.1815 587.915 61.1815C587.664 61.1815 587.453 61.0715 587.272 60.8513Z" fill="#FFC700"/>
<path d="M602.412 194.882C602.141 194.552 602 194.152 602 193.691C602 193.231 602.141 192.831 602.412 192.5C602.684 192.17 603.016 192 603.408 192C603.8 192 604.122 192.17 604.404 192.5C604.685 192.831 604.816 193.231 604.816 193.691C604.816 194.152 604.675 194.552 604.404 194.882C604.132 195.212 603.8 195.382 603.408 195.382C603.016 195.382 602.694 195.212 602.412 194.882Z" fill="#FFC700"/>
<path d="M809.412 36.882C809.141 36.5518 809 36.1515 809 35.6912C809 35.2309 809.141 34.8306 809.412 34.5004C809.684 34.1701 810.016 34 810.408 34C810.8 34 811.122 34.1701 811.404 34.5004C811.685 34.8306 811.816 35.2309 811.816 35.6912C811.816 36.1515 811.675 36.5518 811.404 36.882C811.132 37.2123 810.8 37.3824 810.408 37.3824C810.016 37.3824 809.694 37.2123 809.412 36.882Z" fill="#FFC700"/>
<path d="M758.78 48.3102L757.874 51.5825L743 47.5297L753.479 39.5941C755.229 38.2632 756.456 37.2625 757.16 36.602C758.196 35.6413 758.87 34.6106 759.162 33.5198C759.453 32.4291 759.393 31.4083 758.951 30.4577C758.508 29.507 757.734 28.8766 756.607 28.5763C755.551 28.2861 754.546 28.4462 753.57 29.0367C752.605 29.6271 751.911 30.5777 751.508 31.8887L748.22 30.998C748.863 28.9966 749.959 27.4255 751.518 26.2847C753.228 25.0138 755.209 24.6836 757.472 25.304C759.685 25.9045 761.223 27.0753 762.068 28.8165C762.913 30.5577 763.064 32.4491 762.501 34.4905C762.048 36.1317 761.063 37.6627 759.534 39.0737C758.951 39.6241 757.502 40.7749 755.189 42.5162L750.402 46.0587L758.78 48.3102Z" fill="#FFC700"/>
<path d="M725.704 20.243C725.231 19.8227 725 19.2223 725 18.4517C725 17.6712 725.231 17.0708 725.704 16.6405C726.177 16.2101 726.73 16 727.363 16C727.997 16 728.55 16.2101 729.023 16.6405C729.496 17.0708 729.727 17.6712 729.727 18.4517C729.727 19.2323 729.496 19.8327 729.023 20.243C728.55 20.6633 727.997 20.8734 727.363 20.8734C726.73 20.8734 726.177 20.6633 725.704 20.243Z" fill="#FFC700"/>
<path d="M929.492 104.867L911.872 113.663L912.375 89.3761C912.425 88.1653 912.174 87.0044 911.611 85.8937C911.138 84.943 910.585 84.2825 909.961 83.8923C909.338 83.512 908.735 83.462 908.151 83.7522C907.447 84.1024 907.146 84.7529 907.246 85.7035C907.347 86.6542 907.618 87.5949 908.061 88.5155L901.705 91.6877C901.202 90.637 900.749 89.5763 900.347 88.5255C899.955 87.4748 899.613 86.2039 899.321 84.7128C899.029 83.2218 898.939 81.8508 899.04 80.5899C899.14 79.339 899.562 78.0982 900.307 76.8873C901.051 75.6765 902.137 74.7158 903.565 74.0053C906.18 72.7044 908.755 72.6643 911.279 73.8952C913.803 75.1261 915.976 77.5378 917.786 81.1303C918.54 82.6314 919.113 84.0724 919.506 85.4534C919.898 86.8343 920.119 88.3154 920.169 89.9065C920.22 91.4976 920.23 92.7685 920.179 93.7392C920.129 94.6999 919.998 96.1609 919.777 98.1123L924.816 95.6005L929.492 104.867Z" fill="#FFC700"/>
<path d="M1147.36 58.4773L1146.47 60.3487L1141 57.7769L1146.55 53.3838C1147.48 52.6432 1148.14 52.0929 1148.53 51.7226C1149.11 51.1822 1149.55 50.6018 1149.84 49.9814C1150.13 49.3609 1150.26 48.7705 1150.23 48.2201C1150.2 47.6697 1149.98 47.2895 1149.57 47.0993C1149.18 46.9192 1148.74 46.9893 1148.25 47.3095C1147.76 47.6297 1147.33 48.1701 1146.95 48.9106L1145.75 48.3402C1146.33 47.1994 1147.02 46.3188 1147.85 45.6783C1148.75 44.9778 1149.62 44.8177 1150.44 45.208C1151.26 45.5883 1151.7 46.2888 1151.78 47.2995C1151.86 48.3102 1151.62 49.401 1151.07 50.5718C1150.62 51.5024 1149.98 52.373 1149.13 53.1636C1148.8 53.4738 1148.02 54.1043 1146.8 55.0749L1144.28 57.0363L1147.36 58.4773Z" fill="#FFC700"/>
<path d="M1073.76 52.672L1074.07 54.2331L1069.49 55.1237L1070.92 49.87C1071.16 48.9894 1071.31 48.349 1071.38 47.9387C1071.49 47.3383 1071.49 46.7879 1071.39 46.2675C1071.29 45.7471 1071.1 45.3168 1070.83 44.9866C1070.56 44.6564 1070.25 44.5263 1069.91 44.5963C1069.58 44.6564 1069.34 44.9066 1069.18 45.3268C1069.03 45.7471 1069 46.2775 1069.12 46.908L1068.11 47.1081C1067.94 46.1374 1067.96 45.2668 1068.19 44.5063C1068.42 43.6557 1068.89 43.1653 1069.58 43.0352C1070.27 42.9051 1070.86 43.1353 1071.37 43.7257C1071.89 44.3161 1072.24 45.1067 1072.43 46.0774C1072.58 46.8579 1072.58 47.6885 1072.42 48.5691C1072.36 48.9094 1072.17 49.6599 1071.86 50.8107L1071.19 53.1724L1073.76 52.672Z" fill="#FFC700"/>
<path d="M1123.12 138.397L1121.37 143.99L1096 136.115L1114.54 123.086C1117.63 120.894 1119.81 119.243 1121.06 118.142C1122.9 116.541 1124.12 114.81 1124.7 112.949C1125.29 111.087 1125.23 109.316 1124.52 107.655C1123.82 105.994 1122.51 104.863 1120.61 104.262C1118.81 103.702 1117.06 103.902 1115.36 104.873C1113.66 105.834 1112.41 107.435 1111.64 109.656L1106.03 107.915C1107.25 104.503 1109.25 101.861 1112.01 99.9895C1115.04 97.908 1118.47 97.4577 1122.32 98.6485C1126.1 99.8194 1128.67 101.931 1130.02 104.973C1131.38 108.015 1131.51 111.277 1130.42 114.78C1129.54 117.572 1127.74 120.154 1125.03 122.505C1124 123.416 1121.43 125.307 1117.33 128.169L1108.87 133.983L1123.12 138.397Z" fill="#FFC700"/>
<path d="M1006.38 157.682L1007.79 162.946L990.702 167.459L996.816 153.469C997.49 151.928 997.923 150.777 998.104 150.016C998.285 149.266 998.285 148.545 998.104 147.855C997.882 147.014 997.44 146.344 996.786 145.854C996.132 145.363 995.398 145.233 994.574 145.453C993.98 145.613 993.518 145.904 993.196 146.334C992.864 146.764 992.693 147.244 992.663 147.795C992.643 148.335 992.653 148.796 992.693 149.176C992.733 149.556 992.804 149.916 992.894 150.257L987.343 151.718C987.101 150.737 986.991 149.726 987.001 148.696C987.011 147.665 987.182 146.584 987.514 145.443C987.845 144.312 988.509 143.282 989.515 142.371C990.521 141.46 991.808 140.8 993.397 140.38C996.022 139.689 998.234 139.939 1000.03 141.14C1001.83 142.341 1003.03 144.032 1003.61 146.224C1004.07 147.915 1004.03 149.616 1003.49 151.327C1002.96 153.039 1001.75 155.73 999.864 159.403L1006.38 157.682Z" fill="#FFC700"/>
<path d="M1067.72 132.887L1067.68 135.559L1059 135.429L1063.76 129.625C1064.28 128.985 1064.64 128.494 1064.82 128.164C1065.01 127.834 1065.1 127.494 1065.11 127.143C1065.12 126.713 1065 126.343 1064.76 126.023C1064.52 125.702 1064.19 125.542 1063.77 125.542C1063.47 125.542 1063.21 125.612 1063 125.772C1062.79 125.933 1062.64 126.143 1062.56 126.393C1062.48 126.643 1062.42 126.863 1062.39 127.053C1062.36 127.243 1062.34 127.424 1062.34 127.594L1059.52 127.554C1059.54 127.053 1059.62 126.563 1059.76 126.083C1059.91 125.602 1060.13 125.112 1060.44 124.622C1060.75 124.131 1061.19 123.731 1061.8 123.431C1062.39 123.131 1063.09 122.99 1063.9 123C1065.23 123.021 1066.24 123.431 1066.94 124.241C1067.63 125.042 1067.96 126.003 1067.95 127.113C1067.94 127.974 1067.69 128.765 1067.22 129.505C1066.73 130.246 1065.81 131.356 1064.42 132.837L1067.72 132.887Z" fill="#FFC700"/>
<path d="M1135.52 204.613L1131.72 208.536L1119 196.317L1134.2 194.285C1135.88 194.055 1137.08 193.825 1137.83 193.595C1138.57 193.365 1139.19 192.985 1139.69 192.474C1140.3 191.844 1140.64 191.133 1140.72 190.323C1140.8 189.522 1140.54 188.822 1139.93 188.231C1139.49 187.811 1139 187.571 1138.46 187.511C1137.93 187.451 1137.41 187.551 1136.93 187.811C1136.45 188.071 1136.06 188.321 1135.76 188.551C1135.45 188.782 1135.18 189.032 1134.93 189.282L1130.8 185.319C1131.52 184.609 1132.33 183.988 1133.21 183.458C1134.1 182.937 1135.12 182.517 1136.27 182.207C1137.41 181.897 1138.64 181.937 1139.95 182.317C1141.25 182.697 1142.49 183.458 1143.67 184.589C1145.62 186.46 1146.55 188.481 1146.45 190.633C1146.35 192.784 1145.51 194.676 1143.93 196.307C1142.71 197.558 1141.23 198.408 1139.49 198.849C1137.75 199.289 1134.8 199.649 1130.66 199.929L1135.52 204.613Z" fill="#FFC700"/>
<path d="M982.704 83.243C982.231 82.8227 982 82.2223 982 81.4517C982 80.6712 982.231 80.0708 982.704 79.6405C983.177 79.2102 983.73 79 984.363 79C984.997 79 985.55 79.2102 986.023 79.6405C986.496 80.0708 986.727 80.6712 986.727 81.4517C986.727 82.2323 986.496 82.8327 986.023 83.243C985.55 83.6633 984.997 83.8734 984.363 83.8734C983.73 83.8634 983.177 83.6533 982.704 83.243Z" fill="#FFC700"/>
<path d="M1086.41 116.882C1086.14 116.552 1086 116.152 1086 115.691C1086 115.231 1086.14 114.831 1086.41 114.5C1086.68 114.17 1087.02 114 1087.41 114C1087.8 114 1088.12 114.17 1088.4 114.5C1088.69 114.831 1088.82 115.231 1088.82 115.691C1088.82 116.152 1088.68 116.552 1088.4 116.882C1088.13 117.212 1087.8 117.382 1087.41 117.382C1087.02 117.382 1086.68 117.212 1086.41 116.882Z" fill="#FFC700"/>
<path d="M979.523 196.122C979.181 195.812 979 195.372 979 194.801C979 194.231 979.171 193.781 979.523 193.47C979.865 193.16 980.277 193 980.74 193C981.202 193 981.615 193.16 981.967 193.47C982.309 193.781 982.48 194.231 982.48 194.801C982.48 195.372 982.309 195.812 981.967 196.122C981.625 196.432 981.213 196.583 980.74 196.583C980.267 196.583 979.865 196.432 979.523 196.122Z" fill="#FFC700"/>
<path d="M1146.52 147.122C1146.18 146.812 1146 146.372 1146 145.801C1146 145.231 1146.17 144.781 1146.52 144.47C1146.86 144.16 1147.28 144 1147.74 144C1148.2 144 1148.61 144.16 1148.97 144.47C1149.31 144.781 1149.48 145.231 1149.48 145.801C1149.48 146.372 1149.31 146.812 1148.97 147.122C1148.62 147.432 1148.21 147.583 1147.74 147.583C1147.27 147.583 1146.86 147.432 1146.52 147.122Z" fill="#FFC700"/>
<path d="M882.272 50.8513C882.091 50.6412 882 50.381 882 50.0908C882 49.7906 882.091 49.5404 882.272 49.3202C882.453 49.1001 882.664 49 882.915 49C883.167 49 883.378 49.1101 883.559 49.3202C883.74 49.5304 883.83 49.7906 883.83 50.0908C883.83 50.391 883.74 50.6412 883.559 50.8613C883.378 51.0715 883.167 51.1815 882.915 51.1815C882.664 51.1815 882.453 51.0715 882.272 50.8513Z" fill="#FFC700"/>
<path d="M884.412 179.882C884.141 179.552 884 179.152 884 178.691C884 178.231 884.141 177.831 884.412 177.5C884.684 177.17 885.016 177 885.408 177C885.8 177 886.122 177.17 886.404 177.5C886.685 177.831 886.816 178.231 886.816 178.691C886.816 179.152 886.675 179.552 886.404 179.882C886.132 180.212 885.8 180.382 885.408 180.382C885.016 180.382 884.694 180.212 884.412 179.882Z" fill="#FFC700"/>
<path d="M1102.41 30.882C1102.14 30.5518 1102 30.1515 1102 29.6912C1102 29.2309 1102.14 28.8306 1102.41 28.5004C1102.68 28.1701 1103.02 28 1103.41 28C1103.8 28 1104.12 28.1701 1104.4 28.5004C1104.69 28.8306 1104.82 29.2309 1104.82 29.6912C1104.82 30.1515 1104.68 30.5518 1104.4 30.882C1104.13 31.2123 1103.8 31.3824 1103.41 31.3824C1103.02 31.3824 1102.69 31.2123 1102.41 30.882Z" fill="#FFC700"/>
<path d="M1029.7 14.243C1029.23 13.8227 1029 13.2223 1029 12.4517C1029 11.6712 1029.23 11.0708 1029.7 10.6405C1030.18 10.2101 1030.73 10 1031.36 10C1032 10 1032.55 10.2101 1033.02 10.6405C1033.5 11.0708 1033.73 11.6712 1033.73 12.4517C1033.73 13.2323 1033.5 13.8327 1033.02 14.243C1032.55 14.6633 1032 14.8734 1031.36 14.8734C1030.73 14.8734 1030.18 14.6633 1029.7 14.243Z" fill="#FFC700"/>
<path d="M1059.78 38.3102L1058.87 41.5825L1044 37.5297L1054.48 29.5941C1056.23 28.2632 1057.46 27.2625 1058.16 26.602C1059.2 25.6413 1059.87 24.6106 1060.16 23.5198C1060.45 22.4291 1060.39 21.4083 1059.95 20.4577C1059.51 19.507 1058.73 18.8766 1057.61 18.5763C1056.55 18.2861 1055.55 18.4462 1054.57 19.0367C1053.6 19.6271 1052.91 20.5777 1052.51 21.8887L1049.22 20.998C1049.86 18.9966 1050.96 17.4255 1052.52 16.2847C1054.23 15.0138 1056.21 14.6836 1058.47 15.304C1060.68 15.9045 1062.22 17.0753 1063.07 18.8165C1063.91 20.5577 1064.06 22.4491 1063.5 24.4905C1063.05 26.1317 1062.06 27.6627 1060.53 29.0737C1059.95 29.6241 1058.5 30.7749 1056.19 32.5162L1051.4 36.0587L1059.78 38.3102Z" fill="#FFC700"/>
<path d="M1208.49 84.867L1190.87 93.6632L1191.38 69.3761C1191.43 68.1653 1191.17 67.0044 1190.61 65.8937C1190.14 64.943 1189.59 64.2825 1188.96 63.8923C1188.34 63.512 1187.73 63.462 1187.15 63.7522C1186.45 64.1024 1186.15 64.7529 1186.25 65.7035C1186.35 66.6542 1186.62 67.5949 1187.06 68.5155L1180.7 71.6877C1180.2 70.637 1179.75 69.5763 1179.35 68.5255C1178.95 67.4748 1178.61 66.2039 1178.32 64.7128C1178.03 63.2218 1177.94 61.8508 1178.04 60.5899C1178.14 59.339 1178.56 58.0982 1179.31 56.8873C1180.05 55.6765 1181.14 54.7158 1182.57 54.0053C1185.18 52.7044 1187.75 52.6643 1190.28 53.8952C1192.8 55.1261 1194.98 57.5378 1196.79 61.1303C1197.54 62.6314 1198.11 64.0724 1198.51 65.4534C1198.9 66.8343 1199.12 68.3154 1199.17 69.9065C1199.22 71.4976 1199.23 72.7685 1199.18 73.7392C1199.13 74.6999 1199 76.1609 1198.78 78.1123L1203.82 75.6005L1208.49 84.867Z" fill="#FFC700"/>
<path d="M1423.12 111.397L1421.37 116.99L1396 109.115L1414.54 96.0858C1417.63 93.8942 1419.81 92.243 1421.06 91.1423C1422.9 89.5411 1424.12 87.8099 1424.7 85.9486C1425.29 84.0873 1425.23 82.3161 1424.52 80.6549C1423.82 78.9937 1422.51 77.8629 1420.61 77.2625C1418.81 76.7021 1417.06 76.9022 1415.36 77.8729C1413.66 78.8336 1412.41 80.4347 1411.64 82.6563L1406.03 80.9151C1407.25 77.5027 1409.25 74.8608 1412.01 72.9895C1415.04 70.908 1418.47 70.4577 1422.32 71.6485C1426.1 72.8194 1428.67 74.9309 1430.02 77.973C1431.38 81.0151 1431.51 84.2774 1430.42 87.7799C1429.54 90.5719 1427.74 93.1537 1425.03 95.5053C1424 96.416 1421.43 98.3073 1417.33 101.169L1408.87 106.983L1423.12 111.397Z" fill="#FFC700"/>
<path d="M1288.38 134.682L1289.79 139.946L1272.7 144.459L1278.82 130.469C1279.49 128.928 1279.92 127.777 1280.1 127.016C1280.28 126.266 1280.28 125.545 1280.1 124.855C1279.88 124.014 1279.44 123.344 1278.79 122.854C1278.13 122.363 1277.4 122.233 1276.57 122.453C1275.98 122.613 1275.52 122.904 1275.2 123.334C1274.86 123.764 1274.69 124.244 1274.66 124.795C1274.64 125.335 1274.65 125.796 1274.69 126.176C1274.73 126.556 1274.8 126.916 1274.89 127.257L1269.34 128.718C1269.1 127.737 1268.99 126.726 1269 125.696C1269.01 124.665 1269.18 123.584 1269.51 122.443C1269.85 121.312 1270.51 120.282 1271.51 119.371C1272.52 118.46 1273.81 117.8 1275.4 117.38C1278.02 116.689 1280.23 116.939 1282.03 118.14C1283.83 119.341 1285.03 121.032 1285.61 123.224C1286.07 124.915 1286.03 126.616 1285.49 128.327C1284.96 130.039 1283.75 132.73 1281.86 136.403L1288.38 134.682Z" fill="#FFC700"/>
<path d="M1358.72 120.887L1358.68 123.559L1350 123.429L1354.76 117.625C1355.28 116.985 1355.64 116.494 1355.82 116.164C1356.01 115.834 1356.1 115.494 1356.11 115.143C1356.12 114.713 1356 114.343 1355.76 114.023C1355.52 113.702 1355.19 113.542 1354.77 113.542C1354.47 113.542 1354.21 113.612 1354 113.772C1353.79 113.933 1353.64 114.143 1353.56 114.393C1353.48 114.643 1353.42 114.863 1353.39 115.053C1353.36 115.243 1353.34 115.424 1353.34 115.594L1350.52 115.554C1350.54 115.053 1350.62 114.563 1350.76 114.083C1350.91 113.602 1351.13 113.112 1351.44 112.622C1351.75 112.131 1352.19 111.731 1352.8 111.431C1353.39 111.131 1354.09 110.99 1354.9 111C1356.23 111.021 1357.24 111.431 1357.94 112.241C1358.63 113.042 1358.96 114.003 1358.95 115.113C1358.94 115.974 1358.69 116.765 1358.22 117.505C1357.73 118.246 1356.81 119.356 1355.42 120.837L1358.72 120.887Z" fill="#FFC700"/>
<path d="M1433.52 191.613L1429.72 195.536L1417 183.317L1432.2 181.285C1433.88 181.055 1435.08 180.825 1435.83 180.595C1436.57 180.365 1437.19 179.985 1437.69 179.474C1438.3 178.844 1438.64 178.133 1438.72 177.323C1438.8 176.522 1438.54 175.822 1437.93 175.231C1437.49 174.811 1437 174.571 1436.46 174.511C1435.93 174.451 1435.41 174.551 1434.93 174.811C1434.45 175.071 1434.06 175.321 1433.76 175.551C1433.45 175.782 1433.18 176.032 1432.93 176.282L1428.8 172.319C1429.52 171.609 1430.33 170.988 1431.21 170.458C1432.1 169.937 1433.12 169.517 1434.27 169.207C1435.41 168.897 1436.64 168.937 1437.95 169.317C1439.25 169.697 1440.49 170.458 1441.67 171.589C1443.62 173.46 1444.55 175.481 1444.45 177.633C1444.35 179.784 1443.51 181.676 1441.93 183.307C1440.71 184.558 1439.23 185.408 1437.49 185.849C1435.75 186.289 1432.8 186.649 1428.66 186.929L1433.52 191.613Z" fill="#FFC700"/>
<path d="M1279.7 64.243C1279.23 63.8227 1279 63.2223 1279 62.4517C1279 61.6712 1279.23 61.0708 1279.7 60.6405C1280.18 60.2102 1280.73 60 1281.36 60C1282 60 1282.55 60.2102 1283.02 60.6405C1283.5 61.0708 1283.73 61.6712 1283.73 62.4517C1283.73 63.2323 1283.5 63.8327 1283.02 64.243C1282.55 64.6633 1282 64.8734 1281.36 64.8734C1280.73 64.8634 1280.18 64.6533 1279.7 64.243Z" fill="#FFC700"/>
<path d="M1380.41 105.882C1380.14 105.552 1380 105.152 1380 104.691C1380 104.231 1380.14 103.831 1380.41 103.5C1380.68 103.17 1381.02 103 1381.41 103C1381.8 103 1382.12 103.17 1382.4 103.5C1382.69 103.831 1382.82 104.231 1382.82 104.691C1382.82 105.152 1382.68 105.552 1382.4 105.882C1382.13 106.212 1381.8 106.382 1381.41 106.382C1381.02 106.382 1380.68 106.212 1380.41 105.882Z" fill="#FFC700"/>
<path d="M1276.52 181.122C1276.18 180.812 1276 180.372 1276 179.801C1276 179.231 1276.17 178.781 1276.52 178.47C1276.86 178.16 1277.28 178 1277.74 178C1278.2 178 1278.61 178.16 1278.97 178.47C1279.31 178.781 1279.48 179.231 1279.48 179.801C1279.48 180.372 1279.31 180.812 1278.97 181.122C1278.62 181.432 1278.21 181.583 1277.74 181.583C1277.27 181.583 1276.86 181.432 1276.52 181.122Z" fill="#FFC700"/>
<path d="M1441.52 138.122C1441.18 137.812 1441 137.372 1441 136.801C1441 136.231 1441.17 135.781 1441.52 135.47C1441.86 135.16 1442.28 135 1442.74 135C1443.2 135 1443.61 135.16 1443.97 135.47C1444.31 135.781 1444.48 136.231 1444.48 136.801C1444.48 137.372 1444.31 137.812 1443.97 138.122C1443.62 138.432 1443.21 138.583 1442.74 138.583C1442.27 138.583 1441.86 138.432 1441.52 138.122Z" fill="#FFC700"/>
<path d="M1173.27 43.8513C1173.09 43.6412 1173 43.381 1173 43.0908C1173 42.7906 1173.09 42.5404 1173.27 42.3202C1173.45 42.1001 1173.66 42 1173.92 42C1174.17 42 1174.38 42.1101 1174.56 42.3202C1174.74 42.5304 1174.83 42.7906 1174.83 43.0908C1174.83 43.391 1174.74 43.6412 1174.56 43.8613C1174.38 44.0715 1174.17 44.1815 1173.92 44.1815C1173.66 44.1815 1173.45 44.0715 1173.27 43.8513Z" fill="#FFC700"/>
<path d="M1163.41 166.882C1163.14 166.552 1163 166.152 1163 165.691C1163 165.231 1163.14 164.831 1163.41 164.5C1163.68 164.17 1164.02 164 1164.41 164C1164.8 164 1165.12 164.17 1165.4 164.5C1165.69 164.831 1165.82 165.231 1165.82 165.691C1165.82 166.152 1165.68 166.552 1165.4 166.882C1165.13 167.212 1164.8 167.382 1164.41 167.382C1164.02 167.382 1163.69 167.212 1163.41 166.882Z" fill="#FFC700"/>
<path d="M1434.36 43.4773L1433.47 45.3487L1428 42.7769L1433.55 38.3838C1434.48 37.6432 1435.14 37.0929 1435.53 36.7226C1436.11 36.1822 1436.55 35.6018 1436.84 34.9814C1437.13 34.3609 1437.26 33.7705 1437.23 33.2201C1437.2 32.6697 1436.98 32.2895 1436.57 32.0993C1436.18 31.9192 1435.74 31.9893 1435.25 32.3095C1434.76 32.6297 1434.33 33.1701 1433.95 33.9106L1432.75 33.3402C1433.33 32.1994 1434.02 31.3188 1434.85 30.6783C1435.75 29.9778 1436.62 29.8177 1437.44 30.208C1438.26 30.5883 1438.7 31.2888 1438.78 32.2995C1438.86 33.3102 1438.62 34.401 1438.07 35.5718C1437.62 36.5024 1436.98 37.373 1436.13 38.1636C1435.8 38.4738 1435.02 39.1043 1433.8 40.0749L1431.28 42.0363L1434.36 43.4773Z" fill="#FFC700"/>
<path d="M1392.41 14.882C1392.14 14.5518 1392 14.1515 1392 13.6912C1392 13.2309 1392.14 12.8306 1392.41 12.5004C1392.68 12.1701 1393.02 12 1393.41 12C1393.8 12 1394.12 12.1701 1394.4 12.5004C1394.69 12.8306 1394.82 13.2309 1394.82 13.6912C1394.82 14.1515 1394.68 14.5518 1394.4 14.882C1394.13 15.2123 1393.8 15.3824 1393.41 15.3824C1393.02 15.3824 1392.69 15.2123 1392.41 14.882Z" fill="#FFC700"/>
<path d="M1360.76 37.672L1361.07 39.2331L1356.49 40.1237L1357.92 34.87C1358.16 33.9894 1358.31 33.349 1358.38 32.9387C1358.49 32.3383 1358.49 31.7879 1358.39 31.2675C1358.29 30.7471 1358.1 30.3168 1357.83 29.9866C1357.56 29.6564 1357.25 29.5263 1356.91 29.5963C1356.58 29.6564 1356.34 29.9066 1356.18 30.3268C1356.03 30.7471 1356 31.2775 1356.12 31.908L1355.11 32.1081C1354.94 31.1374 1354.96 30.2668 1355.19 29.5063C1355.42 28.6557 1355.89 28.1653 1356.58 28.0352C1357.27 27.9051 1357.86 28.1353 1358.37 28.7257C1358.89 29.3161 1359.24 30.1067 1359.43 31.0774C1359.58 31.8579 1359.58 32.6885 1359.42 33.5691C1359.36 33.9094 1359.17 34.6599 1358.86 35.8107L1358.19 38.1724L1360.76 37.672Z" fill="#FFC700"/>
<path d="M1350.78 23.3102L1349.87 26.5825L1335 22.5297L1345.48 14.5941C1347.23 13.2632 1348.46 12.2625 1349.16 11.602C1350.2 10.6413 1350.87 9.61059 1351.16 8.51982C1351.45 7.42905 1351.39 6.40833 1350.95 5.45766C1350.51 4.507 1349.73 3.87655 1348.61 3.57634C1347.55 3.28614 1346.55 3.44625 1345.57 4.03666C1344.6 4.62708 1343.91 5.57775 1343.51 6.88867L1340.22 5.99805C1340.86 3.99664 1341.96 2.42553 1343.52 1.28473C1345.23 0.0138322 1347.21 -0.316401 1349.47 0.304036C1351.68 0.904459 1353.22 2.07528 1354.07 3.81651C1354.91 5.55774 1355.06 7.44907 1354.5 9.4905C1354.05 11.1317 1353.06 12.6627 1351.53 14.0737C1350.95 14.6241 1349.5 15.7749 1347.19 17.5162L1342.4 21.0587L1350.78 23.3102Z" fill="#FFC700"/>
<path d="M1301.7 4.24299C1301.23 3.82269 1301 3.22227 1301 2.45173C1301 1.67118 1301.23 1.07075 1301.7 0.640451C1302.18 0.210148 1302.73 0 1303.36 0C1304 0 1304.55 0.210148 1305.02 0.640451C1305.5 1.07075 1305.73 1.67118 1305.73 2.45173C1305.73 3.23228 1305.5 3.8327 1305.02 4.24299C1304.55 4.66328 1304 4.87343 1303.36 4.87343C1302.73 4.87343 1302.18 4.66328 1301.7 4.24299Z" fill="#FFC700"/>
</svg>
