<svg width="114" height="1860" viewBox="0 0 114 1860" fill="none" xmlns="http://www.w3.org/2000/svg">
<path fill-rule="evenodd" clip-rule="evenodd" d="M29.7316 0L0 60.5346L29.6546 115.461L1.18 177.71L29.81 227.778L0 309.622L29.81 379.919L0 433.837L29.81 499.322L0 547.466L29.81 617.753L0 673.069L29.81 733.277L1.18 789.15L29.81 871.966L0 932.66L29.6545 987.587L1.18 1049.84L29.81 1099.9L0 1181.75L29.81 1252.04L0 1305.96L29.81 1371.45L0 1419.59L29.81 1489.88L0 1545.19L29.81 1605.4L1.18 1661.28L29.81 1744.09L0 1804.79L29.81 1860H113.49L83.68 1804.79L113.49 1744.09L84.86 1661.28L113.49 1605.4L83.68 1545.19L113.49 1489.88L83.68 1419.59L113.49 1371.45L83.68 1305.96L113.49 1252.04L83.68 1181.75L113.49 1099.9L84.86 1049.84L113.203 987.875H113.49L113.334 987.587L113.402 987.439H113.255L83.68 932.66L113.49 871.966L84.86 789.15L113.49 733.277L83.68 673.069L113.49 617.753L83.68 547.466L113.49 499.322L83.68 433.837L113.49 379.919L83.68 309.622L113.49 227.778L84.86 177.71L113.203 115.749H113.49L113.335 115.461L113.402 115.314H113.255L83.68 60.5346L113.412 0H29.7316Z" fill="#866AE1"/>
</svg>
