<svg width="104" height="80" viewBox="0 0 104 80" fill="none" xmlns="http://www.w3.org/2000/svg">
<path fill-rule="evenodd" clip-rule="evenodd" d="M54.6852 3L54.6596 0.10954L60.0371 0L60.0607 3H60.2341L61.6829 2.43727L61.6997 4.50179H74.5959V6H77.275V11.5157L78.8521 10.9373V12H88.275V15.9297H91.93V16H95.275V23.8795L98.99 22.9797V35.6997H103.93V45.0597L93.34 44.8697L94.76 62.5197V73.5097C91.31 73.1397 87.87 72.6397 84.46 71.9497L86.29 55.4597H78.53L77.82 48.3997H76.3889L76.3127 49.546H76.302V57.0629C74.9049 56.8361 73.5106 56.5557 72.1226 56.2051L72.7377 64.5987C70.682 65.2285 68.6081 65.685 66.5283 66.0227V55.9906L66.6707 53.3077L65.6029 53.2831L65.7468 55.9906V66.0227C65.2586 65.9434 64.7707 65.8576 64.2834 65.7645L64.5038 69.2816V79.2735C62.0598 78.9371 59.6228 78.4825 57.2071 77.8552L58.5035 62.8629H53.0062L52.5033 56.4441H50.7468V66.0227C48.6669 65.6849 46.5931 65.2285 44.5373 64.5987L45.6405 49.546H40.9623L40.7191 45.8844L39.8907 45.8619L40.7468 61.9735V72.0056C38.6669 71.6678 36.5931 71.2114 34.5373 70.5816L35.6405 55.5289H31.2481L31.2562 55.639C29.2004 56.2689 27.1266 56.7253 25.0467 57.063V55.4597H18.21L20.04 71.9497C16.63 72.6397 13.19 73.1397 9.74001 73.5097V62.5197L11.16 44.8697L0.570007 45.0597V35.6997H5.50999V22.9797L12.57 24.6897V15.9297H22.4966V10.9374L23.9781 11.4808V11.3026L26.7528 11.9829V4.5019H38.5472L38.5284 2.3825L43.9059 2.27296L43.9274 5H44.8057L45.5518 4.71023L45.5541 5H46.2344V3H46.584L46.5584 0.10954L51.9359 0L51.9595 3H52.1329L53.5817 2.43727L53.5863 3H54.6852Z" fill="#FFCD00"/>
</svg>
