<svg width="929" height="295" viewBox="0 0 929 295" fill="none" xmlns="http://www.w3.org/2000/svg">
<path fill-rule="evenodd" clip-rule="evenodd" d="M462.843 4.84761L462.87 7.05975L466.14 7.01522L466.05 0.21787L482.047 0L482.119 6.10036L486.944 4.84761L486.994 8.95381H525.358V17.8495H533.329V22.9041L538.02 21.7537V26.7743H548.203V35.699H566.053V47.3903H576.927V47.5987H586.877V71.0405L597.93 68.3635V106.204H612.626V134.05L581.121 133.484L585.345 185.983L585.604 185.986L585.346 205.509V218.686C583.129 218.448 580.913 218.193 578.7 217.917L577.731 228.398L573.175 228.344L572.135 237.567L562.092 237.44L564.172 259.064C559.742 259.899 555.294 260.498 550.829 260.916L551.026 246.518L553.178 223.442L539.476 223.496L539.637 211.241L546.022 211.332L546.237 194.701L555.33 197.061L555.474 185.587L557.859 185.619L560.148 164.989H537.063L534.951 143.986H524.449L524.103 139.657C522.473 139.869 520.841 140.063 519.207 140.24V128.61C513.296 129.797 507.335 130.667 501.358 131.316V120.256C500.584 120.397 499.809 120.533 499.033 120.665V131.316C497.581 131.158 496.129 130.987 494.68 130.802L495.335 137.797V157.671C488.065 157.002 480.815 156.097 473.628 154.85L477.485 125.031H461.131L460.463 119.333C460.212 119.361 459.96 119.389 459.709 119.416V112.899L459.635 112.264H454.409V131.316C448.222 130.644 442.052 129.736 435.937 128.483L436.787 120.724C436.711 120.71 436.635 120.696 436.558 120.682L436.451 120.662L436.745 117.659C432.629 118.36 428.495 118.923 424.352 119.379L424.66 123.262V143.215C418.473 142.543 412.303 141.636 406.187 140.383L408.557 118.77C406.768 119.007 404.978 119.221 403.186 119.416V110.444H399.509L400.834 122.533C398.874 122.935 396.909 123.301 394.94 123.635L393.314 143.986H382.812L380.7 164.989H357.615L363.059 214.045C352.915 216.098 342.681 217.585 332.417 218.686V185.992L336.642 133.484L305.137 134.05V106.204H319.833V68.3635L340.836 73.4506V47.3903H361.508V44.848H370.367V21.7538L383.029 24.8584V8.95393H418.116L418.061 4.73851L434.058 4.52064L434.13 10.621L438.954 9.36825L439.02 14.7194L440.985 14.6926V8.92476H442.065L441.95 0.21787L457.947 0L458.019 6.10036L462.843 4.84761ZM519.104 121.851L519.207 122.798V121.839C519.173 121.843 519.138 121.847 519.104 121.851ZM691.874 262.08L688.234 242.462L679.879 211.402L698.616 208.275L695.516 191.567L686.805 193.183L682.594 170.495L670.711 175.858L667.809 160.22L626.741 167.841L631.885 195.564L639.127 192.909L647.46 223.955L653.685 222.8L657.275 235.17L670.959 232.631L673.195 262.666C679.436 262.782 685.668 262.549 691.874 262.08ZM911.71 265.782V285.736C905.523 285.064 899.353 284.156 893.237 282.903L896.52 252.964H882.602L881.329 240.146H874.998L872.469 208.101L864.865 209.39V181.194H906.635V197.099L919.297 193.994V217.07H928.156V234.064L909.163 233.719L911.71 265.782ZM184.423 295V275.047L186.97 242.984L167.977 243.329V226.335H176.837V203.259L189.499 206.363V190.459H231.268V218.655L223.664 217.366L221.135 249.411H214.804L213.531 262.229H199.614L202.896 292.168C196.78 293.42 190.61 294.328 184.423 295ZM6.1516 225.823L6.04399 233.467C8.41138 233.249 10.7788 232.922 13.1282 232.486L12.0163 220.993L17.3429 221.066L17.8988 216.164L20.32 216.2L21.4499 203.945L24.3553 204.472L24.4988 193.669L8.50105 193.451L8.42931 199.551L3.58694 198.299L3.47933 207.141L0.0896735 207.086L0 213.604L7.28149 213.568L6.1516 225.823Z" fill="#FFCD00"/>
</svg>
