<svg width="114" height="931" viewBox="0 0 114 931" fill="none" xmlns="http://www.w3.org/2000/svg">
<path d="M29.81 0H84.45L113.49 68.81L84.86 130.6L113.49 180.03L83.68 260.83L113.49 330.23L83.68 383.46L113.49 448.11L83.68 495.64L113.49 565.03L83.68 619.64L113.49 679.08L84.86 734.24L113.49 816L83.68 875.92L113.49 930.43H29.81L0 875.92L29.81 816L1.18 734.24L29.81 679.08L0 619.64L29.81 565.03L0 495.64L29.81 448.11L0 383.46L29.81 330.23L0 260.83L29.81 180.03L1.18 130.6L29.81 68.81L0.76 0H29.81Z" fill="#866AE1"/>
</svg>
