<?xml version="1.0" encoding="utf-8"?>
<!-- Generator: Adobe Illustrator 24.1.1, SVG Export Plug-In . SVG Version: 6.00 Build 0)  -->
<svg version="1.1" id="Слой_1" xmlns="http://www.w3.org/2000/svg" xmlns:xlink="http://www.w3.org/1999/xlink" x="0px" y="0px"
	 viewBox="0 0 1572.93 542.91" style="enable-background:new 0 0 1572.93 542.91;" xml:space="preserve">
<style type="text/css">
	.st0{fill:#FFFFFF;}
</style>
<g id="Слой_1_1_">
</g>
<g id="Слой_3">
</g>
<g id="Слой_4">
</g>
<g id="Слой_2_1_">
	<polygon class="st0" points="1459.04,519.36 1294.41,170.84 1149.5,12.25 416.66,12.25 59.45,483.18 91.29,483.18 91.34,447.74 
		165.52,449.88 167.4,514.96 207.05,514.96 208.42,429.8 306.5,428.43 306.5,491.76 392.12,491.76 392.27,445.78 490.89,447.07 
		490.89,470.64 592.37,467.89 594.65,505.21 983.76,505.21 984.01,489.83 1082.08,488.46 1082.08,529.13 1167.78,529.13 
		1167.85,505.81 1266.47,507.09 1266.47,530.66 1283.82,530.2 1284.97,457.42 1383.06,456.05 1383.06,519.36 	"/>
</g>
</svg>
